<svg width="494" height="460" viewBox="0 0 494 460" fill="none" xmlns="http://www.w3.org/2000/svg">
<g filter="url(#filter0_b_376_3609)">
<mask id="path-1-inside-1_376_3609" fill="white">
<path d="M365.561 456.17C367.349 459.325 371.361 460.44 374.467 458.568C418.593 431.984 453.355 392.23 473.802 344.826C495.116 295.41 499.708 240.385 486.88 188.12C474.051 135.855 444.503 89.2099 402.731 55.2791C360.959 21.3483 309.247 1.98879 255.462 0.145006C201.677 -1.69878 148.762 14.0741 104.764 45.0646C60.7661 76.0551 28.0936 120.567 11.7158 171.831C-4.66205 223.095 -3.84893 278.306 14.0315 329.065C31.1838 377.758 63.1416 419.799 105.344 449.343C108.314 451.422 112.394 450.585 114.393 447.56L144.454 402.095C146.454 399.07 145.615 395.007 142.665 392.898C112.746 371.502 90.0801 341.386 77.8241 306.594C64.8398 269.733 64.2493 229.641 76.1425 192.414C88.0356 155.188 111.762 122.864 143.712 100.36C175.662 77.855 214.088 66.4012 253.145 67.7401C292.202 69.079 329.754 83.1374 360.088 107.777C390.422 132.417 411.879 166.289 421.195 204.243C430.51 242.197 427.176 282.154 411.698 318.039C397.088 351.911 372.413 380.404 341.098 399.7C338.011 401.603 336.896 405.599 338.684 408.753L365.561 456.17Z"/>
</mask>
<path d="M365.561 456.17C367.349 459.325 371.361 460.44 374.467 458.568C418.593 431.984 453.355 392.23 473.802 344.826C495.116 295.41 499.708 240.385 486.88 188.12C474.051 135.855 444.503 89.2099 402.731 55.2791C360.959 21.3483 309.247 1.98879 255.462 0.145006C201.677 -1.69878 148.762 14.0741 104.764 45.0646C60.7661 76.0551 28.0936 120.567 11.7158 171.831C-4.66205 223.095 -3.84893 278.306 14.0315 329.065C31.1838 377.758 63.1416 419.799 105.344 449.343C108.314 451.422 112.394 450.585 114.393 447.56L144.454 402.095C146.454 399.07 145.615 395.007 142.665 392.898C112.746 371.502 90.0801 341.386 77.8241 306.594C64.8398 269.733 64.2493 229.641 76.1425 192.414C88.0356 155.188 111.762 122.864 143.712 100.36C175.662 77.855 214.088 66.4012 253.145 67.7401C292.202 69.079 329.754 83.1374 360.088 107.777C390.422 132.417 411.879 166.289 421.195 204.243C430.51 242.197 427.176 282.154 411.698 318.039C397.088 351.911 372.413 380.404 341.098 399.7C338.011 401.603 336.896 405.599 338.684 408.753L365.561 456.17Z" fill="url(#paint0_linear_376_3609)"/>
<path d="M365.561 456.17C367.349 459.325 371.361 460.44 374.467 458.568C418.593 431.984 453.355 392.23 473.802 344.826C495.116 295.41 499.708 240.385 486.88 188.12C474.051 135.855 444.503 89.2099 402.731 55.2791C360.959 21.3483 309.247 1.98879 255.462 0.145006C201.677 -1.69878 148.762 14.0741 104.764 45.0646C60.7661 76.0551 28.0936 120.567 11.7158 171.831C-4.66205 223.095 -3.84893 278.306 14.0315 329.065C31.1838 377.758 63.1416 419.799 105.344 449.343C108.314 451.422 112.394 450.585 114.393 447.56L144.454 402.095C146.454 399.07 145.615 395.007 142.665 392.898C112.746 371.502 90.0801 341.386 77.8241 306.594C64.8398 269.733 64.2493 229.641 76.1425 192.414C88.0356 155.188 111.762 122.864 143.712 100.36C175.662 77.855 214.088 66.4012 253.145 67.7401C292.202 69.079 329.754 83.1374 360.088 107.777C390.422 132.417 411.879 166.289 421.195 204.243C430.51 242.197 427.176 282.154 411.698 318.039C397.088 351.911 372.413 380.404 341.098 399.7C338.011 401.603 336.896 405.599 338.684 408.753L365.561 456.17Z" stroke="url(#paint1_linear_376_3609)" stroke-width="2" mask="url(#path-1-inside-1_376_3609)"/>
</g>
<defs>
<filter id="filter0_b_376_3609" x="-32" y="-32" width="558" height="523.479" filterUnits="userSpaceOnUse" color-interpolation-filters="sRGB">
<feFlood flood-opacity="0" result="BackgroundImageFix"/>
<feGaussianBlur in="BackgroundImageFix" stdDeviation="16"/>
<feComposite in2="SourceAlpha" operator="in" result="effect1_backgroundBlur_376_3609"/>
<feBlend mode="normal" in="SourceGraphic" in2="effect1_backgroundBlur_376_3609" result="shape"/>
</filter>
<linearGradient id="paint0_linear_376_3609" x1="19" y1="-0.000122002" x2="544.976" y2="33.4162" gradientUnits="userSpaceOnUse">
<stop offset="0.0001" stop-color="white" stop-opacity="0.16"/>
<stop offset="1" stop-color="white" stop-opacity="0"/>
</linearGradient>
<linearGradient id="paint1_linear_376_3609" x1="247" y1="0" x2="247" y2="494" gradientUnits="userSpaceOnUse">
<stop stop-color="white" stop-opacity="0.4"/>
<stop offset="0.901042" stop-color="white" stop-opacity="0.08"/>
</linearGradient>
</defs>
</svg>
