<svg width="495" height="401" viewBox="0 0 495 401" fill="none" xmlns="http://www.w3.org/2000/svg">
<g clip-path="url(#clip0_376_10534)">
<path d="M350.54 175.337L359.379 181.22C359.379 181.22 391.696 181.22 418.074 192.848C418.074 192.848 418.074 428.433 394.596 457.573C394.596 457.573 262.428 451.69 209.533 402.302C209.533 402.302 191.441 229.513 252.899 186.829C266.986 177.115 321.123 181.083 321.123 181.083L350.54 175.337Z" fill="url(#paint0_linear_376_10534)"/>
<mask id="mask0_376_10534" style="mask-type:luminance" maskUnits="userSpaceOnUse" x="207" y="175" width="212" height="283">
<path d="M350.54 175.337L359.379 181.22C359.379 181.22 391.696 181.22 418.074 192.848C418.074 192.848 418.074 428.433 394.596 457.573C394.596 457.573 262.428 451.69 209.533 402.302C209.533 402.302 191.441 229.513 252.899 186.829C266.986 177.115 321.123 181.083 321.123 181.083L350.54 175.337Z" fill="white"/>
</mask>
<g mask="url(#mask0_376_10534)">
<path d="M277.068 175.337C277.068 175.337 285.906 211.455 329.686 205.298L337.834 196.542L337.558 206.393C337.558 206.393 413.793 225.683 408.407 186.692C403.021 147.839 275.272 126.633 277.068 175.337Z" fill="url(#paint1_linear_376_10534)"/>
</g>
<mask id="mask1_376_10534" style="mask-type:luminance" maskUnits="userSpaceOnUse" x="207" y="175" width="212" height="283">
<path d="M350.54 175.337L359.379 181.22C359.379 181.22 391.696 181.22 418.074 192.848C418.074 192.848 418.074 428.433 394.596 457.573C394.596 457.573 262.428 451.69 209.533 402.302C209.533 402.302 191.441 229.513 252.899 186.829C266.986 177.115 321.123 181.083 321.123 181.083L350.54 175.337Z" fill="white"/>
</mask>
<g mask="url(#mask1_376_10534)">
<path d="M411.859 250.855C411.859 250.855 395.287 277.533 398.049 293.95C403.021 323.364 411.859 326.374 408.959 333.214C405.921 340.054 408.959 350.862 408.959 350.862L436.719 336.087L441.69 279.175C441.552 279.311 423.737 241.963 411.859 250.855Z" fill="url(#paint2_linear_376_10534)"/>
</g>
<path d="M442.934 326.237C442.934 326.237 431.747 309.273 420.008 288.751C435.338 272.334 457.573 271.24 467.655 271.65C478.289 297.234 487.818 325.279 492.238 348.947C492.238 348.947 478.151 387.39 331.896 369.879L321.262 347.169C321.4 347.169 412.964 341.833 442.934 326.237Z" fill="#814146"/>
<path d="M339.273 371.494L292.041 255.754C290.522 251.924 286.655 249.324 282.373 249.324H83.0857C77.8376 249.324 74.385 254.523 76.4566 259.311L130.871 385.996H418.685L415.922 375.735L339.273 371.494Z" fill="url(#paint3_linear_376_10534)"/>
<mask id="mask2_376_10534" style="mask-type:luminance" maskUnits="userSpaceOnUse" x="75" y="249" width="344" height="137">
<path d="M339.273 371.494L292.041 255.754C290.522 251.924 286.655 249.324 282.373 249.324H83.0857C77.8376 249.324 74.385 254.523 76.4566 259.311L130.871 385.996H418.685L415.922 375.735L339.273 371.494Z" fill="white"/>
</mask>
<g mask="url(#mask2_376_10534)">
<path opacity="0.56" d="M340.378 359.455C340.378 360.413 339.411 371.221 339.411 371.221L353.222 402.55L403.769 409.39L430.561 392.7L424.623 372.041L404.874 362.191L340.378 359.455Z" fill="url(#paint4_linear_376_10534)"/>
</g>
<path d="M310.076 182.998C317.671 192.164 328.306 200.647 340.597 201.741C354.546 202.972 366.975 195.174 378.162 187.923C378.991 187.376 378.162 186.008 377.333 186.555C366.975 193.259 355.789 200.51 343.083 200.373C330.101 200.236 319.052 191.48 311.318 182.041C310.49 181.083 309.385 182.177 310.076 182.998Z" fill="#637DD1"/>
<path d="M315.599 127.043C315.599 127.043 325.819 153.174 302.617 180.809C302.617 180.809 303.032 198.184 329.824 205.435C356.617 212.686 381.2 183.819 381.2 183.819C381.2 183.819 355.236 165.487 372.223 104.744L315.599 127.043Z" fill="#814146"/>
<mask id="mask3_376_10534" style="mask-type:luminance" maskUnits="userSpaceOnUse" x="302" y="104" width="80" height="103">
<path d="M315.599 127.043C315.599 127.043 325.819 153.174 302.617 180.809C302.617 180.809 303.032 198.184 329.824 205.435C356.617 212.686 381.2 183.819 381.2 183.819C381.2 183.819 355.236 165.487 372.223 104.744L315.599 127.043Z" fill="white"/>
</mask>
<g mask="url(#mask3_376_10534)">
<path opacity="0.44" d="M308.279 139.903C308.279 139.903 345.844 147.017 354.683 115.962C361.727 92.0203 286.873 82.4437 308.279 139.903Z" fill="#814146"/>
</g>
<path d="M376.505 98.861C376.505 98.861 390.177 107.343 396.806 93.9359C403.435 80.5286 390.868 76.1508 390.868 76.1508C390.868 76.1508 406.888 65.6165 400.673 45.9161C394.597 26.2156 372.362 28.5414 368.771 32.6456C368.771 32.6456 363.108 14.0397 350.126 10.6195C337.144 7.19924 334.106 21.1537 334.106 21.1537C334.106 21.1537 317.395 -2.78779 295.298 1.45328C273.339 5.69434 264.086 34.2873 283.007 48.7891C283.007 48.7891 271.268 51.5252 273.892 66.0269C276.516 80.3918 307.037 85.4538 307.037 85.4538C307.037 85.4538 351.369 121.845 376.505 98.861Z" fill="#25293A"/>
<path d="M363.384 111.584C363.384 111.584 386.862 110.763 383.962 92.4309C381.476 76.2874 368.356 85.3168 361.589 97.9032C360.484 99.9553 357.307 99.8185 356.341 97.7664C353.855 92.4309 351.231 84.2223 354.269 78.3396C356.479 74.2353 355.098 70.6783 352.888 67.3949C347.364 58.7759 337.973 53.3036 327.615 52.6196C314.218 51.7987 298.198 53.4404 294.331 65.0691C294.331 65.0691 279.83 115.278 306.07 130.874C332.448 146.333 363.384 111.584 363.384 111.584Z" fill="#814146"/>
<path d="M326.095 84.496C325.681 87.9162 324.3 90.5155 323.057 90.3787C321.814 90.2419 321.262 87.3689 321.676 83.9487C322.09 80.5285 323.471 77.9291 324.714 78.066C325.957 78.3396 326.51 81.0757 326.095 84.496Z" fill="#1F221D"/>
<path d="M304.966 82.4439C304.551 85.8642 303.17 88.4635 301.927 88.3267C300.684 88.1899 300.132 85.3169 300.546 81.8967C300.961 78.4765 302.342 75.8771 303.585 76.0139C304.689 76.1508 305.38 79.0237 304.966 82.4439Z" fill="#1F221D"/>
<path d="M308.004 111.858C308.004 111.858 316.428 112.405 325.267 107.48C325.267 107.48 328.444 118.288 318.914 120.066C309.385 122.118 308.004 111.858 308.004 111.858Z" fill="#F5EDE5"/>
<path d="M323.195 98.5874C320.571 97.4929 318.223 95.4408 316.704 92.5678C314.632 88.874 313.942 84.2225 314.771 79.7078C315.599 75.0563 317.809 70.952 320.985 68.2159C324.162 65.3429 328.029 64.1116 331.758 64.7957C335.487 65.4797 338.801 67.8054 340.873 71.6361C342.944 75.3299 343.635 79.9814 342.806 84.4961C341.978 89.1476 339.768 93.2518 336.591 95.988C333.415 98.861 329.548 100.092 325.819 99.4082C324.852 99.1346 324.024 98.861 323.195 98.5874ZM333.967 66.1637C333.277 65.8901 332.448 65.6165 331.62 65.4797C328.167 64.9325 324.576 66.0269 321.538 68.7631C318.499 71.4993 316.428 75.3299 315.599 79.8446C314.909 84.2225 315.461 88.6003 317.533 92.1574C319.466 95.7144 322.505 97.9033 325.957 98.4506C329.41 98.9978 333.001 97.9033 336.039 95.1672C339.077 92.431 341.149 88.6004 341.978 84.0857C342.668 79.7078 342.116 75.3299 340.044 71.7729C338.525 69.1735 336.453 67.1214 333.967 66.1637Z" fill="#B2FFBC"/>
<path d="M290.766 99.1846C288.142 98.0901 285.794 96.038 284.275 93.165C282.204 89.4711 281.513 84.8196 282.342 80.305C283.17 75.6535 285.38 71.5492 288.557 68.813C291.733 65.9401 295.6 64.7088 299.329 65.3928C303.058 66.0769 306.372 68.4026 308.444 72.2333C310.516 75.9271 311.206 80.5786 310.377 85.0933C309.549 89.7448 307.339 93.849 304.163 96.5852C300.986 99.4582 297.119 100.689 293.39 100.005C292.424 99.7318 291.595 99.4582 290.766 99.1846ZM301.401 66.7609C300.71 66.4873 299.881 66.2137 299.053 66.0769C295.6 65.5296 292.009 66.6241 288.971 69.3603C285.933 72.0964 283.861 75.9271 283.032 80.4418C282.342 84.8196 282.894 89.1975 284.966 92.7545C286.899 96.3116 289.938 98.5005 293.39 99.0477C296.843 99.595 300.434 98.5005 303.472 95.7643C306.51 93.0282 308.582 89.1975 309.411 84.6828C310.101 80.305 309.549 75.9271 307.477 72.3701C305.958 69.6339 303.886 67.7186 301.401 66.7609Z" fill="#B2FFBC"/>
<path d="M342.693 79.1987L342.392 79.9634L367.609 89.7104L367.91 88.9457L342.693 79.1987Z" fill="#B2FFBC"/>
<path d="M311.733 78.3397L311.042 77.7925C311.871 76.9717 312.699 76.4244 313.528 76.5612C314.909 76.5612 315.876 77.6557 315.876 77.7925L315.185 78.3397C315.185 78.3397 314.495 77.5189 313.528 77.5189C312.975 77.2453 312.285 77.6557 311.733 78.3397Z" fill="#B2FFBC"/>
<path d="M331.481 205.435C331.481 205.435 379.266 186.418 370.98 168.907C370.98 168.907 396.668 166.308 402.054 187.103C407.44 208.034 345.154 214.327 331.481 205.435Z" fill="url(#paint5_linear_376_10534)"/>
<path d="M331.481 205.435C331.481 205.435 300.546 187.787 306.622 175.337C306.622 175.337 310.627 170.549 311.318 167.676C311.318 167.676 303.86 169.181 300.269 172.738C296.679 176.295 286.873 175.2 286.873 179.305C286.873 183.272 302.893 210.634 331.481 205.435Z" fill="url(#paint6_linear_376_10534)"/>
<path d="M469.312 265.22C454.811 235.122 435.752 205.572 428.709 198.868C411.86 182.451 406.474 206.256 406.474 206.256C406.474 206.256 397.083 200.51 393.492 223.22C392.525 229.787 395.563 243.604 400.811 258.79C399.292 259.611 398.464 260.158 398.464 260.158C398.464 260.158 415.451 314.335 440.034 327.468C440.034 327.468 453.016 393.684 495 349.494C495 349.631 489.2 301.064 469.312 265.22Z" fill="url(#paint7_linear_376_10534)"/>
<path d="M423.185 333.214C423.185 333.214 428.018 322.133 440.448 325.69C453.016 329.247 453.844 346.074 465.445 352.231C477.046 358.387 478.013 365.501 465.445 369.879C453.016 374.394 434.509 355.924 423.185 333.214Z" fill="url(#paint8_linear_376_10534)"/>
<path d="M375.746 112.702C383.374 112.702 389.557 104.801 389.557 95.0538C389.557 85.3069 383.374 77.4055 375.746 77.4055C368.119 77.4055 361.936 85.3069 361.936 95.0538C361.936 104.801 368.119 112.702 375.746 112.702Z" fill="#3DB206"/>
<path d="M376.643 110.49C383.508 110.49 389.073 103.446 389.073 94.7567C389.073 86.0676 383.508 79.0237 376.643 79.0237C369.779 79.0237 364.214 86.0676 364.214 94.7567C364.214 103.446 369.779 110.49 376.643 110.49Z" fill="#155F60"/>
<path d="M362.832 20.8799C362.832 20.8799 383.962 61.6489 372.085 84.2223H379.267C379.267 84.2223 391.42 54.2612 379.267 30.0461C379.267 29.9093 373.328 15.4076 362.832 20.8799Z" fill="#155F60"/>
<path d="M340.736 129.232C333.831 129.232 328.582 128.275 328.444 128.275L328.859 126.359C329.135 126.359 354.546 131.011 367.943 119.245C374.158 113.773 376.92 105.701 376.091 95.0301L378.025 94.8933C378.853 106.248 375.815 114.867 369.186 120.75C361.728 127.317 350.956 128.959 343.36 129.232C342.531 129.232 341.564 129.232 340.736 129.232Z" fill="#155F60"/>
<path d="M331.62 127.317C331.62 128.959 328.996 130.327 325.682 130.327C322.367 130.327 319.743 128.959 319.743 127.317C319.743 125.675 322.367 124.307 325.682 124.307C328.996 124.307 331.62 125.675 331.62 127.317Z" fill="#25293A"/>
<path d="M376.643 106.522C381.753 106.522 385.896 101.255 385.896 94.7567C385.896 88.2588 381.753 82.9912 376.643 82.9912C371.532 82.9912 367.39 88.2588 367.39 94.7567C367.39 101.255 371.532 106.522 376.643 106.522Z" fill="#399944"/>
<path d="M178.156 328.088L179.22 329.227C179.388 329.394 179.646 329.467 179.786 329.375C180.893 328.592 185.183 325.62 185.906 325.653C189.235 325.859 180.358 323.447 180.358 323.447L178.156 328.088Z" fill="url(#paint9_linear_376_10534)"/>
<path d="M193.766 325.146L195.059 327.625C195.059 327.625 195.648 328.595 195.966 328.505C196.285 328.415 197.235 328.451 197.257 327.935C197.279 327.419 196.411 325.179 196.411 325.179L193.766 325.146Z" fill="url(#paint10_linear_376_10534)"/>
<path d="M209.434 327.436C209.434 327.436 213.312 329.081 214.253 329.914C214.377 330.033 214.549 330.082 214.683 330.037C215.392 329.718 214.406 326.491 214.406 326.491L209.434 327.436Z" fill="url(#paint11_linear_376_10534)"/>
<path d="M181.038 331.08C182.912 327.843 186.216 326.665 190.345 326.6C190.599 326.604 190.876 326.725 191.088 326.938C191.512 327.366 194.223 329.841 194.567 330.385C197.02 335.131 197.12 338.3 194.049 339.363C193.765 339.477 193.383 339.472 192.989 339.373C191.145 338.88 187.955 337.361 185.124 335.284C183.621 334.186 182.4 332.903 181.188 331.645C181.011 331.455 180.951 331.243 181.038 331.08Z" fill="url(#paint12_linear_376_10534)"/>
<path d="M214.498 331.169C210.007 327.851 205.723 326.576 201.501 326.405C201.246 326.402 200.737 326.395 200.685 326.582C200.6 327.003 200.502 327.331 200.516 327.683C200.521 328.011 200.668 329.585 200.748 330.102C202.081 334.835 203.427 338.206 207.97 339.18C208.355 339.255 208.73 339.307 209.049 339.217C210.516 338.766 212.519 337.314 213.711 335.288C214.348 334.217 214.552 332.953 214.766 331.712C214.827 331.549 214.717 331.336 214.498 331.169Z" fill="url(#paint13_linear_376_10534)"/>
<path d="M214.878 328.796C214.898 329.102 213.777 328.9 213.459 328.802C210.47 327.801 207.507 326.802 204.519 325.801C204.079 325.655 203.652 325.603 203.213 325.456C203.067 325.407 202.908 325.265 202.784 325.146C202.749 325.122 202.837 324.959 202.92 324.913C204.627 324.043 206.468 323.316 208.761 323.274C210.027 323.267 211.413 323.496 212.745 323.654C213.309 323.731 213.689 324.112 213.904 324.584C214.017 324.867 214.12 325.126 214.234 325.409C214.294 325.433 214.817 327.693 214.878 328.796Z" fill="#303030"/>
<path d="M178.806 322.793C181.487 322.898 184.197 323.519 186.964 324.728C187.06 324.776 187.165 324.848 187.253 324.943C187.368 325.038 187.389 325.155 187.316 325.225C187.242 325.294 187.194 325.364 187.101 325.386C185.836 325.84 184.561 326.269 183.331 326.746C182.2 327.154 181.113 327.609 179.991 328.041C179.665 328.177 179.374 328.338 179.029 328.427C178.736 328.518 178.449 328.373 178.183 328.088C176.766 326.639 176.086 325.128 175.821 323.576C175.78 323.412 175.95 323.203 176.145 323.182C176.997 323.028 177.919 322.923 178.806 322.793Z" fill="#303030"/>
<path d="M185.48 320.019C185.572 320.184 185.624 320.443 185.525 320.512C185.426 320.581 185.128 320.531 184.938 320.434C183.798 319.857 182.633 319.279 181.515 318.631C181.151 318.415 180.798 318.036 180.6 317.728C179.527 315.861 178.379 313.993 176.673 312.376C175.327 311.092 176.372 310.543 177.08 310.036C177.22 309.944 177.588 310.042 177.813 310.163C179.18 310.931 180.557 311.722 181.893 312.537C182.127 312.681 182.332 312.942 182.426 313.177C182.759 313.885 184.733 318.461 185.48 320.019Z" fill="#303030"/>
<path d="M201.111 310.229C201.257 310.278 201.444 310.304 201.608 310.4C202.033 310.64 202.447 310.856 202.814 311.143C203.703 311.787 203.69 311.881 203.669 312.655C203.611 313.968 203.604 315.281 203.631 316.619C203.645 316.971 203.814 317.395 203.948 317.796C204.101 318.243 204.074 318.618 203.78 318.896C203.1 319.474 202.43 320.075 201.716 320.629C201.601 320.721 201.328 320.671 201.134 320.692C201.059 320.503 200.933 320.314 200.883 320.125C200.59 319.136 200.408 318.172 200.039 317.182C199.583 315.91 199.034 314.66 198.578 313.387C198.474 313.128 198.47 312.799 198.591 312.66C199.314 311.872 200.08 311.131 200.812 310.366C200.885 310.297 201.003 310.275 201.111 310.229Z" fill="#303030"/>
<path d="M190.03 316.115C190.032 315.739 189.988 315.058 190.005 314.402C190.004 313.956 190.089 313.535 190.183 313.138C190.631 311.22 190.029 309.007 189.632 306.868C189.598 306.656 189.711 306.306 189.889 306.308C190.31 306.29 190.82 306.367 191.292 306.537C191.402 306.562 191.583 307.08 191.576 307.315C191.618 308.817 191.574 310.294 191.693 311.797C191.736 312.477 192.096 313.256 192.336 313.986C192.944 315.894 193.763 317.828 194.868 319.719C194.877 319.742 194.921 319.79 194.931 319.813C194.97 320.166 195.009 320.518 195.039 320.847C194.669 320.678 194.293 320.556 193.955 320.34C193.339 319.933 192.771 319.457 192.188 319.004C191.272 318.288 190.596 317.412 190.03 316.115Z" fill="#303030"/>
<path d="M211.903 321.979C210.263 322.005 208.561 321.936 206.978 322.104C205.657 322.228 204.5 322.635 203.27 322.925C203.152 322.947 203.053 323.016 202.925 323.014C202.797 323.013 202.575 322.963 202.486 322.868C202.406 322.796 202.398 322.585 202.481 322.539C203.242 321.775 203.941 320.986 204.816 320.316C206.12 319.324 207.813 318.736 209.652 318.384C210.141 318.273 210.453 318.417 210.83 318.915C211.361 319.673 211.893 320.43 212.408 321.211C212.851 321.874 212.709 322.154 211.903 321.979Z" fill="#303030"/>
<path d="M175.01 317.866C175.37 317.941 175.79 318.04 176.211 318.139C178.383 318.683 180.561 319.368 182.675 320.592C183.501 321.072 184.312 321.575 185.106 322.101C185.246 322.197 185.331 322.409 185.413 322.551C185.234 322.549 185.081 322.547 184.884 322.497C183.676 322.271 182.431 321.95 181.252 321.794C179.158 321.509 177.114 321.413 175.209 321.599C174.886 321.619 174.622 321.592 174.589 321.193C174.527 320.277 174.465 319.361 174.404 318.445C174.364 318.092 174.499 317.859 175.01 317.866Z" fill="#303030"/>
<path d="M198.483 317.044C199.252 319.423 199.677 321.633 199.275 323.669C199.161 324.207 199.168 324.793 199.07 325.308C199.043 325.496 198.862 325.611 198.75 325.773C198.574 325.583 198.347 325.393 198.272 325.204C197.251 323.08 196.815 321.034 196.744 319.016C196.7 317.889 196.896 316.86 197.222 315.902C197.283 315.739 197.533 315.672 197.689 315.556C197.84 315.746 198.042 315.936 198.143 316.125C198.264 316.432 198.38 316.785 198.483 317.044Z" fill="#303030"/>
<path d="M191.451 323.614C191.62 324.039 191.814 324.463 191.967 324.911C191.995 324.982 191.988 325.029 191.982 325.075C191.953 325.192 191.819 325.238 191.674 325.189C191.579 325.141 191.494 325.116 191.415 325.045C191.222 324.878 191.053 324.641 190.867 324.428C189.85 323.265 188.858 322.103 187.8 320.964C186.811 319.872 186.343 318.693 185.782 317.537C185.497 316.947 185.297 316.381 185.114 315.792C185.057 315.651 185.169 315.488 185.277 315.443C185.369 315.42 185.644 315.541 185.742 315.66C186.649 316.61 187.598 317.537 188.397 318.532C189.703 320.167 190.825 321.847 191.451 323.614Z" fill="#303030"/>
<path d="M196.12 311.994C196.159 312.347 196.284 312.724 196.184 312.98C195.863 314.079 195.518 315.177 195.137 316.251C195.108 316.368 194.816 316.458 194.686 316.386C194.496 316.29 194.275 316.052 194.235 315.888C193.992 315.087 193.825 314.287 193.582 313.487C193.153 312.027 193.031 310.641 193.105 309.305C193.106 309.118 193.253 308.979 193.314 308.815C193.532 308.982 193.766 309.126 193.908 309.292C194.34 309.743 194.756 310.218 195.147 310.692C195.544 311.119 195.814 311.545 196.12 311.994Z" fill="#303030"/>
<path d="M183.619 311.528C183.673 310.966 183.692 310.379 183.746 309.817C183.77 309.559 183.819 309.302 183.902 309.069C183.993 308.788 184.358 308.816 184.59 309.148C185.459 310.379 186.487 311.565 187.13 312.863C187.625 313.855 188.172 314.847 188.642 315.838C188.733 316.003 188.7 316.238 188.585 316.33C188.512 316.399 188.119 316.3 188.031 316.205C186.684 314.851 185.123 313.658 184.041 312.143C183.915 311.954 183.814 311.765 183.688 311.576C183.704 311.552 183.679 311.552 183.619 311.528Z" fill="#303030"/>
<path d="M188.254 307.413C188.596 308.59 188.675 309.928 188.547 311.193C188.536 311.357 188.31 311.425 188.205 311.541C188.037 311.374 187.854 311.231 187.712 311.065C187.027 310.235 186.367 309.406 185.682 308.576C185.193 307.983 184.662 307.413 184.198 306.821C184.11 306.726 184.175 306.445 184.293 306.424C185.015 306.269 185.709 306.043 186.488 306.029C187.477 305.972 187.818 306.258 188.254 307.413Z" fill="#303030"/>
<path d="M191.603 320.755C191.512 320.59 191.539 320.402 191.524 320.238C191.704 320.311 191.917 320.337 192.065 320.456C193.119 321.197 194.181 321.961 195.244 322.725C195.661 323.012 195.869 323.343 195.937 323.766C196.023 324.237 196.236 324.708 196.433 325.204C196.743 325.982 196.782 325.888 195.715 325.875C195.537 325.872 195.309 325.869 195.14 325.891C194.111 325.971 194.165 325.855 193.801 325.193C193.245 324.177 191.851 321.251 191.603 320.755Z" fill="#303030"/>
<path d="M205.18 317.202C205.167 316.217 205.163 315.255 205.159 314.293C205.166 314.059 205.225 313.825 205.267 313.614C205.32 313.239 205.515 313.218 205.952 313.552C207.114 314.435 208.085 315.41 208.951 316.5C209.156 316.76 209.12 316.924 208.869 316.991C207.964 317.261 207.084 317.532 206.179 317.801C205.759 317.89 205.454 317.698 205.18 317.202Z" fill="#303030"/>
<path d="M178.646 316.952C178.816 317.376 178.694 317.515 178.214 317.392C177.169 317.12 176.09 316.825 175.035 316.53C174.375 316.334 174.242 316.192 174.35 315.7C174.536 314.835 174.782 313.993 175.029 313.152C175.12 312.872 175.32 312.804 175.723 313.114C176.381 313.685 178.374 316.268 178.646 316.952Z" fill="#303030"/>
<path d="M181.92 306.908C182.037 307.074 182.24 307.264 182.261 307.382C182.268 307.968 182.188 308.53 182.169 309.116C182.151 309.515 182.158 309.914 182.191 310.313C182.241 310.947 181.932 311.061 181.211 310.653C180.386 310.173 179.561 309.693 178.762 309.214C178.432 309.022 178.22 308.808 178.526 308.624C179.548 308.074 180.596 307.525 181.652 306.998C181.668 306.975 181.71 306.952 181.92 306.908Z" fill="#303030"/>
<path d="M197.261 311.142C197.131 311.07 196.94 310.974 196.842 310.855C195.881 309.717 194.945 308.579 194.044 307.465C193.956 307.37 193.915 307.205 193.963 307.135C194.011 307.065 194.19 307.068 194.301 307.093C195.756 307.627 197.195 308.185 198.634 308.743C198.996 308.889 199.261 309.174 199.059 309.429C198.572 309.986 198.05 310.519 197.529 311.052C197.471 311.098 197.369 311.097 197.261 311.142Z" fill="#303030"/>
<path d="M209.177 58.2228H185.226C184.619 58.2228 184.129 57.7307 184.129 57.1431V40.9513C184.129 40.3636 184.619 39.8716 185.226 39.8716H209.177C209.784 39.8716 210.274 40.3636 210.274 40.9513V57.1431C210.274 57.7307 209.784 58.2228 209.177 58.2228Z" stroke="white"/>
<path d="M209.177 58.2228H185.226C184.619 58.2228 184.129 57.7307 184.129 57.1431V40.9513C184.129 40.3636 184.619 39.8716 185.226 39.8716H209.177C209.784 39.8716 210.274 40.3636 210.274 40.9513V57.1431C210.274 57.7307 209.784 58.2228 209.177 58.2228Z" stroke="#6F7FA9"/>
<path d="M197.361 51.9301C197.201 51.9301 197.121 51.8511 196.962 51.7721L183.948 41.1882C183.709 40.9512 183.629 40.6353 183.868 40.3194C184.108 40.0824 184.427 40.0034 184.746 40.2404L197.441 50.5873L209.816 40.0034C210.055 39.7665 210.455 39.8455 210.694 40.0824C210.934 40.3194 210.854 40.7143 210.614 40.9512L197.92 51.9301C197.68 51.9301 197.521 51.9301 197.361 51.9301Z" fill="#6F7FA9"/>
<path d="M184.347 58.3279C184.188 58.3279 184.028 58.2489 183.948 58.17C183.709 57.933 183.709 57.5381 183.948 57.3011L193.05 47.823C193.289 47.586 193.689 47.586 193.928 47.823C194.168 48.0599 194.168 48.4549 193.928 48.6918L184.826 58.17C184.667 58.2489 184.507 58.3279 184.347 58.3279Z" fill="#6F7FA9"/>
<path d="M210.055 57.9329C209.896 57.9329 209.736 57.8539 209.656 57.7749L200.555 48.7707C200.315 48.5337 200.315 48.1388 200.555 47.9018C200.794 47.6649 201.193 47.6649 201.433 47.9018L210.534 56.9061C210.774 57.143 210.774 57.5379 210.534 57.7749C210.375 57.9329 210.215 57.9329 210.055 57.9329Z" fill="#6F7FA9"/>
<path d="M212.051 46.7171C216.461 46.7171 220.035 43.1808 220.035 38.8186C220.035 34.4564 216.461 30.9202 212.051 30.9202C207.642 30.9202 204.067 34.4564 204.067 38.8186C204.067 43.1808 207.642 46.7171 212.051 46.7171Z" fill="url(#paint14_linear_376_10534)"/>
<path d="M209.816 38.8191C209.975 38.8191 210.215 38.977 210.374 39.135C210.534 39.293 210.694 39.4509 210.774 39.6879C210.854 39.9248 210.933 40.1618 210.933 40.3987C210.933 40.7147 210.854 41.0306 210.694 41.2676C210.534 41.5045 210.295 41.7415 209.975 41.8995C209.656 42.0574 209.337 42.1364 208.937 42.1364C208.538 42.1364 208.219 42.0574 207.899 41.8995C207.58 41.7415 207.341 41.5045 207.181 41.2676C207.021 41.0306 206.941 40.7147 206.941 40.3987C206.941 40.0828 207.021 39.8459 207.101 39.6879C207.181 39.4509 207.341 39.293 207.5 39.135C207.66 38.977 207.899 38.898 208.059 38.7401C207.899 38.6611 207.74 38.5031 207.58 38.4241C207.42 38.2662 207.341 38.1082 207.181 37.8712C207.101 37.6343 207.021 37.4763 207.021 37.2394C207.021 36.9234 207.101 36.6075 207.261 36.3705C207.42 36.1336 207.66 35.8966 207.899 35.7387C208.219 35.5807 208.458 35.5017 208.858 35.5017C209.257 35.5017 209.496 35.5807 209.816 35.7387C210.055 35.8966 210.295 36.1336 210.454 36.3705C210.614 36.6075 210.694 36.9234 210.694 37.2394C210.694 37.4763 210.614 37.7133 210.534 37.8712C210.454 38.1082 210.295 38.2662 210.135 38.4241C210.135 38.5821 209.975 38.7401 209.816 38.8191ZM208.937 41.8205C209.416 41.8205 209.816 41.6625 210.135 41.4255C210.454 41.1886 210.614 40.7937 210.614 40.3987C210.614 40.0828 210.534 39.8459 210.374 39.6879C210.215 39.4509 210.055 39.293 209.816 39.214C209.576 39.056 209.337 39.056 209.017 39.056C208.698 39.056 208.458 39.135 208.219 39.214C207.979 39.3719 207.82 39.5299 207.66 39.6879C207.5 39.9248 207.42 40.1618 207.42 40.3987C207.42 40.7937 207.58 41.1096 207.82 41.4255C208.139 41.7415 208.458 41.8205 208.937 41.8205ZM207.5 37.2394C207.5 37.5553 207.58 37.7923 207.74 37.9502C207.899 38.1872 208.059 38.3451 208.299 38.4241C208.538 38.5031 208.778 38.5821 209.017 38.5821C209.257 38.5821 209.496 38.5031 209.736 38.4241C209.975 38.3451 210.135 38.1082 210.295 37.9502C210.454 37.7133 210.534 37.4763 210.534 37.2394C210.534 36.8444 210.374 36.5285 210.135 36.2126C209.895 35.9756 209.496 35.8176 209.097 35.8176C208.698 35.8176 208.299 35.9756 208.059 36.2126C207.66 36.5285 207.5 36.8444 207.5 37.2394Z" fill="white"/>
<path d="M213.808 42.136C213.568 42.136 213.249 42.0571 213.009 41.9781C212.77 41.8991 212.53 41.7411 212.291 41.5832L212.211 41.5042V41.4252C212.211 41.3462 212.211 41.3462 212.291 41.2672C212.291 41.1882 212.371 41.1882 212.45 41.1882C212.53 41.1882 212.53 41.1882 212.61 41.2672C212.77 41.4252 213.009 41.5042 213.249 41.5832C213.488 41.6621 213.728 41.6621 213.888 41.6621C214.287 41.6621 214.606 41.5832 214.925 41.4252C215.245 41.2672 215.484 41.0303 215.644 40.7933C215.804 40.4774 215.884 40.1614 215.884 39.8455C215.884 39.5296 215.804 39.2136 215.644 38.8977C215.484 38.6607 215.245 38.4238 215.005 38.2658C214.686 38.1078 214.367 38.0289 213.967 38.0289C213.728 38.0289 213.488 38.0289 213.329 38.1078C213.089 38.1868 212.929 38.2658 212.85 38.3448C212.69 38.4238 212.61 38.4238 212.53 38.4238H212.45L212.371 38.3448C212.371 38.3448 212.371 38.2658 212.371 38.1868L212.85 35.5803C212.85 35.5803 212.85 35.5014 212.929 35.5014C212.929 35.5014 213.009 35.4224 213.089 35.4224H216.043C216.123 35.4224 216.123 35.4224 216.203 35.5014C216.203 35.5014 216.283 35.5803 216.283 35.6593C216.283 35.7383 216.283 35.7383 216.203 35.8173C216.123 35.8963 216.123 35.8963 216.043 35.8963H213.169L213.249 35.8173L212.77 38.1868L212.61 38.1078C212.69 38.0289 212.85 37.9499 213.009 37.9499C213.169 37.9499 213.329 37.7919 213.568 37.7919C213.808 37.7919 213.967 37.7129 214.207 37.7129C214.606 37.7129 215.005 37.7919 215.325 37.9499C215.644 38.1078 215.884 38.3448 216.123 38.6607C216.283 38.9767 216.442 39.3716 216.442 39.7665C216.442 40.2404 216.363 40.6353 216.123 40.9513C215.884 41.2672 215.644 41.5832 215.325 41.7411C214.686 42.0571 214.287 42.136 213.808 42.136Z" fill="white"/>
<path d="M109.379 84.6296H198.639C204.387 84.6296 209.018 89.2107 209.018 94.8976V136.759C209.018 142.446 204.387 147.027 198.639 147.027H190.655C190.415 150.819 190.974 156.506 194.168 163.693C183.868 158.954 177.88 151.924 174.847 147.027H109.379C103.63 147.027 98.9998 142.446 98.9998 136.759V94.8976C98.9998 89.2107 103.63 84.6296 109.379 84.6296Z" fill="#155F60"/>
<path d="M147.462 104.613H191.692C192.89 104.613 193.928 103.665 193.928 102.401C193.928 101.216 192.97 100.19 191.692 100.19H147.462C146.264 100.19 145.226 101.138 145.226 102.401C145.306 103.586 146.264 104.613 147.462 104.613Z" fill="white"/>
<path d="M115.766 117.25H192.651C193.369 117.25 194.008 116.618 194.008 115.907C194.008 115.197 193.369 114.565 192.651 114.565H115.766C115.047 114.565 114.409 115.197 114.409 115.907C114.409 116.697 114.967 117.25 115.766 117.25Z" fill="#399944"/>
<path d="M115.766 124.675H192.651C193.369 124.675 194.008 124.043 194.008 123.332C194.008 122.621 193.369 121.989 192.651 121.989H115.766C115.047 121.989 114.409 122.621 114.409 123.332C114.409 124.122 114.967 124.675 115.766 124.675Z" fill="#399944"/>
<path d="M132.532 132.573H192.651C193.369 132.573 194.008 131.941 194.008 131.23C194.008 130.52 193.369 129.888 192.651 129.888H132.532C131.813 129.888 131.175 130.52 131.175 131.23C131.175 132.02 131.734 132.573 132.532 132.573Z" fill="#399944"/>
<path d="M116.325 104.613H137.482C138.68 104.613 139.718 103.665 139.718 102.401C139.718 101.216 138.76 100.19 137.482 100.19H116.325C115.127 100.19 114.09 101.138 114.09 102.401C114.09 103.586 115.127 104.613 116.325 104.613Z" fill="white"/>
<g filter="url(#filter0_d_376_10534)">
<rect x="50" y="178.973" width="182" height="45.506" rx="6.5653" fill="white" fill-opacity="0.5"/>
<g filter="url(#filter1_d_376_10534)">
<path d="M61.4756 190.244C61.4756 187.751 63.497 185.729 65.9905 185.729H93.6914C96.1822 185.729 98.2014 187.749 98.2014 190.239V213.603C98.2014 216.094 96.1822 218.113 93.6914 218.113H65.9905C63.497 218.113 61.4756 216.092 61.4756 213.598V190.244Z" fill="url(#paint15_linear_376_10534)"/>
</g>
<path d="M79.0928 198.209H89.2323V199.63L94.2621 196.787L89.2323 193.944V195.444H79.0928V198.209Z" fill="#155F60"/>
<path d="M94.2621 203.975H84.0428V202.474L79.0928 205.317L84.0428 208.24V206.739H94.2621V203.975Z" fill="#399944"/>
<path d="M72.7852 206.581L72.3061 206.739C72.3061 206.739 70.7892 205.001 69.9908 203.185C69.1924 201.368 69.1924 199.078 69.1924 199.078L69.5118 198.92L67.3561 193.786C66.957 194.102 66.6376 194.497 66.3182 194.97C65.1206 197.024 65.2005 200.104 66.4779 203.185C67.6755 206.265 69.0327 208.951 71.4279 210.688C72.865 211.715 74.0626 211.873 75.0206 211.715L72.7852 206.581Z" fill="#155F60"/>
<path d="M74.3819 205.949L73.7432 206.186L75.9786 211.399C76.2182 211.32 76.4577 211.241 76.6173 211.083C77.1762 210.767 77.4157 210.135 77.1762 209.504L76.0585 206.66C75.7391 206.028 75.0206 205.712 74.3819 205.949Z" fill="#155F60"/>
<path d="M69.1126 192.917C68.8731 192.996 68.5537 193.154 68.2344 193.312L70.4699 198.525L71.1884 198.209C71.8271 197.972 72.1465 197.182 71.907 196.55L70.7094 193.628C70.4699 192.996 69.7513 192.68 69.1126 192.917Z" fill="#155F60"/>
<rect x="107.429" y="195.535" width="105" height="6" rx="1.51119" fill="#155F60"/>
<rect x="107.429" y="206.824" width="91" height="5" rx="1.51119" fill="#155F60"/>
</g>
</g>
<defs>
<filter id="filter0_d_376_10534" x="45.3383" y="174.311" width="191.323" height="54.8296" filterUnits="userSpaceOnUse" color-interpolation-filters="sRGB">
<feFlood flood-opacity="0" result="BackgroundImageFix"/>
<feColorMatrix in="SourceAlpha" type="matrix" values="0 0 0 0 0 0 0 0 0 0 0 0 0 0 0 0 0 0 127 0" result="hardAlpha"/>
<feOffset/>
<feGaussianBlur stdDeviation="2.33087"/>
<feComposite in2="hardAlpha" operator="out"/>
<feColorMatrix type="matrix" values="0 0 0 0 0.12549 0 0 0 0 0.12549 0 0 0 0 0.27451 0 0 0 0.3 0"/>
<feBlend mode="normal" in2="BackgroundImageFix" result="effect1_dropShadow_376_10534"/>
<feBlend mode="normal" in="SourceGraphic" in2="effect1_dropShadow_376_10534" result="shape"/>
</filter>
<filter id="filter1_d_376_10534" x="55.4557" y="179.71" width="48.7654" height="44.4233" filterUnits="userSpaceOnUse" color-interpolation-filters="sRGB">
<feFlood flood-opacity="0" result="BackgroundImageFix"/>
<feColorMatrix in="SourceAlpha" type="matrix" values="0 0 0 0 0 0 0 0 0 0 0 0 0 0 0 0 0 0 127 0" result="hardAlpha"/>
<feOffset/>
<feGaussianBlur stdDeviation="3.00995"/>
<feComposite in2="hardAlpha" operator="out"/>
<feColorMatrix type="matrix" values="0 0 0 0 0.337255 0 0 0 0 0.337255 0 0 0 0 0.337255 0 0 0 0.25 0"/>
<feBlend mode="normal" in2="BackgroundImageFix" result="effect1_dropShadow_376_10534"/>
<feBlend mode="normal" in="SourceGraphic" in2="effect1_dropShadow_376_10534" result="shape"/>
</filter>
<linearGradient id="paint0_linear_376_10534" x1="312.287" y1="457.607" x2="312.287" y2="174.527" gradientUnits="userSpaceOnUse">
<stop offset="1.6303e-06" stop-color="#EB8A00"/>
<stop offset="1" stop-color="#EBB327"/>
</linearGradient>
<linearGradient id="paint1_linear_376_10534" x1="342.693" y1="211.172" x2="342.693" y2="146.9" gradientUnits="userSpaceOnUse">
<stop offset="1.6303e-06" stop-color="#EB8A00"/>
<stop offset="1" stop-color="#EBB327"/>
</linearGradient>
<linearGradient id="paint2_linear_376_10534" x1="419.657" y1="350.875" x2="419.657" y2="249.195" gradientUnits="userSpaceOnUse">
<stop offset="1.6303e-06" stop-color="#EB8A00"/>
<stop offset="1" stop-color="#EBB327"/>
</linearGradient>
<linearGradient id="paint3_linear_376_10534" x1="75.766" y1="317.744" x2="418.585" y2="317.744" gradientUnits="userSpaceOnUse">
<stop offset="0.00212215" stop-color="#9EBED0"/>
<stop offset="1" stop-color="#688BB6"/>
</linearGradient>
<linearGradient id="paint4_linear_376_10534" x1="339.429" y1="384.404" x2="430.527" y2="384.404" gradientUnits="userSpaceOnUse">
<stop offset="0.00212215" stop-color="#9EBED0"/>
<stop offset="1" stop-color="#688BB6"/>
</linearGradient>
<linearGradient id="paint5_linear_376_10534" x1="366.84" y1="209.359" x2="366.84" y2="168.687" gradientUnits="userSpaceOnUse">
<stop offset="1.6303e-06" stop-color="#EB8A00"/>
<stop offset="1" stop-color="#EBB327"/>
</linearGradient>
<linearGradient id="paint6_linear_376_10534" x1="309.119" y1="206.094" x2="309.119" y2="167.566" gradientUnits="userSpaceOnUse">
<stop offset="1.6303e-06" stop-color="#EB8A00"/>
<stop offset="1" stop-color="#EBB327"/>
</linearGradient>
<linearGradient id="paint7_linear_376_10534" x1="444.025" y1="364.716" x2="444.025" y2="192.601" gradientUnits="userSpaceOnUse">
<stop offset="1.6303e-06" stop-color="#EB8A00"/>
<stop offset="1" stop-color="#EBB327"/>
</linearGradient>
<linearGradient id="paint8_linear_376_10534" x1="448.782" y1="370.568" x2="448.782" y2="324.855" gradientUnits="userSpaceOnUse">
<stop offset="1.6303e-06" stop-color="#EB8A00"/>
<stop offset="1" stop-color="#EBB327"/>
</linearGradient>
<linearGradient id="paint9_linear_376_10534" x1="183.455" y1="329.479" x2="183.531" y2="323.517" gradientUnits="userSpaceOnUse">
<stop offset="4.74173e-07" stop-color="#5F9630"/>
<stop offset="1" stop-color="#A6B953"/>
</linearGradient>
<linearGradient id="paint10_linear_376_10534" x1="196.427" y1="328.524" x2="196.47" y2="325.183" gradientUnits="userSpaceOnUse">
<stop offset="4.74173e-07" stop-color="#5F9630"/>
<stop offset="1" stop-color="#A6B953"/>
</linearGradient>
<linearGradient id="paint11_linear_376_10534" x1="213.149" y1="330.024" x2="213.195" y2="326.466" gradientUnits="userSpaceOnUse">
<stop offset="4.74173e-07" stop-color="#5F9630"/>
<stop offset="1" stop-color="#A6B953"/>
</linearGradient>
<linearGradient id="paint12_linear_376_10534" x1="191.273" y1="339.419" x2="191.437" y2="326.623" gradientUnits="userSpaceOnUse">
<stop offset="4.74173e-07" stop-color="#5F9630"/>
<stop offset="1" stop-color="#A6B953"/>
</linearGradient>
<linearGradient id="paint13_linear_376_10534" x1="211.034" y1="339.324" x2="211.198" y2="326.536" gradientUnits="userSpaceOnUse">
<stop offset="4.74173e-07" stop-color="#5F9630"/>
<stop offset="1" stop-color="#A6B953"/>
</linearGradient>
<linearGradient id="paint14_linear_376_10534" x1="212.03" y1="46.719" x2="212.03" y2="30.8748" gradientUnits="userSpaceOnUse">
<stop offset="1.6303e-06" stop-color="#EB8A00"/>
<stop offset="1" stop-color="#EBB327"/>
</linearGradient>
<linearGradient id="paint15_linear_376_10534" x1="79.7907" y1="218.117" x2="79.7907" y2="185.637" gradientUnits="userSpaceOnUse">
<stop offset="1.6303e-06" stop-color="white"/>
<stop offset="1" stop-color="white"/>
</linearGradient>
<clipPath id="clip0_376_10534">
<rect width="495" height="399.661" fill="white" transform="translate(0 0.906006)"/>
</clipPath>
</defs>
</svg>
