<svg width="39" height="39" viewBox="0 0 39 39" fill="none" xmlns="http://www.w3.org/2000/svg">
<path d="M32.5 15.6C32.5 9.1 29.9 6.5 23.4 6.5H15.6C9.1 6.5 6.5 9.1 6.5 15.6V23.4C6.5 29.9 9.1 32.5 15.6 32.5" stroke="#F1F1F1" stroke-width="1.5" stroke-linecap="round" stroke-linejoin="round"/>
<path d="M26.5688 13C25.675 11.8625 24.18 11.375 21.9375 11.375H17.0625C13 11.375 11.375 13 11.375 17.0625V21.9375C11.375 24.18 11.8625 25.675 12.9837 26.5688" stroke="#F1F1F1" stroke-width="1.5" stroke-linecap="round" stroke-linejoin="round"/>
<path d="M13.0161 6.5V3.25" stroke="#F1F1F1" stroke-width="1.5" stroke-linecap="round" stroke-linejoin="round"/>
<path d="M19.5 6.5V3.25" stroke="#F1F1F1" stroke-width="1.5" stroke-linecap="round" stroke-linejoin="round"/>
<path d="M26 6.5V3.25" stroke="#F1F1F1" stroke-width="1.5" stroke-linecap="round" stroke-linejoin="round"/>
<path d="M32.5 13H35.75" stroke="#F1F1F1" stroke-width="1.5" stroke-linecap="round" stroke-linejoin="round"/>
<path d="M13.0161 32.5V35.75" stroke="#F1F1F1" stroke-width="1.5" stroke-linecap="round" stroke-linejoin="round"/>
<path d="M3.25 13H6.5" stroke="#F1F1F1" stroke-width="1.5" stroke-linecap="round" stroke-linejoin="round"/>
<path d="M3.25 19.5H6.5" stroke="#F1F1F1" stroke-width="1.5" stroke-linecap="round" stroke-linejoin="round"/>
<path d="M3.25 26H6.5" stroke="#F1F1F1" stroke-width="1.5" stroke-linecap="round" stroke-linejoin="round"/>
<path d="M27.1536 30.2085C28.5805 30.2085 29.7373 29.0517 29.7373 27.6248C29.7373 26.1978 28.5805 25.041 27.1536 25.041C25.7266 25.041 24.5698 26.1978 24.5698 27.6248C24.5698 29.0517 25.7266 30.2085 27.1536 30.2085Z" stroke="#F1F1F1" stroke-width="1.5" stroke-miterlimit="10" stroke-linecap="round" stroke-linejoin="round"/>
<path d="M18.541 28.373V26.8617C18.541 25.968 19.2723 25.2367 20.166 25.2367C21.726 25.2367 22.3598 24.1317 21.5798 22.783C21.1248 22.003 21.401 20.9955 22.181 20.5567L23.6598 19.6955C24.3423 19.2892 25.2198 19.533 25.626 20.2155L25.7235 20.378C26.5035 21.7267 27.771 21.7267 28.551 20.378L28.6485 20.2155C29.0548 19.533 29.9323 19.3055 30.6148 19.6955L32.0935 20.5567C32.8735 21.0117 33.1498 22.003 32.6948 22.783C31.9148 24.1317 32.5485 25.2367 34.1085 25.2367C35.0023 25.2367 35.7335 25.968 35.7335 26.8617V28.373C35.7335 29.2667 35.0023 29.998 34.1085 29.998C32.5485 29.998 31.9148 31.103 32.6948 32.4517C33.1498 33.2317 32.8735 34.2392 32.0935 34.678L30.6148 35.5392C29.9323 35.9455 29.0548 35.7017 28.6485 35.0192L28.551 34.8567C27.771 33.508 26.5035 33.508 25.7235 34.8567L25.626 35.0192C25.2198 35.7017 24.3423 35.9292 23.6598 35.5392L22.181 34.678C21.401 34.223 21.1248 33.2317 21.5798 32.4517C22.3598 31.103 21.726 29.998 20.166 29.998C19.2723 30.0142 18.541 29.283 18.541 28.373Z" stroke="#F1F1F1" stroke-width="1.5" stroke-miterlimit="10" stroke-linecap="round" stroke-linejoin="round"/>
</svg>
