<svg width="40" height="39" viewBox="0 0 40 39" fill="none" xmlns="http://www.w3.org/2000/svg">
<path d="M16.75 27.5437H10.5913C5.115 27.5437 3.75 26.1787 3.75 20.7025V10.9525C3.75 5.47621 5.115 4.11121 10.5913 4.11121H27.7025C33.1787 4.11121 34.5438 5.47621 34.5438 10.9525" stroke="#292D32" stroke-width="1.5" stroke-linecap="round" stroke-linejoin="round"/>
<path d="M16.75 34.8887V27.5437" stroke="#292D32" stroke-width="1.5" stroke-linecap="round" stroke-linejoin="round"/>
<path d="M3.75 21.0437H16.75" stroke="#292D32" stroke-width="1.5" stroke-linecap="round" stroke-linejoin="round"/>
<path d="M11.4526 34.8888H16.7501" stroke="#292D32" stroke-width="1.5" stroke-linecap="round" stroke-linejoin="round"/>
<path d="M36.2501 20.8V30.0787C36.2501 33.93 35.2913 34.8887 31.4401 34.8887H25.6713C21.8201 34.8887 20.8613 33.93 20.8613 30.0787V20.8C20.8613 16.9487 21.8201 15.99 25.6713 15.99H31.4401C35.2913 15.99 36.2501 16.9487 36.2501 20.8Z" stroke="#292D32" stroke-width="1.5" stroke-linecap="round" stroke-linejoin="round"/>
<path d="M28.5223 29.6562H28.5369" stroke="#292D32" stroke-width="2" stroke-linecap="round" stroke-linejoin="round"/>
</svg>
