<svg width="40" height="39" viewBox="0 0 40 39" fill="none" xmlns="http://www.w3.org/2000/svg">
<path d="M16.75 27.5438H10.5913C5.115 27.5438 3.75 26.1788 3.75 20.7026V10.9526C3.75 5.47633 5.115 4.11133 10.5913 4.11133H27.7025C33.1787 4.11133 34.5438 5.47633 34.5438 10.9526" stroke="#F1F1F1" stroke-width="1.5" stroke-linecap="round" stroke-linejoin="round"/>
<path d="M16.75 34.8889V27.5439" stroke="#F1F1F1" stroke-width="1.5" stroke-linecap="round" stroke-linejoin="round"/>
<path d="M3.75 21.0439H16.75" stroke="#F1F1F1" stroke-width="1.5" stroke-linecap="round" stroke-linejoin="round"/>
<path d="M11.4526 34.8887H16.7501" stroke="#F1F1F1" stroke-width="1.5" stroke-linecap="round" stroke-linejoin="round"/>
<path d="M36.2501 20.8002V30.079C36.2501 33.9302 35.2913 34.889 31.4401 34.889H25.6713C21.8201 34.889 20.8613 33.9302 20.8613 30.079V20.8002C20.8613 16.949 21.8201 15.9902 25.6713 15.9902H31.4401C35.2913 15.9902 36.2501 16.949 36.2501 20.8002Z" stroke="#F1F1F1" stroke-width="1.5" stroke-linecap="round" stroke-linejoin="round"/>
<path d="M28.5223 29.6562H28.5369" stroke="#F1F1F1" stroke-width="2" stroke-linecap="round" stroke-linejoin="round"/>
</svg>
