<svg width="29" height="50" viewBox="0 0 29 50" fill="none" xmlns="http://www.w3.org/2000/svg">
<path d="M13.3391 49.5414C12.5238 48.2368 12.3607 46.7692 12.2955 45.2689C12.2629 44.2905 12.3281 43.312 12.3607 42.3336C12.3607 42.2032 12.3607 42.1053 12.3607 41.9749C12.2955 41.9422 12.2629 41.9422 12.1976 41.9096C11.6432 43.0511 11.1214 44.16 10.5669 45.3341C10.1103 44.3231 9.81678 43.2468 9.68632 42.1379C9.55586 40.866 9.62109 39.6266 9.88201 38.3873C9.94724 38.0611 10.0777 37.9307 10.4365 37.9307C11.0887 37.9633 11.8063 37.7676 12.3281 38.0285C12.8499 38.2568 13.1435 38.9743 13.5022 39.4635C13.7957 39.8549 14.1219 40.2463 14.448 40.7029C15.0351 39.9201 15.6222 39.2026 16.144 38.4525C16.4049 38.0611 16.6984 37.898 17.1877 37.9307C17.5464 37.9633 17.9378 37.9633 18.2965 37.9307C18.7531 37.8654 18.9488 38.0611 19.0793 38.4851C19.4707 39.8549 19.2424 41.1595 18.851 42.5619C18.4922 41.3552 17.6116 40.9638 16.568 40.5072C17.4812 42.2358 17.6443 43.9317 17.0898 45.5951C16.568 44.7145 16.0461 43.8339 15.4917 42.9207C15.4591 42.9533 15.4265 42.9533 15.3939 42.9859C15.3939 43.7034 15.4917 44.4536 15.3612 45.1711C15.1656 46.6061 14.4807 47.8781 13.6653 49.0848C13.5674 49.2153 13.5022 49.3783 13.4044 49.5414C13.4044 49.5414 13.3718 49.5414 13.3391 49.5414Z" fill="white"/>
<path d="M14.4482 21.4277C13.959 23.352 13.5024 25.1131 13.0458 26.9069C12.5565 28.8638 12.0673 30.8207 11.5781 32.7775C11.5129 33.1037 11.3824 33.2341 11.0237 33.2341C9.81693 33.2015 8.6102 33.2341 7.40346 33.2341C7.37085 33.1037 7.37085 33.0058 7.37085 32.908C7.37085 29.3204 7.30562 25.7654 7.33823 22.1778C7.37085 18.3619 7.59915 14.5461 8.3819 10.7954C8.90373 8.31669 9.65386 5.90322 10.9584 3.71805C11.8716 2.21778 12.9805 0.94582 14.4482 0C15.7528 0.847976 16.7638 1.92425 17.6118 3.19622C19.0468 5.34877 19.8296 7.76225 20.384 10.2736C21.2972 14.4482 21.5255 18.6555 21.5581 22.8954C21.5581 26.1894 21.5255 29.5161 21.5255 32.8102C21.5255 33.1363 21.4277 33.2341 21.1015 33.2341C20.0253 33.2341 18.949 33.2015 17.8727 33.2341C17.5139 33.2341 17.3835 33.1037 17.2856 32.7775C16.4051 29.19 15.4919 25.6024 14.5786 22.0148C14.5786 21.8517 14.5134 21.6886 14.4482 21.4277ZM17.6118 12.8827C17.6118 11.1215 16.2094 9.6865 14.4808 9.6865C12.7522 9.6865 11.3172 11.0889 11.2846 12.8501C11.2846 14.6113 12.6544 16.0137 14.4156 16.0463C16.1768 16.0463 17.6118 14.6113 17.6118 12.8827Z" fill="white"/>
<path d="M22.4061 21.3301C22.928 21.6888 23.3194 21.9498 23.7107 22.2107C25.1458 23.1891 26.5808 24.1675 28.0158 25.146C28.2768 25.309 28.4072 25.5047 28.4072 25.8309C28.5703 29.0271 28.766 32.2233 28.9943 35.4195C29.0269 35.8761 28.929 36.0392 28.4724 36.1371C27.7223 36.3001 26.9722 36.4958 26.222 36.7241C25.9611 36.7893 25.8307 36.7567 25.6676 36.5284C24.6565 35.0934 23.6129 33.6583 22.5692 32.1907C22.4714 32.0276 22.3735 31.8319 22.3735 31.6689C22.4061 28.3096 22.4061 24.8851 22.4061 21.3301Z" fill="white"/>
<path d="M6.52289 21.4277C6.52289 24.9501 6.52289 28.3746 6.52289 31.7991C6.52289 31.9948 6.45767 32.2231 6.32721 32.3862C5.31616 33.7886 4.30511 35.191 3.32668 36.5935C3.1636 36.8218 3.03315 36.887 2.77223 36.7892C1.89164 36.5282 0.978434 36.2999 0 36.039C0.0326145 35.2889 0.065229 34.5061 0.130458 33.756C0.29353 31.1795 0.456603 28.5703 0.587061 25.9938C0.619675 25.6024 0.750133 25.3741 1.07628 25.1458C2.73962 24.0369 4.37034 22.8954 6.03368 21.7865C6.13152 21.656 6.26198 21.5908 6.52289 21.4277Z" fill="white"/>
<path d="M14.4483 39.2356C13.3394 37.8005 12.2631 36.3981 11.2521 34.9957C11.1216 34.8326 11.1868 34.4738 11.2521 34.2455C11.2847 34.1803 11.5456 34.0825 11.7087 34.1151C12.1001 34.1477 12.2305 33.9846 12.3284 33.6259C12.9806 30.9515 13.6655 28.2445 14.3505 25.5701C14.3831 25.4396 14.4157 25.3092 14.5461 25.1787C15.2963 28.1466 16.0464 31.0819 16.7965 34.0825C16.9922 34.0825 17.1553 34.0825 17.2858 34.0825C17.7424 34.0825 18.0033 34.5717 17.7424 34.9304C16.6661 36.3981 15.5572 37.8005 14.4483 39.2356Z" fill="white"/>
<path d="M10.4039 34.1478C9.94726 34.8654 10.306 35.322 10.6974 35.7786C11.0235 36.1373 11.2845 36.5613 11.6432 37.0179C10.73 37.0179 9.88204 37.0505 9.03406 36.9853C8.57746 36.9527 8.28393 36.5613 8.25131 36.0721C8.2187 35.4198 8.25131 34.8001 8.25131 34.1152C8.93622 34.1478 9.62112 34.1478 10.4039 34.1478Z" fill="white"/>
<path d="M18.525 34.1475C19.3077 34.1475 19.96 34.1475 20.6449 34.1475C20.6449 34.865 20.6775 35.5499 20.6449 36.2674C20.6123 36.7566 20.1883 37.0501 19.6991 37.0828C18.9164 37.1154 18.1662 37.0828 17.2856 37.0828C17.6444 36.6262 17.9379 36.2022 18.2641 35.8108C18.6228 35.3216 18.9816 34.865 18.525 34.1475Z" fill="white"/>
</svg>
