<svg width="397" height="393" viewBox="0 0 397 393" fill="none" xmlns="http://www.w3.org/2000/svg">
<g clip-path="url(#clip0_222_3181)">
<path opacity="0.5" d="M392.545 352.865C382.636 352.865 215.636 353.954 205.182 353.591C204.455 353.591 204 352.502 204.727 352.048C211.364 348.779 218.818 349.414 225.727 347.144C229.818 345.782 232.273 343.149 235.091 340.152C237.545 337.519 240.364 335.521 243.818 334.522C246.909 333.614 250.182 333.524 253.273 334.25C256.636 335.067 259.636 336.974 262.818 338.245C270.818 341.242 278.636 338.427 284.364 332.434C289.091 327.53 293.727 322.899 300.182 320.266C305.545 318.087 311.545 317.633 316.909 319.994C323 322.809 327.273 328.348 333 331.707C339.818 335.703 348 334.704 355.545 335.975C363.091 337.156 368.818 343.512 375.455 347.144C377.727 348.415 380 349.414 382.636 349.414C384.091 349.414 385.545 348.96 387 348.779C389.273 348.506 391.455 348.597 393 350.413C393.273 350.958 393.182 352.865 392.545 352.865Z" fill="white"/>
<path d="M210.727 34.5056C200.818 34.5056 33.818 35.5953 23.3635 35.2321C22.6362 35.2321 22.1817 34.1424 22.9089 33.6884C29.5453 30.4195 36.9998 31.0551 43.9089 28.785C47.9998 27.4229 50.4544 24.7896 53.2726 21.7931C55.7271 19.1598 58.5453 17.1621 61.9998 16.1632C65.0908 15.2552 68.3635 15.1644 71.4544 15.8908C74.818 16.708 77.818 18.6149 80.9998 19.8862C88.9998 22.8827 96.818 20.0678 102.545 14.0747C107.182 9.0805 111.818 4.5403 118.273 1.90698C123.636 -0.272314 129.636 -0.726335 135 1.63457C141.091 4.4495 145.363 9.98854 151.091 13.3483C157.909 17.3437 166.091 16.3448 173.636 17.6161C181.182 18.7965 186.909 25.1528 193.545 28.785C195.818 30.0562 198.091 31.0551 200.727 31.0551C202.182 31.0551 203.636 30.6011 205.091 30.4195C207.363 30.147 209.545 30.2379 211.091 32.0539C211.454 32.508 211.363 34.5056 210.727 34.5056Z" fill="white"/>
<path opacity="0.5" d="M141.182 286.941C133.909 286.941 11.9999 287.758 4.3635 287.486C3.81805 287.486 3.54532 286.669 4.09078 286.396C8.90896 284.035 14.3635 284.489 19.4544 282.764C22.3635 281.765 24.1817 279.858 26.2726 277.588C27.9999 275.681 30.0908 274.228 32.6362 273.411C34.909 272.776 37.2726 272.685 39.5453 273.23C41.9999 273.774 44.1817 275.227 46.5453 276.135C52.3635 278.315 58.0908 276.226 62.2726 271.958C65.7271 268.417 69.0908 265.057 73.818 263.06C77.7271 261.425 82.0908 261.153 85.9999 262.878C90.4544 264.876 93.5453 268.962 97.7271 271.414C102.727 274.319 108.636 273.593 114.182 274.501C119.727 275.409 123.909 280.04 128.727 282.673C130.364 283.581 132.091 284.308 134 284.308C135.091 284.308 136.091 283.944 137.182 283.854C138.818 283.672 140.454 283.672 141.545 285.034C141.636 285.488 141.636 286.941 141.182 286.941Z" fill="white"/>
<path opacity="0.5" d="M392.818 97.796C385.545 97.796 263.636 98.6133 256 98.3408C255.454 98.3408 255.182 97.5236 255.727 97.2512C260.545 94.8903 266 95.3443 271.091 93.619C274 92.6202 275.818 90.7133 277.909 88.4432C279.636 86.5363 281.727 85.0834 284.272 84.2662C286.545 83.6306 288.909 83.5398 291.182 84.0846C293.636 84.6294 295.818 86.0823 298.182 86.9903C304 89.1696 309.727 87.0811 313.909 82.8133C317.363 79.272 320.727 75.9122 325.454 73.9145C329.363 72.2801 333.727 72.0077 337.636 73.7329C342.091 75.7306 345.182 79.8168 349.363 82.2685C354.363 85.1742 360.272 84.4478 365.818 85.3559C371.363 86.2639 375.545 90.8949 380.363 93.5282C382 94.4363 383.727 95.1627 385.636 95.1627C386.727 95.1627 387.727 94.7995 388.818 94.7087C390.454 94.5271 392.091 94.5271 393.182 95.8891C393.363 96.3431 393.272 97.796 392.818 97.796Z" fill="white"/>
<path d="M233.455 392.455C226.182 392.455 104.273 393.272 96.6365 393C96.091 393 95.8183 392.183 96.3637 391.91C101.182 389.549 106.636 390.003 111.727 388.278C114.636 387.279 116.455 385.372 118.546 383.102C120.273 381.195 122.364 379.743 124.909 378.925C127.182 378.29 129.546 378.199 131.818 378.744C134.273 379.289 136.455 380.741 138.818 381.649C144.636 383.829 150.364 381.74 154.546 377.473C158 373.931 161.364 370.571 166.091 368.574C170 366.939 174.364 366.667 178.273 368.392C182.727 370.39 185.818 374.476 190 376.928C195 379.833 200.909 379.107 206.455 380.015C212 380.923 216.182 385.554 221 388.187C222.636 389.095 224.364 389.822 226.273 389.822C227.364 389.822 228.364 389.459 229.455 389.368C231.091 389.186 232.727 389.186 233.818 390.639C234 391.002 233.909 392.455 233.455 392.455Z" fill="white"/>
<path opacity="0.5" d="M286.636 137.024C279.364 137.024 157.454 137.841 149.818 137.568C149.273 137.568 149 136.751 149.545 136.479C154.364 134.118 159.818 134.572 164.909 132.847C167.818 131.848 169.636 129.941 171.727 127.671C173.454 125.764 175.545 124.311 178.091 123.494C180.364 122.858 182.727 122.767 185 123.312C187.454 123.857 189.636 125.31 192 126.218C197.818 128.397 203.545 126.309 207.727 122.041C211.182 118.5 214.545 115.14 219.273 113.142C223.182 111.508 227.545 111.235 231.454 112.96C235.909 114.958 239 119.044 243.182 121.496C248.182 124.402 254.091 123.675 259.636 124.583C265.182 125.491 269.364 130.122 274.182 132.756C275.818 133.664 277.545 134.39 279.454 134.39C280.545 134.39 281.545 134.027 282.636 133.936C284.273 133.755 285.909 133.755 287 135.117C287.182 135.661 287.182 137.024 286.636 137.024Z" fill="white"/>
<path d="M145.455 120.315C145.455 120.315 145.727 117.955 146.273 113.051C146.818 108.511 148.273 96.6156 151 91.803C158.091 79.1813 176.273 76.1847 188.455 65.379C195.091 59.4768 195 56.571 197.091 56.8435C199.182 57.1159 197.545 72.371 185.818 80.1801C185.818 80.1801 192.091 82.1778 192.091 84.2663C192.091 86.3548 186.818 88.1709 183.091 87.9893C183.091 87.9893 189.182 93.8007 188.273 96.434C187.273 99.0673 180.364 98.1593 177.455 96.9789C177.455 96.9789 180.909 101.156 179.909 103.063C178.273 105.968 171.636 102.7 171.636 102.7C171.636 102.7 173.818 105.605 172.636 106.786C171.091 108.42 165.727 106.241 165.727 106.241C165.727 106.241 164.818 112.234 157.818 109.873C157.818 109.873 156.636 114.413 151.455 112.052C151.455 112.052 149.273 113.959 148.636 116.139C147.909 118.318 146.364 120.497 145.455 120.315Z" fill="white"/>
<path d="M147.636 114.322C147.818 113.778 148.273 113.414 148.636 113.051C149.818 112.052 151.091 110.599 150.454 108.511L150.364 108.783C152.454 108.874 154.091 107.421 153.545 104.606C153.454 103.88 153.182 103.154 152.909 102.518L152.545 102.972C158.545 107.058 159.636 103.88 156.182 97.2513L155.727 97.7961C161.818 102.609 164.454 102.155 161.091 92.6203L160.636 93.1651C161.091 93.4375 161.636 93.6191 162.091 93.7099C165.364 94.3455 166.364 90.8042 166.909 87.4444C167.273 84.9927 168.454 82.9042 170.182 81.8146C171.909 80.7249 173.818 80.2709 175.818 80.0893C176.818 79.9985 177.727 79.9985 178.727 80.0893C177.727 79.9077 176.818 79.8169 175.818 79.9077C171.727 79.9985 167.454 81.5422 166.454 87.2628C166.091 89.0789 165.818 90.895 164.727 92.1662C163.727 93.3467 162.182 93.0743 160.909 92.4387L160.091 91.9846L160.454 92.9835C160.818 94.0731 162.636 99.249 161.545 99.8846C160.091 100.248 157.273 98.0685 156 97.0697L154.727 96.0708C155.545 97.6145 157.818 101.791 157.273 103.608C156.545 104.788 153.545 102.881 152.636 102.336L151.909 101.882C152.454 103.335 153.273 105.06 152.818 106.695C152.364 108.057 151 108.42 149.909 108.42C150.727 110.509 149.545 111.78 148.364 112.96C148.182 113.324 147.818 113.687 147.636 114.322Z" fill="#C7C7C7"/>
<path d="M166.727 93.6191C167.091 94.618 167.364 95.526 167.636 96.5249C167.818 97.3421 168 98.2501 167.727 99.0674C166.909 100.883 164.454 100.248 163.091 99.7938L162.727 99.703C162.909 100.611 163.091 101.61 163.091 102.518C163.182 105.968 159.727 103.971 158.364 103.154L158.545 103.789C158.818 104.879 159.091 107.149 157.818 107.331C156.636 107.331 155.454 106.695 154.454 106.15L154.273 106.059C154.636 107.24 154.364 108.783 153.455 109.328C153.182 109.51 152.909 109.601 152.545 109.691C154 109.51 154.909 108.057 154.545 106.241L154.364 106.423C155.455 107.058 157.182 108.239 158.364 107.694C159.454 106.877 159.182 104.97 158.909 103.698L158.636 104.062C159.545 104.606 160.454 105.06 161.545 105.242C164 105.514 163.727 102.336 163.273 100.157L163 100.52C164.545 100.974 167.182 101.61 168 99.4306C168.455 97.6145 167.364 95.072 166.727 93.6191Z" fill="#C7C7C7"/>
<path d="M150.091 98.4316C150.818 93.5282 153.818 89.1696 157.364 85.8098C160.636 82.9041 164.545 80.9064 168.273 78.7271C171.818 76.8202 176.909 74.1869 180.364 72.1892C184.273 69.9191 188.273 67.5582 191.273 64.1077C190.091 66.1054 188.364 67.7398 186.545 69.1927C183 72.0984 179 74.4593 175 76.7294C171 78.9995 166.909 81.088 163 83.3581C161 84.5386 159.091 85.719 157.454 87.2627C154.182 90.2592 151.364 94.073 150.091 98.4316Z" fill="white"/>
<path d="M161 109.873C161 109.873 172.273 98.9766 162.818 85.9008C153.363 72.825 139.727 81.179 139.727 81.179C139.727 81.179 145 97.0697 161 109.873Z" fill="#DBDBDB"/>
<path d="M161 109.873C145 97.1605 139.818 81.2698 139.818 81.2698C139.818 81.2698 154.454 92.0755 161 109.873Z" fill="#DBDBDB"/>
<path d="M160.454 87.7168C161 88.4432 162 88.6248 162.727 88.08L164.545 86.7179C165.273 86.1731 165.454 85.1743 164.909 84.4478C164.363 83.7214 163.363 83.5398 162.636 84.0846L160.818 85.4467C160.091 85.9915 159.909 86.9903 160.454 87.7168Z" fill="#DBDBDB"/>
<path opacity="0.4" d="M160.454 87.7168C161 88.4432 162 88.6248 162.727 88.08L164.545 86.7179C165.273 86.1731 165.454 85.1743 164.909 84.4478C164.363 83.7214 163.363 83.5398 162.636 84.0846L160.818 85.4467C160.091 85.9915 159.909 86.9903 160.454 87.7168Z" fill="white"/>
<path opacity="0.2" d="M161 109.873C145 97.1605 139.818 81.2698 139.818 81.2698C139.818 81.2698 154.454 92.0755 161 109.873Z" fill="black"/>
<path d="M146.636 98.7949C147.181 99.5214 148.181 99.703 148.909 99.1581L155.363 94.6179L153.545 91.9846L147.091 96.5248C146.272 97.0696 146.091 98.0685 146.636 98.7949Z" fill="#DBDBDB"/>
<path opacity="0.3" d="M146.636 98.7949C147.181 99.5214 148.181 99.703 148.909 99.1581L155.363 94.6179L153.545 91.9846L147.091 96.5248C146.272 97.0696 146.091 98.0685 146.636 98.7949Z" fill="black"/>
<path d="M161 109.873C154.545 92.0755 139.818 81.2698 139.818 81.2698C139.818 81.2698 153.454 72.9158 162.909 85.9916C172.272 98.9766 161 109.873 161 109.873Z" fill="#DBDBDB"/>
<path opacity="0.4" d="M161 109.873C154.545 92.0755 139.818 81.2698 139.818 81.2698C139.818 81.2698 153.454 72.9158 162.909 85.9916C172.272 98.9766 161 109.873 161 109.873Z" fill="white"/>
<g opacity="0.3">
<path d="M160.454 83.0858C155.091 81.3605 148.727 83.9031 145.091 85.8099C144 84.7203 143 83.8123 142.182 83.1766C153.091 77.7284 160 82.8134 160.454 83.0858Z" fill="white"/>
<path d="M161.363 84.0846C155.272 84.2662 150.363 86.3547 147.272 88.08C146.909 87.7168 146.636 87.3535 146.272 87.0811C154.272 82.9041 161.363 84.0846 161.363 84.0846Z" fill="white"/>
</g>
<path opacity="0.1" d="M161 109.873C158.09 101.973 153.636 95.3445 149.454 90.5319C152.181 93.6193 159.545 101.428 162.363 100.611C164.818 99.9755 166.09 93.3468 164.636 88.8066C170.636 100.52 161 109.873 161 109.873Z" fill="black"/>
<path d="M74.5454 113.415C71.2727 133.755 85 152.824 105.636 156.183L118.182 158.181L127.636 84.2664L119.545 82.9044C118.909 82.8136 118.273 82.632 117.636 82.5412C96.909 79.2722 77.8181 93.0744 74.5454 113.415Z" fill="#DBDBDB"/>
<path opacity="0.2" d="M74.5454 113.415C71.2727 133.755 85 152.824 105.636 156.183L118.182 158.181L127.636 84.2664L119.545 82.9044C118.909 82.8136 118.273 82.632 117.636 82.5412C96.909 79.2722 77.8181 93.0744 74.5454 113.415Z" fill="black"/>
<g opacity="0.05">
<path d="M119.545 147.012H86.3636C83.4545 144.379 81 141.291 79 137.932H120.727L119.545 147.012Z" fill="black"/>
<path d="M121 135.48H77.7272C77.2727 134.572 76.909 133.664 76.5454 132.756H121.364L121 135.48Z" fill="black"/>
</g>
<path d="M155.382 124.082C157.216 103.553 143.298 85.5379 124.295 83.8441C105.293 82.1503 88.401 97.4194 86.567 117.948C84.7329 138.478 98.6508 156.493 117.653 158.186C136.656 159.88 153.547 144.611 155.382 124.082Z" fill="#DBDBDB"/>
<path opacity="0.1" d="M155.303 125.056C157.057 105.426 144.128 88.2333 126.426 86.6553C108.723 85.0773 92.9506 99.7113 91.1967 119.341C89.4428 138.971 102.372 156.164 120.074 157.742C137.777 159.32 153.549 144.686 155.303 125.056Z" fill="black"/>
<path d="M153.22 124.87C154.863 106.489 142.776 90.3915 126.223 88.9159C109.671 87.4403 94.9215 101.145 93.2791 119.526C91.6366 137.908 103.723 154.005 120.276 155.48C136.828 156.956 151.578 143.251 153.22 124.87Z" fill="white"/>
<path opacity="0.5" d="M153.455 120.497C138.455 127.126 113.818 137.841 100 143.743C97.091 139.839 95.0001 135.208 93.9092 130.122L141.909 95.5261C148.818 101.428 153.182 110.6 153.455 120.497Z" fill="white"/>
<path opacity="0.5" d="M152.727 128.76C152 132.483 150.727 135.934 149 139.112L108.818 151.734C107.273 150.826 105.818 149.827 104.545 148.647C116.818 143.562 139.454 134.209 152.727 128.76Z" fill="white"/>
<path d="M128.545 92.6203L128 95.7077C127.909 95.7077 127.818 95.7077 127.727 95.6169C127.636 95.6169 127.545 95.6169 127.455 95.5261L128 92.4387L128.545 92.6203Z" fill="#263238"/>
<path d="M115.455 96.7973C115.273 96.8881 115.091 96.9789 114.909 96.9789L114 94.0732L114.545 93.8916L115.455 96.7973Z" fill="#263238"/>
<path d="M105 104.788C104.909 104.97 104.727 105.151 104.636 105.242L102.545 103.244L102.909 102.79L105 104.788Z" fill="#263238"/>
<path d="M99.3636 117.773C99.3636 117.864 99.3636 117.955 99.2727 118.045L96.5454 117.501L96.6363 116.865L99.3636 117.41C99.3636 117.501 99.3636 117.682 99.3636 117.773Z" fill="#263238"/>
<path d="M100.454 131.938L97.818 133.028L97.6362 132.483L100.273 131.394C100.273 131.575 100.364 131.757 100.454 131.938Z" fill="#263238"/>
<path d="M107.727 143.198L105.909 145.559L105.455 145.196L107.273 142.835C107.364 142.926 107.545 143.017 107.727 143.198Z" fill="#263238"/>
<path d="M119.091 148.828L118.545 151.915L118 151.825L118.545 148.737C118.636 148.737 118.727 148.737 118.818 148.828C118.909 148.828 119 148.828 119.091 148.828Z" fill="#263238"/>
<path d="M132.636 150.19L132.091 150.372L131.182 147.466C131.363 147.375 131.545 147.284 131.727 147.284L132.636 150.19Z" fill="#263238"/>
<path d="M144.091 141.019L143.727 141.473L141.636 139.475C141.727 139.294 141.909 139.112 142 139.021L144.091 141.019Z" fill="#263238"/>
<path d="M150 126.763L149.909 127.398L147.182 126.853C147.182 126.763 147.182 126.672 147.273 126.581C147.273 126.49 147.273 126.399 147.363 126.309L150 126.763Z" fill="#263238"/>
<path d="M149 111.871L146.363 112.96C146.273 112.779 146.273 112.597 146.182 112.416L148.818 111.326L149 111.871Z" fill="#263238"/>
<path d="M141.182 99.1581L139.364 101.519C139.182 101.337 139.091 101.247 138.909 101.156L140.727 98.7949L141.182 99.1581Z" fill="#263238"/>
<path d="M140.364 100.248L123.091 124.947L120.909 122.858L139.727 99.7031L140.364 100.248Z" fill="#C7C7C7"/>
<path d="M116.364 101.156L125.364 123.585L122.727 124.674L115.636 101.519L116.364 101.156Z" fill="#DBDBDB"/>
<path d="M124.273 122.313C124.182 122.858 123.636 123.312 123.091 123.221C122.545 123.131 122.182 122.586 122.273 121.95C122.364 121.405 122.909 120.951 123.455 121.042C124 121.224 124.364 121.769 124.273 122.313Z" fill="#C7C7C7"/>
<path d="M124.091 121.405C124.454 121.859 124.363 122.586 123.909 123.04C123.454 123.494 122.818 123.403 122.454 122.949C122.091 122.495 122.182 121.769 122.636 121.315C123.091 120.861 123.727 120.951 124.091 121.405Z" fill="#DBDBDB"/>
<path d="M123.636 121.859L136.818 139.839L136.545 140.02L122.909 122.495L123.636 121.859Z" fill="#DBDBDB"/>
<path d="M101.091 88.1708C100.182 88.6248 99.0909 88.2616 98.5455 87.3535L96 82.3593L99.3636 80.634L101.909 85.6283C102.364 86.5363 102 87.6259 101.091 88.1708Z" fill="#DBDBDB"/>
<path opacity="0.3" d="M101.091 88.1708C100.182 88.6248 99.0909 88.2616 98.5455 87.3535L96 82.3593L99.3636 80.634L101.909 85.6283C102.364 86.5363 102 87.6259 101.091 88.1708Z" fill="black"/>
<path d="M80.182 92.1662C80.182 92.1662 74.4547 74.9135 91.182 66.6503C107.909 58.3871 117.364 74.2778 117.364 74.2778C117.364 74.2778 100.909 87.5352 80.182 92.1662Z" fill="#DBDBDB"/>
<path opacity="0.4" d="M80.182 92.1662C80.182 92.1662 74.4547 74.9135 91.182 66.6503C107.909 58.3871 117.364 74.2778 117.364 74.2778C117.364 74.2778 100.909 87.5352 80.182 92.1662Z" fill="white"/>
<g opacity="0.3">
<path d="M87.5459 90.0776C86.1822 90.5316 84.8186 90.8948 83.455 91.3488C80.0913 75.3673 88.6368 68.103 89.0004 67.8306C84.9095 75.3673 86.5459 85.719 87.5459 90.0776Z" fill="white"/>
<path d="M91.0004 88.8972C90.455 89.0788 89.9095 89.2604 89.3641 89.5329C89.3641 89.442 89.2732 89.3512 89.2732 89.1696C86.3641 76.8203 90.2732 67.1042 90.2732 67.1042C88.0004 77.2743 89.9095 85.3559 91.0004 88.8972Z" fill="white"/>
</g>
<path opacity="0.1" d="M117.364 74.1869C117.364 74.1869 108.182 81.5421 94.9092 87.2627C102.909 83.0857 110.546 76.7295 111 73.1881C111.273 71.4628 110.636 67.7399 102 64.2893C111.909 65.1065 117.364 74.1869 117.364 74.1869Z" fill="black"/>
<path d="M92.6363 69.7377C91.7272 70.1917 90.6363 69.8285 90.0909 68.9204L88.9091 66.5595C88.4545 65.6515 88.8182 64.5618 89.7272 64.017C90.6363 63.563 91.7272 63.9262 92.2727 64.8342L93.4545 67.1951C94 68.194 93.6363 69.2836 92.6363 69.7377Z" fill="#DBDBDB"/>
<path opacity="0.4" d="M92.6363 69.7377C91.7272 70.1917 90.6363 69.8285 90.0909 68.9204L88.9091 66.5595C88.4545 65.6515 88.8182 64.5618 89.7272 64.017C90.6363 63.563 91.7272 63.9262 92.2727 64.8342L93.4545 67.1951C94 68.194 93.6363 69.2836 92.6363 69.7377Z" fill="white"/>
<path d="M83.9999 113.687C83.9999 113.687 84.4544 111.144 85.4544 105.969C86.3635 101.065 88.5454 88.4434 86.6363 82.3595C81.7272 66.4688 59.2726 55.4815 47.1817 39.046C40.5454 30.0564 41.7272 27.1506 38.909 26.515C36.0908 25.8794 32.909 42.0425 45.4544 55.1183C45.4544 55.1183 36.6363 54.3919 35.909 56.4803C35.1817 58.5688 41.4544 62.7458 46.2726 64.1987C46.2726 64.1987 36.3635 67.3768 36.6363 70.4642C36.9999 73.5515 46.3635 75.7308 50.4544 75.8216C50.4544 75.8216 44.4544 78.4549 45.2726 80.9066C46.4544 84.6296 56.0908 84.2664 56.0908 84.2664C56.0908 84.2664 52.2726 86.1733 53.3635 87.8986C54.909 90.2595 62.5454 90.3503 62.5454 90.3503C62.5454 90.3503 61.6363 96.7974 71.5453 97.5238C71.5453 97.5238 71.5453 102.7 79.0908 102.609C79.0908 102.609 81.2726 105.515 81.3635 107.966C81.4544 110.509 82.7272 113.505 83.9999 113.687Z" fill="white"/>
<path d="M84.5455 106.604C84.4545 105.969 84 105.424 83.6364 104.879C82.3636 103.244 81.2727 101.338 82.8182 99.5214L82.9091 99.7938C80.1818 98.9766 78.5455 96.7973 80.2727 94.164C80.7273 93.4375 81.1818 92.8927 81.8182 92.2571L82.0909 92.8019C72.9091 94.3456 72.6364 90.6226 79.2727 85.4468L79.6364 86.264C70.0909 88.3525 66.7273 86.8088 74.5455 78.6365L74.9091 79.4537C74.1818 79.5445 73.4545 79.4537 72.8182 79.3629C68.3636 78.5457 68.2727 74.4595 68.7273 70.8273C69.0909 68.194 68.2727 65.5607 66.4545 63.7446C64.6364 61.8377 62.2727 60.4757 59.8182 59.4768C58.5455 59.0228 57.2727 58.5688 56 58.2056C57.2727 58.478 58.6364 58.8412 59.9091 59.2952C65.1818 61.2021 70.1818 64.6527 69.5455 70.9181C69.3636 72.9158 69.1818 74.8227 70.0909 76.548C71 78.1825 73.0909 78.6365 74.9091 78.5457L76.0909 78.4549L75.2727 79.3629C74.3636 80.271 70.2727 84.7204 71.4545 85.81C73.1818 86.8088 77.5455 85.81 79.5455 85.4468L81.5455 84.9928C80 86.264 75.5455 89.3514 75.6364 91.4399C76.1818 92.9835 80.7273 92.4387 82.0909 92.2571L83.1818 92.0755C81.9091 93.2559 80.2727 94.7088 80.2727 96.5249C80.3636 98.1594 82.0909 99.1582 83.4545 99.6122C81.7273 101.337 82.7273 103.154 83.9091 104.879C84.0909 105.333 84.4545 105.969 84.5455 106.604Z" fill="#C7C7C7"/>
<path d="M66.9092 77.0928C66.182 77.91 65.3638 78.7272 64.7274 79.6353C64.2729 80.3617 63.6365 81.2698 63.6365 82.1778C64.091 84.3571 67.5456 84.8111 69.3638 84.9927H69.9092C69.3638 85.81 68.7274 86.718 68.4547 87.7168C67.091 91.1674 72.3638 90.6226 74.3638 90.441L74.0001 90.9858C73.2729 91.9846 72.091 94.1639 73.6365 94.8904C75.091 95.4352 76.9092 95.3444 78.4547 95.1628H78.8183C78.0001 96.2524 77.7274 97.8869 78.7274 98.8858C79.0001 99.1582 79.3638 99.4306 79.7274 99.703C77.9092 98.8858 77.2729 96.9789 78.3638 95.2536L78.5456 95.526C76.9092 95.7076 74.182 96.0708 72.9092 94.9812C71.8183 93.7099 72.7274 91.8938 73.5456 90.6226L73.8183 91.0766C72.4547 91.2582 71.091 91.2582 69.7274 90.9858C66.3638 90.1686 67.9092 87.0812 69.2729 85.0835L69.4547 85.5375C67.3638 85.3559 63.7274 84.8111 63.3638 82.2686C63.3638 80.4525 65.6365 78.364 66.9092 77.0928Z" fill="#C7C7C7"/>
<path opacity="0.1" d="M83.9998 113.687C82.7271 113.414 81.5453 110.509 81.3635 108.057C81.1817 105.605 79.0907 102.7 79.0907 102.7C71.5453 102.79 71.5453 97.6145 71.5453 97.6145C61.6362 96.8881 62.5453 90.441 62.5453 90.441C64.4544 95.526 72.2726 96.0708 72.2726 96.0708C74.2726 101.973 79.6362 101.428 79.6362 101.428C79.6362 101.428 81.0907 102.427 82.1817 102.972C83.3635 103.517 84.5453 96.0708 85.1816 90.1686C85.7271 84.6295 82.818 74.6411 80.6362 71.7354C83.3635 75.0951 85.4544 78.5457 86.5453 82.2686C88.3635 88.3525 86.1817 100.974 85.3635 105.878C84.4544 111.144 83.9998 113.687 83.9998 113.687Z" fill="black"/>
<path d="M46.5452 54.3918C40.9088 49.0344 36.9088 41.1344 37.2724 33.2344C37.3633 31.8724 37.5452 30.6011 37.9088 29.3299C37.9997 29.0575 38.0906 28.7851 38.2724 28.5126C38.8179 28.0586 39.3633 28.7851 39.5452 29.2391C39.8179 29.7839 40.0906 30.4195 40.3634 31.0552C39.9997 30.5103 39.6361 29.9655 39.1815 29.5115C38.9997 29.3299 38.8179 29.0575 38.6361 28.9667H38.727C38.6361 29.1483 38.6361 29.3299 38.6361 29.5115C37.4543 38.4103 41.727 47.0367 46.5452 54.3918Z" fill="white"/>
<path d="M37.7271 56.208C38.6362 57.9333 40.5453 58.8413 42.0907 59.8402C43.5453 60.7482 45.7271 62.0195 47.0907 63.1091C43.9998 62.7459 40.9998 61.3838 38.9089 59.1137C38.1816 58.3873 37.4544 57.2977 37.7271 56.208Z" fill="white"/>
<path d="M45.6363 66.0148C44.4545 67.0136 43.0908 67.74 41.7272 68.4665C40.4545 69.1929 38.9999 69.6469 38.0908 70.8274C37.909 70.0101 38.4545 69.1021 38.9999 68.5573C40.8181 66.832 43.2727 65.9239 45.6363 66.0148Z" fill="white"/>
<path d="M71.3637 68.4666C71.7273 70.0102 71.7273 71.5539 71.7273 73.0976C71.8182 74.5504 71.4546 76.0941 72.1819 77.3653C71.3637 77.1837 70.8182 76.1849 70.5455 75.4585C69.9092 73.0976 70.1819 70.555 71.3637 68.4666Z" fill="white"/>
<path d="M78.3633 305.828C99.8178 292.026 124.091 277.225 146.272 264.421C124.727 278.224 100.454 293.025 78.3633 305.828Z" fill="#263238"/>
<path d="M23.1816 380.106C64.0907 354.408 110.363 326.168 151.909 301.56C111 327.258 64.7271 355.498 23.1816 380.106Z" fill="#263238"/>
<path d="M135.727 347.507C152.454 336.611 169.545 326.168 186.909 316.271C170.182 327.258 153.091 337.7 135.727 347.507Z" fill="#263238"/>
<path d="M54.1816 336.066C70.9089 325.169 87.9998 314.727 105.363 304.829C88.6362 315.817 71.5453 326.259 54.1816 336.066Z" fill="#263238"/>
<path d="M94.4546 347.507C103.909 341.06 113.727 335.067 123.818 329.619C114.364 336.066 104.545 342.15 94.4546 347.507Z" fill="#263238"/>
<path d="M182.272 343.239C191.727 336.792 201.545 330.799 211.636 325.351C202.182 331.798 192.363 337.791 182.272 343.239Z" fill="#263238"/>
<path d="M143.727 279.949C153.182 273.502 163 267.509 173.091 262.061C163.636 268.508 153.818 274.501 143.727 279.949Z" fill="#263238"/>
<path d="M329.727 218.202C329.727 218.202 327.818 212.845 323.909 201.767C320.273 191.324 311 164.355 311.727 151.189C313.727 116.502 349.546 91.1672 364.364 55.0271C372.455 35.2319 369.182 29.0572 374 27.6043C378.818 26.0606 391.455 60.4754 374.364 89.6235C374.364 89.6235 390 87.3534 392.273 91.8936C394.546 96.4338 385 105.787 376.909 109.328C376.909 109.328 396.182 115.321 396.909 122.041C397.637 128.76 381.546 134.027 374.182 134.572C374.182 134.572 386.091 139.838 385.727 145.014C385.273 153.005 367.637 153.005 367.637 153.005C367.637 153.005 375.273 156.909 374 160.632C372.273 165.717 358.455 166.716 358.455 166.716C358.455 166.716 362.909 180.609 345.273 182.788C345.273 182.788 347.546 193.867 333.818 194.23C333.818 194.23 331.182 200.586 331.909 205.944C332.909 211.21 331.909 217.566 329.727 218.202Z" fill="white"/>
<path d="M328.091 202.947C327.909 201.585 328.545 200.405 328.909 199.224C330.454 195.683 331.636 191.324 328.091 187.601V188.237C332.636 186.33 334.636 181.427 330.545 175.887C329.455 174.435 328.273 173.163 327 171.983L326.727 173.254C343.909 175.797 342.909 167.806 328.636 157.182L328.273 158.907C346.455 162.721 351.727 159.089 334.273 142.199L333.909 143.924C335.273 144.015 336.455 143.834 337.727 143.561C345.454 141.473 343.818 132.756 341.455 124.946C339.727 119.317 340 113.687 342.636 109.419C345.182 105.151 348.909 102.155 352.818 99.7937C354.818 98.6132 356.909 97.6144 359.091 96.7971C356.818 97.4327 354.636 98.3408 352.545 99.4304C343.818 103.88 336.364 111.78 340.091 125.128C341.182 129.305 342.455 133.573 341.545 137.387C340.636 141.019 337 142.199 333.727 142.018L331.545 141.927L333.454 143.743C335.364 145.65 344.636 154.912 343.091 157.363C340.364 159.634 332.091 157.908 328.273 157.182L324.545 156.365C327.909 158.907 337.273 165.354 338 169.804C337.727 173.163 329.182 172.255 326.727 171.983L324.727 171.71C327.455 174.253 331.091 177.068 331.818 181.154C332.364 184.605 329.727 186.875 327.364 187.964C331.273 191.597 330.182 195.592 328.818 199.406C328.364 200.314 327.818 201.494 328.091 202.947Z" fill="#C7C7C7"/>
<path d="M347.273 138.294C349 140.02 350.727 141.745 352.273 143.652C353.455 145.286 354.909 147.012 355.273 149.1C355.454 153.913 349.364 155.093 346.091 155.456L345.182 155.547C346.545 157.363 348 159.27 349 161.268C352.909 168.623 343.273 167.897 339.455 167.533L340.455 168.714C342.182 170.802 345.273 175.433 342.727 177.068C340.273 178.339 337 178.157 334.182 178.067H333.545C335.545 180.246 336.727 183.787 335.273 186.057C334.909 186.784 334.364 187.329 333.818 187.783C336.818 185.876 337.091 181.79 334.455 178.157L334.273 178.702C337.273 178.975 342.364 179.61 344.273 177.159C345.727 174.253 343.182 170.439 341.182 167.897L340.909 168.895C343.455 169.168 346 169.168 348.273 168.351C353.909 166.353 349.909 159.815 346.636 155.729L346.455 156.728C350.182 156.183 356.545 154.73 356.091 149.191C355.182 145.196 350.091 140.746 347.273 138.294Z" fill="#C7C7C7"/>
<path d="M316.546 166.171C312.909 154.821 314.909 142.381 318.909 131.393C322.818 121.768 329.091 113.233 335 104.697C340.636 96.8879 348.727 85.719 354 77.9099C360 68.8295 366.182 59.6583 369 49.0342C368.455 54.5732 366.546 59.8399 364.273 64.8341C359.637 74.9133 353.636 84.1754 347.364 93.2558C341.182 102.245 334.636 111.144 328.636 120.225C325.636 124.765 322.818 129.396 320.818 134.299C316.818 144.378 314.637 155.457 316.546 166.171Z" fill="white"/>
<path d="M352 179.338C352 179.338 364.818 144.015 330.728 125.945C296.637 107.875 276.182 140.111 276.182 140.111C276.182 140.111 304.182 168.805 352 179.338Z" fill="#FFC727"/>
<path d="M352 179.338C304.182 168.714 276.182 140.111 276.182 140.111C276.182 140.111 319.364 147.829 352 179.338Z" fill="#FFC727"/>
<path d="M327.455 132.301C329.364 133.3 331.637 132.665 332.637 130.758L335.273 125.945C336.273 124.038 335.637 121.768 333.728 120.769C331.819 119.77 329.546 120.406 328.546 122.313L325.91 127.126C324.91 128.942 325.637 131.303 327.455 132.301Z" fill="#FFC727"/>
<path opacity="0.4" d="M327.455 132.301C329.364 133.3 331.637 132.665 332.637 130.758L335.273 125.945C336.273 124.038 335.637 121.768 333.728 120.769C331.819 119.77 329.546 120.406 328.546 122.313L325.91 127.126C324.91 128.942 325.637 131.303 327.455 132.301Z" fill="white"/>
<path opacity="0.2" d="M352 179.338C304.182 168.714 276.182 140.111 276.182 140.111C276.182 140.111 319.364 147.829 352 179.338Z" fill="black"/>
<path d="M308.727 170.257L310.182 171.075C311.636 171.892 313.455 171.347 314.273 169.894L323.636 152.551L316.909 148.918L307.546 166.171C306.727 167.624 307.273 169.44 308.727 170.257Z" fill="#FFC727"/>
<path opacity="0.3" d="M308.727 170.257L310.182 171.075C311.636 171.892 313.455 171.347 314.273 169.894L323.636 152.551L316.909 148.918L307.546 166.171C306.727 167.624 307.273 169.44 308.727 170.257Z" fill="black"/>
<path d="M352 179.338C319.364 147.829 276.182 140.111 276.182 140.111C276.182 140.111 296.637 107.784 330.728 125.945C364.818 144.015 352 179.338 352 179.338Z" fill="#FFC727"/>
<path opacity="0.4" d="M352 179.338C319.364 147.829 276.182 140.111 276.182 140.111C276.182 140.111 296.637 107.784 330.728 125.945C364.818 144.015 352 179.338 352 179.338Z" fill="white"/>
<g opacity="0.3">
<path d="M322.637 122.495C309.273 124.492 298.364 136.569 292.546 144.56C289.091 143.379 286.001 142.562 283.455 141.836C301.091 118.59 321.546 122.222 322.637 122.495Z" fill="white"/>
<path d="M325.637 123.584C312.728 130.395 304.364 140.02 299.637 147.102C298.546 146.648 297.455 146.285 296.455 145.922C309.364 128.488 325.637 123.584 325.637 123.584Z" fill="white"/>
</g>
<path opacity="0.1" d="M352 179.338C337.455 165.354 320.818 156.001 306.818 150.008C316 153.731 340 162.721 345.273 158.181C349.818 154.276 345.546 138.567 337.637 130.395C363 149.191 352 179.338 352 179.338Z" fill="black"/>
<path d="M169.909 277.951C184.273 325.078 233.909 351.775 281.818 337.155L310.818 328.347L253.091 159.542L234.364 165.172C232.909 165.536 231.364 165.99 229.909 166.444C182 181.063 155.636 230.824 169.909 277.951Z" fill="#FFC727"/>
<path opacity="0.2" d="M169.909 277.951C184.273 325.078 233.909 351.775 281.818 337.155L310.818 328.347L253.091 159.542L234.364 165.172C232.909 165.536 231.364 165.99 229.909 166.444C182 181.063 155.636 230.824 169.909 277.951Z" fill="black"/>
<g opacity="0.05">
<path d="M302.182 302.831L230.727 337.791C221.637 335.157 213.091 331.162 205.364 325.986L295.091 282.128L302.182 302.831Z" fill="black"/>
<path d="M293.091 276.498L200 321.991C198.091 320.538 196.273 318.994 194.545 317.36L291 270.233L293.091 276.498Z" fill="black"/>
</g>
<path d="M310.035 328.857C352.686 312.491 372.884 261.843 355.15 215.731C337.415 169.618 288.464 145.503 245.813 161.868C203.162 178.233 182.964 228.882 200.698 274.994C218.432 321.107 267.384 345.222 310.035 328.857Z" fill="#FFC727"/>
<path opacity="0.1" d="M314.729 325.116C354.38 309.902 372.804 261.895 355.88 217.889C338.956 173.883 293.092 150.543 253.441 165.757C213.79 180.971 195.366 228.979 212.29 272.985C229.215 316.99 275.078 340.331 314.729 325.116Z" fill="black"/>
<path d="M312.773 320.029C349.94 305.768 367.226 260.811 351.382 219.614C335.538 178.417 292.564 156.581 255.397 170.842C218.23 185.103 200.945 230.061 216.789 271.258C232.633 312.455 275.606 334.29 312.773 320.029Z" fill="white"/>
<path opacity="0.5" d="M347.091 210.211C321.818 240.176 280.182 289.301 256.818 316.452C246.364 311.185 237 303.376 229.455 293.66L296.182 168.714C317.091 174.071 336 189.054 347.091 210.211Z" fill="white"/>
<path opacity="0.5" d="M354.273 228.735C356.636 237.543 357.545 246.351 357.091 254.887L284 324.261C279.818 323.898 275.636 323.262 271.545 322.172C292.727 298.109 331.455 254.433 354.273 228.735Z" fill="white"/>
<path d="M264.091 176.341L266.182 183.424C266 183.515 265.727 183.515 265.546 183.606C265.364 183.696 265.091 183.696 264.909 183.787L262.818 176.705L264.091 176.341Z" fill="#263238"/>
<path d="M240.455 199.224C240.182 199.587 239.818 199.86 239.546 200.223L234.455 194.956L235.364 193.957L240.455 199.224Z" fill="#263238"/>
<path d="M226.364 227.373C226.273 227.827 226.182 228.281 226.091 228.826L219.455 226.828L219.727 225.375L226.364 227.373Z" fill="#263238"/>
<path d="M227.909 261.152C228 261.425 228.091 261.606 228.091 261.879L221.636 263.695L221.182 262.242L227.636 260.426C227.818 260.607 227.909 260.88 227.909 261.152Z" fill="#263238"/>
<path d="M245.182 290.482L240.636 295.567L239.636 294.477L244.182 289.392C244.545 289.756 244.909 290.119 245.182 290.482Z" fill="#263238"/>
<path d="M272.727 307.008L271.364 314L270 313.637L271.364 306.554C271.818 306.827 272.273 306.918 272.727 307.008Z" fill="#263238"/>
<path d="M303.182 307.099L305.273 314.182L304 314.545L301.909 307.462C302.091 307.372 302.364 307.372 302.546 307.281C302.818 307.19 303 307.19 303.182 307.099Z" fill="#263238"/>
<path d="M333.636 295.93L332.727 296.929L327.636 291.662C327.909 291.299 328.273 291.027 328.545 290.664L333.636 295.93Z" fill="#263238"/>
<path d="M348.727 264.058L348.455 265.511L341.818 263.513C341.909 263.059 342 262.605 342.091 262.06L348.727 264.058Z" fill="#263238"/>
<path d="M346.364 227.282L346.818 228.735L340.364 230.551C340.273 230.279 340.182 230.097 340.182 229.825C340.091 229.553 340 229.371 340 229.099L346.364 227.282Z" fill="#263238"/>
<path d="M328.455 196.409L323.909 201.494C323.546 201.131 323.273 200.768 322.909 200.404L327.455 195.319L328.455 196.409Z" fill="#263238"/>
<path d="M298.182 177.249L296.818 184.332C296.364 184.151 295.909 184.06 295.455 183.969L296.818 176.886L298.182 177.249Z" fill="#263238"/>
<path d="M297.546 180.427L286.455 251.618L279.728 249.529L295.728 179.883L297.546 180.427Z" fill="#37474F"/>
<path d="M247 207.669L290 246.26L285.364 251.527L245.728 209.122L247 207.669Z" fill="#455A64"/>
<path d="M286.273 244.807C286.727 246.169 286 247.532 284.727 247.895C283.455 248.258 282.182 247.441 281.727 246.079C281.273 244.717 282 243.355 283.273 242.991C284.546 242.628 285.909 243.445 286.273 244.807Z" fill="#C7C7C7"/>
<path d="M285 242.991C286.273 243.627 286.909 245.261 286.455 246.714C285.909 248.076 284.455 248.621 283.091 247.986C281.819 247.35 281.182 245.715 281.637 244.263C282.182 242.901 283.728 242.356 285 242.991Z" fill="#FFC727"/>
<path d="M284.455 244.353L331.728 269.143L331.455 269.869L283.637 246.533L284.455 244.353Z" fill="#FFC727"/>
<path d="M201.182 194.502L199.455 196.772C198.455 198.134 196.546 198.407 195.273 197.408L183.364 188.509L188.727 181.426L200.636 190.325C201.909 191.324 202.182 193.231 201.182 194.502Z" fill="#FFC727"/>
<path opacity="0.3" d="M201.182 194.502L199.455 196.772C198.455 198.134 196.546 198.407 195.273 197.408L183.364 188.509L188.727 181.426L200.636 190.325C201.909 191.324 202.182 193.231 201.182 194.502Z" fill="black"/>
<path d="M159.818 226.374C159.818 226.374 129.364 195.319 156.455 159.906C183.637 124.492 220.727 148.646 220.727 148.646C220.727 148.646 199.364 194.502 159.818 226.374Z" fill="#FFC727"/>
<path opacity="0.4" d="M159.818 226.374C159.818 226.374 129.364 195.319 156.455 159.906C183.637 124.492 220.727 148.646 220.727 148.646C220.727 148.646 199.364 194.502 159.818 226.374Z" fill="white"/>
<g opacity="0.3">
<path d="M173.455 214.207C171 216.567 168.545 218.928 165.909 221.198C141.909 190.416 152.636 165.808 153 164.9C152.182 185.24 166.727 205.853 173.455 214.207Z" fill="white"/>
<path d="M179.545 207.941C178.545 208.94 177.636 209.939 176.636 211.028C176.455 210.847 176.273 210.665 176.182 210.393C156.909 186.965 155 161.903 155 161.903C160.909 186.057 173.455 201.494 179.545 207.941Z" fill="white"/>
</g>
<path opacity="0.1" d="M220.728 148.646C220.728 148.646 208.818 174.253 186.273 200.404C199.091 182.97 208.728 161.177 206 153.095C204.637 149.1 199.546 141.745 177.182 143.47C199.364 134.753 220.728 148.646 220.728 148.646Z" fill="black"/>
<path d="M163.091 164.718L162.728 165.263C161.364 167.079 158.728 167.442 156.909 166.08L151.364 161.903C149.546 160.541 149.182 157.908 150.546 156.092L150.909 155.638C152.273 153.822 154.909 153.459 156.728 154.821L162.273 158.998C164.091 160.36 164.546 162.902 163.091 164.718Z" fill="#FFC727"/>
<path opacity="0.4" d="M163.091 164.718L162.728 165.263C161.364 167.079 158.728 167.442 156.909 166.08L151.364 161.903C149.546 160.541 149.182 157.908 150.546 156.092L150.909 155.638C152.273 153.822 154.909 153.459 156.728 154.821L162.273 158.998C164.091 160.36 164.546 162.902 163.091 164.718Z" fill="white"/>
<path d="M190.636 268.598C190.636 268.598 189 262.605 185.546 250.619C182.273 239.178 173.636 209.757 163.273 198.588C136 169.349 76.091 169.349 32.9092 146.83C9.27284 134.481 8.63648 127.035 1.9092 128.76C-4.81807 130.395 5.36375 168.441 46.091 183.424C46.091 183.424 26.2728 191.142 27.0001 196.5C27.6365 201.857 45.4547 204.127 57.3637 202.311C57.3637 202.311 39.3637 219.564 43.3638 225.92C47.3638 232.277 69.8183 226.919 78.7274 222.833C78.7274 222.833 68.7274 234.819 72.8183 239.178C79.1819 245.897 99.6365 235.001 99.6365 235.001C99.6365 235.001 93.5456 243.173 97.7274 245.716C103.364 249.166 120.091 241.357 120.091 241.357C120.091 241.357 124.909 256.249 146.909 247.35C146.909 247.35 152.273 258.428 168.455 250.256C168.455 250.256 176.091 254.16 179.091 259.336C181.909 264.512 187.727 269.416 190.636 268.598Z" fill="white"/>
<path d="M184.273 252.798C183.455 251.436 181.909 250.801 180.636 250.074C176.273 247.986 171.818 244.808 173.182 239.359L173.727 239.904C167 241.085 161.182 237.997 162 230.551C162.182 228.644 162.636 226.738 163.273 224.922L164.546 225.83C146.455 238.724 141.818 231.096 150.818 212.845L152.455 214.116C134.091 228.735 125.364 228.826 133.364 203.129L135 204.4C133.455 205.308 132 205.943 130.273 206.397C119.818 209.394 115.364 200.677 112.636 192.414C110.636 186.421 106.182 181.608 100.182 179.519C94.2728 177.34 87.7274 176.977 81.4546 177.431C78.2728 177.703 75.091 178.067 71.9092 178.702C75.0001 177.885 78.1819 177.34 81.3637 176.977C94.7274 175.433 109.091 177.703 114.364 191.778C116.091 196.137 117.636 200.677 121.455 203.401C125.182 206.034 130.182 204.763 133.909 202.584L136.364 201.131L135.455 203.855C134.546 206.67 130.455 220.654 134 221.834C138.818 222.197 147.182 215.478 151.091 212.481L154.909 209.394C152.909 213.662 146.636 225.194 149 229.462C151.727 232.186 161 226.193 163.727 224.377L165.818 222.924C164.364 226.828 162.273 231.641 164.364 235.546C166.273 238.905 170.909 239.269 174.455 238.815C172.546 244.354 176.636 247.259 181 249.711C182 250.619 183.455 251.436 184.273 252.798Z" fill="#C7C7C7"/>
<path d="M115.455 207.941C114.636 210.484 114 213.117 113.545 215.75C113.273 217.93 112.909 220.381 114 222.379C117.273 226.738 125.182 223.923 129.273 222.288L130.364 221.834C130 224.286 129.727 226.828 130 229.28C130.727 238.088 141.455 231.55 145.545 228.826L145.273 230.461C144.727 233.366 144.545 239.359 148.636 239.269C152.364 238.905 156.091 236.726 159.273 234.819L159.909 234.365C159.182 237.543 160.364 241.357 163.727 242.447C164.636 242.81 165.727 242.992 166.727 243.082C161.909 243.355 158.636 239.904 159.091 235.092L159.636 235.455C156.364 237.543 150.909 241.175 146.909 240.267C143.091 238.633 143.273 233.73 143.818 230.279L144.909 231.005C142.182 232.821 139.182 234.365 135.909 235.092C127.909 236.817 127.818 228.554 128.727 223.015L129.727 223.741C125 225.557 116.545 228.19 113.091 223.105C111.182 218.928 113.909 211.937 115.455 207.941Z" fill="#C7C7C7"/>
<path opacity="0.1" d="M190.636 268.598C187.727 269.416 182 264.421 179 259.246C176.091 254.07 168.454 250.165 168.454 250.165C152.273 258.337 146.909 247.259 146.909 247.259C124.818 256.249 120.091 241.266 120.091 241.266C129.545 250.256 146.909 243.173 146.909 243.173C157.364 253.888 168.364 247.078 168.364 247.078C168.364 247.078 172.454 247.713 175.545 247.623C178.636 247.623 173.273 230.279 168.454 217.112C163.909 204.672 147 186.148 139.273 182.244H139.364C148.727 186.511 156.909 191.778 163.273 198.679C173.636 209.757 182.273 239.269 185.545 250.619C189 262.696 190.636 268.598 190.636 268.598Z" fill="black"/>
<path d="M47.6367 180.427C29.8185 174.888 12.8185 162.176 5.36399 144.741C4.18217 141.836 3.18217 138.748 2.63672 135.57C2.54581 134.935 2.36399 134.117 2.63672 133.391C3.36399 131.756 5.27308 132.937 6.18217 133.573C7.4549 134.481 8.63672 135.479 9.81854 136.569C8.4549 135.843 7.09126 135.116 5.63672 134.481C5.18217 134.299 4.27308 133.845 3.81854 133.936L4.00035 133.845C4.00035 134.208 4.18217 134.662 4.36399 135.116C11.2731 155.82 29.4549 169.803 47.6367 180.427Z" fill="white"/>
<path d="M30.5454 193.776C34.2727 196.5 39.2727 196.409 43.7272 197.135C47.909 197.589 53.8181 197.953 57.909 198.951C50.909 201.403 43 201.676 36.0909 198.951C33.8181 197.862 31.1818 196.318 30.5454 193.776Z" fill="white"/>
<path d="M57.909 206.397C56.3635 209.848 54.2726 212.754 52.0908 215.75C50.1817 218.656 47.3635 221.108 46.818 224.649C45.4544 223.015 45.818 220.563 46.4544 218.747C48.4544 213.208 52.6362 208.758 57.909 206.397Z" fill="white"/>
<path d="M115.727 184.604C118.091 187.601 119.727 190.779 121.364 194.048C123.091 197.045 124 200.677 126.818 202.856C124.727 203.31 122.727 201.857 121.364 200.495C117.546 196.227 115.455 190.416 115.727 184.604Z" fill="white"/>
</g>
<defs>
<clipPath id="clip0_222_3181">
<rect width="397" height="393" fill="white"/>
</clipPath>
</defs>
</svg>
