<svg width="339" height="368" viewBox="0 0 339 368" fill="none" xmlns="http://www.w3.org/2000/svg">
<path d="M334.822 368H4.17754C1.85669 368 0 365.778 0 363C0 360.222 1.85669 358 4.17754 358H334.822C337.143 358 339 360.222 339 363C339 365.778 337.143 368 334.822 368Z" fill="#B6B9D1"/>
<path d="M261.648 227.241H9.9209V237.187H261.648V227.241Z" fill="#C46C3B"/>
<path d="M42.0259 236.429H30.8506V362.885H42.0259V236.429Z" fill="#C46C3B"/>
<path d="M241.76 236.429H230.585V362.885H241.76V236.429Z" fill="#C46C3B"/>
<path d="M42.0259 236.429H30.8506V249.122H42.0259V236.429Z" fill="#AA5327"/>
<path d="M241.76 236.429H230.585V249.122H241.76V236.429Z" fill="#AA5327"/>
<path d="M188.725 222.505H161.355L163.25 204.508H186.926L188.725 222.505Z" fill="#171923"/>
<path d="M196.301 226.862H153.873C153.873 224.021 156.146 221.747 158.987 221.747H191.187C194.028 221.747 196.301 224.021 196.301 226.862Z" fill="#2A2B3D"/>
<path d="M220.925 206.023H129.345C124.325 206.023 120.348 201.95 120.348 197.024V141.706C120.348 136.686 124.42 132.707 129.345 132.707H220.925C225.944 132.707 229.922 136.78 229.922 141.706V197.024C229.922 202.045 225.944 206.023 220.925 206.023Z" fill="#2A2B3D"/>
<path d="M225.282 136.97H124.988V196.551H225.282V136.97Z" fill="#D0E6EF"/>
<path d="M177.928 201.666C177.928 203.276 176.697 204.507 175.087 204.507C173.477 204.507 172.246 203.276 172.246 201.666C172.246 200.055 173.477 198.824 175.087 198.824C176.697 198.824 177.928 200.15 177.928 201.666Z" fill="#171923"/>
<path d="M220.641 140.664H129.724V145.305H220.641V140.664Z" fill="white"/>
<path d="M133.418 143.127C133.418 143.695 132.944 144.074 132.47 144.074C131.902 144.074 131.523 143.6 131.523 143.127C131.523 142.559 131.997 142.18 132.47 142.18C132.944 142.085 133.418 142.559 133.418 143.127Z" fill="#D35473"/>
<path d="M137.111 143.127C137.111 143.695 136.637 144.074 136.164 144.074C135.596 144.074 135.217 143.6 135.217 143.127C135.217 142.559 135.69 142.18 136.164 142.18C136.732 142.085 137.111 142.559 137.111 143.127Z" fill="#FFC55A"/>
<path d="M140.899 143.127C140.899 143.695 140.425 144.074 139.952 144.074C139.384 144.074 139.005 143.6 139.005 143.127C139.005 142.559 139.478 142.18 139.952 142.18C140.425 142.085 140.899 142.559 140.899 143.127Z" fill="#54D15F"/>
<path d="M216.284 141.99H219.315" stroke="#61648A" stroke-width="0.5" stroke-miterlimit="10" stroke-linecap="round"/>
<path d="M216.284 143.032H219.315" stroke="#61648A" stroke-width="0.5" stroke-miterlimit="10" stroke-linecap="round"/>
<path d="M216.284 143.979H219.315" stroke="#61648A" stroke-width="0.5" stroke-miterlimit="10" stroke-linecap="round"/>
<path d="M191.566 150.61H198.669" stroke="#54D15F" stroke-miterlimit="10" stroke-linecap="round"/>
<path d="M200.09 150.61H203.31" stroke="#2D292A" stroke-miterlimit="10" stroke-linecap="round"/>
<path d="M204.541 150.61H214.959" stroke="#54D15F" stroke-miterlimit="10" stroke-linecap="round"/>
<path d="M188.062 155.062H198.385" stroke="#FFC55A" stroke-miterlimit="10" stroke-linecap="round"/>
<path d="M199.806 155.062H206.435" stroke="#D35473" stroke-miterlimit="10" stroke-linecap="round"/>
<path d="M207.666 155.062H212.117" stroke="#54D15F" stroke-miterlimit="10" stroke-linecap="round"/>
<path d="M213.443 155.062H217.895" stroke="#D35473" stroke-miterlimit="10" stroke-linecap="round"/>
<path d="M189.009 159.514H194.975" stroke="#2D292A" stroke-miterlimit="10" stroke-linecap="round"/>
<path d="M196.396 159.514H201.132" stroke="#D35473" stroke-miterlimit="10" stroke-linecap="round"/>
<path d="M202.268 159.514H210.791" stroke="#FFC55A" stroke-miterlimit="10" stroke-linecap="round"/>
<path d="M211.928 159.514H214.58" stroke="#2D292A" stroke-miterlimit="10" stroke-linecap="round"/>
<path d="M186.168 168.418H187.683" stroke="#FFC55A" stroke-miterlimit="10" stroke-linecap="round"/>
<path d="M189.104 168.418H197.816" stroke="#54D15F" stroke-miterlimit="10" stroke-linecap="round"/>
<path d="M199.048 168.418H205.298" stroke="#D35473" stroke-miterlimit="10" stroke-linecap="round"/>
<path d="M206.245 168.418H214.2" stroke="#54D15F" stroke-miterlimit="10" stroke-linecap="round"/>
<path d="M203.878 177.227H215.432" stroke="#FFC55A" stroke-miterlimit="10" stroke-linecap="round"/>
<path d="M189.009 172.87H194.975" stroke="#54D15F" stroke-miterlimit="10" stroke-linecap="round"/>
<path d="M196.396 172.87H199.616" stroke="#D35473" stroke-miterlimit="10" stroke-linecap="round"/>
<path d="M200.848 172.87H207.288" stroke="#2D292A" stroke-miterlimit="10" stroke-linecap="round"/>
<path d="M208.803 172.87H215.337" stroke="#D35473" stroke-miterlimit="10" stroke-linecap="round"/>
<path d="M189.293 177.227H193.839" stroke="#FFC55A" stroke-miterlimit="10" stroke-linecap="round"/>
<path d="M195.26 177.227H197.154" stroke="#2D292A" stroke-miterlimit="10" stroke-linecap="round"/>
<path d="M198.385 177.227H202.457" stroke="#54D15F" stroke-miterlimit="10" stroke-linecap="round"/>
<path d="M196.396 185.658H200.848" stroke="#D35473" stroke-miterlimit="10" stroke-linecap="round"/>
<path d="M202.173 185.658H207.287" stroke="#2D292A" stroke-miterlimit="10" stroke-linecap="round"/>
<path d="M208.519 185.658H216.663" stroke="#FFC55A" stroke-miterlimit="10" stroke-linecap="round"/>
<path d="M192.324 190.11H195.639" stroke="#D35473" stroke-miterlimit="10" stroke-linecap="round"/>
<path d="M197.06 190.11H202.458" stroke="#2D292A" stroke-miterlimit="10" stroke-linecap="round"/>
<path d="M203.594 190.11H208.424" stroke="#FFC55A" stroke-miterlimit="10" stroke-linecap="round"/>
<path d="M209.845 190.11H217.326" stroke="#54D15F" stroke-miterlimit="10" stroke-linecap="round"/>
<path opacity="0.21" d="M187.305 150.61H188.82" stroke="#383952" stroke-miterlimit="10" stroke-linecap="round"/>
<path opacity="0.21" d="M183.327 155.062H184.842" stroke="#383952" stroke-miterlimit="10" stroke-linecap="round"/>
<path opacity="0.21" d="M185.221 159.514H186.736" stroke="#383952" stroke-miterlimit="10" stroke-linecap="round"/>
<path opacity="0.21" d="M181.622 163.966H183.137" stroke="#383952" stroke-miterlimit="10" stroke-linecap="round"/>
<path opacity="0.21" d="M181.622 168.418H183.137" stroke="#383952" stroke-miterlimit="10" stroke-linecap="round"/>
<path opacity="0.21" d="M185.031 172.87H186.547" stroke="#383952" stroke-miterlimit="10" stroke-linecap="round"/>
<path opacity="0.21" d="M185.41 177.227H186.925" stroke="#383952" stroke-miterlimit="10" stroke-linecap="round"/>
<path opacity="0.21" d="M181.622 181.679H183.137" stroke="#383952" stroke-miterlimit="10" stroke-linecap="round"/>
<path opacity="0.21" d="M191.282 185.658H192.703" stroke="#383952" stroke-miterlimit="10" stroke-linecap="round"/>
<path opacity="0.21" d="M187.684 190.11H189.199" stroke="#383952" stroke-miterlimit="10" stroke-linecap="round"/>
<path opacity="0.33" d="M152.453 149.473H129.724V170.975H152.453V149.473Z" fill="#61648A"/>
<path d="M175.182 149.473H155.294V151.462H175.182V149.473Z" fill="#61648A"/>
<path d="M175.182 154.399H155.294V156.388H175.182V154.399Z" fill="#61648A"/>
<path opacity="0.33" d="M175.182 159.23H155.294V161.219H175.182V159.23Z" fill="#61648A"/>
<path opacity="0.33" d="M175.182 164.155H155.294V166.145H175.182V164.155Z" fill="#61648A"/>
<path opacity="0.33" d="M175.182 169.081H155.294V171.07H175.182V169.081Z" fill="#61648A"/>
<path d="M152.453 174.291H129.724V190.11H152.453V174.291Z" fill="#61648A"/>
<path d="M175.182 174.291H155.294V181.679H175.182V174.291Z" fill="#D35473"/>
<path d="M175.182 185.468H155.294V190.11H175.182V185.468Z" fill="#61648A"/>
<path d="M170.446 345.645C169.31 356.065 167.794 360.801 170.446 362.222C173.098 363.737 187.967 362.222 191.187 362.222C194.407 362.222 194.407 355.402 189.008 352.56C183.61 349.718 182.568 339.583 182.568 339.583L170.446 345.645Z" fill="#2A2B3D"/>
<path d="M102.921 345.645C101.784 356.065 100.269 360.801 102.921 362.222C105.573 363.737 120.441 362.222 123.661 362.222C126.881 362.222 126.881 355.402 121.483 352.56C116.085 349.718 115.043 339.583 115.043 339.583L102.921 345.645Z" fill="#2A2B3D"/>
<path d="M120.631 305.293C120.347 316.565 119.494 327.08 118.074 333.616H97.3333L89.5674 288.338L88.8098 283.696C84.4533 283.696 80.8545 280.097 80.8545 275.74V275.645C80.9492 266.646 82.5592 252.722 90.2303 247.417C98.8486 241.45 116.085 254.048 117.6 257.079C119.116 260.11 120.157 270.435 120.536 282.844C120.726 289.948 120.82 297.715 120.631 305.293Z" fill="#55597C"/>
<path opacity="0.36" d="M120.631 305.293C113.338 308.419 107.277 328.027 105.762 333.616H97.3332L89.5674 288.338C90.5144 286.822 91.5562 285.496 92.6927 284.833C96.4809 282.465 118.263 282.749 120.536 282.844C120.726 289.948 120.82 297.715 120.631 305.293Z" fill="#383952"/>
<path d="M188.819 219.19C195.448 216.727 200.089 219.569 201.226 221.653C202.457 223.737 203.12 225.536 202.551 226.578C202.078 227.62 200.373 226.578 200.373 226.578C200.373 226.578 194.596 227.62 190.145 227.052C185.694 226.483 188.819 219.19 188.819 219.19Z" fill="#F4B8AB"/>
<path opacity="0.53" d="M189.956 221.179C193.555 223.073 199.805 225.82 199.805 226.294C199.805 226.768 194.217 227.999 190.619 227.052C187.02 226.01 189.956 221.179 189.956 221.179Z" fill="#DD6595"/>
<path d="M125.934 140.38C128.397 150.61 126.597 162.735 117.79 163.682V167.281C117.79 169.934 115.706 172.112 112.96 172.207C110.308 172.207 108.13 170.123 108.035 167.376V163.777C108.035 163.777 100.932 160.84 99.5115 156.483C98.0909 152.126 99.5115 155.82 99.5115 155.82L98.6592 137.823L126.029 137.538L125.934 140.38Z" fill="#F4B8AB"/>
<path opacity="0.53" d="M117.79 163.682C113.907 164.061 109.361 163.966 109.361 163.966L117.79 167.281V163.682Z" fill="#DD6595"/>
<path d="M126.408 142.369C134.174 137.444 132.659 127.308 127.166 130.908C127.166 130.908 118.453 122.004 105.005 126.834C91.5566 131.665 89.8519 142.937 92.6931 149.947C95.5343 156.957 112.96 160.651 112.96 160.651L121.01 152.126L126.408 142.369Z" fill="#6D3744"/>
<path d="M127.165 130.908C128.491 127.024 125.177 122.004 121.957 122.004C118.831 122.004 119.021 127.403 119.021 127.403L124.419 134.507L127.165 130.908Z" fill="#6D3744"/>
<path d="M121.389 149.095C121.294 150.326 120.347 161.314 117.885 163.777L107.089 163.966C107.089 163.966 95.1557 161.503 93.1669 151.557C92.9775 150.421 92.7881 149.284 92.6934 148.337C96.1975 155.536 111.161 156.767 119.211 147.674C119.022 147.579 120.063 148.242 121.389 149.095Z" fill="#542633"/>
<path d="M124.42 146.916C122.147 142.937 119.59 144.643 119.116 147.011C118.643 149.379 123.378 155.062 124.514 152.978C125.651 150.989 124.42 146.916 124.42 146.916Z" fill="#F4B8AB"/>
<path opacity="0.53" d="M124.135 148.053C122.146 145.969 121.199 146.821 121.294 149C121.483 151.178 124.04 152.694 124.892 152.031C125.839 151.368 124.135 148.053 124.135 148.053Z" fill="#DD6595"/>
<path d="M190.524 227.052C189.482 229.136 162.207 233.303 155.199 231.977C148.19 230.556 142.603 220.421 142.603 220.421V247.323H90.1359C90.1359 247.323 85.0218 222.6 82.1806 206.023C81.0441 199.203 80.1918 193.804 80.2865 192.099C80.4759 188.594 81.2335 186.7 81.7071 185.658C82.0859 184.995 82.37 184.71 82.37 184.71C82.37 184.71 88.6206 173.154 103.679 171.449L104.058 166.902C116.275 164.44 124.988 166.902 125.366 168.986C125.745 171.07 125.366 173.154 125.366 173.154C125.366 173.154 140.046 169.365 150.558 184.332C161.07 199.393 165.237 211.233 165.237 211.233C165.237 211.233 185.126 215.401 187.588 217.864C188.63 218.906 189.387 220.232 189.956 221.653C190.997 223.736 191.187 225.82 190.524 227.052Z" fill="#D35473"/>
<path opacity="0.38" d="M190.524 227.052C189.482 229.136 162.207 233.304 155.199 231.977C148.19 230.557 142.603 220.421 142.603 220.421V247.323H90.1359C90.1359 247.323 85.0217 222.6 82.1806 206.023L81.8018 185.658C81.8018 185.658 94.587 186.037 114.191 186.226C133.795 186.321 134.837 198.54 140.235 205.834C145.539 213.222 149.043 225.631 158.513 225.726C167.984 225.82 187.872 227.431 189.861 221.842L190.145 221.747C190.997 223.736 191.187 225.82 190.524 227.052Z" fill="#8E253E"/>
<path d="M185.978 332.005C185.883 332.574 185.788 333.047 185.694 333.616H164.953L156.43 283.696H119.116L108.509 270.34L90.3252 247.323H142.792C143.55 247.323 144.402 247.323 145.254 247.323C159.555 247.607 181.811 250.07 185.315 256.984C186.546 259.447 187.493 267.025 187.967 276.592C188.724 294.305 188.346 319.218 185.978 332.005Z" fill="#61648A"/>
<path opacity="0.36" d="M185.978 332.005L184.179 333.616H164.953L156.43 283.696H119.116L108.509 270.34L109.456 254.995L116.559 247.323H142.698C143.455 247.323 144.308 247.323 145.16 247.323C142.224 272.614 160.597 279.15 172.34 278.581C178.591 278.202 184.084 277.35 187.872 276.592C188.724 294.305 188.346 319.218 185.978 332.005Z" fill="#383952"/>
<path d="M185.505 345.645H164.764L162.87 333.615H187.399L185.505 345.645Z" fill="#7D819E"/>
<path d="M117.885 345.645H97.2388L95.3447 333.615H119.779L117.885 345.645Z" fill="#7D819E"/>
<path d="M82.9381 353.128H81.0439V360.233H82.9381V353.128Z" fill="#55597C"/>
<path d="M96.2916 353.128H94.3975V360.233H96.2916V353.128Z" fill="#55597C"/>
<path d="M109.645 353.128H107.751V360.233H109.645V353.128Z" fill="#55597C"/>
<path d="M128.965 283.696H74.604C70.9105 283.696 67.9746 280.665 67.9746 277.066V213.98C67.9746 201.287 78.2975 190.962 90.9881 190.962H112.676C125.366 190.962 135.689 201.287 135.689 213.98V277.066C135.689 280.665 132.659 283.696 128.965 283.696Z" fill="#FFC55A"/>
<path d="M128.965 283.696H74.604C70.9105 283.696 67.9746 280.665 67.9746 277.066V213.98C67.9746 201.287 78.2975 190.962 90.9881 190.962H112.676C125.366 190.962 135.689 201.287 135.689 213.98V277.066C135.689 280.665 132.659 283.696 128.965 283.696Z" fill="url(#paint0_linear_222_3429)"/>
<path d="M117.411 283.696H63.0503C59.3568 283.696 56.4209 280.665 56.4209 277.066V213.98C56.4209 201.287 66.7438 190.962 79.4344 190.962H101.122C113.812 190.962 124.135 201.287 124.135 213.98V277.066C124.041 280.665 121.105 283.696 117.411 283.696Z" fill="url(#paint1_linear_222_3429)"/>
<path d="M139.857 297.242H81.0444C77.2562 297.242 74.2256 294.211 74.2256 290.422C74.2256 286.633 77.2562 283.602 81.0444 283.602H139.857C143.645 283.602 146.675 286.633 146.675 290.422C146.675 294.211 143.645 297.242 139.857 297.242Z" fill="url(#paint2_linear_222_3429)"/>
<path d="M122.62 297.242H63.8081C60.0198 297.242 56.9893 294.211 56.9893 290.422C56.9893 286.633 60.0198 283.602 63.8081 283.602H122.62C126.408 283.602 129.439 286.633 129.439 290.422C129.344 294.211 126.314 297.242 122.62 297.242Z" fill="url(#paint3_linear_222_3429)"/>
<path d="M98.281 302.736H92.7881V350.95H98.281V302.736Z" fill="#14161E"/>
<path d="M103.206 302.736H87.106C85.9695 302.736 85.0225 301.788 85.0225 300.652V297.242H105.289V300.652C105.289 301.788 104.342 302.736 103.206 302.736Z" fill="#1F202D"/>
<path d="M111.256 349.718H79.0557V354.549H111.256V349.718Z" fill="#1F202D"/>
<path d="M92.6927 244.291H85.4951V297.147H92.6927V244.291Z" fill="#2A2B3D"/>
<path d="M93.545 234.44H84.548C82.4645 234.44 80.7598 236.145 80.7598 238.229V249.028C80.7598 251.111 82.4645 252.816 84.548 252.816H93.545C95.6285 252.816 97.3332 251.111 97.3332 249.028V238.229C97.4279 236.145 95.7232 234.44 93.545 234.44Z" fill="#1F202D"/>
<path d="M89.4736 238.987H88.8107C86.7272 238.987 85.0225 240.692 85.0225 242.776V244.386C85.0225 246.47 86.7272 248.175 88.8107 248.175H89.4736C91.5572 248.175 93.2619 246.47 93.2619 244.386V242.776C93.2619 240.692 91.5572 238.987 89.4736 238.987Z" fill="#2A2B3D"/>
<path d="M84.9274 360.612C84.9274 362.222 83.6015 363.548 81.9915 363.548C80.3815 363.548 79.0557 362.222 79.0557 360.612C79.0557 359.001 80.3815 357.675 81.9915 357.675C83.6015 357.675 84.9274 359.001 84.9274 360.612Z" fill="#14161E"/>
<path d="M98.2809 360.612C98.2809 362.222 96.9551 363.548 95.3451 363.548C93.7351 363.548 92.4092 362.222 92.4092 360.612C92.4092 359.001 93.7351 357.675 95.3451 357.675C96.9551 357.675 98.2809 359.001 98.2809 360.612Z" fill="#14161E"/>
<path d="M111.634 360.612C111.634 362.222 110.309 363.548 108.699 363.548C107.089 363.548 105.763 362.222 105.763 360.612C105.763 359.001 107.089 357.675 108.699 357.675C110.309 357.675 111.634 359.001 111.634 360.612Z" fill="#14161E"/>
<path d="M38.522 224.494L9.9209 165.482L41.2685 135.738" stroke="#61648A" stroke-width="4" stroke-miterlimit="10"/>
<path d="M15.4136 165.482C15.4136 168.513 12.9512 170.975 9.92066 170.975C6.89008 170.975 4.42773 168.513 4.42773 165.482C4.42773 162.45 6.89008 159.988 9.92066 159.988C12.9512 159.988 15.4136 162.545 15.4136 165.482Z" fill="#61648A" stroke="#2A2B3D" stroke-width="4" stroke-miterlimit="10"/>
<path d="M39.8475 125.319C42.3098 123.614 45.7192 124.277 47.3292 126.834L48.4657 128.634L39.9422 134.318L38.9004 133.086C36.8169 130.718 37.1957 127.119 39.8475 125.319Z" fill="#61648A"/>
<path d="M64.2821 152.789C64.2821 155.346 62.1986 157.43 59.6416 157.43C57.0845 157.43 55.001 155.346 55.001 152.789C55.001 150.231 57.0845 148.147 59.6416 148.147C62.1986 148.147 64.2821 150.231 64.2821 152.789Z" fill="#FFC55A"/>
<path d="M39.8477 134.318L48.4659 156.388C49.0341 157.904 50.7388 158.567 52.2541 157.998C55.9476 156.388 62.4823 153.168 65.9864 149C66.9335 147.863 66.8388 146.158 65.7023 145.116L48.3712 128.729L39.8477 134.318Z" fill="#2A2B3D"/>
<path d="M52.5378 222.221H24.5996V226.768H52.5378V222.221Z" fill="#2A2B3D"/>
<path d="M219.315 16.0082H131.428V103.911H219.315V16.0082Z" fill="#D0E6EF"/>
<path d="M193.513 19.7388C195.529 11.1311 190.187 2.51839 181.581 0.501737C172.974 -1.51492 164.363 3.82817 162.347 12.4359C160.331 21.0436 165.673 29.6563 174.279 31.673C182.885 33.6896 191.496 28.3465 193.513 19.7388Z" fill="#61648A"/>
<path d="M206.624 47.8352H155.861V56.7392H206.624V47.8352Z" fill="#61648A"/>
<path d="M155.861 47.8352H146.959V56.7392H155.861V47.8352Z" fill="white"/>
<path d="M206.624 61.5702H155.861V70.4742H206.624V61.5702Z" fill="#61648A"/>
<path opacity="0.33" d="M206.529 75.2103H180.675V79.6623H206.529V75.2103Z" fill="#61648A"/>
<path d="M155.861 61.5702H146.959V70.4742H155.861V61.5702Z" fill="white"/>
<path d="M254.924 23.3966H211.549V45.4671H254.924V23.3966Z" fill="#D35473"/>
<path d="M223.955 42.436L216.568 55.6973L235.983 43.6674L223.955 42.436Z" fill="#D35473"/>
<path d="M225.565 34.3845C225.565 35.5211 224.618 36.4684 223.482 36.4684C222.346 36.4684 221.398 35.5211 221.398 34.3845C221.398 33.2478 222.346 32.3005 223.482 32.3005C224.618 32.3953 225.565 33.3425 225.565 34.3845Z" fill="white"/>
<path d="M235.32 34.3845C235.32 35.5211 234.373 36.4684 233.237 36.4684C232.1 36.4684 231.153 35.5211 231.153 34.3845C231.153 33.2478 232.1 32.3005 233.237 32.3005C234.468 32.3953 235.32 33.3425 235.32 34.3845Z" fill="white"/>
<path d="M243.086 36.4684C244.237 36.4684 245.17 35.5354 245.17 34.3845C245.17 33.2335 244.237 32.3005 243.086 32.3005C241.936 32.3005 241.003 33.2335 241.003 34.3845C241.003 35.5354 241.936 36.4684 243.086 36.4684Z" fill="white"/>
<path d="M138.91 73.1263H100.933V99.4594H138.91V73.1263Z" fill="url(#paint4_linear_222_3429)"/>
<path d="M113.624 91.7869L107.468 88.0926L107.373 84.6826L113.624 80.7042L114.949 83.8301L110.404 86.1982L115.139 88.4715L113.624 91.7869Z" fill="white"/>
<path d="M122.904 80.1359C121.863 82.3146 121.01 84.4932 120.158 86.6719C119.305 88.9452 118.548 91.1238 117.79 93.3972L114.097 91.9764C114.57 90.8397 115.044 89.703 115.423 88.661C115.801 87.6191 116.37 86.3877 116.843 85.3457C117.317 84.3038 117.79 83.1671 118.358 82.0304C118.832 80.9885 119.4 79.8518 119.968 78.8098L122.904 80.1359Z" fill="white"/>
<path d="M123.379 91.7869L122.053 88.5663L126.599 86.1982L121.863 83.9248L123.379 80.799L129.534 84.3984L129.724 87.8085L123.379 91.7869Z" fill="white"/>
<path d="M241.286 339.583C242.422 350.003 243.559 360.706 240.907 362.222C238.255 363.737 223.387 362.222 220.167 362.222C216.947 362.222 216.947 355.402 222.345 352.56C227.743 349.718 228.785 339.583 228.785 339.583H241.286Z" fill="#D35473"/>
<path d="M306.159 345.645C307.296 356.065 308.811 360.801 306.159 362.222C303.507 363.737 288.639 362.222 285.419 362.222C282.199 362.222 282.199 355.402 287.597 352.56C292.995 349.718 292.995 344.509 292.995 344.509L306.159 345.645Z" fill="#D35473"/>
<path d="M219.693 87.5243C215.337 96.3336 215.811 105.332 224.618 105.711C233.331 106.09 219.693 87.5243 219.693 87.5243Z" fill="#542633"/>
<path d="M221.018 96.8072C223.765 107.606 231.531 118.025 240.149 114.52L241.948 117.93C243.274 120.488 246.305 121.435 248.862 120.109C251.419 118.783 252.366 115.752 251.04 113.194L249.24 109.784C249.24 109.784 254.355 103.533 253.597 98.7017C252.745 93.8708 253.218 98.0386 253.218 98.0386L245.168 80.8937L219.503 94.2497L221.018 96.8072Z" fill="#F4B8AB"/>
<path opacity="0.53" d="M240.243 114.52C244.031 112.91 248.293 110.637 248.293 110.637L242.043 117.931L240.243 114.52Z" fill="#DD6595"/>
<path d="M253.882 95.7652C253.597 101.259 252.177 105.995 251.135 107.132C248.862 109.595 241.096 112.342 241.096 112.342C237.592 111.868 231.626 109.311 226.796 105.238C221.682 100.975 217.799 95.1022 219.409 88.2821C222.155 76.7258 239.107 71.3266 248.199 78.4309C253.124 82.2198 254.26 89.5135 253.882 95.7652Z" fill="#6D3744"/>
<path d="M253.882 95.7653C253.598 101.259 252.177 105.995 251.135 107.132C248.862 109.595 241.096 112.342 241.096 112.342C237.592 111.868 231.626 109.311 226.796 105.238C226.891 103.533 227.459 101.828 228.595 100.786C231.91 97.7545 241.759 104.859 244.032 93.3972L246.116 92.6394C246.116 92.7341 250.567 94.5339 253.882 95.7653Z" fill="#542633"/>
<path d="M225.754 102.112C225.849 97.2809 229.163 97.565 230.773 99.4595C232.383 101.449 230.773 109.027 228.69 107.7C226.606 106.469 225.754 102.112 225.754 102.112Z" fill="#F4B8AB"/>
<path opacity="0.53" d="M226.512 102.964C227.364 100.028 228.69 100.407 229.637 102.491C230.584 104.575 228.879 107.321 227.743 107.132C226.606 106.943 226.512 102.964 226.512 102.964Z" fill="#DD6595"/>
<path d="M246.874 81.7462C242.707 83.546 240.813 89.4188 244.033 93.4919C246.306 96.3336 250.283 95.0075 250.283 95.0075L246.874 81.7462Z" fill="#FFC55A"/>
<path d="M244.79 88.3769C243.464 81.9357 250.188 76.4417 255.966 79.4729C257.481 80.2307 258.712 81.4621 259.375 83.0724C261.553 88.5663 261.458 95.6706 268.088 96.6178C268.088 96.6178 260.038 105.238 251.988 100.028C247.442 97.1861 245.548 92.1658 244.79 88.3769Z" fill="#6D3744"/>
<path d="M268.846 113.384C281.915 113.573 295.931 130.339 299.909 141.232C303.887 152.22 293.374 165.482 293.374 165.482L268.846 113.384Z" fill="url(#paint5_linear_222_3429)"/>
<path d="M189.956 174.48C184.368 167.281 181.811 166.902 180.011 168.323C178.212 169.744 171.488 173.628 170.351 174.48C169.12 175.428 170.541 176.754 172.719 176.375C174.897 175.996 174.897 175.996 174.897 175.996C174.897 175.996 173.95 181.111 176.507 183.479C179.064 185.847 187.209 182.532 187.209 182.532L189.956 174.48Z" fill="#F4B8AB"/>
<path d="M293.09 222.221C291.859 227.809 288.355 237.945 283.809 250.164C269.508 288.338 244.506 346.498 244.506 346.498L223.292 344.509L254.924 187.268L255.587 183.953C255.587 183.953 269.603 163.208 280.589 167.85C282.767 168.797 284.756 170.597 286.555 173.059C288.923 176.375 290.912 180.921 292.332 186.131C295.268 196.646 295.836 209.907 293.09 222.221Z" fill="url(#paint6_linear_222_3429)"/>
<path d="M309.001 345.929L290.722 346.593L283.714 250.259L280.589 206.686V173.249H301.329C304.644 177.606 307.58 183.574 309.948 190.962C320.271 222.694 321.218 280.665 309.001 345.929Z" fill="url(#paint7_linear_222_3429)"/>
<path d="M283.24 251.68L300.855 219.379L285.04 268.256L283.24 251.68Z" fill="black" fill-opacity="0.16"/>
<path d="M310.043 190.867C309.758 190.678 303.508 187.742 292.427 186.226C289.018 185.752 285.04 185.373 280.684 185.279C273.297 185.089 264.679 185.563 255.019 187.363L255.682 184.047C255.682 184.047 269.698 163.303 280.684 167.944C282.862 168.892 284.851 170.691 286.65 173.154H301.424C304.739 177.417 307.58 183.479 310.043 190.867Z" fill="black" fill-opacity="0.16"/>
<path d="M301.329 173.154L255.586 183.953L240.339 163.682C240.339 163.682 232.099 183.195 226.607 186.131C221.114 188.973 186.641 184.331 186.641 184.331C185.694 183.29 185.694 181.3 185.883 179.216C186.357 175.333 187.967 171.07 187.967 171.07L215.052 168.513C215.052 168.513 223.292 146.442 226.512 135.833C229.827 125.224 236.74 123.709 236.74 123.709C236.74 123.709 236.835 121.056 236.645 120.393C236.456 119.635 247.726 111.3 255.397 111.3L257.196 112.91C257.196 112.91 264.394 109.784 273.77 116.32C278.695 119.73 285.987 135.265 291.859 149.284C297.352 161.787 301.329 173.154 301.329 173.154Z" fill="url(#paint8_linear_222_3429)"/>
<path opacity="0.36" d="M301.329 173.154L255.586 183.953L240.339 163.682C240.339 163.682 232.099 183.195 226.607 186.131C221.114 188.973 186.641 184.332 186.641 184.332C185.694 183.29 185.694 181.3 185.883 179.216C195.448 174.859 219.314 185.658 225.186 178.08C231.152 170.407 237.403 148.905 240.244 154.967C243.085 161.03 248.957 170.123 256.249 171.733C263.542 173.249 293.374 165.671 291.953 149.189C297.352 161.787 301.329 173.154 301.329 173.154Z" fill="#202046"/>
<defs>
<linearGradient id="paint0_linear_222_3429" x1="101.744" y1="283.707" x2="101.744" y2="190.696" gradientUnits="userSpaceOnUse">
<stop offset="1.6303e-06" stop-color="#CF7A00"/>
<stop offset="1" stop-color="#FFD366"/>
</linearGradient>
<linearGradient id="paint1_linear_222_3429" x1="90.1901" y1="283.707" x2="90.1901" y2="190.696" gradientUnits="userSpaceOnUse">
<stop offset="1.6303e-06" stop-color="#EB8A00"/>
<stop offset="1" stop-color="#EBB327"/>
</linearGradient>
<linearGradient id="paint2_linear_222_3429" x1="110.356" y1="297.243" x2="110.356" y2="283.562" gradientUnits="userSpaceOnUse">
<stop offset="1.6303e-06" stop-color="#CF7A00"/>
<stop offset="1" stop-color="#FFD366"/>
</linearGradient>
<linearGradient id="paint3_linear_222_3429" x1="93.12" y1="297.243" x2="93.12" y2="283.562" gradientUnits="userSpaceOnUse">
<stop offset="1.6303e-06" stop-color="#EB8A00"/>
<stop offset="1" stop-color="#EBB327"/>
</linearGradient>
<linearGradient id="paint4_linear_222_3429" x1="119.872" y1="99.4626" x2="119.872" y2="73.0507" gradientUnits="userSpaceOnUse">
<stop offset="1.6303e-06" stop-color="#EB8A00"/>
<stop offset="1" stop-color="#EBB327"/>
</linearGradient>
<linearGradient id="paint5_linear_222_3429" x1="284.827" y1="113.384" x2="284.827" y2="165.482" gradientUnits="userSpaceOnUse">
<stop stop-color="#399944"/>
<stop offset="1" stop-color="#155F60"/>
</linearGradient>
<linearGradient id="paint6_linear_222_3429" x1="258.988" y1="346.519" x2="258.988" y2="166.658" gradientUnits="userSpaceOnUse">
<stop offset="1.6303e-06" stop-color="#EB8A00"/>
<stop offset="1" stop-color="#EBB327"/>
</linearGradient>
<linearGradient id="paint7_linear_222_3429" x1="299.209" y1="346.613" x2="299.209" y2="172.751" gradientUnits="userSpaceOnUse">
<stop offset="1.6303e-06" stop-color="#EB8A00"/>
<stop offset="1" stop-color="#EBB327"/>
</linearGradient>
<linearGradient id="paint8_linear_222_3429" x1="243.557" y1="111.3" x2="243.557" y2="187.052" gradientUnits="userSpaceOnUse">
<stop stop-color="#399944"/>
<stop offset="1" stop-color="#155F60"/>
</linearGradient>
</defs>
</svg>
