<svg width="512" height="397" viewBox="0 0 512 397" fill="none" xmlns="http://www.w3.org/2000/svg">
<path d="M408.481 260.418L364.694 254.542L365.054 258.859L327.625 263.895C327.625 263.895 303.512 324.454 324.746 457.563H355.217L366.134 322.655H369.972L380.529 457.563H411.001C432.354 324.454 408.481 260.418 408.481 260.418Z" fill="#59342E"/>
<path d="M352.218 322.535H384.009" stroke="#282828" stroke-width="1.2333" stroke-miterlimit="10" stroke-linecap="round" stroke-linejoin="round"/>
<path d="M434.033 196.501C430.314 190.505 409.2 190.745 408.121 190.625C402.482 189.906 411.72 235.235 423.596 274.808C425.875 282.363 434.153 286.32 441.471 283.202C441.591 283.202 441.591 283.082 441.711 283.082C447.469 280.684 450.708 274.568 449.629 268.332C443.99 238.593 438.352 203.457 434.033 196.501Z" fill="#B8746A"/>
<path d="M439.071 212.93L412.199 223.363L409.68 210.532L437.512 203.577L439.071 212.93Z" fill="#C0796E"/>
<path d="M444.11 238.353C444.11 238.353 431.393 255.381 431.993 254.662C432.593 253.822 441.95 227.081 441.95 227.081L444.11 238.353Z" fill="#C0796E"/>
<path d="M462.345 215.448L425.876 262.696C421.077 268.932 422.637 277.926 429.235 282.123C435.833 286.44 444.59 284.162 448.309 277.206L478.66 221.205L462.345 215.448Z" fill="#B8746A"/>
<path d="M471.823 227.56C463.905 225.042 459.586 216.528 462.106 208.613C464.625 200.698 473.142 196.381 481.06 198.9C488.978 201.418 493.296 209.932 490.777 217.847C488.138 225.761 479.62 230.078 471.823 227.56Z" fill="#B8746A"/>
<path d="M487.418 204.176C487.418 204.176 491.497 199.859 484.179 196.861C476.861 193.863 467.864 194.583 462.105 208.493L487.418 204.176Z" fill="#B8746A"/>
<path d="M494.975 174.317L510.211 180.912C511.051 181.272 511.411 182.231 510.931 183.19L490.777 220.725C490.297 221.564 489.217 222.044 488.377 221.684L473.142 215.089C472.302 214.729 471.942 213.77 472.422 212.81L492.576 175.276C493.056 174.317 494.136 173.957 494.975 174.317Z" fill="#202046"/>
<path d="M493.536 173.717L508.772 180.312C509.611 180.672 509.971 181.632 509.491 182.591L489.337 220.125C488.857 220.965 487.778 221.444 486.938 221.085L471.702 214.489C470.863 214.129 470.503 213.17 470.983 212.211L491.137 174.676C491.616 173.717 492.576 173.357 493.536 173.717Z" fill="#202046"/>
<path d="M491.736 177.434L505.172 183.31L488.857 213.889L475.421 208.013L491.736 177.434Z" fill="#E6E6E6"/>
<path d="M505.172 183.31L475.421 208.013L491.736 177.434L505.172 183.31Z" fill="white"/>
<path d="M479.74 195.662C479.74 195.662 483.099 196.381 486.218 198.06C487.538 198.78 488.258 200.339 487.898 201.898C487.538 203.217 486.458 204.296 485.019 204.416L477.101 205.375C477.101 205.375 472.902 212.57 467.504 213.29L472.422 200.698L479.74 195.662Z" fill="#B8746A"/>
<path d="M378.369 137.022C377.53 137.022 434.633 144.937 444.11 210.172L414.479 214.609L408.481 263.776H325.705L309.27 172.878C309.27 172.878 327.624 146.615 361.694 136.902H378.369V137.022Z" fill="url(#paint0_linear_222_3011)"/>
<path d="M414.479 214.609L416.998 186.188" stroke="#282828" stroke-width="1.2333" stroke-miterlimit="10" stroke-linecap="round" stroke-linejoin="round"/>
<path d="M383.768 137.981V115.317H357.256V138.221C355.936 138.581 353.657 139.42 350.178 141.099L370.932 153.451L392.046 141.099C392.046 141.099 388.687 139.18 383.768 137.981Z" fill="#B8746A"/>
<path d="M357.016 118.075C357.016 118.075 361.814 130.786 374.531 129.587C386.167 128.628 384.368 111 384.368 111L357.016 118.075Z" fill="#282828"/>
<path d="M345.499 101.286C341.301 105.004 332.063 90.7335 336.022 86.7762C340.101 82.8189 343.1 89.0547 343.1 89.0547L344.9 93.3717L346.219 99.1278L346.579 100.687L345.499 101.286Z" fill="#C0796E"/>
<path d="M337.941 91.8128C337.941 91.8128 341.061 90.3738 343.94 94.9307" stroke="#282828" stroke-width="0.9928" stroke-miterlimit="10" stroke-linecap="round" stroke-linejoin="round"/>
<path d="M394.685 100.807C398.524 104.884 408.961 91.4529 405.362 87.1359C401.643 82.8188 398.164 88.8147 398.164 88.8147L396.005 92.892L394.205 98.5281L393.726 99.9671L394.685 100.807Z" fill="#C0796E"/>
<path d="M402.963 92.0525C402.963 92.0525 399.964 90.3737 396.725 94.6907" stroke="#282828" stroke-width="0.9928" stroke-miterlimit="10" stroke-linecap="round" stroke-linejoin="round"/>
<path d="M338.182 73.1055C338.182 92.0526 352.577 101.046 370.452 101.046C388.327 101.046 402.723 92.0526 402.723 73.1055C402.723 54.1584 388.327 41.3271 370.452 41.3271C352.577 41.3271 338.182 54.1584 338.182 73.1055Z" fill="#282828"/>
<path d="M342.5 74.4247C342.5 86.0568 344.18 96.1299 345.739 103.205C347.299 110.16 351.857 115.077 358.216 118.914L359.415 119.634C366.133 123.831 374.891 123.831 381.729 119.874C388.687 115.797 393.485 110.52 395.045 103.085C397.804 89.5344 398.044 74.4247 398.044 74.4247C398.044 74.4247 400.683 45.0447 370.692 45.6443C340.701 46.124 342.5 74.4247 342.5 74.4247Z" fill="#B8746A"/>
<path d="M368.533 91.0933V95.1705C368.533 95.4103 368.533 95.6502 368.653 95.89C369.013 96.7294 369.973 97.0892 370.813 96.8493L372.732 96.3697" stroke="#282828" stroke-width="1.2316" stroke-miterlimit="10" stroke-linecap="round" stroke-linejoin="round"/>
<path d="M363.734 75.384L348.858 78.8616C348.858 78.8616 349.578 75.0242 355.576 73.7051C361.695 72.2661 363.734 75.384 363.734 75.384Z" fill="#282828"/>
<path d="M376.931 75.384L391.326 78.8616C391.326 78.8616 390.727 75.0242 384.848 73.7051C378.97 72.2661 376.931 75.384 376.931 75.384Z" fill="#282828"/>
<path d="M358.096 88.8149C359.488 88.8149 360.616 87.6874 360.616 86.2966C360.616 84.9058 359.488 83.7783 358.096 83.7783C356.705 83.7783 355.577 84.9058 355.577 86.2966C355.577 87.6874 356.705 88.8149 358.096 88.8149Z" fill="#282828"/>
<path d="M384.369 86.2966C384.369 87.7356 383.289 88.8149 381.849 88.8149C380.41 88.8149 379.33 87.7356 379.33 86.2966C379.33 84.8576 380.41 83.7783 381.849 83.7783C383.289 83.7783 384.369 84.9775 384.369 86.2966Z" fill="#282828"/>
<path d="M360.615 101.646H379.93C379.93 101.646 371.412 112.079 360.615 101.646Z" fill="white"/>
<path d="M364.544 94.8138C368.714 90.6459 368.714 83.8883 364.544 79.7204C360.375 75.5525 353.615 75.5525 349.445 79.7204C345.276 83.8883 345.276 90.6459 349.445 94.8138C353.615 98.9817 360.375 98.9817 364.544 94.8138Z" stroke="#B2FFBC" stroke-width="1.3423" stroke-miterlimit="10"/>
<path d="M390.808 94.7933C394.978 90.6253 394.978 83.8678 390.808 79.6999C386.639 75.532 379.878 75.532 375.709 79.6999C371.539 83.8678 371.539 90.6253 375.709 94.7933C379.878 98.9612 386.639 98.9612 390.808 94.7933Z" stroke="#B2FFBC" stroke-width="1.3423" stroke-miterlimit="10"/>
<path d="M367.693 87.2559C367.693 87.2559 370.213 84.8575 372.612 87.2559" stroke="#B2FFBC" stroke-width="1.3423" stroke-miterlimit="10"/>
<path d="M346.34 87.2559H342.98" stroke="#B2FFBC" stroke-width="1.3423" stroke-miterlimit="10"/>
<path d="M393.966 87.2559H397.325" stroke="#B2FFBC" stroke-width="1.3423" stroke-miterlimit="10"/>
<path d="M397.685 84.138C397.685 84.138 385.688 67.9491 388.447 51.5203C388.447 51.5203 397.325 55.9572 399.604 67.5893C402.003 79.1015 397.685 84.138 397.685 84.138Z" fill="#282828"/>
<path d="M342.5 85.2172C342.5 85.2172 356.416 66.8697 353.657 50.4409C353.657 50.4409 344.06 55.9572 341.66 67.5892C339.381 79.1014 342.5 85.2172 342.5 85.2172Z" fill="#282828"/>
<path d="M396.724 57.9957C396.724 57.9957 381.369 74.7843 339.261 71.9062C339.261 71.9062 345.739 47.2031 366.133 44.5649C366.133 44.5649 389.646 41.8067 396.724 57.9957Z" fill="#282828"/>
<path d="M415.603 41.5013C417.377 30.5172 409.907 20.1751 398.919 18.4016C387.931 16.628 377.584 24.0946 375.81 35.0787C374.036 46.0627 381.505 56.4048 392.494 58.1784C403.482 59.9519 413.828 52.4853 415.603 41.5013Z" fill="#282828"/>
<path d="M150.294 260.234L112.865 255.317L113.225 251L69.4377 256.876C69.4377 256.876 45.5646 320.912 66.7985 454.022H97.2696L107.947 318.874H111.785L122.702 453.782H153.173C174.527 320.792 150.294 260.234 150.294 260.234Z" fill="#202046"/>
<path d="M147.317 78.2618C142.279 72.2659 138.2 65.3106 134.721 55.5972C131.002 45.1643 118.885 49.3615 118.885 49.3615C118.885 49.3615 108.808 36.4103 93.5727 40.8473C78.3371 45.4042 73.0586 56.1968 72.8187 69.0281C72.4588 81.9792 62.3817 83.8979 54.584 98.7678C40.788 125.03 63.9413 147.095 106.169 140.979V140.619C110.368 141.938 115.406 142.418 121.645 142.058C172.27 139.06 167.351 101.886 147.317 78.2618Z" fill="#282828"/>
<path d="M130.642 97.6887C134.841 101.406 144.078 87.1359 140.119 83.1785C136.161 79.2212 133.041 85.457 133.041 85.457L131.242 89.7741L129.922 95.5301L129.562 97.0891L130.642 97.6887Z" fill="#C0796E"/>
<path d="M138.2 88.2151C138.2 88.2151 135.081 86.7761 132.202 91.333" stroke="#282828" stroke-width="0.9928" stroke-miterlimit="10" stroke-linecap="round" stroke-linejoin="round"/>
<path d="M81.4563 97.3288C77.6174 101.406 67.1804 87.9752 70.7794 83.6581C74.4983 79.341 77.9773 85.3369 77.9773 85.3369L80.1367 89.4142L81.9361 95.0503L82.416 96.4893L81.4563 97.3288Z" fill="#C0796E"/>
<path d="M73.1787 88.4549C73.1787 88.4549 76.1778 86.776 79.4169 91.0931" stroke="#282828" stroke-width="0.9928" stroke-miterlimit="10" stroke-linecap="round" stroke-linejoin="round"/>
<path d="M137.96 69.5078C137.96 88.4549 123.564 97.4488 105.69 97.4488C87.8148 97.4488 73.4189 88.4549 73.4189 69.5078C73.4189 50.5607 87.8148 37.7295 105.69 37.7295C123.564 37.7295 137.96 50.5607 137.96 69.5078Z" fill="#282828"/>
<path d="M118.885 111.719H92.373V146.136H118.885V111.719Z" fill="#B8746A"/>
<path d="M88.4141 109.68C88.4141 109.68 95.8519 124.43 104.849 126.709C107.249 127.308 109.888 127.069 112.167 126.229C115.646 125.03 119.965 119.873 120.685 114.237L121.045 111C121.165 111.119 104.969 119.873 88.4141 109.68Z" fill="#282828"/>
<path d="M133.641 70.827C133.641 82.4591 131.962 92.5322 130.402 99.6074C128.842 106.563 124.284 111.479 117.926 115.317L116.726 116.036C110.008 120.233 101.25 120.233 94.4125 116.276C87.4545 112.199 82.6559 106.922 81.0963 99.4875C78.3371 85.9367 78.0972 70.827 78.0972 70.827C78.0972 70.827 75.458 41.4471 105.449 42.0467C135.441 42.6462 133.641 70.827 133.641 70.827Z" fill="#B8746A"/>
<path d="M103.77 89.1746V91.5729C103.77 91.8128 103.77 92.0526 103.889 92.2924C104.249 93.1319 105.209 93.4916 106.049 93.2518L107.968 92.7721" stroke="#282828" stroke-width="1.2298" stroke-miterlimit="10" stroke-linecap="round" stroke-linejoin="round"/>
<path d="M110.008 73.2254L125.963 76.9428C125.963 76.9428 125.243 72.8656 118.765 71.3067C112.167 69.9876 110.008 73.2254 110.008 73.2254Z" fill="#282828"/>
<path d="M101.61 73.2254L85.415 76.9428C85.415 76.9428 86.1348 72.8656 92.7329 71.3067C99.451 69.9876 101.61 73.2254 101.61 73.2254Z" fill="#282828"/>
<path d="M95.852 83.1787C95.852 84.4978 94.7723 85.697 93.3328 85.697C91.8932 85.697 90.8135 84.6177 90.8135 83.1787C90.8135 81.8596 91.8932 80.6604 93.3328 80.6604C94.6524 80.6604 95.852 81.7397 95.852 83.1787Z" fill="#282828"/>
<path d="M119.605 83.1787C119.605 84.4978 118.525 85.697 117.086 85.697C115.646 85.697 114.566 84.4978 114.566 83.1787C114.566 81.8596 115.646 80.6604 117.086 80.6604C118.525 80.6604 119.605 81.7397 119.605 83.1787Z" fill="#282828"/>
<path d="M94.1729 97.449H116.246C116.246 97.449 114.687 103.445 104.73 103.445C97.052 103.445 94.1729 97.449 94.1729 97.449Z" fill="white"/>
<path d="M78.4567 80.5404C78.4567 80.5404 90.4532 64.3514 87.694 47.9226C87.694 47.9226 78.8165 52.3596 76.5372 63.9917C74.1379 75.5038 78.4567 80.5404 78.4567 80.5404Z" fill="#282828"/>
<path d="M133.641 80.0606C133.641 80.0606 119.725 63.2721 122.484 46.8433C122.484 46.8433 132.081 52.3595 134.481 63.9916C136.76 75.5037 133.641 80.0606 133.641 80.0606Z" fill="#282828"/>
<path d="M79.417 54.3981C79.417 54.3981 93.213 72.8655 135.321 69.9875C135.321 69.9875 130.522 43.6055 110.128 40.9673C110.008 41.0872 86.4949 38.2091 79.417 54.3981Z" fill="#282828"/>
<path d="M41.0274 341.602C40.4276 342.562 76.0572 186.548 65.5003 188.946C64.5406 189.186 45.946 190.865 43.1868 196.501C35.1491 212.69 29.5107 340.523 29.5107 340.523L41.0274 341.602Z" fill="#B8746A"/>
<path d="M29.511 340.403C29.511 340.403 23.7526 367.025 45.4663 370.023C46.9059 370.263 48.2255 369.423 48.7054 367.984L48.8254 367.744C49.3052 366.185 48.5854 364.627 47.1459 364.027C43.5469 362.468 38.1485 358.391 40.7877 349.397C40.7877 349.397 43.9068 349.037 45.7063 354.913C46.1861 356.472 47.8656 357.192 49.3052 356.472C50.2649 355.992 50.7448 354.913 50.6248 353.954C50.145 349.877 47.9856 339.923 40.0679 337.285L29.511 340.403Z" fill="#B8746A"/>
<path d="M36.8291 233.916C36.8291 233.916 57.3431 262.816 57.4631 262.216C57.5831 261.617 64.661 221.564 64.661 221.564L39.7083 210.771L36.8291 233.916Z" fill="#C0796E"/>
<path d="M94.2235 139.48C95.0633 139.48 43.4782 140.439 34.001 205.555L63.6324 210.112L69.6306 259.278H152.407L168.842 168.38C168.842 168.38 157.205 148.713 123.135 139L94.2235 139.48Z" fill="url(#paint1_linear_222_3011)"/>
<path d="M68.6201 148.294C68.6201 148.294 75.938 158.008 105.809 158.008C135.441 158.008 142.999 147.814 142.999 147.814C142.999 147.814 125.484 138.101 105.209 134.863C105.329 134.983 87.2147 138.101 68.6201 148.294Z" fill="#B8746A"/>
<path d="M170.229 354.913L170.349 484.905H234.651L239.569 354.913H170.229Z" fill="#0C172C"/>
<path d="M309.989 354.913L309.869 484.905H245.568L240.649 354.913H309.989Z" fill="#0C172C"/>
<path d="M274.719 354.913H208.259V400.123H274.719V354.913Z" fill="#0C172C"/>
<path d="M350.658 241.351C354.617 285.361 350.418 317.499 351.618 398.564L313.229 400.123L307.471 248.426L350.658 241.351Z" fill="#B8746A"/>
<path d="M312.149 275.768C312.149 275.768 335.903 273.609 352.218 262.817L351.738 253.343L312.149 258.739V275.768Z" fill="#C0796E"/>
<path d="M274 140.02C274 140.02 349.578 158.967 363.254 254.782C363.254 254.782 326.305 270.851 289.236 263.896L297.513 231.877L274 140.02Z" fill="url(#paint2_linear_222_3011)"/>
<path d="M48.4653 179.833L104.729 246.267L87.5739 294.714C87.5739 294.714 44.8663 235.355 25.6719 189.426L48.4653 179.833Z" fill="#B8746A"/>
<path d="M50.2647 182.231C50.2647 182.231 30.4705 193.384 25.5519 189.306C16.7944 182.231 9.47656 156.449 9.47656 156.449C9.47656 156.449 46.4258 142.538 46.0659 143.018C45.706 143.618 50.2647 182.231 50.2647 182.231Z" fill="#B8746A"/>
<path d="M50.2651 182.231C49.9052 180.193 57.5829 158.847 60.2222 150.813C60.822 148.894 59.5024 146.735 57.463 146.376C56.1434 146.136 53.864 146.256 52.9043 148.294L43.667 164.124L50.2651 182.231Z" fill="#B8746A"/>
<path d="M49.5454 159.087L43.1872 127.429C42.8273 125.27 40.668 123.831 38.6286 124.311C36.8291 124.67 35.6294 126.229 35.8694 128.148L38.6286 151.652L49.5454 159.087Z" fill="#B8746A"/>
<path d="M36.9487 147.335L28.3112 124.79C27.5914 122.872 25.3121 121.672 23.3926 122.392C21.7131 122.992 20.7534 124.67 21.1133 126.469L27.4715 152.611L36.9487 147.335Z" fill="#B8746A"/>
<path d="M27.7117 154.05L16.6749 131.865C15.7152 129.827 13.1959 128.868 11.1565 129.707C9.23708 130.546 8.39732 132.705 9.23708 134.744L17.9945 155.729L27.7117 154.05Z" fill="#B8746A"/>
<path d="M9.47666 156.449L0.959135 142.898C0.239344 141.339 0.959135 139.54 2.39872 138.821C3.8383 138.101 5.75774 138.701 6.71746 140.02L17.9942 155.609L9.47666 156.449Z" fill="#B8746A"/>
<path d="M47.8659 156.688C47.8659 156.688 35.0296 155.369 33.71 172.518" stroke="#282828" stroke-width="1.5317" stroke-miterlimit="10" stroke-linecap="round" stroke-linejoin="round"/>
<path d="M76.0576 272.05C76.0576 272.05 86.6146 308.625 107.728 303.828C128.842 298.912 161.713 253.942 161.713 253.942L154.395 177.075L95.252 249.865L76.0576 272.05Z" fill="#B8746A"/>
<path d="M113.486 227.2C113.486 227.2 133.401 257.3 150.556 267.973L161.712 253.942L118.645 220.605L113.486 227.2Z" fill="#C0796E"/>
<path d="M200.822 138.341C200.822 138.341 142.159 151.532 110.968 219.646C110.968 219.646 129.802 248.066 160.153 260.778L180.428 235.955L200.822 138.341Z" fill="url(#paint3_linear_222_3011)"/>
<path d="M201.309 138.11C178.396 149.862 164 165.451 164 165.451L168.559 364.636H312.877L312.397 166.531C312.397 166.531 294.162 148.783 274.488 140.029C257.813 132.594 217.624 129.716 201.309 138.11Z" fill="url(#paint4_linear_222_3011)"/>
<path d="M269.201 235.115C258.164 235.115 249.167 226.121 249.167 215.089V195.062H289.355V215.089C289.235 226.121 280.238 235.115 269.201 235.115Z" stroke="#282828" stroke-width="1.3968" stroke-miterlimit="10" stroke-linecap="round" stroke-linejoin="round"/>
<path d="M312.148 264.615L314.068 199.499" stroke="#282828" stroke-width="1.3968" stroke-miterlimit="10" stroke-linecap="round" stroke-linejoin="round"/>
<path d="M165.791 253.822L162.672 197.341" stroke="#282828" stroke-width="1.3968" stroke-miterlimit="10" stroke-linecap="round" stroke-linejoin="round"/>
<path d="M202.5 65.4308L196.502 35.6911C196.142 33.2927 195.182 29.5752 196.382 25.9777C198.301 20.2216 205.259 8.94929 217.256 14.1058L219.895 25.8578C219.895 25.8578 207.418 28.3761 202.5 44.565V65.4308Z" fill="#282828"/>
<path d="M216.416 20.2214C216.176 24.1787 212.697 41.2071 200.581 47.4429C200.581 47.4429 189.904 24.6584 216.416 20.2214Z" fill="#282828"/>
<path d="M259.003 132.585V82.0994H212.457V132.585L198.541 138.941C198.541 138.941 201.78 159.926 236.21 160.406C270.64 160.886 274.119 140.02 274.119 140.02L259.003 132.585Z" fill="#B8746A"/>
<path d="M217.256 14.1057C217.256 14.1057 225.773 -8.43895 252.166 3.55288C268.121 10.8679 272.56 20.5813 274.479 27.4166C275.079 29.6951 275.319 33.2926 275.199 35.4511L268.841 65.4307L244.008 23.939L219.895 25.8577L217.256 14.1057Z" fill="#282828"/>
<path d="M268.841 65.4307C268.841 65.4307 271.96 60.3941 278.438 62.9124C284.917 65.3108 282.037 81.14 272.32 83.0587C272.32 83.0587 268.841 83.7782 266.082 81.3798C266.082 81.3798 268.481 69.7477 268.841 65.4307Z" fill="#C0796E"/>
<path d="M277.238 68.4286C277.238 68.4286 271.84 66.6299 268.001 74.6644" stroke="#282828" stroke-width="1.3968" stroke-miterlimit="10" stroke-linecap="round" stroke-linejoin="round"/>
<path d="M202.5 65.4307C202.5 65.4307 199.381 60.3941 192.903 62.9124C186.425 65.3108 189.304 81.14 199.021 83.0587C199.021 83.0587 202.5 83.7782 205.259 81.3798C205.259 81.3798 202.86 69.7477 202.5 65.4307Z" fill="#C0796E"/>
<path d="M194.223 68.4286C194.223 68.4286 199.621 66.6299 203.46 74.6644" stroke="#282828" stroke-width="1.3968" stroke-miterlimit="10" stroke-linecap="round" stroke-linejoin="round"/>
<path d="M269.561 50.441C269.561 59.9145 268.601 79.8209 262.843 91.5729C257.324 102.605 248.327 108.601 236.451 108.961C224.574 109.321 215.697 104.764 208.619 90.3737C201.541 75.9835 201.901 50.6808 201.901 50.6808C201.901 50.6808 201.901 16.8638 235.371 16.8638C270.521 16.7439 269.561 50.441 269.561 50.441Z" fill="#B8746A"/>
<path d="M212.697 97.449C212.697 97.449 216.656 117.235 233.811 119.514C253.605 122.152 258.884 97.9286 258.884 97.9286C258.884 97.9286 250.126 108.961 236.21 108.961C220.855 108.961 212.697 97.449 212.697 97.449Z" fill="#282828"/>
<path d="M233.212 64.4714V72.2661C233.212 72.6259 233.332 72.8657 233.452 73.2255C233.932 74.4247 235.251 74.9043 236.451 74.6645L239.09 73.945" stroke="#282828" stroke-width="1.3968" stroke-miterlimit="10" stroke-linecap="round" stroke-linejoin="round"/>
<path d="M223.374 60.7541C223.374 62.4329 222.055 63.752 220.375 63.752C218.696 63.752 217.376 62.4329 217.376 60.7541C217.376 59.0752 218.696 57.7561 220.375 57.7561C222.055 57.7561 223.374 59.0752 223.374 60.7541Z" fill="#282828"/>
<path d="M251.926 60.7541C251.926 62.4329 250.606 63.752 248.927 63.752C247.247 63.752 245.928 62.4329 245.928 60.7541C245.928 59.0752 247.247 57.7561 248.927 57.7561C250.606 57.7561 251.926 59.0752 251.926 60.7541Z" fill="#282828"/>
<path d="M241.129 45.6443L261.643 50.9207C261.643 50.9207 260.683 45.1646 252.286 43.126C243.888 40.9675 241.129 45.6443 241.129 45.6443Z" fill="#282828"/>
<path d="M228.413 45.6443L207.899 50.9207C207.899 50.9207 208.859 45.1646 217.257 43.126C225.534 40.9675 228.413 45.6443 228.413 45.6443Z" fill="#282828"/>
<path d="M224.334 80.3008C224.334 80.3008 227.333 82.5792 235.371 82.5792C242.569 82.5792 247.127 80.3008 247.127 80.3008" stroke="#282828" stroke-width="1.3968" stroke-miterlimit="10" stroke-linecap="round" stroke-linejoin="round"/>
<path d="M219.535 74.6646C226.691 74.6646 232.492 68.8661 232.492 61.7134C232.492 54.5606 226.691 48.7622 219.535 48.7622C212.38 48.7622 206.579 54.5606 206.579 61.7134C206.579 68.8661 212.38 74.6646 219.535 74.6646Z" stroke="white" stroke-width="1.9514" stroke-miterlimit="10"/>
<path d="M251.326 74.6646C258.482 74.6646 264.283 68.8661 264.283 61.7134C264.283 54.5606 258.482 48.7622 251.326 48.7622C244.171 48.7622 238.37 54.5606 238.37 61.7134C238.37 68.8661 244.171 74.6646 251.326 74.6646Z" stroke="white" stroke-width="1.9514" stroke-miterlimit="10"/>
<path d="M232.492 61.7135C232.492 61.7135 235.611 58.8354 238.37 61.7135" stroke="white" stroke-width="1.9514" stroke-miterlimit="10"/>
<path d="M206.579 61.7134L202.141 61.5935" stroke="white" stroke-width="1.9514" stroke-miterlimit="10"/>
<path d="M264.282 61.7134L269.081 61.5935" stroke="white" stroke-width="1.9514" stroke-miterlimit="10"/>
<path d="M212.697 20.9411C212.697 20.9411 218.935 38.5691 247.007 38.0894C266.082 37.7296 270.64 51.5202 270.64 51.5202C270.64 51.5202 267.281 20.7012 266.442 20.9411C265.602 21.1809 237.41 13.3862 237.41 13.3862L212.697 20.9411Z" fill="#282828"/>
<defs>
<linearGradient id="paint0_linear_222_3011" x1="376.69" y1="136.902" x2="376.69" y2="263.776" gradientUnits="userSpaceOnUse">
<stop stop-color="#399944"/>
<stop offset="1" stop-color="#155F60"/>
</linearGradient>
<linearGradient id="paint1_linear_222_3011" x1="101.467" y1="259.55" x2="101.467" y2="139.063" gradientUnits="userSpaceOnUse">
<stop offset="4.74173e-07" stop-color="#5F9630"/>
<stop offset="1" stop-color="#A6B953"/>
</linearGradient>
<linearGradient id="paint2_linear_222_3011" x1="318.511" y1="265.657" x2="318.511" y2="139.659" gradientUnits="userSpaceOnUse">
<stop offset="1.6303e-06" stop-color="#EB8A00"/>
<stop offset="1" stop-color="#EBB327"/>
</linearGradient>
<linearGradient id="paint3_linear_222_3011" x1="155.778" y1="260.792" x2="155.778" y2="137.99" gradientUnits="userSpaceOnUse">
<stop offset="1.6303e-06" stop-color="#EB8A00"/>
<stop offset="1" stop-color="#EBB327"/>
</linearGradient>
<linearGradient id="paint4_linear_222_3011" x1="238.245" y1="364.664" x2="238.245" y2="132.335" gradientUnits="userSpaceOnUse">
<stop offset="1.6303e-06" stop-color="#EB8A00"/>
<stop offset="1" stop-color="#EBB327"/>
</linearGradient>
</defs>
</svg>
