<svg width="115" height="115" viewBox="0 0 115 115" fill="none" xmlns="http://www.w3.org/2000/svg">
<path d="M67.2667 85.0565C66.1403 87.75 65.1119 90.2966 64.0834 92.7942C63.9365 93.186 63.7406 93.6267 63.5937 94.0185C63.4468 94.4103 63.3488 94.851 62.8101 94.9C62.3204 94.9 62.2225 94.4592 62.0266 94.1164C61.5368 93.2349 61.0471 92.3044 60.6064 91.374C60.4105 90.9332 60.1656 90.8353 59.6759 90.9822C58.6474 91.325 57.619 91.6678 56.5906 91.9616C56.2478 92.0596 55.856 92.2065 55.5622 91.8637C55.2683 91.5209 55.5132 91.227 55.6111 90.9332C56.8355 87.9948 58.0108 85.0075 59.2841 82.0691C59.529 81.5304 59.431 81.2366 58.9903 80.8938C57.5211 79.7184 56.2967 78.2982 55.5622 76.5842C55.2193 75.8496 54.8276 75.7026 54.093 75.7026C46.9429 75.7026 39.7929 75.7026 32.6429 75.7026C28.9699 75.7026 25.297 75.7026 21.624 75.7026C19.4202 75.7026 18.049 74.3314 18.049 72.1276C18 56.3094 18 40.4422 18 24.624C18 22.3223 19.3712 21 21.673 21C45.7676 21 69.8622 21 94.0058 21C96.3565 21 97.6788 22.3223 97.6788 24.673C97.6788 40.4422 97.6788 56.2604 97.6788 72.0297C97.6788 74.4294 96.3565 75.7026 93.9569 75.7026C89.4024 75.7026 84.8969 75.7026 80.3424 75.7026C79.7058 75.7026 79.4119 75.8985 79.1671 76.4372C78.3345 78.2003 77.1592 79.7184 75.641 80.8938C75.1513 81.2856 75.1513 81.5794 75.3472 82.0691C76.5225 84.9095 77.6979 87.75 78.8732 90.6394C79.0201 91.0311 79.363 91.4719 79.0201 91.8637C78.6284 92.3044 78.1876 91.9616 77.7958 91.8637C76.8653 91.5698 75.9349 91.325 75.0044 90.9822C74.5146 90.7863 74.2698 90.8842 74.0249 91.374C73.5352 92.3534 73.0455 93.2839 72.5068 94.2634C72.3598 94.5572 72.2129 94.851 71.7722 94.851C71.3314 94.851 71.2335 94.5082 71.1355 94.2144C70.0091 91.4719 68.8828 88.7784 67.7564 86.0359C67.6095 85.7911 67.4626 85.5462 67.2667 85.0565Z" fill="#15233C"/>
<path d="M57.864 28.0522C66.5322 28.0522 75.2004 28.0522 83.8686 28.0522C84.5052 28.0522 84.799 28.1502 84.9949 28.8848C85.5826 31.1865 87.1008 32.6067 89.4025 33.1454C89.9412 33.2923 90.0391 33.4882 90.0391 33.978C90.0391 43.5766 90.0391 53.2243 90.0391 62.823C90.0391 63.3127 89.8922 63.5086 89.4025 63.6555C87.0518 64.2432 85.5336 65.7123 84.946 68.112C84.848 68.6017 84.6521 68.7976 84.1134 68.7976C83.134 68.7487 82.1055 68.7487 81.1261 68.7976C80.4405 68.8466 80.2446 68.6017 80.0977 67.9651C79.2651 64.2432 77.2083 61.4027 73.9271 59.4928C66.1404 54.9873 56.4438 59.2479 54.4849 68.063C54.3379 68.6507 54.1421 68.7976 53.5544 68.7976C46.2574 68.7976 38.9115 68.7976 31.6146 68.7976C31.1248 68.7976 30.88 68.6997 30.782 68.161C30.2433 65.7124 28.6762 64.1942 26.2275 63.6555C25.5419 63.5086 25.7378 63.1168 25.7378 62.725C25.7378 56.9952 25.7378 51.2164 25.7378 45.4866C25.7378 41.6667 25.7378 37.8468 25.7378 34.0759C25.7378 33.5372 25.8358 33.3413 26.4234 33.1944C28.7741 32.6067 30.2923 31.1375 30.831 28.7868C30.9779 28.1992 31.2228 28.1012 31.7615 28.1012C40.3807 28.0522 49.0979 28.0522 57.864 28.0522Z" fill="#FEFEFE"/>
<path d="M80.4403 70.7074C80.2934 70.0707 80.5382 69.8259 81.2239 69.8259C82.4482 69.8748 83.6725 69.8259 84.8968 69.8259C85.5335 69.8259 85.8763 69.63 85.9742 68.8954C86.1701 66.5447 87.7862 64.9286 90.1369 64.6347C90.9695 64.5368 91.2143 64.194 91.2143 63.4104C91.2143 53.371 91.2143 43.2826 91.2143 33.2432C91.2143 32.4106 90.9205 32.1168 90.1369 32.0678C87.8352 31.774 86.2191 30.1579 86.0232 27.8561C85.9742 27.0726 85.6314 26.8767 84.9458 26.8767C81.1259 26.8767 77.2571 26.8767 73.4372 26.8767C59.382 26.8767 45.3758 26.8767 31.3206 26.8767C29.9493 26.8767 29.9493 26.8767 29.7534 28.199C29.4596 30.2068 27.8435 31.774 25.7377 32.0678C24.5623 32.2147 24.5623 32.2147 24.5623 33.3901C24.5623 43.3805 24.5623 53.371 24.5623 63.3125C24.5623 64.145 24.7582 64.5368 25.6887 64.6347C28.0394 64.9286 29.5575 66.5936 29.7534 68.8954C29.8024 69.7769 30.2921 69.8259 30.9777 69.8259C38.4216 69.8259 45.8655 69.8259 53.3094 69.8259C53.995 69.8259 54.3378 69.9728 54.0929 70.7074C53.7501 71.0991 53.2604 71.0991 52.7707 71.0991C51.1056 71.0991 49.4405 71.0991 47.7754 71.0991C38.8134 71.0991 29.9003 71.0991 20.9383 71.0991C20.3506 71.0991 19.714 71.2461 19.2243 70.7074C19.2243 70.4135 19.1753 70.1687 19.1753 69.8748C19.1753 54.8891 19.1753 39.9035 19.1753 24.9667C19.1753 24.7219 19.1753 24.526 19.1753 24.2811C19.2243 23.0568 20.0568 22.2243 21.3301 22.1753C21.6239 22.1753 21.8688 22.1753 22.1626 22.1753C45.3268 22.1753 68.4909 22.1753 91.7041 22.1753C91.9979 22.1753 92.2917 22.1753 92.6345 22.2243C92.9284 22.4202 92.9773 22.763 93.0263 23.1058C93.0263 23.5465 93.0263 23.9873 93.0263 24.428C93.0263 38.4832 93.0263 52.5384 93.0263 66.5936C93.0263 67.0834 93.0263 67.5731 93.0263 68.1118C92.8794 69.8748 91.6551 71.0991 89.8921 71.1481C87.1496 71.1971 84.4561 71.1481 81.7136 71.1481C81.2239 71.0991 80.7341 71.1481 80.4403 70.7074Z" fill="#77CABA"/>
<path d="M78.948 70.9983C78.948 77.7076 73.561 82.9967 66.8518 82.9967C60.3384 82.9967 54.9514 77.5607 55.0003 70.9983C55.0003 64.387 60.4363 59 67.0966 59C73.561 59.049 78.948 64.485 78.948 70.9983Z" fill="url(#paint0_linear_341_606)"/>
<path d="M80.4404 70.7073C83.3788 70.7073 86.2682 70.6093 89.2066 70.7562C91.7042 70.8542 92.6347 69.2381 92.6347 67.2792C92.5857 60.9127 92.6347 54.4973 92.6347 48.1308C92.6347 39.5116 92.6347 30.8434 92.6347 22.2242C93.2223 22.2242 93.859 22.1752 94.4467 22.2242C95.622 22.2731 96.4056 23.1057 96.4545 24.232C96.4545 24.5259 96.4545 24.8197 96.4545 25.1625C96.4545 40.6379 96.4545 56.1134 96.4545 71.5888C96.4545 71.8826 96.4545 72.1764 96.4545 72.5192C96.3566 73.6946 95.524 74.5761 94.3487 74.5761C89.7453 74.5761 85.1418 74.5761 80.4894 74.5761C79.9997 74.5761 79.8527 74.4292 79.9997 73.9395C80.2935 72.8621 80.4404 71.7847 80.4404 70.7073Z" fill="#68B0A7"/>
<path d="M19.1754 70.7075C30.782 70.7075 42.4375 70.7075 54.0441 70.7075C54.191 71.7849 54.191 72.9113 54.5338 73.9887C54.6318 74.3805 54.5338 74.5764 54.0931 74.5274C53.8972 74.5274 53.7013 74.5274 53.5054 74.5274C43.0252 74.5274 32.545 74.5274 22.0648 74.5274C19.8121 74.5274 19.1265 73.8418 19.1265 71.589C19.1754 71.3442 19.1754 71.0503 19.1754 70.7075Z" fill="#68B0A7"/>
<path d="M56.9824 90.6395C57.9619 88.2399 58.8434 86.0361 59.7739 83.8323C60.0187 83.2936 60.1167 82.4611 60.5574 82.2162C61.0472 81.9224 61.6348 82.608 62.1735 82.8039C63.3489 83.2446 64.5242 83.5875 65.7975 83.7344C66.2873 83.7833 66.4832 83.9303 66.2383 84.469C65.1119 87.1625 64.0345 89.856 62.9081 92.5495C62.8592 92.5985 62.8102 92.6474 62.7122 92.8433C62.2225 91.9618 61.7328 91.1293 61.341 90.2478C61.0472 89.6111 60.6554 89.4152 59.9698 89.6601C59.0393 90.0519 58.1088 90.2967 56.9824 90.6395Z" fill="#77CABA"/>
<path d="M71.7722 92.941C70.5969 90.0516 69.4215 87.2112 68.2462 84.4198C68.0993 84.077 68.2462 83.93 68.589 83.8811C70.352 83.6852 72.0661 83.1465 73.6332 82.265C73.8781 82.118 74.025 82.118 74.1229 82.4119C75.2003 85.0564 76.3267 87.7499 77.502 90.6393C76.4736 90.3455 75.6411 90.0516 74.8085 89.8068C73.6822 89.464 73.6332 89.464 73.0945 90.5414C72.7027 91.276 72.3599 91.9616 71.9681 92.6962C71.9681 92.6962 71.9191 92.7451 71.7722 92.941Z" fill="#77CABA"/>
<path d="M58.0598 42.2054C50.3221 42.2054 42.5354 42.2054 34.7977 42.2054C34.5528 42.2054 34.308 42.2054 34.0631 42.2054C33.7203 42.2054 33.5734 42.0095 33.5244 41.6667C33.5244 41.2749 33.7203 41.079 34.0631 41.0301C34.259 40.9811 34.5039 41.0301 34.7487 41.0301C50.2731 41.0301 65.7975 41.0301 81.3219 41.0301C81.4688 41.0301 81.6647 41.0301 81.8116 41.0301C82.2524 41.0301 82.5462 41.226 82.4972 41.6667C82.4972 42.0585 82.2034 42.2054 81.8116 42.2054C81.2729 42.2054 80.6852 42.2054 80.1465 42.2054C72.8006 42.2054 65.4057 42.2054 58.0598 42.2054Z" fill="#15233C"/>
<path d="M58.0599 47.4944C65.7487 47.4944 73.4374 47.4944 81.1261 47.4944C81.371 47.4944 81.5669 47.4944 81.8117 47.4944C82.2035 47.4944 82.4974 47.6413 82.4974 48.0331C82.4974 48.4739 82.2035 48.6698 81.7628 48.6698C81.6158 48.6698 81.42 48.6698 81.273 48.6698C65.7486 48.6698 50.2732 48.6698 34.7488 48.6698C34.2591 48.6698 33.5245 48.9146 33.5245 48.1311C33.4756 47.2006 34.3081 47.5434 34.7978 47.5434C42.5845 47.4944 50.3222 47.4944 58.0599 47.4944Z" fill="#15233C"/>
<path d="M58.0108 55.0851C50.2731 55.0851 42.5844 55.0851 34.8467 55.0851C34.6018 55.0851 34.357 55.0851 34.1121 55.0851C33.7693 55.0851 33.5244 54.8892 33.5244 54.5464C33.5244 54.1546 33.7693 54.0077 34.1121 53.9587C34.308 53.9587 34.5039 53.9587 34.6998 53.9587C50.2731 53.9587 65.7975 53.9587 81.3709 53.9587C81.5668 53.9587 81.7627 53.9587 81.9585 53.9587C82.3014 54.0077 82.5462 54.1546 82.5462 54.5464C82.5462 54.8892 82.3014 55.0851 81.9585 55.0851C81.7137 55.0851 81.4688 55.0851 81.224 55.0851C73.4862 55.0851 65.7485 55.0851 58.0108 55.0851Z" fill="#15233C"/>
<path d="M57.962 34.6143C62.5164 34.6143 67.0709 34.6143 71.6254 34.6143C71.8702 34.6143 72.1151 34.6143 72.36 34.6143C72.6538 34.6632 72.8497 34.8101 72.8497 35.153C72.8497 35.4958 72.6538 35.6917 72.36 35.6917C72.1641 35.7406 71.9192 35.6917 71.6743 35.6917C62.5164 35.6917 53.4075 35.6917 44.2496 35.6917C44.0047 35.6917 43.8088 35.6917 43.5639 35.6917C43.2211 35.6917 43.0742 35.4468 43.0742 35.153C43.0742 34.8591 43.2211 34.6143 43.5639 34.6143C43.8088 34.6143 44.0537 34.6143 44.2985 34.6143C48.902 34.6143 53.4565 34.6143 57.962 34.6143Z" fill="#15233C"/>
<path d="M20.8403 55.8684C20.8403 54.4482 20.8403 53.028 20.8403 51.6078C20.8403 51.1181 20.9383 50.7263 21.526 50.6773C22.1626 50.6283 22.3095 51.0691 22.3095 51.6078C22.3095 54.4972 22.3095 57.3866 22.3095 60.276C22.3095 60.8147 22.1626 61.2554 21.526 61.2065C20.9383 61.2065 20.8403 60.7657 20.8403 60.276C20.8403 58.8068 20.8403 57.3376 20.8403 55.8684Z" fill="#FEFEFE"/>
<path d="M22.3583 47.9839C22.3583 48.5226 22.2114 48.9634 21.6238 48.9634C20.9871 48.9634 20.8892 48.4247 20.8892 47.886C20.8892 47.3472 21.0361 46.9065 21.6238 46.9065C22.2114 46.9065 22.3583 47.4452 22.3583 47.9839Z" fill="#FEFEFE"/>
<path d="M72.9966 69.1405C72.1151 69.9731 71.4785 70.6587 70.7439 71.2953C70.2542 71.7361 70.1562 72.1768 70.2542 72.7645C70.45 73.695 70.597 74.6745 70.7929 75.8008C69.7644 75.2621 68.8829 74.8214 68.0504 74.3806C67.5606 74.0868 67.1199 74.0378 66.5812 74.3806C65.7487 74.8703 64.8182 75.3111 63.8387 75.8008C63.8877 74.6255 64.1326 73.646 64.3284 72.6666C64.4264 72.1768 64.3284 71.834 63.9856 71.4912C63.349 70.9035 62.7613 70.3159 62.1247 69.7282C62.0267 69.6303 61.8308 69.4833 61.8798 69.3364C61.9288 69.1405 62.1247 69.1895 62.3206 69.1405C63.1531 69.0426 63.9856 68.8957 64.7692 68.7977C65.3079 68.7487 65.6507 68.5039 65.8956 67.9652C66.2874 67.0347 66.7771 66.2022 67.3158 65.1248C67.8545 66.1532 68.2952 67.0347 68.687 67.9162C68.9319 68.5039 69.3726 68.7487 69.9603 68.7977C70.8418 68.8467 71.7723 68.9936 72.9966 69.1405Z" fill="#FEFEFE"/>
<defs>
<linearGradient id="paint0_linear_341_606" x1="66.9429" y1="82.9996" x2="66.9429" y2="58.9311" gradientUnits="userSpaceOnUse">
<stop offset="1.6303e-06" stop-color="#EB8A00"/>
<stop offset="1" stop-color="#EBB327"/>
</linearGradient>
</defs>
</svg>
