<svg width="115" height="115" viewBox="0 0 115 115" fill="none" xmlns="http://www.w3.org/2000/svg">
<g clip-path="url(#clip0_341_376)">
<path d="M63.9366 92.0347C63.8939 91.3045 63.2963 91.6052 62.9548 91.6052C56.2957 91.6052 49.6792 91.6052 43.0201 91.6052C38.8368 91.6052 34.6535 91.6052 30.5129 91.6052C26.0308 91.5622 23 88.5125 23 84.0453C23 64.1578 23 44.2702 23 24.3827C23 21.1182 24.9636 19.1423 28.2078 19.1423C31.7081 19.1423 35.2511 19.1423 38.7514 19.1423C39.1356 19.1423 39.5198 19.0994 39.9466 19.0994C40.032 19.1853 40.0747 19.3141 40.1174 19.443C40.0747 20.2591 40.0747 21.0752 40.0747 21.8914C40.0747 22.6216 39.6905 22.9652 39.0075 23.0081C38.4953 23.0081 37.9404 23.0511 37.4281 23.0081C36.3183 22.9652 35.3792 23.3518 34.5681 24.1679C32.4338 26.3156 30.2994 28.4633 28.1651 30.6109C27.1406 31.6418 26.6711 32.8445 26.7137 34.262C26.7564 37.3547 26.6711 40.4473 26.7991 43.497C26.8845 45.7306 26.7137 48.0072 26.7137 50.2408C26.6711 61.151 26.7137 72.1042 26.7137 83.0144C26.7137 83.3581 26.7137 83.6587 26.7137 84.0024C26.8418 86.3648 28.2078 87.7393 30.5556 87.7393C36.1475 87.7823 41.7395 87.7393 47.3314 87.7393C52.5392 87.7393 57.747 87.7393 62.9121 87.7393C63.339 87.7393 63.7659 87.7393 64.1927 87.7823C64.6623 87.8682 64.9184 88.1259 64.8757 88.5984C64.7476 89.7152 64.4915 90.789 64.15 91.8629C64.15 92.0347 64.022 92.0347 63.9366 92.0347Z" fill="#576178"/>
<path d="M39.9895 19.3571C39.9895 19.2712 39.9895 19.1853 39.9468 19.0994C39.9468 18.6269 39.9041 18.1544 39.9895 17.7249C40.1176 16.8229 40.8859 16.2215 41.8677 16.1786C42.7642 16.1356 43.6606 16.1356 44.5143 16.1786C45.0692 16.2215 45.24 16.0497 45.2827 15.4913C45.3681 13.8591 46.3072 13.043 47.9293 13C49.1245 13 50.3624 13 51.5576 13C53.0944 13.043 54.0335 13.8591 54.1615 15.4054C54.2042 16.0497 54.375 16.1786 54.9726 16.1356C55.6982 16.0927 56.4239 16.1356 57.1496 16.1356C58.8144 16.1356 59.4974 16.8229 59.5401 18.4551C59.5401 18.6699 59.5827 18.9276 59.5827 19.1424C60.1804 20.2592 59.7962 21.4619 59.8815 22.6216C59.8815 23.3089 59.6254 23.9532 59.6254 24.5975C59.1559 25.8431 58.6863 26.1868 57.235 26.1868C53.009 26.1868 48.783 26.1868 44.557 26.1868C43.7886 26.1868 43.063 26.1868 42.2946 26.1868C40.6298 26.1438 39.9468 25.4995 39.7334 23.8243C39.9895 22.3639 39.8188 20.8176 39.9895 19.3571Z" fill="#343434"/>
<path d="M39.9898 19.3572C39.9898 20.8176 39.9898 22.278 39.9898 23.7814C39.008 24.2968 37.9835 23.9532 36.959 24.0391C36.2333 23.9962 35.7211 24.3398 35.2089 24.8123C32.9891 27.0029 30.8121 29.2365 28.5924 31.4272C28.1655 31.8567 27.9521 32.3292 27.824 32.8876C27.696 33.4889 27.696 34.1332 27.696 34.7346C27.696 50.8852 27.696 67.0357 27.696 83.1863C27.696 83.7018 27.696 84.1743 27.7814 84.6897C28.0375 85.8924 28.9339 86.6226 30.1291 86.7515C30.3852 86.7515 30.6414 86.7515 30.8975 86.7515C41.6546 86.7515 52.4116 86.7515 63.1687 86.7515C63.937 86.7515 64.7054 86.8374 65.0469 85.8495C65.2603 85.5058 65.5591 85.5058 65.9006 85.5917C66.7117 85.8065 67.48 85.8495 68.2911 85.5917C68.6753 85.4629 69.0168 85.5488 69.2302 85.8924C69.9986 87.0951 71.0657 87.6965 72.4744 87.6965C72.5598 87.6965 72.6451 87.7824 72.7305 87.8253C72.8159 88.083 72.6451 88.2119 72.4317 88.2549C71.578 88.3408 71.4072 88.9421 71.2792 89.6294C70.895 91.82 70.212 94.0107 69.7851 96.2013C69.6997 96.5449 69.5717 96.8885 69.3583 97.1892C67.3947 97.6617 65.5591 98.5208 63.6809 99.1221C63.2967 99.251 62.9126 99.5946 62.4857 99.1651C62.1442 98.8215 62.4003 98.3919 62.443 98.0483C62.9126 96.0295 63.3821 94.0536 63.8517 92.0777C64.1078 90.9609 64.3639 89.8441 64.5773 88.7273C64.6627 88.3408 64.492 88.083 64.0651 88.083C63.809 88.083 63.5529 88.083 63.2967 88.083C52.3262 88.083 41.3984 88.083 30.4279 88.083C27.9094 88.083 26.33 86.4938 26.33 83.9165C26.33 72.405 26.2873 60.8934 26.3727 49.3818C26.3727 47.4918 26.5434 45.5589 26.4581 43.669C26.33 40.4904 26.4581 37.3118 26.33 34.1762C26.2873 32.7158 26.7996 31.4701 27.8667 30.4392C29.873 28.4634 31.8793 26.4875 33.8002 24.4687C34.9527 23.223 36.2333 22.6217 37.9835 22.7076C39.7763 22.8364 39.7763 22.7505 39.819 20.9035C39.819 20.3451 39.6483 19.8297 39.9898 19.3572Z" fill="#404A62"/>
<path d="M59.54 22.7075C59.54 21.5048 59.54 20.345 59.54 19.1423C63.5099 19.1423 67.4798 19.1423 71.4923 19.1423C74.3097 19.1423 76.444 21.1182 76.444 23.9531C76.4867 34.0043 76.444 44.0555 76.444 54.1496C75.6329 54.7509 74.6512 54.9227 73.7547 55.4382C73.2852 55.7389 72.8583 55.1375 72.7302 54.5362C72.6022 51.7012 72.6876 48.8233 72.6876 45.9884C72.6876 42.5521 72.6449 39.1158 72.7302 35.6795C72.6876 34.8634 72.6876 34.0473 72.7302 33.2311C72.6876 32.415 72.7302 31.6419 72.7302 30.8257C72.7302 29.3224 72.7302 27.8619 72.7302 26.3586C72.6876 24.082 71.5777 22.9652 69.3153 22.9652C66.5407 22.9652 63.8087 22.9652 61.0341 22.9652C60.4791 23.0082 59.9669 23.0941 59.54 22.7075Z" fill="#576178"/>
<path d="M72.9861 54.8799C73.3703 55.3524 73.7118 55.5242 74.224 54.9658C74.7789 54.3215 75.6753 54.3215 76.4437 54.1497C77.7243 54.3644 78.8342 54.9228 79.4318 56.1685C79.6025 56.5121 79.7733 56.4262 80.0721 56.3403C82.5052 55.653 84.1273 56.5551 84.7676 59.0893C84.853 59.4759 85.0237 59.6048 85.4079 59.6477C87.713 59.9054 88.9936 61.7525 88.4387 64.029C88.3106 64.4585 88.4387 64.6304 88.8229 64.8451C90.9145 66.0049 91.4268 68.0666 90.1462 69.9996C89.9327 70.3432 89.8473 70.515 90.1462 70.9016C91.5975 72.7056 91.256 74.9392 89.2497 76.1419C88.8229 76.3997 88.7802 76.6144 88.9509 77.0869C89.6339 79.1916 88.5241 81.1246 86.3897 81.5971C85.8348 81.7259 85.664 81.8548 85.6214 82.4561C85.5787 83.53 84.8957 84.3461 84.0846 84.9904C83.4016 85.8495 82.5052 85.7636 81.5661 85.6347C81.1392 85.5917 80.8831 85.5488 80.5843 85.9783C79.3464 87.9112 77.6389 88.3837 75.4619 87.4388C75.0777 87.0951 74.6935 87.0951 74.2667 87.4388C73.8398 87.7394 73.3703 88.126 72.7726 87.8683C71.1505 87.9972 69.8699 87.4817 69.1016 85.9783C68.9735 85.6776 68.8028 85.5917 68.504 85.7206C67.4368 86.236 66.4123 86.0213 65.3878 85.5917C64.406 85.2911 63.9365 84.5179 63.6377 83.6159C63.4669 83.0575 63.2535 82.7568 62.6132 82.6279C60.6496 82.1984 59.5824 80.738 59.7532 78.7192C59.7959 77.9889 59.6251 77.5165 59.0275 77.0869C57.4054 75.8842 57.0212 74.1231 57.9603 72.362C58.2165 71.8466 58.2591 71.5029 57.9177 70.9875C56.7651 69.0975 57.0639 67.4223 58.7714 66.0049C59.1983 65.6612 59.369 65.3176 59.2409 64.7592C58.8568 62.6974 59.7105 61.1941 61.6314 60.4638C62.2717 60.2061 62.6132 59.9054 62.7839 59.1752C63.2108 57.3712 64.8329 56.2544 66.7111 56.4692C67.3514 56.5551 67.7356 56.3832 68.1198 55.8678C69.0162 54.5362 70.2968 54.0208 71.8762 54.2785C71.9616 54.2785 72.0897 54.3215 72.175 54.3644C72.4738 54.4503 72.73 54.6221 72.9861 54.8799Z" fill="#E18226"/>
<path d="M72.7724 87.9111C73.37 87.7393 73.9676 87.5675 74.3945 87.095C74.8213 86.6225 75.0774 86.8802 75.3763 87.2239C76.23 88.4266 76.4007 89.887 76.9557 91.2186C77.2118 91.8629 77.2545 92.4642 76.913 93.0656C76.3154 95.8146 75.7177 98.6066 75.0348 101.356C74.864 102.129 74.3518 102.215 73.7542 101.57C72.3028 100.11 70.8515 98.6066 69.3574 97.1462C69.5709 95.3851 70.1258 93.6669 70.4673 91.9058C70.5953 91.2185 70.8088 90.4883 70.9368 89.8011C71.1503 88.7272 71.4918 87.9111 72.7724 87.9111Z" fill="#353E59"/>
<path d="M76.9564 93.0655C77.2125 91.9917 76.6149 91.1326 76.3587 90.1876C76.1026 89.1997 75.7184 88.2118 75.377 87.2238C77.7674 88.2547 79.2188 87.7822 80.4567 85.5916C80.6274 85.2909 80.7555 85.205 81.0543 85.3339C82.0788 85.7205 83.0606 85.4627 83.9997 85.0332C84.8107 87.4386 85.6645 89.844 86.4755 92.2494C86.7316 93.0655 86.4328 93.4092 85.5791 93.1944C84.5119 92.9796 83.4447 92.7219 82.4203 92.4212C81.908 92.2924 81.5665 92.4212 81.225 92.8508C80.6701 93.6239 80.0298 94.3542 79.4322 95.0844C79.1761 95.385 79.0053 95.8146 78.5358 95.7287C78.0662 95.6857 77.9808 95.2132 77.8528 94.8266C77.6394 94.2253 77.4259 93.6239 77.2552 93.0226C77.1698 92.5071 77.0844 92.9796 76.9564 93.0655Z" fill="#516186"/>
<path d="M71.9619 54.4503C70.169 54.2785 68.7177 54.7939 67.9493 56.5979C67.8213 56.8986 67.6078 56.8986 67.309 56.8557C64.7051 56.4261 63.2538 57.4141 62.8696 59.9913C62.8269 60.3779 62.6989 60.4638 62.3574 60.5067C60.2657 60.7645 58.6436 62.998 59.6254 65.3175C59.7962 65.6612 59.6254 65.7471 59.3693 65.9189C57.1923 67.4223 56.8508 69.2693 58.4302 71.374C58.6863 71.7176 58.5582 71.8465 58.3875 72.1042C57.0642 74.123 57.5765 76.1848 59.7108 77.3446C60.1377 77.5593 60.1377 77.7312 60.0523 78.2036C59.54 80.4802 60.8206 82.2842 63.1257 82.542C63.4245 82.5849 63.6807 82.542 63.7233 82.9715C63.8087 84.1312 64.4917 84.9903 65.3454 85.6776C65.0466 87.0951 65.0466 87.0951 63.638 87.0951C52.6675 87.0951 41.697 87.0951 30.6838 87.0951C28.3787 87.0951 27.3969 86.1071 27.3969 83.7876C27.3969 67.2505 27.3969 50.7133 27.3969 34.1761C27.3969 33.5318 27.3542 32.9305 27.7384 32.3721C28.1653 32.1573 28.6348 32.1573 29.1044 32.1573C30.9399 32.1573 32.7755 32.2003 34.611 32.1573C36.0623 32.1144 36.3184 31.8566 36.3611 30.3962C36.3611 28.5922 36.3611 26.8311 36.3611 25.027C36.3611 24.5545 36.3184 24.082 36.7026 23.7384C37.8125 23.6095 38.8797 23.6095 39.9895 23.7384C40.0322 25.2418 40.6725 25.929 42.1238 25.929C47.2036 25.929 52.2406 25.929 57.3203 25.929C58.3448 25.929 59.1132 25.5854 59.3693 24.4686C59.3693 23.5666 59.8815 23.3518 60.6926 23.3518C63.5953 23.3518 66.5407 23.3518 69.4434 23.3518C71.1082 23.3518 71.8338 23.9961 72.218 25.7143C72.2607 34.8634 72.218 44.0555 72.218 53.2046C72.2607 53.6771 72.3034 54.1066 71.9619 54.4503Z" fill="#FEFEFE"/>
<path d="M49.6795 22.4927C48.4843 22.4927 47.3317 22.4927 46.1365 22.4927C45.4108 22.4927 44.7705 22.3209 44.7705 21.4618C44.7705 20.6457 45.4108 20.4739 46.0938 20.5168C48.5269 20.5168 50.9601 20.5168 53.3505 20.5168C54.0762 20.5168 54.6311 20.6886 54.5885 21.5047C54.5885 22.3638 53.9482 22.4927 53.3079 22.4927C52.1126 22.4927 50.9174 22.4927 49.6795 22.4927Z" fill="#828282"/>
<path d="M72.0041 25.7143C71.4492 24.125 70.8516 23.6955 69.1868 23.6525C66.2841 23.6525 63.4241 23.6955 60.5214 23.6525C59.8384 23.6525 59.4115 23.7814 59.3688 24.5545C59.1981 23.9102 59.625 23.3518 59.5396 22.7505C62.8692 22.7505 66.2414 22.7505 69.571 22.7505C71.6199 22.7505 72.9432 24.0821 72.9432 26.1438C72.9432 27.7331 72.9432 29.3224 72.9432 30.9117C72.7298 31.1694 72.7298 31.513 72.4737 31.7708C72.3029 31.9855 72.0895 32.0714 72.0468 31.6419C72.0468 29.6231 72.1749 27.6472 72.0041 25.7143Z" fill="#424C64"/>
<path d="M49.7642 17.2095C49.0812 17.1665 48.6116 16.7799 48.6116 16.1356C48.5689 15.4484 48.9531 14.9759 49.6361 14.9759C50.3618 14.9329 50.8313 15.3195 50.8313 16.0927C50.8313 16.737 50.4471 17.1236 49.7642 17.2095Z" fill="#F4F1EF"/>
<path d="M36.7028 23.7385C36.7028 26.101 36.7028 28.5064 36.7028 30.8688C36.7028 31.9856 36.3186 32.3722 35.2514 32.3722C32.7756 32.3722 30.2571 32.3722 27.7812 32.3293C27.8666 31.8568 28.2081 31.5561 28.5496 31.2125C30.7266 29.0218 32.9037 26.8312 35.0807 24.6406C35.5076 24.211 35.9771 23.7385 36.7028 23.7385Z" fill="url(#paint0_linear_341_376)"/>
<path d="M72.9863 54.8799C72.7301 54.751 72.4313 54.6221 72.1752 54.4933C72.0472 54.1926 72.0898 53.849 72.0898 53.5053C72.0898 47.8355 72.0898 42.1226 72.0898 36.4527C72.2179 35.9802 72.2179 35.3789 72.9863 35.5937C72.9863 42.0367 72.9863 48.4798 72.9863 54.8799Z" fill="#444E66"/>
<path d="M72.9858 35.6365C72.5589 35.5936 72.4735 36.0231 72.2174 36.2379C72.004 35.1211 72.1747 34.0043 72.132 32.8875C72.1747 32.5009 72.3881 32.5868 72.5589 32.7157C72.7296 32.8446 72.815 33.0593 72.9858 33.2311C72.9858 34.0473 72.9858 34.8204 72.9858 35.6365Z" fill="#424C64"/>
<path d="M72.9435 33.2311C72.5166 33.274 72.4313 32.8445 72.1751 32.6297C72.0471 32.372 72.0471 32.1143 72.1751 31.8136C72.474 31.5129 72.474 30.9975 72.9435 30.8257C72.9435 31.6418 72.9435 32.4579 72.9435 33.2311Z" fill="#444E66"/>
<path d="M60.9059 79.0627C60.9059 79.0198 60.9059 78.9768 60.9059 78.9768C61.3328 77.6023 60.9486 76.7862 59.54 76.1419C58.3874 75.6264 58.2167 73.7794 59.0704 72.7485C59.668 72.0183 59.7961 71.5029 59.0704 70.6868C57.7898 69.2263 58.2594 67.4652 60.0095 66.6062C60.7352 66.2625 60.8633 65.7901 60.6071 65.1028C59.8388 63.084 60.6925 61.6665 62.7415 61.4088C63.3818 61.3229 63.6379 61.0222 63.7233 60.4208C63.8086 59.8195 63.8086 59.1752 64.1928 58.6168C64.9612 57.6289 65.9857 57.3711 67.0955 57.6718C68.0346 57.9295 68.5042 57.6718 68.8457 56.8127C69.4433 55.3094 71.3215 54.7939 72.6021 55.8248C73.2851 56.3832 73.712 56.555 74.523 55.8678C75.9744 54.5791 77.6392 54.9657 78.621 56.6839C79.0051 57.4141 79.4747 57.5859 80.243 57.2852C82.0786 56.555 83.6153 57.5 83.8714 59.4759C83.9568 60.292 84.3837 60.6356 85.152 60.6356C87.0302 60.6356 88.0974 62.1819 87.4571 64.029C87.1583 64.888 87.4571 65.2746 88.1401 65.5753C89.378 66.1337 89.9329 67.0357 89.8049 68.4102C89.7622 68.8827 89.5488 69.2693 89.25 69.6559C88.695 70.2572 88.695 70.8156 89.3353 71.4599C90.5306 72.6626 90.2744 74.5526 88.7377 75.3687C87.7986 75.8842 87.7132 76.4426 88.012 77.3875C88.6097 79.0627 87.6705 80.5661 85.9204 80.7379C85.024 80.8238 84.7252 81.3393 84.6825 82.0695C84.5117 84.0024 83.4019 84.9044 81.5663 84.4749C80.5845 84.2601 80.0296 84.346 79.6027 85.3769C79.0051 86.8373 77.3403 87.3098 76.1024 86.3649C75.1633 85.6346 74.523 85.6776 73.6693 86.4937C72.6021 87.5676 70.5532 87.0521 69.9982 85.5917C69.6567 84.6897 69.1872 84.5179 68.3334 84.8615C66.8394 85.5058 64.8758 84.8615 64.7904 82.6708C64.7478 81.7688 64.1075 81.554 63.3818 81.5111C61.717 81.4252 60.9059 80.6091 60.9059 79.0627Z" fill="#EAAB2F"/>
<path d="M72.1753 31.8567C72.1753 32.1145 72.1753 32.3722 72.1753 32.6728C72.1753 33.8756 72.1753 35.0353 72.1753 36.238C72.1753 42.3374 72.1753 48.4368 72.1753 54.5363C72.09 54.5363 72.0473 54.4933 71.9619 54.4933C71.9619 45.3012 71.9619 36.1091 71.9619 26.9171C71.9619 26.5305 71.9619 26.1439 72.0046 25.7144C72.3888 26.4446 72.1327 27.2607 72.1753 28.0339C72.218 29.2795 72.1753 30.5681 72.1753 31.8567Z" fill="#576178"/>
<path d="M49.6367 38.2567C44.8558 38.2567 40.0322 38.2567 35.2513 38.2567C34.611 38.2567 33.9707 38.1708 33.9707 37.3976C33.9707 36.5815 34.5683 36.4097 35.294 36.4097C44.9412 36.4097 54.5457 36.4097 64.1929 36.4097C64.8332 36.4097 65.4308 36.5385 65.4735 37.3117C65.5162 38.2137 64.8332 38.2567 64.1502 38.2567C59.3266 38.2996 54.4603 38.2996 49.6367 38.2567Z" fill="#566178"/>
<path d="M53.4361 51.3146C50.4053 51.3146 47.3745 51.3146 44.3865 51.3146C44.1303 51.3146 43.8742 51.3575 43.6181 51.2716C43.1059 51.1857 42.8071 50.8421 42.8497 50.2837C42.8924 49.8112 43.1912 49.5105 43.7035 49.4676C44.1303 49.4246 44.5572 49.4676 44.9841 49.4676C50.7468 49.4676 56.4668 49.4676 62.2295 49.4676C62.4856 49.4676 62.7418 49.4676 62.9979 49.4676C63.6382 49.4676 64.0224 49.7683 64.0224 50.4126C64.0224 51.0569 63.5528 51.3146 62.9552 51.3146C61.1624 51.3146 59.3268 51.3146 57.534 51.3146C56.1253 51.3146 54.802 51.3146 53.4361 51.3146Z" fill="#566078"/>
<path d="M52.1124 57.8006C49.5939 57.8006 47.0327 57.8006 44.5142 57.8006C44.1727 57.8006 43.8739 57.8006 43.5324 57.7147C43.1482 57.6288 42.9348 57.3281 42.8921 56.9415C42.8494 56.512 43.0628 56.1684 43.4897 55.9966C43.7458 55.9106 44.0019 55.9106 44.2581 55.9106C49.4658 55.9106 54.7163 55.9106 59.9241 55.9106C60.0948 55.9106 60.2656 55.9106 60.4363 55.9106C60.9486 55.9966 61.3328 56.2543 61.3328 56.8127C61.3328 57.414 60.9486 57.7577 60.3936 57.7577C59.3692 57.8006 58.3447 57.8006 57.3202 57.8006C55.6127 57.8006 53.8626 57.8006 52.1124 57.8006Z" fill="#586279"/>
<path d="M49.6794 42.681C46.9048 42.681 44.1728 42.681 41.3982 42.681C40.7579 42.681 40.0322 42.681 40.0322 41.8219C40.0322 40.9199 40.7152 40.834 41.4409 40.834C46.9475 40.834 52.4968 40.834 58.0033 40.834C58.1314 40.834 58.2595 40.834 58.3875 40.834C58.9851 40.8769 59.412 41.0917 59.412 41.779C59.412 42.4662 58.9425 42.681 58.3448 42.681C55.9544 42.681 53.5639 42.681 51.1308 42.681C50.6612 42.681 50.149 42.681 49.6794 42.681Z" fill="#566178"/>
<path d="M49.8072 77.3875C47.8863 77.3875 46.0081 77.3875 44.0872 77.3875C43.4469 77.3875 42.9346 77.2587 42.892 76.5285C42.8493 75.7553 43.4042 75.5405 44.0872 75.5405C47.8863 75.5405 51.7281 75.5405 55.5272 75.5405C56.1675 75.5405 56.6798 75.7553 56.6798 76.4426C56.6798 77.1728 56.1675 77.3446 55.5272 77.3446C53.6063 77.3875 51.7281 77.3875 49.8072 77.3875Z" fill="#566178"/>
<path d="M49.7215 70.8585C47.886 70.8585 46.0504 70.8585 44.2149 70.8585C43.5319 70.8585 42.8916 70.8155 42.8916 69.9135C42.9343 69.1403 43.4892 69.0115 44.1722 69.0115C47.9286 69.0115 51.6424 69.0115 55.3988 69.0115C56.0818 69.0115 56.6367 69.1833 56.6794 69.9135C56.7221 70.6867 56.1245 70.8585 55.4415 70.8155C53.5633 70.8155 51.6424 70.8585 49.7215 70.8585Z" fill="#566178"/>
<path d="M49.7642 64.2867C47.886 64.2867 46.0077 64.2867 44.1295 64.2867C43.4892 64.2867 42.8916 64.2008 42.8916 63.3847C42.8916 62.6115 43.4892 62.4397 44.1295 62.4397C47.886 62.4397 51.6851 62.4397 55.4415 62.4397C56.1245 62.4397 56.6367 62.6545 56.6367 63.4276C56.5941 64.1578 56.0391 64.2867 55.4415 64.2867C53.5633 64.2867 51.6424 64.2867 49.7642 64.2867Z" fill="#566177"/>
<path d="M40.587 74.9823C40.587 75.2829 40.4163 75.4977 40.2028 75.6695C39.3918 76.4856 38.5807 77.3018 37.7697 78.1179C37.3001 78.6333 36.8306 78.6333 36.361 78.1179C35.9342 77.6454 35.5073 77.2158 35.0377 76.7863C34.6962 76.4427 34.5255 76.0561 34.9097 75.6695C35.2939 75.2829 35.6353 75.3688 36.0195 75.7125C37.1294 76.6145 37.1294 76.6145 38.1966 75.5407C38.5807 75.1541 38.9222 74.7675 39.3064 74.4239C39.5198 74.2091 39.8187 74.1661 40.1175 74.338C40.4163 74.5098 40.5443 74.7245 40.587 74.9823Z" fill="url(#paint1_linear_341_376)"/>
<path d="M37.0869 71.9754C36.5747 71.9325 36.3613 71.5888 36.1051 71.2882C35.721 70.9016 35.2941 70.515 34.9099 70.0855C34.6538 69.7848 34.5684 69.4412 34.8672 69.0975C35.166 68.7539 35.5075 68.7539 35.9344 69.0116C36.4039 69.2693 36.5747 70.1714 37.2577 69.8277C37.7272 69.613 38.0687 69.0975 38.4956 68.7109C38.7944 68.4103 39.0932 68.1096 39.4347 67.8519C39.7335 67.6371 40.075 67.6371 40.3311 67.8948C40.5872 68.1526 40.7153 68.4962 40.4165 68.7969C39.4347 69.8277 38.4102 70.8586 37.3857 71.8466C37.3004 71.9325 37.1723 71.9754 37.0869 71.9754Z" fill="url(#paint2_linear_341_376)"/>
<path d="M35.422 62.3107C35.9342 62.3966 36.1904 62.7832 36.4465 63.0839C36.8307 63.5564 37.1295 63.6423 37.599 63.1268C38.1113 62.5255 38.7089 62.01 39.2638 61.4516C39.6053 61.108 39.9468 61.0221 40.2883 61.3657C40.6725 61.7094 40.6298 62.1389 40.2883 62.4825C39.4345 63.3845 38.5381 64.2436 37.6417 65.1457C37.2575 65.5322 36.788 65.5752 36.4465 65.1457C35.8915 64.3725 34.6536 64.0289 34.7817 62.7832C34.8244 62.4396 35.1659 62.3966 35.422 62.3107Z" fill="url(#paint3_linear_341_376)"/>
<path d="M37.001 58.9174C36.8303 58.8315 36.6169 58.7886 36.4888 58.6597C35.9339 58.1443 35.4216 57.5859 34.8667 57.0275C34.5679 56.7268 34.5252 56.3832 34.824 56.0395C35.1228 55.6959 35.507 55.7389 35.8912 55.9966C36.3181 56.2973 36.5315 57.1134 37.1291 56.8986C37.5987 56.7268 37.9402 56.1684 38.3243 55.7818C38.6658 55.4382 38.9646 55.1375 39.3061 54.8368C39.6049 54.5791 39.9464 54.5791 40.2025 54.8368C40.5014 55.0516 40.6294 55.4382 40.3733 55.6959C39.3915 56.7698 38.367 57.7577 37.3425 58.7886C37.3425 58.8315 37.1718 58.8315 37.001 58.9174Z" fill="url(#paint4_linear_341_376)"/>
<path d="M35.4219 49.2528C35.8487 49.2958 36.0622 49.5535 36.2329 49.8112C36.8305 50.6703 37.3001 50.4985 37.855 49.7683C38.2392 49.2958 38.7087 48.8663 39.1783 48.4367C39.5198 48.0931 39.9467 47.9642 40.2882 48.3079C40.6723 48.6944 40.587 49.081 40.2028 49.4247C39.349 50.2837 38.4953 51.1428 37.6416 52.0019C37.2574 52.3885 36.8305 52.4314 36.4463 52.0448C35.9341 51.5294 35.4219 51.0139 34.9096 50.4985C34.6962 50.2837 34.6108 49.9831 34.7389 49.6824C34.9096 49.4247 35.1657 49.2528 35.4219 49.2528Z" fill="url(#paint5_linear_341_376)"/>
<path d="M74.1814 82.9714C67.6076 82.9714 62.3571 77.7311 62.3145 71.2021C62.3145 64.5443 67.5222 59.261 74.096 59.261C80.6698 59.261 85.9629 64.5443 85.9629 71.1592C86.0056 77.6881 80.7551 82.9714 74.1814 82.9714Z" fill="#3F4A62"/>
<path d="M84.2559 71.1593C84.2559 76.7433 79.6457 81.3393 74.0964 81.2964C68.5471 81.2534 64.065 76.6574 64.1077 71.0305C64.1504 65.4894 68.7179 60.9364 74.2245 60.9793C79.7738 60.9793 84.2559 65.5324 84.2559 71.1593Z" fill="#F6E136"/>
<path d="M80.6272 68.0666C80.5846 68.4102 80.4138 68.625 80.2004 68.8398C78.1087 70.9445 76.0171 73.0492 73.9254 75.1539C73.3278 75.7553 72.8156 75.7123 72.2606 75.111C71.0654 73.8653 69.8702 72.6626 68.6323 71.4599C68.1627 70.9874 67.9493 70.5149 68.4615 69.9995C68.9738 69.527 69.4006 69.7847 69.8275 70.2143C70.7239 71.1163 71.6203 71.9754 72.4741 72.8774C72.9436 73.3928 73.2424 73.3928 73.712 72.8774C75.4621 71.0733 77.255 69.3122 79.0051 67.5082C79.3466 67.1646 79.6881 66.9927 80.1577 67.2075C80.4565 67.4223 80.5846 67.723 80.6272 68.0666Z" fill="#404B62"/>
</g>
<defs>
<linearGradient id="paint0_linear_341_376" x1="32.2304" y1="32.3733" x2="32.2304" y2="23.7137" gradientUnits="userSpaceOnUse">
<stop offset="1.6303e-06" stop-color="#EB8A00"/>
<stop offset="1" stop-color="#EBB327"/>
</linearGradient>
<linearGradient id="paint1_linear_341_376" x1="37.6311" y1="78.505" x2="37.6311" y2="74.2197" gradientUnits="userSpaceOnUse">
<stop offset="1.6303e-06" stop-color="#EB8A00"/>
<stop offset="1" stop-color="#EBB327"/>
</linearGradient>
<linearGradient id="paint2_linear_341_376" x1="37.6259" y1="71.9759" x2="37.6259" y2="67.6835" gradientUnits="userSpaceOnUse">
<stop offset="1.6303e-06" stop-color="#EB8A00"/>
<stop offset="1" stop-color="#EBB327"/>
</linearGradient>
<linearGradient id="paint3_linear_341_376" x1="37.659" y1="65.4524" x2="37.659" y2="61.1346" gradientUnits="userSpaceOnUse">
<stop offset="1.6303e-06" stop-color="#EB8A00"/>
<stop offset="1" stop-color="#EBB327"/>
</linearGradient>
<linearGradient id="paint4_linear_341_376" x1="37.5577" y1="58.918" x2="37.5577" y2="54.6313" gradientUnits="userSpaceOnUse">
<stop offset="1.6303e-06" stop-color="#EB8A00"/>
<stop offset="1" stop-color="#EBB327"/>
</linearGradient>
<linearGradient id="paint5_linear_341_376" x1="37.6003" y1="52.3147" x2="37.6003" y2="48.0936" gradientUnits="userSpaceOnUse">
<stop offset="1.6303e-06" stop-color="#EB8A00"/>
<stop offset="1" stop-color="#EBB327"/>
</linearGradient>
<clipPath id="clip0_341_376">
<rect width="68" height="89" fill="white" transform="translate(23 13)"/>
</clipPath>
</defs>
</svg>
