<svg width="115" height="115" viewBox="0 0 115 115" fill="none" xmlns="http://www.w3.org/2000/svg">
<g clip-path="url(#clip0_341_468)">
<path d="M13.4028 90.2226H77.2224V26.4031L13.4028 90.2226ZM65.2699 78.3637H41.5521L65.3011 54.6147V78.3637H65.2699Z" fill="#5FCCF5" stroke="#21409A" stroke-width="1.99229" stroke-miterlimit="10"/>
<path d="M21.2358 86.8833V90.2225" stroke="#21409A" stroke-width="1.99229" stroke-miterlimit="10"/>
<path d="M25.2305 86.8833V90.2225" stroke="#21409A" stroke-width="1.99229" stroke-miterlimit="10"/>
<path d="M29.2563 86.8833V90.2225" stroke="#21409A" stroke-width="1.99229" stroke-miterlimit="10"/>
<path d="M33.2822 86.8833V90.2225" stroke="#21409A" stroke-width="1.99229" stroke-miterlimit="10"/>
<path d="M37.3076 86.8833V90.2225" stroke="#21409A" stroke-width="1.99229" stroke-miterlimit="10"/>
<path d="M41.3335 86.8833V90.2225" stroke="#21409A" stroke-width="1.99229" stroke-miterlimit="10"/>
<path d="M45.3281 86.8833V90.2225" stroke="#21409A" stroke-width="1.99229" stroke-miterlimit="10"/>
<path d="M49.354 86.8833V90.2225" stroke="#21409A" stroke-width="1.99229" stroke-miterlimit="10"/>
<path d="M53.3799 86.8833V90.2225" stroke="#21409A" stroke-width="1.99229" stroke-miterlimit="10"/>
<path d="M57.4053 86.8833V90.2225" stroke="#21409A" stroke-width="1.99229" stroke-miterlimit="10"/>
<path d="M61.3999 86.8833V90.2225" stroke="#21409A" stroke-width="1.99229" stroke-miterlimit="10"/>
<path d="M65.4258 86.8833V90.2225" stroke="#21409A" stroke-width="1.99229" stroke-miterlimit="10"/>
<path d="M69.4517 86.8833V90.2225" stroke="#21409A" stroke-width="1.99229" stroke-miterlimit="10"/>
<path d="M73.4771 86.8833V90.2225" stroke="#21409A" stroke-width="1.99229" stroke-miterlimit="10"/>
<path d="M102.001 77.5834C102.001 78.8005 101.003 79.7991 99.7856 79.7991H74.289C73.0719 79.7991 72.0732 78.8005 72.0732 77.5834V39.4789C72.0732 38.2618 73.0719 37.2632 74.289 37.2632H99.7856C101.003 37.2632 102.001 38.2618 102.001 39.4789V77.5834Z" fill="white" stroke="#21409A" stroke-width="1.99229" stroke-miterlimit="10"/>
<path d="M98.6306 42.3813H75.4746V47.5306H98.6306V42.3813Z" fill="#5FCCF5" stroke="#21409A" stroke-width="1.99229" stroke-miterlimit="10"/>
<path d="M81.997 51.9622H77.6279V56.3312H81.997V51.9622Z" fill="#5FCCF5" stroke="#21409A" stroke-width="1.99229" stroke-miterlimit="10"/>
<path d="M89.2372 51.9622H84.8682V56.3312H89.2372V51.9622Z" fill="#5FCCF5" stroke="#21409A" stroke-width="1.99229" stroke-miterlimit="10"/>
<path d="M96.4775 51.9622H92.1084V56.3312H96.4775V51.9622Z" fill="#5FCCF5" stroke="#21409A" stroke-width="1.99229" stroke-miterlimit="10"/>
<path d="M81.997 59.3271H77.6279V63.6962H81.997V59.3271Z" fill="#5FCCF5" stroke="#21409A" stroke-width="1.99229" stroke-miterlimit="10"/>
<path d="M89.2372 59.3271H84.8682V63.6962H89.2372V59.3271Z" fill="#5FCCF5" stroke="#21409A" stroke-width="1.99229" stroke-miterlimit="10"/>
<path d="M96.4775 59.3271H92.1084V63.6962H96.4775V59.3271Z" fill="#5FCCF5" stroke="#21409A" stroke-width="1.99229" stroke-miterlimit="10"/>
<path d="M81.997 66.6921H77.6279V71.0612H81.997V66.6921Z" fill="#5FCCF5" stroke="#21409A" stroke-width="1.99229" stroke-miterlimit="10"/>
<path d="M89.2372 66.6921H84.8682V71.0612H89.2372V66.6921Z" fill="#5FCCF5" stroke="#21409A" stroke-width="1.99229" stroke-miterlimit="10"/>
<path d="M96.4775 66.6921H92.1084V71.0612H96.4775V66.6921Z" fill="#5FCCF5" stroke="#21409A" stroke-width="1.99229" stroke-miterlimit="10"/>
<path d="M99.2239 70.2498V74.9309C99.2239 76.148 98.2252 77.1466 97.0081 77.1466H89.7056" stroke="#21409A" stroke-width="1.99229" stroke-miterlimit="10"/>
<path d="M21.0486 72.3095L16.9292 68.1901L47.9183 37.2009L52.0378 41.3203L21.0486 72.3095Z" fill="#5FCCF5" stroke="#21409A" stroke-width="1.99229" stroke-miterlimit="10" stroke-linecap="round" stroke-linejoin="round"/>
<path d="M52.0379 41.3203L47.9185 37.2009L50.103 35.0164L54.2224 39.1358L52.0379 41.3203Z" stroke="#21409A" stroke-width="1.99229" stroke-miterlimit="10" stroke-linecap="round" stroke-linejoin="round"/>
<path d="M54.2225 39.1357L55.4084 37.9498C56.5318 36.8264 56.5318 34.9851 55.4084 33.8616C54.2849 32.7382 52.4436 32.7382 51.3202 33.8616L50.1343 35.0475L54.2225 39.1357Z" stroke="#21409A" stroke-width="1.99229" stroke-miterlimit="10" stroke-linecap="round" stroke-linejoin="round"/>
<path d="M16.9292 68.1902L21.0487 72.3096L14.0894 75.1495L16.9292 68.1902Z" stroke="#21409A" stroke-width="1.99229" stroke-miterlimit="10" stroke-linecap="round" stroke-linejoin="round"/>
<path d="M15.4937 71.7163L14.0894 75.1491L17.5222 73.7448L15.4937 71.7163Z" stroke="#21409A" stroke-width="1.99229" stroke-miterlimit="10" stroke-linecap="round" stroke-linejoin="round"/>
<path d="M49.9784 39.2605L18.9893 70.2496" stroke="#21409A" stroke-width="1.99229" stroke-miterlimit="10" stroke-linecap="round" stroke-linejoin="round"/>
</g>
<defs>
<clipPath id="clip0_341_468">
<rect width="92" height="67.2212" fill="white" transform="translate(11 24)"/>
</clipPath>
</defs>
</svg>
