<svg width="116" height="119" viewBox="0 0 116 119" fill="none" xmlns="http://www.w3.org/2000/svg">
<path d="M9.40663 79.182C9.57032 78.4381 9.68579 77.6845 9.75232 76.9258C10.0707 74.3695 11.5718 72.3772 13.4913 72.0042L14.8741 71.7222C13.8175 71.7414 12.7699 71.5238 11.8083 71.0853C9.89788 69.748 9.46121 65.7998 9.46121 65.7998C9.46121 65.7998 8.92446 69.748 7.00493 71.0853C6.04643 71.5234 5.00193 71.741 3.94824 71.7222L5.32193 72.0042C7.23237 72.3863 8.74252 74.3695 9.06093 76.9258C9.12746 77.6845 9.24294 78.4381 9.40663 79.182Z" fill="#00B615"/>
<g opacity="0.7">
<path d="M9.40663 79.182C9.57032 78.4381 9.68579 77.6845 9.75232 76.9258C10.0707 74.3695 11.5718 72.3772 13.4913 72.0042L14.8741 71.7222C13.8175 71.7414 12.7699 71.5238 11.8083 71.0853C9.89788 69.748 9.46121 65.7998 9.46121 65.7998C9.46121 65.7998 8.92446 69.748 7.00493 71.0853C6.04643 71.5234 5.00193 71.741 3.94824 71.7222L5.32193 72.0042C7.23237 72.3863 8.74252 74.3695 9.06093 76.9258C9.12746 77.6845 9.24294 78.4381 9.40663 79.182Z" fill="white"/>
</g>
<path d="M109.768 68.2923C109.937 67.5495 110.052 66.7955 110.114 66.0362C110.432 63.4798 111.933 61.4875 113.862 61.1145L115.235 60.8325C114.179 60.8518 113.131 60.6342 112.17 60.1957C110.259 58.8584 109.823 54.9102 109.823 54.9102C109.823 54.9102 109.286 58.8584 107.375 60.1957C106.414 60.6333 105.366 60.8509 104.31 60.8325L105.683 61.1145C107.594 61.4966 109.113 63.4798 109.422 66.0362C109.494 66.7942 109.609 67.5475 109.768 68.2923Z" fill="#00B615"/>
<g opacity="0.7">
<path d="M109.768 68.2923C109.937 67.5495 110.052 66.7955 110.114 66.0362C110.432 63.4798 111.933 61.4875 113.862 61.1145L115.235 60.8325C114.179 60.8518 113.131 60.6342 112.17 60.1957C110.259 58.8584 109.823 54.9102 109.823 54.9102C109.823 54.9102 109.286 58.8584 107.375 60.1957C106.414 60.6333 105.366 60.8509 104.31 60.8325L105.683 61.1145C107.594 61.4966 109.113 63.4798 109.422 66.0362C109.494 66.7942 109.609 67.5475 109.768 68.2923Z" fill="white"/>
</g>
<path d="M108.294 32.931C108.505 32.0088 108.648 31.0722 108.722 30.1291C109.113 26.9632 110.996 24.516 113.353 24.0338L115.063 23.6882C115.063 23.6882 112.388 23.6882 111.269 22.9058C108.904 21.2501 108.358 16.3557 108.358 16.3557C108.358 16.3557 107.694 21.2501 105.329 22.9058C104.21 23.6882 101.535 23.6882 101.535 23.6882L103.236 24.0338C105.602 24.516 107.476 26.9632 107.867 30.1291C107.951 31.071 108.094 32.0068 108.294 32.931Z" fill="#00B615"/>
<g opacity="0.7">
<path d="M108.294 32.931C108.505 32.0088 108.648 31.0722 108.722 30.1291C109.113 26.9632 110.996 24.516 113.353 24.0338L115.063 23.6882C115.063 23.6882 112.388 23.6882 111.269 22.9058C108.904 21.2501 108.358 16.3557 108.358 16.3557C108.358 16.3557 107.694 21.2501 105.329 22.9058C104.21 23.6882 101.535 23.6882 101.535 23.6882L103.236 24.0338C105.602 24.516 107.476 26.9632 107.867 30.1291C107.951 31.071 108.094 32.0068 108.294 32.931Z" fill="white"/>
</g>
<path d="M9.40663 36.1242C9.69259 34.8411 9.89316 33.5403 10.007 32.2306C10.5438 27.8366 13.1547 24.4342 16.4389 23.761L18.8133 23.2788C18.8133 23.2788 15.0924 23.2788 13.5368 22.1872C10.2436 19.8855 9.48851 13.0898 9.48851 13.0898C9.48851 13.0898 8.57877 19.8946 5.27645 22.1872C3.7299 23.2788 0 23.2788 0 23.2788L2.3744 23.761C5.65853 24.4342 8.26946 27.8366 8.8153 32.2306C8.92893 33.5398 9.12645 34.8403 9.40663 36.1242Z" fill="#00B615"/>
<g opacity="0.7">
<path d="M9.40663 36.1242C9.69259 34.8411 9.89316 33.5403 10.007 32.2306C10.5438 27.8366 13.1547 24.4342 16.4389 23.761L18.8133 23.2788C18.8133 23.2788 15.0924 23.2788 13.5368 22.1872C10.2436 19.8855 9.48851 13.0898 9.48851 13.0898C9.48851 13.0898 8.57877 19.8946 5.27645 22.1872C3.7299 23.2788 0 23.2788 0 23.2788L2.3744 23.761C5.65853 24.4342 8.26946 27.8366 8.8153 32.2306C8.92893 33.5398 9.12645 34.8403 9.40663 36.1242Z" fill="white"/>
</g>
<g clip-path="url(#clip0_341_416)">
<path d="M58.6533 93.9194C62.3743 93.9194 66.0954 93.9194 69.7945 93.9194C71.261 93.9194 72.1147 94.6199 72.1147 95.7799C72.1147 96.94 71.2392 97.6624 69.7945 97.6624C62.2868 97.6624 54.7791 97.6624 47.2713 97.6624C45.8267 97.6624 44.9512 96.94 44.9512 95.7799C44.9512 94.598 45.8048 93.9194 47.2713 93.9194C51.0799 93.9194 54.8666 93.9194 58.6533 93.9194Z" fill="#202046"/>
<path d="M58.6529 91.3582C54.8662 91.3582 51.0795 91.3582 47.2928 91.3582C45.8701 91.3582 44.9726 90.6139 44.9945 89.4757C45.0164 88.3157 45.8701 87.6152 47.3366 87.6152C54.8443 87.6152 62.352 87.6152 69.8598 87.6152C71.6108 87.6152 72.6177 88.8629 71.9829 90.2637C71.6108 91.0955 70.9323 91.38 70.0349 91.38C66.2263 91.3363 62.4396 91.3582 58.6529 91.3582Z" fill="#202046"/>
<path d="M58.5436 85.0328C54.6912 85.0328 50.8169 85.0765 46.9646 84.989C46.3736 84.9671 45.5418 84.4856 45.2573 83.9821C44.9946 83.5225 45.1041 82.6032 45.4105 82.0997C45.6732 81.6838 46.4393 81.3336 46.9646 81.3336C54.6912 81.2899 62.4178 81.2899 70.1444 81.3117C71.3483 81.3117 72.1363 82.1216 72.1363 83.1941C72.1363 84.2886 71.392 85.0328 70.1444 85.0328C66.2702 85.0547 62.4178 85.0328 58.5436 85.0328Z" fill="#202046"/>
<path d="M58.5877 100.158C60.8422 100.158 63.0967 100.136 65.3512 100.18C65.7233 100.18 66.0954 100.464 66.4456 100.617C66.2267 100.968 66.0735 101.405 65.7671 101.624C61.6302 104.514 55.392 104.492 51.2769 101.581C50.9705 101.362 50.8611 100.924 50.6641 100.574C51.0143 100.442 51.3426 100.18 51.6928 100.18C54.013 100.136 56.3113 100.158 58.5877 100.158Z" fill="#202046"/>
<path d="M72.64 47.888C70.9983 46.1588 68.9627 45.6773 66.7301 46.4434C64.2786 47.297 63.228 49.267 62.9215 51.7185C62.7902 52.7691 62.7245 53.8198 62.637 54.958H54.582C54.4507 53.6228 54.3631 52.3314 54.1662 51.0837C53.7284 48.282 51.6709 46.3339 48.9786 46.1151C46.5271 45.9181 44.2069 47.4503 43.3533 49.7923C42.04 53.4696 44.6009 57.2563 48.4971 57.3657C49.7666 57.4095 51.0361 57.3657 52.3932 57.3657C52.8747 63.1442 53.3344 68.8352 53.8159 74.6794H56.1361C55.6546 68.9447 55.1949 63.2318 54.7134 57.3657C57.1649 57.3657 59.4194 57.3657 61.6739 57.3657C61.8928 57.3657 62.0898 57.4095 62.3962 57.4314C61.9146 63.188 61.455 68.879 60.9734 74.6575H63.2936C63.7752 68.8571 64.2348 63.1661 64.7164 57.3438C66.0953 57.3438 67.4086 57.4095 68.7001 57.3219C71.064 57.1906 72.8151 56.0305 73.6906 53.8198C74.588 51.6966 74.2597 49.6172 72.64 47.888ZM48.2563 55.0018C46.7241 54.8923 45.4983 53.5571 45.367 52.0687C45.2357 50.449 46.2644 48.9606 47.8404 48.5228C49.3288 48.1069 50.9486 48.7854 51.4739 50.3395C51.9773 51.7842 52.0868 53.3601 52.4151 55.0236C50.7734 55.0236 49.5039 55.0893 48.2563 55.0018ZM69.0722 54.9799C68.0653 55.0893 67.0365 55.0455 66.0297 55.0674C65.7013 55.0674 65.3949 55.0236 64.8258 55.0018C65.1104 53.4039 65.1979 51.8936 65.6576 50.4927C66.1829 48.873 67.8026 48.1507 69.3348 48.5228C70.7795 48.8949 71.9177 50.3395 71.8739 51.8279C71.8301 53.3601 70.6262 54.8048 69.0722 54.9799Z" fill="#202046"/>
<path d="M54.5821 54.9581C54.4507 53.6229 54.3632 52.3534 54.1662 51.0839C53.7284 48.2822 51.6709 46.3341 48.9786 46.1152C46.5271 45.9182 44.207 47.4504 43.3533 49.7925C42.04 53.4697 44.6009 57.2564 48.4971 57.3658C49.7666 57.4096 51.0361 57.3658 52.3932 57.3658C52.8748 63.1882 53.3563 68.9229 53.8379 74.8109C52.0211 74.8109 50.2919 74.8547 48.5627 74.7671C48.3001 74.7452 47.8842 74.2199 47.8185 73.8697C46.6803 68.1349 43.7911 63.3852 40.0263 58.9637C34.0507 51.9156 32.5404 43.7075 35.7143 35.0178C38.8881 26.3937 45.2138 21.0311 54.2756 19.3457C68.2185 16.7628 81.2859 26.6126 82.7743 40.7307C83.5185 47.8225 81.461 54.1701 76.6675 59.489C73.0121 63.5384 70.4512 68.1131 69.4224 73.4757C69.2035 74.5482 68.722 74.9422 67.6494 74.8766C66.2705 74.8109 64.8915 74.8547 63.3155 74.8547C63.7971 68.9886 64.2786 63.2538 64.7602 57.3877C66.1391 57.3877 67.4524 57.4534 68.7439 57.3658C71.1078 57.2345 72.8589 56.0744 73.7344 53.8637C74.5881 51.6968 74.2816 49.6173 72.64 47.8663C71.0203 46.1371 68.9627 45.6556 66.7301 46.4216C64.2786 47.2753 63.228 49.2452 62.9215 51.6967C62.7902 52.7474 62.7246 53.798 62.637 54.9362C59.9666 54.9581 57.3181 54.9581 54.5821 54.9581Z" fill="#99E2A1"/>
<path d="M54.7568 57.3877C57.2083 57.3877 59.4628 57.3877 61.7174 57.3877C61.9362 57.3877 62.1332 57.4315 62.4397 57.4534C61.9581 63.2319 61.4985 68.9667 61.0169 74.7671C59.3972 74.7671 57.865 74.7671 56.2015 74.7671C55.7199 69.0104 55.2384 63.2757 54.7568 57.3877Z" fill="#E5FFE8"/>
<path d="M64.8262 54.9801C65.1107 53.3823 65.1983 51.872 65.6579 50.4711C66.1833 48.8514 67.803 48.129 69.3352 48.5012C70.7798 48.8733 71.918 50.3179 71.8742 51.8063C71.8305 53.3604 70.6266 54.805 69.0944 54.9801C68.0875 55.0896 67.0588 55.0458 66.0519 55.0677C65.7017 55.0677 65.3953 55.0239 64.8262 54.9801Z" fill="#E5FFE8"/>
<path d="M52.4148 55.0238C50.7951 55.0238 49.5255 55.0894 48.256 55.0019C46.7238 54.8924 45.4981 53.5791 45.3667 52.0688C45.2354 50.4491 46.2642 48.9607 47.8401 48.5229C49.3285 48.107 50.9483 48.7856 51.4736 50.3396C51.9551 51.7624 52.0865 53.3384 52.4148 55.0238Z" fill="#E5FFE8"/>
<path d="M48.6067 74.789C48.3441 74.7671 47.9282 74.2418 47.8625 73.8916C46.7243 68.1568 43.8351 63.407 40.0703 58.9856C34.0509 51.9156 32.5406 43.7075 35.7145 35.0178C38.8883 26.3937 45.214 21.0311 54.2758 19.3457C68.2188 16.7628 81.2861 26.6126 82.7746 40.7307C83.5188 47.8225 81.4613 54.1701 76.6677 59.489C73.0123 63.5384 70.4514 68.1131 69.4226 73.4757C69.2037 74.5482 68.7222 74.9422 67.6497 74.8766C66.2707 74.8109 50.3359 74.8766 48.6067 74.789Z" stroke="#202046" stroke-width="2" stroke-miterlimit="10"/>
</g>
<path d="M79.209 19.7182C79.5165 19.1998 79.6783 18.7785 79.9534 18.4869C81.9763 16.4292 84.0154 14.3878 86.0707 12.3463C86.7666 11.6658 87.6404 11.6334 88.223 12.2167C88.8218 12.8162 88.8218 13.7073 88.1583 14.3878C86.103 16.4616 84.0478 18.5193 81.9763 20.577C81.4908 21.063 80.8759 21.2898 80.2933 20.9334C79.8563 20.6742 79.5974 20.1719 79.209 19.7182Z" fill="#399944"/>
<path d="M38.249 63.8039C37.9577 64.3223 37.8121 64.7598 37.5369 65.0352C35.4979 67.1091 33.4426 69.1667 31.3873 71.2082C30.7076 71.8887 29.8175 71.9049 29.2188 71.3054C28.62 70.7221 28.6362 69.8148 29.2997 69.1505C31.3388 67.0767 33.4102 65.0352 35.4655 62.9776C35.9833 62.4591 36.6145 62.2809 37.2295 62.6211C37.634 62.8804 37.893 63.3826 38.249 63.8039Z" fill="#399944"/>
<path d="M94.4702 43.2435C93.0785 43.2435 91.6705 43.2597 90.2788 43.2435C89.1945 43.2273 88.531 42.644 88.5472 41.7529C88.5795 40.878 89.2107 40.3434 90.2464 40.3271C93.0947 40.3271 95.9429 40.3271 98.8073 40.3271C99.8431 40.3271 100.458 40.8942 100.442 41.8015C100.426 42.6602 99.8107 43.2273 98.8397 43.2273C97.3832 43.2597 95.9267 43.2435 94.4702 43.2435Z" fill="#399944"/>
<path d="M22.989 40.327C24.4131 40.327 25.8372 40.327 27.2613 40.327C28.2647 40.327 28.8473 40.8455 28.8797 41.7366C28.912 42.6277 28.2809 43.2434 27.2613 43.2434C24.3807 43.2596 21.5001 43.2596 18.6357 43.2434C17.6161 43.2434 16.9688 42.6115 17.0012 41.7366C17.0335 40.8941 17.6647 40.327 18.6357 40.327C20.0922 40.3108 21.5325 40.327 22.989 40.327Z" fill="#399944"/>
<path d="M57.2812 5.93022C57.2812 4.50445 57.2812 3.07867 57.2812 1.65289C57.2812 0.64837 57.88 -0.0159121 58.7539 0.000289898C59.6116 0.0164919 60.1942 0.632168 60.1942 1.60429C60.2104 4.50445 60.2104 7.42081 60.1942 10.321C60.1942 11.2931 59.5955 11.8764 58.7054 11.8602C57.8153 11.844 57.2974 11.2769 57.2812 10.2724C57.2813 8.83039 57.2812 7.38841 57.2812 5.93022Z" fill="#399944"/>
<path d="M79.1934 63.804C79.5818 63.3665 79.8407 62.8642 80.2453 62.6374C80.8117 62.3134 81.4428 62.4592 81.9445 62.9615C83.0612 64.0956 84.194 65.2135 85.3268 66.3477C86.2493 67.2712 87.1717 68.1785 88.078 69.102C88.8062 69.8473 88.8709 70.706 88.256 71.3217C87.6572 71.9374 86.7671 71.905 86.0389 71.1759C84.016 69.1506 81.9931 67.1416 79.9863 65.1001C79.6789 64.7761 79.517 64.3386 79.1934 63.804Z" fill="#399944"/>
<path d="M38.2341 19.7343C37.878 20.1394 37.6029 20.6416 37.1821 20.9171C36.5996 21.2897 36.0008 21.0953 35.4991 20.6092C33.7837 18.8918 32.0682 17.1744 30.369 15.4732C29.9806 15.0843 29.5922 14.7279 29.2362 14.3228C28.6536 13.691 28.6536 12.8647 29.1876 12.2976C29.754 11.6981 30.6441 11.6495 31.2753 12.2652C33.3953 14.3552 35.5153 16.4777 37.6029 18.6164C37.8618 18.8432 37.9589 19.2158 38.2341 19.7343Z" fill="#399944"/>
<defs>
<clipPath id="clip0_341_416">
<rect width="51" height="85.9339" fill="white" transform="translate(33 17.8352)"/>
</clipPath>
</defs>
</svg>
