<svg width="115" height="115" viewBox="0 0 115 115" fill="none" xmlns="http://www.w3.org/2000/svg">
<g clip-path="url(#clip0_341_225)">
<path d="M46.8611 89.2295C44.9748 88.1136 43.0886 87.0827 41.301 85.894C39.1436 84.4628 37.3313 82.6313 35.7657 80.5937C35.4205 80.1449 35.063 79.9872 34.4959 79.9993C32.6836 80.0357 30.8714 80.0236 29.0591 80.0115C27.74 79.9872 27.0373 79.2959 27.0126 77.9981C26.988 76.6275 26.988 75.2448 27.0126 73.8742C27.0373 72.6128 27.74 71.8972 29.0098 71.8972C35.7287 71.885 42.4476 71.885 49.1664 71.8972C50.4116 71.8972 51.1266 72.5521 51.1636 73.7772C51.2129 75.2084 51.2129 76.6396 51.1636 78.0708C51.1266 79.3686 50.5349 79.8659 48.8089 80.0842C49.1294 80.2662 49.339 80.4117 49.5609 80.5088C61.7042 86.3064 75.8817 77.2946 75.5611 64.0012C75.4625 59.8409 74.0448 56.178 71.3819 52.9638C71.0367 52.5514 70.7408 52.4423 70.186 52.5757C67.819 53.1579 65.5876 52.7455 63.5041 51.4113C61.47 53.2913 59.4482 55.147 57.4387 57.0028C56.8962 57.5 56.3661 58.0216 55.8113 58.5068C55.047 59.1739 54.4306 59.1496 53.7155 58.434C53.1978 57.9124 52.6923 57.3788 52.1252 56.7844C51.4348 57.4151 50.7568 58.0216 50.091 58.628C49.1541 59.4892 48.2418 60.3625 47.2802 61.1994C46.1707 62.1697 44.8762 62.1455 43.8653 61.1145C42.1763 59.3922 40.4997 57.6456 38.86 55.8626C37.8368 54.7589 37.9108 53.4732 39.008 52.4301C40.5737 50.9504 42.164 49.507 43.779 48.003C43.2735 47.4694 42.8051 46.9842 42.3489 46.4991C41.4613 45.553 41.4736 45.0193 42.4229 44.1339C48.6486 38.3969 54.8744 32.6477 61.1001 26.9107C64.663 23.6359 68.2135 20.3489 71.7764 17.0741C72.8982 16.0431 73.3667 16.0674 74.4269 17.1833C74.8584 17.632 75.2776 18.0687 75.7337 18.5417C76.7446 17.6078 77.7186 16.7102 78.7048 15.8248C79.9377 14.6968 81.2321 14.7211 82.391 15.9097C84.0183 17.5835 85.621 19.2695 87.2113 20.9675C88.3085 22.1319 88.2469 23.4054 87.0757 24.5213C86.1141 25.4431 85.1278 26.3285 84.0799 27.2988C84.5731 27.8204 85.0662 28.3298 85.5347 28.8392C86.3853 29.7368 86.373 30.2947 85.4607 31.1437C82.2554 34.1032 79.0377 37.0627 75.8324 40.0222C75.6351 40.2041 75.4009 40.3375 75.179 40.4831C75.2899 40.5073 75.4132 40.5316 75.5242 40.568C75.8077 42.0356 76.0789 43.5153 76.4118 44.9829C76.4858 45.2861 76.7446 45.5772 76.9789 45.8198C82.0458 51.1081 84.7457 57.4151 84.5237 64.6562C84.1786 75.6814 78.8035 83.6987 68.756 88.6352C68.4478 88.7929 68.1396 88.9384 67.745 89.1325C69.2244 90.7335 70.6545 92.2496 72.0723 93.79C72.9599 94.7603 73.3914 95.8641 73.0708 97.174C72.664 98.8478 71.2956 99.9879 69.5573 99.9879C61.4453 100 53.321 100 45.2091 99.9879C43.668 99.9879 42.5215 99.2359 41.9051 97.8654C41.2764 96.4584 41.486 95.0999 42.5339 93.9477C43.7913 92.5407 45.0981 91.1823 46.3803 89.7996C46.5652 89.5812 46.7501 89.3629 46.8611 89.2295ZM61.6549 49.7618C59.2263 45.3711 59.5714 41.6596 62.6288 38.8457C65.6123 36.1045 69.4463 36.0439 73.6626 38.6758C76.8186 35.7649 79.9746 32.8539 83.1553 29.9187C79.7527 26.3407 76.4118 22.8354 72.9969 19.2573C63.5411 27.9781 54.1224 36.6624 44.6913 45.3589C48.1309 48.9612 51.4718 52.4786 54.8497 56.0203C57.1798 53.8977 59.4235 51.8237 61.6549 49.7618ZM38.6998 80.0115C38.6628 80.0964 38.6381 80.1934 38.6012 80.2783C45.0611 87.0827 52.9635 89.933 62.3699 88.1622C72.1955 86.3064 79.7651 78.7137 81.6636 68.7558C83.1307 60.9932 80.9855 54.1282 75.7707 48.0758C75.3146 48.7429 74.994 49.3008 74.5872 49.7981C74.168 50.3197 73.6626 50.7685 73.1941 51.2657C73.3667 51.4962 73.527 51.7024 73.6872 51.9086C78.4583 58.2763 79.4322 65.1777 76.2762 72.4308C70.9997 84.5598 55.6757 88.4532 44.9255 80.5573C44.6297 80.339 44.2721 80.0479 43.9393 80.0357C42.1887 79.9872 40.4504 80.0115 38.6998 80.0115ZM57.3277 97.5621C61.2481 97.5621 65.1808 97.5621 69.1012 97.5621C69.7299 97.5621 70.297 97.5015 70.5929 96.8465C70.8887 96.2037 70.5559 95.7307 70.1367 95.2819C68.6697 93.7172 67.1779 92.1526 65.7479 90.5516C65.3287 90.0785 64.9465 90.0179 64.3671 90.1756C59.6454 91.4249 54.9114 91.3885 50.1897 90.1271C49.7212 90.0058 49.4377 90.0664 49.1171 90.4181C47.6501 92.0313 46.1583 93.6202 44.6666 95.2091C44.2228 95.6821 43.853 96.1794 44.1489 96.8465C44.4447 97.5379 45.0735 97.5621 45.7269 97.5621C49.5979 97.5621 53.4567 97.5621 57.3277 97.5621ZM29.5646 74.3594C29.5646 75.4146 29.5646 76.4698 29.5646 77.5372C35.9506 77.5372 42.2873 77.5372 48.661 77.5372C48.661 76.4455 48.661 75.4146 48.661 74.3594C42.275 74.3594 35.9506 74.3594 29.5646 74.3594ZM62.4809 44.6918C62.4562 47.8575 64.9959 50.3925 68.2135 50.3925C71.3572 50.3925 73.9092 47.8696 73.9215 44.7525C73.9215 41.6717 71.3326 39.1246 68.1889 39.1246C65.0698 39.1246 62.5056 41.6353 62.4809 44.6918ZM45.468 49.7981C43.853 51.29 42.275 52.7455 40.6846 54.2131C42.3613 55.9718 43.9886 57.6699 45.6406 59.4043C47.2679 57.9124 48.8336 56.457 50.4239 54.9893C48.7349 53.2306 47.1199 51.5326 45.468 49.7981ZM85.473 22.6898C83.7964 20.9311 82.1691 19.2209 80.5171 17.4865C79.4445 18.4811 78.4583 19.3907 77.4597 20.3247C79.1486 22.0834 80.7513 23.7572 82.4156 25.5038C83.4389 24.5577 84.4374 23.6359 85.473 22.6898Z" fill="#202046"/>
<path d="M61.655 49.7618C59.4236 51.8238 57.1676 53.8978 54.8499 56.0325C51.4719 52.4908 48.131 48.9734 44.6914 45.3711C54.1225 36.6746 63.5412 27.9903 72.997 19.2695C76.3996 22.8476 79.7528 26.3529 83.1554 29.9309C79.9748 32.8661 76.8187 35.7771 73.6627 38.6881C69.4465 36.0561 65.6124 36.1167 62.629 38.8579C59.5839 41.6597 59.2264 45.3711 61.655 49.7618Z" fill="#EFFFF1"/>
<path d="M38.7002 80.0116C40.4508 80.0116 42.1891 79.9873 43.9397 80.0358C44.2725 80.048 44.6301 80.3391 44.9259 80.5574C55.6638 88.4534 71.0001 84.5599 76.2766 72.431C79.4326 65.1778 78.4463 58.2764 73.6877 51.9087C73.5274 51.7025 73.3671 51.4963 73.1945 51.2659C73.6753 50.7686 74.1685 50.3077 74.5876 49.7982C74.9944 49.301 75.315 48.743 75.7711 48.0759C80.986 54.1283 83.1311 60.9933 81.664 68.7559C79.7778 78.7138 72.2083 86.3187 62.3704 88.1623C52.9639 89.9331 45.0739 87.0828 38.6016 80.2784C38.6385 80.1935 38.6755 80.0965 38.7002 80.0116Z" fill="#99E2A1"/>
<path d="M57.3276 97.562C53.4688 97.562 49.5978 97.562 45.739 97.562C45.0856 97.562 44.4569 97.5377 44.161 96.8464C43.8651 96.1672 44.235 95.682 44.6788 95.209C46.1705 93.6201 47.6622 92.0312 49.1293 90.418C49.4498 90.0663 49.721 89.9935 50.2018 90.1269C54.9235 91.3883 59.6453 91.4369 64.3793 90.1754C64.9587 90.0178 65.3286 90.0784 65.76 90.5514C67.1901 92.1525 68.6818 93.7171 70.1489 95.2818C70.5681 95.7305 70.9009 96.2035 70.605 96.8464C70.3092 97.4892 69.7297 97.562 69.1133 97.562C65.1683 97.562 61.2479 97.562 57.3276 97.562Z" fill="#155F60"/>
<path d="M29.5645 74.3594C35.9505 74.3594 42.2748 74.3594 48.6609 74.3594C48.6609 75.4146 48.6609 76.4456 48.6609 77.5372C42.2872 77.5372 35.9505 77.5372 29.5645 77.5372C29.5645 76.4698 29.5645 75.4146 29.5645 74.3594Z" fill="#5CCB69"/>
<path d="M62.4806 44.6918C62.5053 41.6231 65.0696 39.1124 68.1763 39.1246C71.3323 39.1246 73.9212 41.6716 73.9089 44.7524C73.9089 47.8696 71.3446 50.4045 68.2009 50.3924C64.9956 50.3924 62.456 47.8696 62.4806 44.6918ZM64.2436 44.716C64.2189 46.8871 65.9325 48.6337 68.1393 48.6822C70.2844 48.7429 72.1336 46.9599 72.146 44.8252C72.1583 42.6541 70.4323 40.8954 68.2503 40.859C66.0805 40.8226 64.2682 42.5571 64.2436 44.716Z" fill="#155F60"/>
<path d="M45.4676 49.7981C47.1072 51.5204 48.7222 53.2306 50.4112 55.0014C48.8208 56.469 47.2551 57.9124 45.6278 59.4164C43.9758 57.6819 42.3608 55.9839 40.6719 54.2252C42.2745 52.7454 43.8526 51.29 45.4676 49.7981Z" fill="#155F60"/>
<path d="M85.4733 22.6898C84.4377 23.648 83.4391 24.5577 82.4159 25.5038C80.7516 23.7572 79.1489 22.0834 77.46 20.3125C78.4585 19.3907 79.4448 18.4811 80.5174 17.4744C82.1693 19.2209 83.809 20.9311 85.4733 22.6898Z" fill="#155F60"/>
<path d="M64.2434 44.716C64.2681 42.557 66.068 40.8226 68.2501 40.859C70.4445 40.8953 72.1581 42.6541 72.1458 44.8251C72.1335 46.9598 70.2843 48.7428 68.1391 48.6822C65.9324 48.6336 64.2188 46.8871 64.2434 44.716ZM69.6802 44.7524C69.6678 43.9033 68.9898 43.2605 68.1391 43.2969C67.3378 43.3211 66.6967 43.9882 66.7091 44.7888C66.7214 45.6135 67.4364 46.2928 68.2624 46.2564C69.0638 46.22 69.6802 45.565 69.6802 44.7524Z" fill="#202046"/>
<path d="M69.6803 44.7524C69.6926 45.553 69.0638 46.2079 68.2625 46.2443C67.4365 46.2807 66.7215 45.6015 66.7092 44.7767C66.6968 43.9762 67.3379 43.3212 68.1392 43.2848C68.9899 43.2727 69.6679 43.9155 69.6803 44.7524Z" fill="white"/>
</g>
<defs>
<clipPath id="clip0_341_225">
<rect width="61" height="85" fill="white" transform="translate(27 15)"/>
</clipPath>
</defs>
</svg>
