<svg width="115" height="115" viewBox="0 0 115 115" fill="none" xmlns="http://www.w3.org/2000/svg">
<path d="M92.6471 87.0978C92.6471 89.1338 91.0016 90.8073 88.9377 90.8073H25.7095C23.6734 90.8073 22 89.1617 22 87.0978V46.9352C22 44.8992 23.6456 43.2537 25.7095 43.2537H88.9655C91.0016 43.2537 92.675 44.8992 92.675 46.9631V87.0978H92.6471Z" fill="#94E19D" stroke="#15233C" stroke-width="1.78054" stroke-miterlimit="10"/>
<path d="M88.4635 47.5486H26.1836V86.484H88.4635V47.5486Z" fill="white" stroke="#15233C" stroke-width="1.78054" stroke-miterlimit="10" stroke-linecap="round" stroke-linejoin="round"/>
<path d="M64.0032 90.7798H50.6436V100.793H64.0032V90.7798Z" fill="#94E19D" stroke="#15233C" stroke-width="1.78054" stroke-miterlimit="10"/>
<path d="M68.4097 100.792H63.8635H57.3371H50.8107H46.2645C46.2645 100.792 43.3918 100.792 43.085 104H57.3371H71.5892C71.2824 100.792 68.4097 100.792 68.4097 100.792Z" fill="white" stroke="#15233C" stroke-width="1.78054" stroke-miterlimit="10" stroke-linecap="round" stroke-linejoin="round"/>
<g clip-path="url(#clip0_341_645)">
<path d="M50.2874 52.883L51.2854 52.9207C51.6808 52.9395 52.0292 53.1848 52.161 53.5526L52.8294 55.3539H58.0359L62.6398 55.3444L63.2989 53.562C63.4307 53.1942 63.779 52.9395 64.165 52.9207L65.1724 52.8735C65.3984 51.9587 65.6432 50.5535 65.888 46.8943C66.2081 42.1883 66.5282 33.9929 65.05 27.8817C64.777 26.75 64.4381 25.6843 64.052 24.6752C63.12 25.0147 62.1126 25.3542 60.898 25.5711C60.0036 25.7314 58.9962 25.8257 57.9794 25.8257C57.3015 25.8257 56.6142 25.788 55.9364 25.6937C54.3452 25.4862 52.8577 24.9958 51.4643 24.5337C51.05 25.5805 50.6923 26.6934 50.4098 27.8817C48.9317 33.9834 49.2518 42.1789 49.5719 46.8943C49.8261 50.5535 50.0615 51.9682 50.2874 52.883ZM58.6761 53.147C58.6761 53.6469 58.2713 54.0524 57.7723 54.0524C57.2733 54.0524 56.8685 53.6469 56.8685 53.147V43.5747C56.8685 43.0748 57.2733 42.6693 57.7723 42.6693C58.2713 42.6693 58.6761 43.0748 58.6761 43.5747V53.147ZM57.7723 28.0043C60.7568 28.0043 63.1859 30.428 63.1859 33.427C63.1859 36.4166 60.7662 38.8498 57.7723 38.8498C54.7877 38.8498 52.3587 36.4261 52.3587 33.427C52.3587 30.428 54.7783 28.0043 57.7723 28.0043Z" fill="white"/>
<path d="M57.7345 14.5463C59.8435 17.187 61.8489 19.8371 63.3459 23.0153C62.4797 23.3359 61.6229 23.6094 60.5967 23.7981C59.8058 23.9395 58.9114 24.0244 57.9982 24.0244C57.3956 24.0244 56.7836 23.9867 56.1905 23.9112C54.8347 23.732 53.5543 23.3265 52.208 22.8738C53.6861 19.7522 55.6538 17.1493 57.7345 14.5463ZM57.7722 29.815C59.7588 29.815 61.3687 31.4276 61.3687 33.4176C61.3687 35.4075 59.7588 37.0202 57.7722 37.0202C55.7857 37.0202 54.1757 35.4075 54.1757 33.4176C54.1757 31.4276 55.7857 29.815 57.7722 29.815ZM57.7722 28.0042C54.7877 28.0042 52.3586 30.428 52.3586 33.427C52.3586 36.4166 54.7783 38.8498 57.7722 38.8498C60.7567 38.8498 63.1858 36.426 63.1858 33.427C63.1764 30.428 60.7567 28.0042 57.7722 28.0042ZM57.7722 42.6693C57.2732 42.6693 56.8684 43.0748 56.8684 43.5746V53.1376C56.8684 53.6374 57.2732 54.0429 57.7722 54.0429C58.2712 54.0429 58.676 53.6374 58.676 53.1376V43.5746C58.676 43.0748 58.2712 42.6693 57.7722 42.6693ZM51.4736 24.5431C52.867 25.0146 54.3452 25.4956 55.9457 25.7031C56.6236 25.788 57.3109 25.8351 57.9888 25.8351C59.0056 25.8351 60.013 25.7408 60.9074 25.5805C62.1219 25.3636 63.1293 25.0241 64.0614 24.6846C64.4474 25.6937 64.7863 26.7594 65.0594 27.8911C66.5375 33.9928 66.2174 42.1883 65.8973 46.9037C65.6431 50.5629 65.4077 51.9681 65.1818 52.8829L64.1744 52.9301C63.7789 52.9489 63.44 53.2036 63.3082 53.5714L62.6491 55.3538L58.0452 55.3633H52.8388L52.1703 53.562C52.0291 53.1942 51.6902 52.9395 51.2947 52.9301L50.2967 52.8924C50.0708 51.9776 49.8354 50.5629 49.5812 46.9132C49.2611 42.1977 48.941 34.0117 50.4191 27.9005C50.7016 26.7028 51.0594 25.5899 51.4736 24.5431ZM67.9309 45.6589L70.8496 48.4127L68.8818 58.0228L66.9988 53.6468C67.2813 52.5811 67.5637 51.1854 67.8462 47.0358C67.8744 46.602 67.9027 46.1398 67.9309 45.6589ZM47.5476 45.7155C47.5758 46.1776 47.6041 46.6208 47.6323 47.0263C47.9242 51.2891 48.2066 52.6566 48.4985 53.7317L46.6438 58.0228L44.6854 48.4127L47.5476 45.7155ZM62.5832 57.306L62.9504 58.3906H52.6222L53.0553 57.306H57.7534C57.7628 57.306 57.7722 57.306 57.7816 57.306H58.0452H58.4218C58.4313 57.306 58.4501 57.306 58.4595 57.306H62.5832ZM57.7345 12C57.4427 12 57.1602 12.132 56.9719 12.3678C53.6014 16.5646 50.099 20.9216 48.5173 27.4289C47.3122 32.4085 47.2463 38.6046 47.4252 43.3389L43.0661 47.4413C42.8401 47.6582 42.7366 47.9789 42.8025 48.2807L45.4386 61.2198C45.514 61.6065 45.8435 61.8989 46.2389 61.946C46.2672 61.946 46.3048 61.9555 46.3331 61.9555C46.6908 61.9555 47.0204 61.7385 47.1616 61.4085L49.9955 54.8351L50.551 54.854L51.2288 56.6742C51.2477 56.7213 51.2665 56.7685 51.2947 56.8156L50.438 58.9659C50.325 59.2488 50.3627 59.56 50.5321 59.8146C50.7016 60.0598 50.984 60.2107 51.2853 60.2107H64.212C64.5039 60.2107 64.7769 60.0693 64.9464 59.8335C65.1159 59.5977 65.1629 59.2865 65.0688 59.013L64.2591 56.6176L64.9087 54.854L65.5301 54.8257L68.3546 61.399C68.4958 61.7385 68.8253 61.946 69.1831 61.946C69.2114 61.946 69.249 61.946 69.2773 61.946C69.6727 61.9083 69.9928 61.6159 70.0775 61.2293L72.7325 48.2901C72.7985 47.9789 72.6949 47.6582 72.4689 47.4507L68.0533 43.2729C68.2322 38.5574 68.1663 32.3896 66.9612 27.4289C65.3795 20.9216 61.8677 16.5646 58.4972 12.3678C58.3089 12.132 58.0264 12 57.7345 12ZM53.6861 61.1633C53.1777 61.1633 52.7729 61.5688 52.7729 62.0781V68.1704C52.7729 68.6797 53.1777 69.0852 53.6861 69.0852C54.1945 69.0852 54.5994 68.6797 54.5994 68.1704V62.0781C54.5994 61.5782 54.1851 61.1633 53.6861 61.1633ZM61.8583 61.1633C61.3499 61.1633 60.945 61.5688 60.945 62.0781V68.1704C60.945 68.6797 61.3499 69.0852 61.8583 69.0852C62.3667 69.0852 62.7715 68.6797 62.7715 68.1704V62.0781C62.7715 61.5782 62.3573 61.1633 61.8583 61.1633ZM57.791 64.4546C57.2826 64.4546 56.8778 64.8602 56.8778 65.3694V72.6784C56.8778 73.1877 57.2826 73.5932 57.791 73.5932C58.2994 73.5932 58.7043 73.1877 58.7043 72.6784V65.3694C58.7043 64.8602 58.2994 64.4546 57.791 64.4546ZM66.3304 72.4332C63.553 72.4332 61.1522 74.0836 60.06 76.4507C59.4198 76.215 58.7325 76.0829 58.017 76.0829C57.1226 76.0829 56.2846 76.281 55.5315 76.6394C54.477 74.1685 52.0291 72.4332 49.1764 72.4332C45.9753 72.4332 43.292 74.6117 42.5012 77.5636C42.2187 77.5353 41.9269 77.5259 41.6444 77.5259C37.0782 77.5259 33.2086 80.5249 31.9 84.6651C31.7022 85.2781 31.5704 85.9194 31.4951 86.5795H33.4158C33.5099 85.9099 33.6794 85.2686 33.9242 84.6651C35.1481 81.6 38.1421 79.4309 41.6444 79.4309C41.8515 79.4309 42.0681 79.4403 42.2752 79.4498C42.906 79.4969 43.5274 79.6195 44.1111 79.7987C44.1017 79.6478 44.0923 79.4969 44.0923 79.346C44.0923 78.8368 44.1676 78.3369 44.3088 77.8748C44.9396 75.7811 46.8791 74.2533 49.1858 74.2533C51.4171 74.2533 53.3189 75.6963 54.0062 77.6956C54.1851 78.2143 54.2793 78.7707 54.2793 79.346C54.2793 79.6384 54.251 79.9213 54.2039 80.2042C54.5805 79.3743 55.2113 78.6859 56.0022 78.2426C56.6048 77.9125 57.292 77.7239 58.0264 77.7239C58.5725 77.7239 59.0903 77.8277 59.561 78.0163C60.2201 78.2803 60.8038 78.7047 61.2557 79.2423C61.2652 78.5727 61.4158 77.9314 61.6606 77.3467C62.4326 75.5265 64.2403 74.2439 66.3398 74.2439C68.4864 74.2439 70.3223 75.5737 71.0755 77.4598C71.3109 78.0446 71.4333 78.6764 71.4333 79.3366C71.4333 79.346 71.4333 79.3555 71.4333 79.3555C72.0076 79.1385 72.6101 78.9782 73.241 78.8839C73.627 78.8273 74.0224 78.799 74.4272 78.799C78.1556 78.799 81.3096 81.2605 82.364 84.6462C82.5523 85.2592 82.6747 85.9005 82.7218 86.5607H84.633C84.5954 85.9005 84.5012 85.2686 84.3506 84.6462C83.2396 80.1948 79.2194 76.8846 74.4272 76.8846C73.8906 76.8846 73.3728 76.9223 72.8644 77.0072C71.8852 74.3477 69.3338 72.4332 66.3304 72.4332Z" fill="#15233C"/>
<path d="M57.7723 37.0201C59.7588 37.0201 61.3688 35.4075 61.3688 33.4175C61.3688 31.4276 59.7588 29.8149 57.7723 29.8149C55.7857 29.8149 54.1758 31.4276 54.1758 33.4175C54.1758 35.4075 55.7857 37.0201 57.7723 37.0201Z" fill="#5CCB69"/>
<path d="M48.4986 53.7411C48.2067 52.666 47.9243 51.2985 47.6324 47.0357C47.6042 46.6302 47.5759 46.187 47.5477 45.7249L44.6855 48.4221L46.6439 58.0227L48.4986 53.7411Z" fill="#5CCB69"/>
<path d="M68.882 58.0228L70.8497 48.4128L67.9311 45.6589C67.9029 46.1493 67.8746 46.6115 67.8464 47.0358C67.5639 51.1854 67.2909 52.5812 66.999 53.6469L68.882 58.0228Z" fill="#5CCB69"/>
<path d="M57.9884 24.015C58.9017 24.015 59.7961 23.9301 60.587 23.7887C61.6132 23.6095 62.4794 23.3266 63.3361 23.0059C61.8486 19.8277 59.8432 17.187 57.7342 14.5464C55.6535 17.1493 53.6858 19.7522 52.1982 22.8739C53.5446 23.3266 54.825 23.7226 56.1808 23.9113C56.7739 23.9773 57.3765 24.015 57.9884 24.015Z" fill="#5CCB69"/>
<path d="M58.4593 57.3154C58.4499 57.3154 58.4311 57.3154 58.4217 57.3154H58.0451H57.7815C57.772 57.3154 57.7626 57.3154 57.7532 57.3154H53.0552L52.6221 58.4H62.9503L62.5831 57.3154H58.4593Z" fill="#5CCB69"/>
</g>
<defs>
<clipPath id="clip0_341_645">
<rect width="53.1379" height="74.5795" fill="white" transform="translate(31.4766 12)"/>
</clipPath>
</defs>
</svg>
