<svg width="115" height="115" viewBox="0 0 115 115" fill="none" xmlns="http://www.w3.org/2000/svg">
<path d="M90.2595 71.6812C90.2595 73.7987 88.548 75.5392 86.4015 75.5392H20.6403C18.5227 75.5392 16.7822 73.8278 16.7822 71.6812V29.9096C16.7822 27.792 18.4937 26.0806 20.6403 26.0806H86.4305C88.548 26.0806 90.2885 27.792 90.2885 29.9386V71.6812H90.2595Z" fill="#B65FFF" stroke="#15233C" stroke-width="1.85187" stroke-miterlimit="10"/>
<path d="M85.9087 30.5479H21.1338V71.043H85.9087V30.5479Z" fill="white" stroke="#15233C" stroke-width="1.85187" stroke-miterlimit="10" stroke-linecap="round" stroke-linejoin="round"/>
<path d="M60.4681 75.5107H46.5732V85.9246H60.4681V75.5107Z" fill="#B65FFF" stroke="#15233C" stroke-width="1.85187" stroke-miterlimit="10"/>
<path d="M65.0512 85.9243H60.3229H53.535H46.7471H42.0188C42.0188 85.9243 39.031 85.9243 38.7119 89.2602H53.535H68.3581C68.039 85.9243 65.0512 85.9243 65.0512 85.9243Z" fill="white" stroke="#15233C" stroke-width="1.85187" stroke-miterlimit="10" stroke-linecap="round" stroke-linejoin="round"/>
<path d="M25.6592 46.8501V66.8656H43.4411" stroke="#15233C" stroke-width="1.85187" stroke-miterlimit="10"/>
<path d="M99.3005 86.4469C99.3005 87.8186 98.1815 88.9197 96.8278 88.9197H75.5655C74.1938 88.9197 73.0928 87.8006 73.0928 86.4469V45.6913C73.0928 44.3195 74.2118 43.2185 75.5655 43.2185H96.8097C98.1815 43.2185 99.2825 44.3376 99.2825 45.6913V86.4469H99.3005Z" fill="#B65FFF" stroke="#15233C" stroke-width="1.40822" stroke-miterlimit="10"/>
<path d="M99.3005 47.9111H73.0928V84.2266H99.3005V47.9111Z" fill="white" stroke="#15233C" stroke-width="1.40822" stroke-miterlimit="10"/>
<path d="M81.665 45.655H87.9823" stroke="#15233C" stroke-width="1.40822" stroke-miterlimit="10"/>
<path d="M88.8125 45.6555H90.7077" stroke="#15233C" stroke-width="1.40822" stroke-miterlimit="10"/>
<path d="M76.3594 71.3752V81.501H86.1963" fill="white"/>
<path d="M76.3594 71.3752V81.501H86.1963" stroke="#15233C" stroke-width="1.40822" stroke-miterlimit="10"/>
</svg>
