<svg width="115" height="115" viewBox="0 0 115 115" fill="none" xmlns="http://www.w3.org/2000/svg">
<path d="M74.3947 85.9433C74.3947 86.0715 74.3947 86.163 74.3947 86.2546C74.3947 87.7744 74.3993 89.2896 74.3947 90.8094C74.3856 92.4299 73.3125 93.7025 71.7373 93.9634C71.5364 93.9954 71.3263 94 71.1209 94C61.9341 94 52.7518 94 43.565 94C41.903 94 40.62 92.9517 40.346 91.3678C40.3141 91.1939 40.3095 91.0199 40.3095 90.846C40.3049 89.3033 40.3049 87.7652 40.3141 86.2225C40.3141 86.0028 40.2593 85.9433 40.0355 85.9433C34.6705 85.9479 29.3054 85.9479 23.9404 85.9479C20.9405 85.9479 18.4794 83.8147 18.0548 80.8346C18.0137 80.5508 18 80.2579 18 79.9695C18.0046 64.8403 18.0046 49.7203 18.0046 34.6002C18.0046 32.0505 18.0046 29.5053 18.0046 26.9555C18.0046 24.122 19.8995 21.7416 22.6573 21.1373C23.0911 21.0412 23.5477 21.0046 23.9952 21.0046C46.2362 21 68.4771 21 90.7227 21C93.7591 21 96.1882 23.0966 96.6402 26.0995C96.6813 26.3833 96.6996 26.6763 96.6996 26.9647C96.7042 44.6345 96.7042 62.3043 96.6996 79.9695C96.6996 83.0548 94.5034 85.5313 91.4533 85.9067C91.2295 85.9342 90.9967 85.9387 90.7684 85.9387C85.417 85.9387 80.0702 85.9387 74.7189 85.9387C74.623 85.9433 74.5271 85.9433 74.3947 85.9433ZM94.8915 34.8932C69.847 34.8932 44.839 34.8932 19.8127 34.8932C19.8127 35.0077 19.8127 35.1038 19.8127 35.2045C19.8127 38.2853 19.8127 41.3706 19.8127 44.4514C19.8127 56.2938 19.8127 68.1316 19.8127 79.974C19.8127 82.3315 21.6163 84.1397 23.9632 84.1397C29.3146 84.1397 34.6613 84.1397 40.0127 84.1397C40.104 84.1397 40.1908 84.1397 40.3095 84.1397C40.3095 84.0344 40.3095 83.952 40.3095 83.8696C40.3095 82.9312 40.3095 81.9928 40.3095 81.0544C40.3095 80.8804 40.3186 80.7019 40.346 80.5325C40.62 78.9532 41.903 77.8912 43.5376 77.8912C46.574 77.8912 49.6104 77.8912 52.6468 77.8912C52.7427 77.8912 52.8386 77.8912 52.9436 77.8912C52.9436 75.552 52.9436 73.2449 52.9436 70.9103C52.8249 70.9103 52.7199 70.9103 52.6149 70.9103C46.5421 70.9103 40.4693 70.9148 34.3965 70.9057C33.8897 70.9057 33.3737 70.8599 32.8806 70.7546C29.8122 70.1138 27.5384 67.4404 27.3968 64.3413C27.2507 61.1553 29.2232 58.3125 32.2368 57.3558C32.3555 57.3192 32.4788 57.278 32.6021 57.2368C31.9765 55.1585 32.1592 53.181 33.3052 51.3499C34.4513 49.5188 36.1316 48.4751 38.2365 48.1364C38.2867 44.9137 39.6474 42.4967 42.6655 41.3202C45.8754 40.0705 48.5831 41.0685 50.7885 43.6228C52.5053 41.3706 54.77 40.2903 57.5964 40.7435C60.4227 41.1967 62.2263 42.9407 63.1715 45.6324C63.2354 45.5821 63.2947 45.5409 63.3541 45.4951C64.3723 44.694 65.5229 44.2042 66.8106 44.0577C70.162 43.6777 73.1893 45.6324 74.2394 48.8505C74.2942 49.0199 74.3673 49.0565 74.5317 49.0336C75.1892 48.9375 75.8558 48.9466 76.5088 49.0565C80.125 49.6699 82.5815 52.7965 82.3213 56.4632C82.303 56.7332 82.2619 57.0033 82.2299 57.2871C82.3258 57.3192 82.4126 57.3466 82.4993 57.3741C85.7503 58.4087 87.7776 61.7229 87.2115 65.0921C86.6453 68.4841 83.7733 70.9194 80.3214 70.9194C74.2257 70.924 68.1301 70.9194 62.0345 70.9194C61.9386 70.9194 61.8428 70.9194 61.7469 70.9194C61.7469 73.2632 61.7469 75.5703 61.7469 77.8958C61.861 77.8958 61.9615 77.8958 62.0574 77.8958C65.0618 77.8958 68.0708 77.8958 71.0752 77.8958C73.0386 77.8958 74.381 79.237 74.381 81.1963C74.381 82.0889 74.381 82.9816 74.381 83.8742C74.381 83.9566 74.381 84.039 74.381 84.1443C74.4906 84.1443 74.5728 84.1443 74.6549 84.1443C80.02 84.1443 85.3851 84.1443 90.7501 84.1397C91.0012 84.1397 91.2524 84.1214 91.4989 84.0756C93.5262 83.7003 94.8778 82.0294 94.8778 79.91C94.8778 65.0005 94.8778 50.0956 94.8778 35.1862C94.8915 35.09 94.8915 35.0031 94.8915 34.8932ZM61.756 69.0929C61.8564 69.0929 61.9386 69.0929 62.0208 69.0929C68.153 69.0929 74.2851 69.0929 80.4218 69.0929C84.0426 69.0929 86.5311 65.3438 85.1111 62.0067C84.3623 60.2535 83.0153 59.2235 81.1341 58.9076C80.8738 58.8619 80.6227 58.8115 80.4401 58.6055C80.1661 58.3034 80.1479 57.9601 80.2711 57.5801C80.9834 55.4469 80.3168 53.1856 78.5498 51.8397C77.1571 50.7823 75.6047 50.5305 73.9244 51.0066C73.3308 51.176 72.8331 50.8601 72.7327 50.2558C72.719 50.1872 72.7098 50.1185 72.6961 50.0544C72.3172 47.7519 70.2762 45.9208 67.9521 45.8292C65.9795 45.7514 64.4454 46.5617 63.3495 48.2005C63.208 48.411 63.0482 48.5804 62.8062 48.6628C62.2674 48.8459 61.6007 48.4522 61.6236 47.6512C61.6829 45.4951 60.3177 43.5175 58.2858 42.7668C56.2494 42.0115 53.939 42.6432 52.5646 44.3232C52.1765 44.7993 51.8889 45.3349 51.6788 45.9116C51.5418 46.2916 51.2268 46.5205 50.8524 46.5251C50.446 46.5251 50.1584 46.3328 49.9894 45.962C49.9666 45.9071 49.9437 45.8476 49.9164 45.7926C49.0305 43.8471 47.5238 42.7347 45.396 42.6432C43.2637 42.5562 41.6656 43.545 40.6474 45.4218C40.0994 46.4335 39.9625 47.5321 40.1679 48.6628C40.241 49.0565 40.1999 49.4044 39.8803 49.6836C39.6702 49.8667 39.4191 49.8896 39.1543 49.8942C36.3279 49.9079 34.0541 52.2105 34.0678 55.0441C34.0723 55.9047 34.2915 56.7149 34.6933 57.4794C35.0403 58.1294 34.675 58.7886 33.9445 58.8619C33.7938 58.8756 33.6431 58.8893 33.4924 58.9122C30.7939 59.3196 28.8443 61.9609 29.2506 64.6618C29.6433 67.271 31.7437 69.0884 34.3965 69.0884C40.5013 69.0929 46.6014 69.0884 52.7062 69.0884C52.7884 69.0884 52.866 69.0792 52.9482 69.0746C52.9482 67.5869 52.9482 66.1266 52.9482 64.6389C52.8523 64.6389 52.7747 64.6389 52.6925 64.6389C52.0852 64.6389 51.4734 64.6343 50.8661 64.6389C50.4734 64.6434 50.1629 64.5015 49.9803 64.1445C49.7976 63.792 49.8616 63.4533 50.0899 63.1374C50.3958 62.7071 50.6926 62.2768 50.9939 61.8465C52.8569 59.1869 54.7152 56.5272 56.5736 53.8676C56.98 53.2863 57.7105 53.2634 58.1078 53.831C60.2949 56.953 62.4729 60.0795 64.6554 63.2015C64.8654 63.5036 64.8974 63.8286 64.7285 64.1536C64.555 64.4878 64.2627 64.6434 63.8883 64.6434C63.2628 64.6434 62.6418 64.6434 62.0163 64.6434C61.9341 64.6434 61.8519 64.6434 61.7606 64.6434C61.756 66.1312 61.756 67.5915 61.756 69.0929ZM94.8823 33.0484C94.8869 32.9843 94.8915 32.9431 94.8915 32.9065C94.8915 30.8923 94.9097 28.8782 94.8869 26.864C94.8595 24.566 93.0468 22.8036 90.7501 22.8036C68.4863 22.8036 46.2225 22.8036 23.9586 22.8036C21.6254 22.8036 19.8218 24.6118 19.8173 26.9555C19.8127 28.901 19.8173 30.8466 19.8173 32.7921C19.8173 32.8745 19.8173 32.9569 19.8173 33.0484C44.8481 33.0484 69.8561 33.0484 94.8823 33.0484ZM57.3635 79.6994C52.7701 79.6994 48.1721 79.6994 43.5787 79.6994C42.6655 79.6994 42.1131 80.2487 42.1131 81.1642C42.1131 84.3457 42.1131 87.5272 42.1131 90.7087C42.1131 91.6379 42.661 92.1918 43.5879 92.1918C52.7655 92.1918 61.9386 92.1918 71.1163 92.1918C72.0432 92.1918 72.5911 91.6425 72.5911 90.7087C72.5911 87.5363 72.5911 84.364 72.5911 81.1871C72.5911 80.235 72.0569 79.6994 71.1072 79.6994C66.5229 79.6994 61.9432 79.6994 57.3635 79.6994ZM62.1898 62.8307C60.5597 60.4961 58.9662 58.2118 57.3544 55.9047C55.738 58.221 54.1399 60.5052 52.519 62.8307C52.9756 62.8307 53.3774 62.8307 53.7792 62.8307C54.4139 62.8353 54.7654 63.1877 54.77 63.824C54.7746 66.2639 54.7791 68.7038 54.7791 71.1483C54.7791 73.309 54.7791 75.465 54.7791 77.6257C54.7791 77.7081 54.7883 77.7859 54.7883 77.8637C56.5142 77.8637 58.2128 77.8637 59.9342 77.8637C59.9342 77.7584 59.9342 77.6669 59.9342 77.5753C59.9342 73.0435 59.9433 68.5116 59.925 63.9797C59.9205 63.2289 60.2949 62.7666 61.0939 62.8261C61.4364 62.849 61.788 62.8307 62.1898 62.8307Z" fill="#3483B9"/>
<path d="M94.8917 34.893C94.8917 35.0029 94.8917 35.0898 94.8917 35.1814C94.8917 50.0908 94.8917 64.9957 94.8917 79.9052C94.8917 82.0292 93.5402 83.6955 91.5129 84.0708C91.2663 84.1166 91.0152 84.1349 90.7641 84.1349C85.399 84.1395 80.034 84.1395 74.6689 84.1395C74.5867 84.1395 74.5045 84.1395 74.3949 84.1395C74.3949 84.0296 74.3949 83.9472 74.3949 83.8694C74.3949 82.9768 74.3949 82.0841 74.3949 81.1915C74.3949 79.2323 73.048 77.891 71.0892 77.891C68.0847 77.891 65.0757 77.891 62.0713 77.891C61.9754 77.891 61.875 77.891 61.7608 77.891C61.7608 75.5655 61.7608 73.2584 61.7608 70.9146C61.8613 70.9146 61.9572 70.9146 62.0485 70.9146C68.1441 70.9146 74.2397 70.9146 80.3353 70.9146C83.7826 70.9146 86.6547 68.4793 87.2254 65.0873C87.787 61.7181 85.7643 58.4039 82.5133 57.3693C82.4265 57.3419 82.3398 57.3144 82.2439 57.2824C82.2759 56.9985 82.317 56.7285 82.3352 56.4584C82.5909 52.7962 80.139 49.6697 76.5227 49.0517C75.8652 48.9419 75.2031 48.9327 74.5456 49.0288C74.3812 49.0517 74.3082 49.0151 74.2534 48.8457C73.2032 45.6276 70.176 43.673 66.8245 44.0529C65.5415 44.1994 64.3863 44.6846 63.368 45.4903C63.3087 45.5361 63.2493 45.5819 63.1854 45.6276C62.2402 42.936 60.4367 41.1919 57.6103 40.7387C54.784 40.2855 52.5192 41.3658 50.8024 43.618C48.6016 41.0683 45.8894 40.0658 42.6795 41.3155C39.6614 42.4919 38.3007 44.9089 38.2505 48.1316C36.1455 48.4704 34.4653 49.5186 33.3192 51.3451C32.1731 53.1808 31.9859 55.1537 32.616 57.232C32.4882 57.2732 32.3695 57.3144 32.2508 57.351C29.2372 58.3032 27.2647 61.1505 27.4108 64.3365C27.5523 67.4356 29.8262 70.109 32.8946 70.7498C33.3877 70.8551 33.9036 70.9009 34.4105 70.9009C40.4833 70.9101 46.556 70.9055 52.6288 70.9055C52.7338 70.9055 52.8389 70.9055 52.9576 70.9055C52.9576 73.2401 52.9576 75.5472 52.9576 77.8864C52.8525 77.8864 52.7567 77.8864 52.6608 77.8864C49.6244 77.8864 46.588 77.8864 43.5516 77.8864C41.917 77.8864 40.6339 78.9484 40.36 80.5277C40.328 80.7017 40.3234 80.8756 40.3234 81.0496C40.3189 81.988 40.3234 82.9264 40.3234 83.8649C40.3234 83.9473 40.3234 84.0296 40.3234 84.1349C40.2047 84.1349 40.1134 84.1349 40.0267 84.1349C34.6753 84.1349 29.3285 84.1349 23.9772 84.1349C21.6302 84.1349 19.8267 82.3268 19.8267 79.9693C19.8267 68.1268 19.8267 56.289 19.8267 44.4466C19.8267 41.3658 19.8267 38.2805 19.8267 35.1997C19.8267 35.1036 19.8267 35.0029 19.8267 34.8884C44.8392 34.893 69.8472 34.893 94.8917 34.893Z" fill="white"/>
<path d="M61.756 69.093C61.756 67.5915 61.756 66.1313 61.756 64.6389C61.8518 64.6389 61.934 64.6389 62.0117 64.6389C62.6372 64.6389 63.2582 64.6389 63.8837 64.6389C64.2581 64.6389 64.5504 64.4833 64.7239 64.1491C64.8928 63.8241 64.8608 63.4991 64.6508 63.197C62.4683 60.0704 60.2903 56.9485 58.1032 53.8265C57.7059 53.2634 56.9799 53.2818 56.569 53.8631C54.7061 56.5227 52.8477 59.1869 50.9893 61.8466C50.688 62.2769 50.3912 62.7117 50.0853 63.1375C49.857 63.4579 49.793 63.7921 49.9757 64.1445C50.1583 64.497 50.4688 64.6435 50.8615 64.6389C51.4688 64.6298 52.0806 64.6389 52.6879 64.6389C52.7701 64.6389 52.8523 64.6389 52.9436 64.6389C52.9436 66.1267 52.9436 67.5915 52.9436 69.0747C52.8614 69.0793 52.7792 69.0884 52.7016 69.0884C46.5968 69.0884 40.4967 69.093 34.3919 69.0884C31.7391 69.0838 29.6387 67.2665 29.246 64.6618C28.8397 61.961 30.7893 59.3197 33.4878 58.9123C33.6385 58.8894 33.7892 58.8757 33.9399 58.8619C34.6704 58.7887 35.0312 58.1295 34.6887 57.4795C34.2823 56.715 34.0677 55.9093 34.0632 55.0442C34.0495 52.2106 36.3233 49.908 39.1497 49.8943C39.4145 49.8943 39.6656 49.8668 39.8757 49.6837C40.1953 49.4045 40.2364 49.0611 40.1633 48.6629C39.9533 47.5322 40.0948 46.4336 40.6428 45.4219C41.661 43.5405 43.2591 42.5517 45.3914 42.6433C47.5192 42.7302 49.0259 43.8426 49.9118 45.7927C49.9391 45.8476 49.9574 45.9071 49.9848 45.9621C50.1538 46.3329 50.4414 46.5251 50.8478 46.5251C51.2222 46.5251 51.5373 46.2917 51.6742 45.9117C51.8843 45.3303 52.1719 44.7993 52.56 44.3233C53.9298 42.6433 56.2448 42.0115 58.2812 42.7669C60.3085 43.5176 61.6783 45.4951 61.619 47.6512C61.5962 48.4569 62.2628 48.846 62.8016 48.6629C63.0436 48.5805 63.208 48.4111 63.3449 48.2005C64.4408 46.5617 65.9795 45.7515 67.9475 45.8293C70.2716 45.9209 72.3126 47.7474 72.6915 50.0545C72.7007 50.1232 72.7144 50.1918 72.7281 50.2559C72.8331 50.8647 73.3308 51.176 73.9198 51.0067C75.5955 50.5306 77.1525 50.7823 78.5452 51.8398C80.3122 53.181 80.9788 55.447 80.2665 57.5802C80.1387 57.9601 80.1615 58.2989 80.4355 58.6056C80.6227 58.8116 80.8738 58.8619 81.1295 58.9077C83.0107 59.2236 84.3577 60.2535 85.1065 62.0068C86.5265 65.3439 84.0381 69.093 80.4172 69.093C74.2851 69.0976 68.1529 69.093 62.0162 69.093C61.9386 69.093 61.8564 69.093 61.756 69.093Z" fill="#62B9E0"/>
<path d="M94.8826 33.0483C69.8564 33.0483 44.8484 33.0483 19.813 33.0483C19.813 32.9567 19.813 32.8743 19.813 32.7919C19.813 30.8464 19.813 28.9009 19.813 26.9554C19.8176 24.6162 21.6211 22.8035 23.9544 22.8035C46.2182 22.8035 68.482 22.8035 90.7458 22.8035C93.0425 22.8035 94.8552 24.5613 94.8826 26.8639C94.91 28.878 94.8872 30.8922 94.8872 32.9064C94.8917 32.9476 94.8872 32.9842 94.8826 33.0483ZM28.5614 30.8922C29.6892 30.8922 30.8125 30.8922 31.9403 30.8922C32.7896 30.8922 33.1914 30.2925 32.8626 29.5097C32.3193 28.2097 31.7713 26.9096 31.228 25.6096C31.0545 25.1884 30.744 24.987 30.2874 24.987C29.1459 24.9916 28.0044 24.9916 26.8629 24.987C26.3789 24.9824 26.0638 25.1976 25.8766 25.6462C25.3424 26.9417 24.7945 28.2326 24.2557 29.5281C23.9407 30.2788 24.347 30.8922 25.1598 30.8968C26.2967 30.8922 27.4291 30.8922 28.5614 30.8922ZM40.0906 30.8922C41.2367 30.8922 42.3873 30.8968 43.5334 30.8922C44.2959 30.8922 44.7068 30.2651 44.4146 29.5601C43.8667 28.2463 43.3142 26.9325 42.7663 25.6187C42.5882 25.1884 42.2777 24.9824 41.812 24.987C40.6705 24.9916 39.529 24.9962 38.392 24.987C37.9172 24.9824 37.6021 25.193 37.4195 25.6325C36.8807 26.9325 36.3328 28.2326 35.7894 29.5326C35.4789 30.2788 35.8853 30.8922 36.6935 30.8922C37.8259 30.8922 38.9582 30.8922 40.0906 30.8922ZM63.1535 30.8922C64.2995 30.8922 65.4502 30.8968 66.5962 30.8922C67.3588 30.8876 67.7697 30.2696 67.4775 29.5601C66.9341 28.2509 66.3816 26.9463 65.8383 25.637C65.6511 25.1884 65.336 24.9779 64.852 24.9824C63.7288 24.9916 62.601 24.9824 61.4777 24.987C60.9435 24.987 60.6787 25.161 60.4778 25.6508C59.939 26.9417 59.3957 28.2372 58.8569 29.5281C58.5418 30.2788 58.9482 30.8922 59.7564 30.8922C60.8842 30.8922 62.0211 30.8922 63.1535 30.8922ZM51.6335 30.8922C52.775 30.8922 53.9165 30.8922 55.058 30.8922C55.8296 30.8922 56.2451 30.2788 55.9483 29.5693C55.4004 28.2555 54.8479 26.9417 54.3 25.6233C54.1219 25.193 53.8114 24.987 53.3457 24.987C52.1951 24.9916 51.049 24.9916 49.8984 24.987C49.4418 24.987 49.1358 25.1884 48.9578 25.6096C48.4144 26.9188 47.8619 28.2234 47.3186 29.5326C47.0081 30.2834 47.4145 30.8876 48.2318 30.8922C49.3641 30.8922 50.4965 30.8922 51.6335 30.8922Z" fill="#CDF0FF"/>
<path d="M57.3634 79.6992C61.9431 79.6992 66.5228 79.6992 71.1025 79.6992C72.0522 79.6992 72.5865 80.2348 72.5865 81.187C72.5865 84.3593 72.5865 87.5316 72.5865 90.7085C72.5865 91.6423 72.0431 92.1917 71.1116 92.1917C61.934 92.1917 52.7609 92.1917 43.5832 92.1917C42.6563 92.1917 42.1084 91.6378 42.1084 90.7085C42.1084 87.527 42.1084 84.3455 42.1084 81.1641C42.1084 80.2485 42.6563 79.6992 43.5741 79.6992C48.172 79.6992 52.7654 79.6992 57.3634 79.6992ZM65.7922 85.9431C65.6872 86.021 65.6005 86.0851 65.5137 86.1446C64.2307 87.0601 62.9476 87.9711 61.6646 88.8912C61.1943 89.2253 61.0847 89.7792 61.3952 90.2095C61.7011 90.6307 62.249 90.6993 62.7102 90.3698C64.3996 89.1704 66.0845 87.9665 67.7693 86.7626C68.4405 86.2865 68.436 85.5952 67.7693 85.1146C66.7328 84.3776 65.6964 83.6406 64.6599 82.9036C63.9978 82.4321 63.3357 81.956 62.6691 81.4845C62.3449 81.2556 62.0025 81.2327 61.66 81.4341C61.3267 81.6356 61.1897 81.9423 61.2308 82.3268C61.2628 82.6198 61.4317 82.8258 61.6646 82.9951C62.9613 83.9152 64.2581 84.8399 65.5548 85.7646C65.6279 85.8196 65.7009 85.8745 65.7922 85.9431ZM48.9072 85.9431C48.9939 85.8791 49.0624 85.8287 49.1263 85.7829C50.4459 84.8399 51.7701 83.9061 53.0851 82.9585C53.5143 82.6518 53.6056 82.0888 53.3134 81.6859C53.012 81.2739 52.4778 81.187 52.0395 81.4845C51.8933 81.5806 51.7564 81.6859 51.6102 81.7912C50.035 82.9127 48.4597 84.0343 46.889 85.1558C46.3137 85.5632 46.2726 86.2865 46.8159 86.6756C48.5602 87.9299 50.3044 89.175 52.0623 90.4064C52.2267 90.5208 52.4778 90.5712 52.6833 90.5666C53.0622 90.5529 53.3545 90.2736 53.4503 89.9211C53.5508 89.5503 53.4184 89.1704 53.0896 88.9324C52.1947 88.2869 51.2952 87.6506 50.3957 87.0097C49.9071 86.6573 49.4186 86.3094 48.9072 85.9431ZM55.9206 81.306C55.2767 81.3151 54.8704 81.9423 55.1078 82.574C55.5005 83.6314 55.9069 84.6797 56.3087 85.7372C56.8429 87.1379 57.3725 88.5433 57.9068 89.944C58.0757 90.3881 58.4638 90.6353 58.8793 90.5757C59.4912 90.4888 59.829 89.912 59.6053 89.3123C59.24 88.3327 58.8656 87.3622 58.4958 86.3872C57.9342 84.9132 57.3725 83.4392 56.8109 81.9697C56.642 81.5257 56.3269 81.3014 55.9206 81.306Z" fill="#CDF0FF"/>
<path d="M62.1898 62.8305C61.788 62.8305 61.4364 62.8534 61.094 62.826C60.2995 62.771 59.9251 63.2288 59.9251 63.9795C59.9434 68.5114 59.9342 73.0433 59.9342 77.5752C59.9342 77.6668 59.9342 77.7537 59.9342 77.8636C58.2128 77.8636 56.5143 77.8636 54.7883 77.8636C54.7838 77.7858 54.7792 77.7034 54.7792 77.6256C54.7792 75.4649 54.7792 73.3088 54.7792 71.1482C54.7792 68.7083 54.7746 66.2684 54.7701 63.8239C54.7701 63.1876 54.4185 62.8351 53.7793 62.8305C53.3775 62.8305 52.9756 62.8305 52.519 62.8305C54.1445 60.5051 55.7381 58.2208 57.3544 55.9045C58.9617 58.2117 60.5598 60.4959 62.1898 62.8305Z" fill="white"/>
<path d="M28.5614 30.8925C27.4291 30.8925 26.2921 30.8925 25.1597 30.8925C24.3516 30.8925 23.9452 30.2791 24.2557 29.5238C24.7945 28.2283 25.3424 26.9374 25.8766 25.6419C26.0638 25.1933 26.3743 24.9782 26.8629 24.9827C28.0044 24.9919 29.1459 24.9873 30.2874 24.9827C30.744 24.9827 31.0545 25.1842 31.228 25.6053C31.7713 26.9054 32.3192 28.2054 32.8626 29.5055C33.1868 30.2882 32.785 30.8879 31.9403 30.8879C30.817 30.8925 29.6892 30.8925 28.5614 30.8925ZM30.6892 29.0706C30.6846 29.0202 30.6892 28.9973 30.68 28.979C30.3924 28.2878 30.1093 27.5966 29.8079 26.9145C29.7805 26.8504 29.6618 26.7955 29.5842 26.7955C28.9084 26.7863 28.2281 26.7909 27.5523 26.7863C27.4199 26.7863 27.3469 26.8184 27.2966 26.9511C27.0318 27.6057 26.7533 28.2603 26.4793 28.915C26.4611 28.9607 26.4519 29.0111 26.4382 29.0752C27.8583 29.0706 29.2646 29.0706 30.6892 29.0706Z" fill="#3483B9"/>
<path d="M40.0905 30.8923C38.9582 30.8923 37.8258 30.8923 36.6934 30.8923C35.8853 30.8923 35.4789 30.2789 35.7894 29.5328C36.3327 28.2327 36.8761 26.9326 37.4194 25.6326C37.6021 25.1931 37.9126 24.9826 38.392 24.9871C39.5335 24.9963 40.675 24.9917 41.8119 24.9871C42.2777 24.9826 42.5881 25.1931 42.7662 25.6189C43.3141 26.9326 43.8666 28.2464 44.4145 29.5602C44.7113 30.2652 44.2958 30.8923 43.5333 30.8923C42.3872 30.8969 41.2412 30.8923 40.0905 30.8923ZM37.9491 29.0613C39.3874 29.0613 40.8028 29.0613 42.2457 29.0613C41.9352 28.3197 41.6384 27.601 41.3279 26.8914C41.3051 26.8365 41.1864 26.7907 41.1088 26.7907C40.433 26.7816 39.7572 26.7907 39.0769 26.7816C38.9308 26.7816 38.8623 26.8365 38.8075 26.9647C38.5975 27.482 38.3783 27.9901 38.1683 28.5028C38.0998 28.6905 38.0267 28.869 37.9491 29.0613Z" fill="#3483B9"/>
<path d="M63.153 30.8925C62.0206 30.8925 60.8882 30.8925 59.7559 30.8925C58.9431 30.8925 58.5413 30.2791 58.8564 29.5284C59.3952 28.2329 59.9385 26.942 60.4773 25.6511C60.6828 25.1613 60.943 24.9873 61.4773 24.9873C62.6005 24.9873 63.7283 24.9919 64.8515 24.9827C65.3355 24.9782 65.6551 25.1887 65.8378 25.6373C66.3811 26.9466 66.9291 28.2512 67.477 29.5604C67.7692 30.2654 67.3628 30.8879 66.5957 30.8925C65.4497 30.8971 64.299 30.8925 63.153 30.8925ZM65.2807 29.0706C65.2807 29.0385 65.2853 29.0111 65.2762 28.9928C64.9885 28.297 64.7009 27.5966 64.3995 26.9099C64.3721 26.8458 64.2488 26.7955 64.1712 26.7955C63.5 26.7863 62.8334 26.7955 62.1622 26.7863C62.0069 26.7863 61.9339 26.8321 61.8745 26.9786C61.6279 27.592 61.3677 28.2008 61.112 28.8142C61.08 28.8966 61.0481 28.979 61.0115 29.0752C62.4498 29.0706 63.8607 29.0706 65.2807 29.0706Z" fill="#3483B9"/>
<path d="M51.6329 30.8923C50.5006 30.8923 49.3636 30.8923 48.2313 30.8923C47.414 30.8923 47.0076 30.2835 47.3181 29.5328C47.8614 28.2235 48.4139 26.9189 48.9573 25.6097C49.1308 25.1886 49.4413 24.9826 49.8979 24.9871C51.0485 24.9917 52.1946 24.9917 53.3452 24.9871C53.8109 24.9871 54.1214 25.1931 54.2995 25.6234C54.8474 26.9418 55.3999 28.251 55.9478 29.5694C56.2446 30.2789 55.8291 30.8923 55.0574 30.8923C53.9159 30.8969 52.7744 30.8923 51.6329 30.8923ZM53.7744 29.0658C53.4593 28.3151 53.158 27.5918 52.8475 26.8731C52.8292 26.8274 52.7288 26.7907 52.6649 26.7907C51.9754 26.7862 51.2814 26.7907 50.5919 26.7816C50.4503 26.7816 50.3956 26.8411 50.3453 26.9601C50.149 27.4453 49.9435 27.9306 49.7381 28.4158C49.6513 28.6264 49.5645 28.8324 49.4687 29.0658C50.9161 29.0658 52.3224 29.0658 53.7744 29.0658Z" fill="#3483B9"/>
<path d="M65.7925 85.9434C65.7012 85.8747 65.6281 85.8198 65.5551 85.7648C64.2583 84.8402 62.9662 83.9155 61.6648 82.9954C61.4274 82.8306 61.263 82.62 61.2311 82.327C61.19 81.9425 61.327 81.6358 61.6603 81.4344C62.0027 81.2284 62.3452 81.2558 62.6694 81.4847C63.336 81.9562 63.9981 82.4277 64.6601 82.9038C65.6966 83.6408 66.7331 84.3778 67.7696 85.1148C68.4408 85.5909 68.4408 86.2821 67.7696 86.7628C66.0847 87.9667 64.3953 89.166 62.7105 90.37C62.2493 90.695 61.7014 90.6263 61.3955 90.2098C61.085 89.7795 61.1945 89.2301 61.6648 88.8914C62.9479 87.9759 64.2309 87.0603 65.514 86.1448C65.6007 86.0853 65.6875 86.0212 65.7925 85.9434Z" fill="#3483B9"/>
<path d="M48.9076 85.9432C49.419 86.3094 49.903 86.6573 50.3915 87.0052C51.291 87.6461 52.1905 88.2824 53.0855 88.9279C53.4142 89.1659 53.5467 89.5413 53.4462 89.9166C53.3503 90.2737 53.0581 90.5529 52.6791 90.5621C52.4736 90.5712 52.2225 90.5209 52.0581 90.4019C50.3002 89.1705 48.5514 87.9254 46.8118 86.6711C46.2684 86.2774 46.3095 85.5587 46.8849 85.1513C48.4601 84.0298 50.0354 82.9082 51.6061 81.7867C51.7476 81.686 51.8892 81.5807 52.0353 81.48C52.4736 81.1825 53.0124 81.2694 53.3092 81.6814C53.6014 82.0843 53.5101 82.6427 53.0809 82.954C51.7659 83.9016 50.4418 84.84 49.1222 85.7784C49.0628 85.8288 48.9989 85.8791 48.9076 85.9432Z" fill="#3483B9"/>
<path d="M55.9207 81.306C56.3317 81.3014 56.6421 81.5303 56.8065 81.9652C57.3681 83.4392 57.9298 84.9086 58.4914 86.3826C58.8612 87.3576 59.2356 88.3327 59.6009 89.3077C59.8246 89.9074 59.4913 90.4842 58.8749 90.5712C58.4594 90.6307 58.0713 90.3835 57.9024 89.9394C57.3681 88.5387 56.8339 87.1333 56.3043 85.7326C55.9024 84.6797 55.5006 83.6268 55.1034 82.5694C54.8705 81.9377 55.2769 81.3106 55.9207 81.306Z" fill="#3483B9"/>
<path d="M30.6891 29.0706C29.2645 29.0706 27.8582 29.0706 26.4336 29.0706C26.4519 29.0065 26.4564 28.9561 26.4747 28.9104C26.7486 28.2557 27.0226 27.6011 27.292 26.9465C27.3422 26.8184 27.4198 26.7817 27.5477 26.7817C28.2235 26.7863 28.9038 26.7817 29.5796 26.7909C29.6572 26.7909 29.7759 26.8504 29.8033 26.9099C30.1001 27.5966 30.3878 28.2832 30.6754 28.9744C30.6891 28.9973 30.6845 29.0202 30.6891 29.0706Z" fill="white"/>
<path d="M37.9492 29.0612C38.0268 28.869 38.0999 28.6904 38.173 28.5073C38.3876 27.9946 38.6067 27.4819 38.8122 26.9692C38.8624 26.8411 38.9309 26.7816 39.0816 26.7861C39.7574 26.7953 40.4331 26.7861 41.1135 26.7953C41.1865 26.7953 41.3052 26.8411 41.3326 26.896C41.6431 27.6055 41.9399 28.3242 42.2504 29.0658C40.8075 29.0612 39.3921 29.0612 37.9492 29.0612Z" fill="white"/>
<path d="M65.2811 29.0706C63.8656 29.0706 62.4502 29.0706 61.0073 29.0706C61.0439 28.9744 61.0758 28.892 61.1078 28.8096C61.3635 28.1962 61.6237 27.5874 61.8703 26.974C61.9297 26.8321 62.0027 26.7817 62.158 26.7817C62.8292 26.7909 63.4958 26.7817 64.167 26.7909C64.2446 26.7909 64.3679 26.8458 64.3953 26.9053C64.6967 27.5966 64.9843 28.2924 65.272 28.9882C65.2811 29.0111 65.2765 29.0385 65.2811 29.0706Z" fill="white"/>
<path d="M53.7745 29.066C52.3225 29.066 50.9116 29.066 49.4688 29.066C49.5646 28.8325 49.6514 28.622 49.7381 28.416C49.939 27.9307 50.1491 27.4501 50.3454 26.9603C50.3956 26.8412 50.4504 26.7817 50.592 26.7817C51.2815 26.7909 51.9755 26.7817 52.665 26.7909C52.7289 26.7909 52.8293 26.8275 52.8476 26.8733C53.1626 27.592 53.4594 28.3107 53.7745 29.066Z" fill="white"/>
</svg>
