<svg width="152" height="94" viewBox="0 0 152 94" fill="none" xmlns="http://www.w3.org/2000/svg">
<path d="M103.905 4.21285L169.44 4.21285C169.44 49.7196 132.574 86.6006 87.086 86.6006C42.9382 86.6006 7.15022 50.7979 7.15022 6.63195L7.15022 4.21285L71.6299 4.21285" stroke="#D9841B" stroke-width="14" stroke-miterlimit="10" stroke-linecap="round"/>
<path d="M88.2884 -5.73533C80.6189 -5.73533 74.4016 0.484586 74.4016 8.15724C74.4016 15.8299 80.6189 22.0498 88.2884 22.0498C95.9579 22.0498 102.175 15.8299 102.175 8.15724C102.175 0.484586 95.9579 -5.73533 88.2884 -5.73533Z" stroke="#D9841B" stroke-width="14" stroke-miterlimit="10" stroke-linecap="round"/>
<path d="M77.8213 19.9683L56.999 34.5439" stroke="#D9841B" stroke-width="14" stroke-miterlimit="10" stroke-linecap="round"/>
<path d="M158.041 45.96L141.46 36.0077" stroke="#D9841B" stroke-width="14" stroke-miterlimit="10" stroke-linecap="round"/>
<path d="M127.641 75.9561L118.383 59.6453" stroke="#D9841B" stroke-width="14" stroke-miterlimit="10" stroke-linecap="round"/>
<path d="M16.9625 45.1309L32.1611 36.1461" stroke="#D9841B" stroke-width="14" stroke-miterlimit="10" stroke-linecap="round"/>
<path d="M46.6704 75.541L55.9277 59.2303" stroke="#D9841B" stroke-width="14" stroke-miterlimit="10" stroke-linecap="round"/>
<path d="M86.6038 86.5303L86.7402 67.7304" stroke="#D9841B" stroke-width="14" stroke-miterlimit="10" stroke-linecap="round"/>
</svg>
