<svg width="82" height="48" viewBox="0 0 82 48" fill="none" xmlns="http://www.w3.org/2000/svg">
<path d="M33.4736 41.568H2C2 19.7132 19.705 2.00098 41.5508 2.00098C62.7529 2.00098 79.9403 19.1954 79.9403 40.4062V41.568H48.9736" stroke="#FBFBFB" stroke-width="2.5" stroke-miterlimit="10" stroke-linecap="round"/>
<path d="M40.9734 46.3449C44.6567 46.3449 47.6426 43.3578 47.6426 39.6729C47.6426 35.9881 44.6567 33.001 40.9734 33.001C37.2901 33.001 34.3042 35.9881 34.3042 39.6729C34.3042 43.3578 37.2901 46.3449 40.9734 46.3449Z" stroke="#FBFBFB" stroke-width="2.5" stroke-miterlimit="10" stroke-linecap="round"/>
<path d="M46 34.001L56 27.001" stroke="#FBFBFB" stroke-width="2.5" stroke-miterlimit="10" stroke-linecap="round"/>
<path d="M7.47461 21.5186L15.4379 26.2985" stroke="#FBFBFB" stroke-width="2.5" stroke-miterlimit="10" stroke-linecap="round"/>
<path d="M22.0742 7.1123L26.5204 14.946" stroke="#FBFBFB" stroke-width="2.5" stroke-miterlimit="10" stroke-linecap="round"/>
<path d="M75.2284 21.917L67.9287 26.2322" stroke="#FBFBFB" stroke-width="2.5" stroke-miterlimit="10" stroke-linecap="round"/>
<path d="M60.9608 7.31152L56.5146 15.1453" stroke="#FBFBFB" stroke-width="2.5" stroke-miterlimit="10" stroke-linecap="round"/>
<path d="M41.7823 2.03418L41.7168 11.0629" stroke="#FBFBFB" stroke-width="2.5" stroke-miterlimit="10" stroke-linecap="round"/>
</svg>
