<svg width="64" height="64" viewBox="0 0 64 64" fill="none" xmlns="http://www.w3.org/2000/svg">
<path d="M49.7868 49.7863L55.7068 46.8263V39.413M37.9201 26.0797L32.0001 29.0397L37.9201 26.0797ZM32.0001 29.0397L26.0801 26.0797L32.0001 29.0397ZM32.0001 29.0397V36.453V29.0397ZM55.7068 17.173L49.7868 20.133L55.7068 17.173ZM55.7068 17.173L49.7868 14.213L55.7068 17.173ZM55.7068 17.173V24.5863V17.173ZM37.9201 8.29301L32.0001 5.33301L26.0801 8.29301H37.9201ZM8.29346 17.173L14.2135 14.213L8.29346 17.173ZM8.29346 17.173L14.2135 20.133L8.29346 17.173ZM8.29346 17.173V24.5863V17.173ZM32.0001 58.6663L26.0801 55.7063L32.0001 58.6663ZM32.0001 58.6663L37.9201 55.7063L32.0001 58.6663ZM32.0001 58.6663V51.253V58.6663ZM14.2135 49.7863L8.29346 46.8263V39.413L14.2135 49.7863Z" stroke="white" stroke-width="2.2" stroke-linecap="round" stroke-linejoin="round"/>
</svg>
