<svg width="110" height="123" viewBox="0 0 110 123" fill="none" xmlns="http://www.w3.org/2000/svg">
<path d="M6.51247 75.6852L6.73941 90.1694L21.3634 97.1972M64.5271 74.7501L64.3002 60.2659L64.5271 74.7501ZM64.3002 60.2659L75.7514 51.3939L64.3002 60.2659ZM64.3002 60.2659L49.6762 53.2381L64.3002 60.2659ZM65.2352 118.281L65.0083 103.796L65.2352 118.281ZM65.2352 118.281L76.6864 109.408L65.2352 118.281ZM65.2352 118.281L50.6113 111.253L65.2352 118.281ZM99.6141 91.6118L111.065 82.7397L110.838 68.2555L99.6141 91.6118ZM110.183 24.7503L110.41 39.2345L110.183 24.7503ZM110.183 24.7503L98.7316 33.6224L110.183 24.7503ZM110.183 24.7503L95.5588 17.7226L110.183 24.7503ZM5.85693 32.18L17.3081 23.3079L5.85693 32.18ZM5.85693 32.18L6.08387 46.6642L5.85693 32.18ZM5.85693 32.18L20.4809 39.2078L5.85693 32.18ZM40.2358 5.51123L51.687 -3.36084L66.3109 3.66696L40.2358 5.51123Z" stroke="#399944" stroke-width="10" stroke-linecap="round" stroke-linejoin="round"/>
</svg>
