<svg width="144" height="124" viewBox="0 0 144 124" fill="none" xmlns="http://www.w3.org/2000/svg">
<path d="M134.454 60.3647L129.55 61.6788L124.114 41.3913L126.566 40.7343C129.167 40.0463 131.944 40.4504 134.291 41.8585C136.638 43.2666 138.364 45.5642 139.093 48.2498C139.273 48.9223 139.704 49.4981 140.291 49.8505C140.879 50.2029 141.574 50.3029 142.224 50.1286C142.875 49.9544 143.427 49.5201 143.759 48.9213C144.092 48.3225 144.177 47.6082 143.997 46.9357C142.916 42.9002 140.329 39.4455 136.805 37.3313C133.281 35.2172 129.109 34.6168 125.207 35.6624L122.755 36.3195L121.396 31.2476C121.216 30.575 120.785 29.9992 120.197 29.6469C119.61 29.2945 118.915 29.1945 118.264 29.3687C117.614 29.543 117.062 29.9773 116.729 30.5761C116.397 31.1749 116.311 31.8892 116.492 32.5617L117.851 37.6336L114.172 38.6192C110.27 39.6647 106.957 42.2705 104.963 45.8633C102.968 49.4561 102.455 53.7416 103.536 57.7771C104.618 61.8125 107.205 65.2673 110.729 67.3814C114.252 69.4956 118.424 70.0959 122.326 69.0503L126.005 68.0647L131.441 88.3522L126.536 89.6663C123.935 90.3543 121.158 89.9501 118.811 88.542C116.464 87.134 114.738 84.8363 114.01 82.1508C113.829 81.4782 113.398 80.9024 112.811 80.55C112.224 80.1977 111.528 80.0976 110.878 80.2719C110.228 80.4462 109.676 80.8805 109.343 81.4793C109.011 82.0781 108.925 82.7923 109.105 83.4649C110.187 87.5003 112.774 90.9551 116.298 93.0692C119.821 95.1834 123.993 95.7837 127.895 94.7381L132.8 93.424L134.159 98.4959C134.339 99.1684 134.77 99.7442 135.357 100.097C135.945 100.449 136.64 100.549 137.29 100.375C137.941 100.2 138.493 99.7662 138.825 99.1674C139.158 98.5686 139.243 97.8543 139.063 97.1818L137.704 92.1099L142.608 90.7958C146.51 89.7502 149.823 87.1444 151.818 83.5516C153.812 79.9588 154.325 75.6733 153.244 71.6379C152.163 67.6025 149.576 64.1477 146.052 62.0335C142.528 59.9194 138.356 59.3191 134.454 60.3647ZM124.646 62.9929L120.967 63.9784C118.366 64.6755 115.585 64.2753 113.236 62.8659C110.886 61.4564 109.162 59.1532 108.441 56.463C107.72 53.7727 108.062 50.9157 109.392 48.5205C110.721 46.1253 112.93 44.3881 115.531 43.691L119.21 42.7054L124.646 62.9929ZM141.249 85.7239L136.345 87.038L130.909 66.7506L135.813 65.4365C138.415 64.7395 141.196 65.1397 143.545 66.5491C145.894 67.9585 147.619 70.2617 148.34 72.952C149.061 75.6423 148.719 78.4993 147.389 80.8945C146.059 83.2897 143.851 85.0269 141.249 85.7239Z" fill="#AA44FF"/>
<circle cx="126.05" cy="62.2492" r="57.4383" transform="rotate(-15 126.05 62.2492)" stroke="#AA44FF" stroke-width="12.5082"/>
<line x1="38.2545" y1="35.4702" x2="96.7576" y2="13.0931" stroke="#AA44FF" stroke-width="12.5082" stroke-linecap="round"/>
<line x1="26.7377" y1="105.009" x2="64.5519" y2="94.877" stroke="#AA44FF" stroke-width="12.5082" stroke-linecap="round"/>
<line x1="61.3275" y1="121.799" x2="91.7255" y2="109.888" stroke="#AA44FF" stroke-width="12.5082" stroke-linecap="round"/>
<line x1="40.8857" y1="58.023" x2="53.7518" y2="54.5755" stroke="#AA44FF" stroke-width="12.5082" stroke-linecap="round"/>
<line x1="21.6987" y1="63.1655" x2="23.0503" y2="62.8034" stroke="#AA44FF" stroke-width="12.5082" stroke-linecap="round"/>
<line x1="29.2719" y1="83.7612" x2="67.0861" y2="73.629" stroke="#AA44FF" stroke-width="12.5082" stroke-linecap="round"/>
</svg>
