<svg width="91" height="78" viewBox="0 0 91 78" fill="none" xmlns="http://www.w3.org/2000/svg">
<path d="M58.1606 36.7125H56.0296V27.8972H57.0951C58.2244 27.9009 59.3064 28.3664 60.105 29.1922C60.9035 30.018 61.3537 31.137 61.3572 32.3049C61.3572 32.5971 61.4694 32.8774 61.6693 33.0841C61.8691 33.2907 62.1401 33.4068 62.4227 33.4068C62.7053 33.4068 62.9763 33.2907 63.1761 33.0841C63.3759 32.8774 63.4882 32.5971 63.4882 32.3049C63.4882 30.5514 62.8146 28.8698 61.6157 27.6299C60.4168 26.39 58.7907 25.6934 57.0951 25.6934H56.0296V23.4896C56.0296 23.1974 55.9174 22.9171 55.7175 22.7104C55.5177 22.5038 55.2467 22.3877 54.9641 22.3877C54.6815 22.3877 54.4105 22.5038 54.2107 22.7104C54.0109 22.9171 53.8986 23.1974 53.8986 23.4896V25.6934H52.3003C50.6048 25.6934 48.9787 26.39 47.7798 27.6299C46.5808 28.8698 45.9073 30.5514 45.9073 32.3049C45.9073 34.0584 46.5808 35.74 47.7798 36.9799C48.9787 38.2198 50.6048 38.9164 52.3003 38.9164H53.8986V47.7316H51.7676C50.6383 47.728 49.5563 47.2625 48.7577 46.4367C47.9592 45.6108 47.509 44.4919 47.5055 43.324C47.5055 43.0317 47.3933 42.7515 47.1935 42.5448C46.9936 42.3382 46.7226 42.2221 46.44 42.2221C46.1574 42.2221 45.8864 42.3382 45.6866 42.5448C45.4868 42.7515 45.3745 43.0317 45.3745 43.324C45.3745 45.0775 46.0481 46.7591 47.247 47.999C48.4459 49.2389 50.072 49.9355 51.7676 49.9355H53.8986V52.1393C53.8986 52.4315 54.0109 52.7118 54.2107 52.9184C54.4105 53.1251 54.6815 53.2412 54.9641 53.2412C55.2467 53.2412 55.5177 53.1251 55.7175 52.9184C55.9174 52.7118 56.0296 52.4315 56.0296 52.1393V49.9355H58.1606C59.8562 49.9355 61.4823 49.2389 62.6812 47.999C63.8802 46.7591 64.5537 45.0775 64.5537 43.324C64.5537 41.5705 63.8802 39.8889 62.6812 38.649C61.4823 37.4091 59.8562 36.7125 58.1606 36.7125ZM53.8986 36.7125H52.3003C51.17 36.7125 50.0859 36.2482 49.2866 35.4216C48.4873 34.595 48.0383 33.4739 48.0383 32.3049C48.0383 31.1359 48.4873 30.0148 49.2866 29.1882C50.0859 28.3616 51.17 27.8972 52.3003 27.8972H53.8986V36.7125ZM58.1606 47.7316H56.0296V38.9164H58.1606C59.291 38.9164 60.3751 39.3807 61.1744 40.2073C61.9737 41.0339 62.4227 42.155 62.4227 43.324C62.4227 44.493 61.9737 45.6141 61.1744 46.4407C60.3751 47.2673 59.291 47.7316 58.1606 47.7316Z" fill="white"/>
<circle cx="54.5472" cy="36.5643" r="22.9316" stroke="white" stroke-width="2.50163"/>
<line x1="20.7752" y1="17.8009" x2="39.9544" y2="17.8009" stroke="white" stroke-width="2.50163" stroke-linecap="round"/>
<line x1="8.26693" y1="44.4865" x2="27.4461" y2="44.4865" stroke="white" stroke-width="2.50163" stroke-linecap="round"/>
<line x1="20.7747" y1="55.3263" x2="39.9539" y2="55.3263" stroke="white" stroke-width="2.50163" stroke-linecap="round"/>
<line x1="19.1073" y1="26.9748" x2="27.446" y2="26.9748" stroke="white" stroke-width="2.50163" stroke-linecap="round"/>
<line x1="10.7684" y1="26.9748" x2="14.1039" y2="26.9748" stroke="white" stroke-width="2.50163" stroke-linecap="round"/>
<line x1="11.6024" y1="36.1466" x2="30.7816" y2="36.1466" stroke="white" stroke-width="2.50163" stroke-linecap="round"/>
</svg>
