<svg width="72" height="74" viewBox="0 0 72 74" fill="none" xmlns="http://www.w3.org/2000/svg">
<path d="M10.101 37.9493C14.5234 36.3103 18.5839 33.6929 21.9622 30.3034C23.6088 28.6595 25.5752 27.3778 27.7167 26.5528C29.8581 25.7278 32.1202 25.3803 34.3363 25.5361" stroke="white" stroke-width="2.50785" stroke-linecap="round" stroke-linejoin="round"/>
<path d="M33.1538 40.9043C27.3708 46.7023 20.2499 50.9749 12.4652 53.3175" stroke="white" stroke-width="2.50785" stroke-linecap="round" stroke-linejoin="round"/>
<path d="M26.9206 35.3158C28.4169 33.8194 30.4436 32.976 32.5547 32.971C34.6659 32.9661 36.6886 33.8 38.178 35.2893C39.6673 36.7786 40.5012 38.8013 40.4962 40.9125C40.4912 43.0237 39.6478 45.0504 38.1515 46.5467C32.3472 52.3741 25.3248 56.8429 17.5936 59.629" stroke="white" stroke-width="2.50785" stroke-linecap="round" stroke-linejoin="round"/>
<path d="M38.7182 66.5666C42.569 63.9594 46.1645 60.9917 49.4555 57.704C53.911 53.2485 56.4284 47.2196 56.4538 40.9438C56.4791 34.668 54.0104 28.6593 49.5906 24.2395C45.1709 19.8198 39.1622 17.351 32.8864 17.3764C26.6105 17.4017 20.5817 19.9191 16.1261 24.3747C14.2228 26.2879 12.0052 27.8595 9.57142 29.0199" stroke="white" stroke-width="2.50785" stroke-linecap="round" stroke-linejoin="round"/>
<path d="M20.7402 40.3129C17.2693 42.6558 13.4782 44.4516 9.5092 45.6329" stroke="white" stroke-width="2.50785" stroke-linecap="round" stroke-linejoin="round"/>
<path d="M42.5256 29.1692C43.0166 29.5501 43.4839 29.9599 43.9254 30.3966C46.7124 33.1836 48.2228 37.019 48.1243 41.059C48.0257 45.099 46.3263 49.0127 43.4 51.9391C41.5541 53.7819 39.602 55.5147 37.5546 57.1277" stroke="white" stroke-width="2.50785" stroke-linecap="round" stroke-linejoin="round"/>
<path d="M31.3802 61.5931C30.0106 62.6149 28.6178 63.6136 27.2424 64.5486" stroke="white" stroke-width="2.50785" stroke-linecap="round" stroke-linejoin="round"/>
</svg>
