<svg width="146" height="93" viewBox="0 0 146 93" fill="none" xmlns="http://www.w3.org/2000/svg">
<path d="M13.7542 -20.2278C28.0827 -21.5658 42.1176 -26.0736 54.7516 -33.3954C60.903 -36.9404 67.7108 -39.1649 74.674 -39.9054C81.6373 -40.6459 88.5787 -39.8835 94.9875 -37.6743M79.3646 6.68878C57.741 19.2105 33.379 26.1795 8.58456 26.9363M65.409 -14.7066C71.0009 -17.9351 77.6404 -18.8204 83.8667 -17.1678C90.093 -15.5151 95.3961 -11.4599 98.6095 -5.89421C101.823 -0.328501 102.683 6.29177 101.001 12.5102C99.3193 18.7287 95.2329 24.0359 89.6409 27.2645C67.9315 39.8562 43.7049 47.4814 18.7181 49.5871M75.5003 86.7195C88.9092 82.0765 101.85 76.1691 114.146 69.0782C130.797 59.4648 142.978 43.6837 148.009 25.2067C153.04 6.72962 150.509 -12.9298 140.973 -29.4469C131.437 -45.9639 115.676 -57.9855 97.1594 -62.8671C78.6423 -67.7486 58.8851 -65.0903 42.2342 -55.4768C35.1136 -51.3411 27.3361 -48.4603 19.2466 -46.9623M43.2443 -4.85716C31.164 -0.693011 18.5721 1.60579 5.94119 1.95302M116.256 -20.4994C117.402 -18.989 118.456 -17.4121 119.412 -15.7765C125.425 -5.36106 126.848 7.13602 123.367 18.9655C119.886 30.795 111.786 40.988 100.85 47.302C93.9545 51.2757 86.8324 54.8412 79.5242 57.9783M57.7992 66.2654C52.9555 68.1956 48.0619 70.0392 43.2697 71.7087" stroke="#32ACED" stroke-width="11.7033" stroke-linecap="round" stroke-linejoin="round"/>
</svg>
