<svg width="34" height="34" viewBox="0 0 34 34" fill="none" xmlns="http://www.w3.org/2000/svg">
<path d="M27.6755 13.2839C27.6755 7.74883 25.4615 5.53479 19.9264 5.53479H13.2843C7.74919 5.53479 5.53516 7.74883 5.53516 13.2839V19.926C5.53516 25.4611 7.74919 27.6751 13.2843 27.6751" stroke="#399944" stroke-width="2.07566" stroke-linecap="round" stroke-linejoin="round"/>
<path d="M22.6245 11.0697C21.8635 10.1011 20.5904 9.68597 18.6808 9.68597H14.5295C11.0701 9.68597 9.68628 11.0697 9.68628 14.5292V18.6805C9.68628 20.5901 10.1014 21.8632 11.0562 22.6242" stroke="#399944" stroke-width="2.07566" stroke-linecap="round" stroke-linejoin="round"/>
<path d="M11.0837 5.5346V2.76706" stroke="#399944" stroke-width="2.07566" stroke-linecap="round" stroke-linejoin="round"/>
<path d="M16.6052 5.5346V2.76706" stroke="#399944" stroke-width="2.07566" stroke-linecap="round" stroke-linejoin="round"/>
<path d="M22.1401 5.5346V2.76706" stroke="#399944" stroke-width="2.07566" stroke-linecap="round" stroke-linejoin="round"/>
<path d="M27.6753 11.0698H30.4428" stroke="#399944" stroke-width="2.07566" stroke-linecap="round" stroke-linejoin="round"/>
<path d="M11.0837 27.675V30.4425" stroke="#399944" stroke-width="2.07566" stroke-linecap="round" stroke-linejoin="round"/>
<path d="M2.76782 11.0698H5.53537" stroke="#399944" stroke-width="2.07566" stroke-linecap="round" stroke-linejoin="round"/>
<path d="M2.76782 16.6049H5.53537" stroke="#399944" stroke-width="2.07566" stroke-linecap="round" stroke-linejoin="round"/>
<path d="M2.76782 22.1399H5.53537" stroke="#399944" stroke-width="2.07566" stroke-linecap="round" stroke-linejoin="round"/>
<path d="M23.1228 25.7241C24.3379 25.7241 25.323 24.739 25.323 23.5239C25.323 22.3087 24.3379 21.3237 23.1228 21.3237C21.9077 21.3237 20.9226 22.3087 20.9226 23.5239C20.9226 24.739 21.9077 25.7241 23.1228 25.7241Z" stroke="#399944" stroke-width="2.07566" stroke-miterlimit="10" stroke-linecap="round" stroke-linejoin="round"/>
<path d="M15.7888 24.1599V22.873C15.7888 22.112 16.4115 21.4893 17.1726 21.4893C18.501 21.4893 19.0407 20.5483 18.3765 19.3998C17.989 18.7356 18.2243 17.8776 18.8885 17.504L20.1477 16.7706C20.7289 16.4247 21.4761 16.6322 21.8221 17.2134L21.9051 17.3518C22.5693 18.5003 23.6486 18.5003 24.3129 17.3518L24.3959 17.2134C24.7418 16.6322 25.4891 16.4385 26.0702 16.7706L27.3295 17.504C27.9937 17.8915 28.2289 18.7356 27.8415 19.3998C27.1773 20.5483 27.7169 21.4893 29.0454 21.4893C29.8064 21.4893 30.4291 22.112 30.4291 22.873V24.1599C30.4291 24.921 29.8064 25.5437 29.0454 25.5437C27.7169 25.5437 27.1773 26.4847 27.8415 27.6332C28.2289 28.2974 27.9937 29.1554 27.3295 29.529L26.0702 30.2624C25.4891 30.6083 24.7418 30.4007 24.3959 29.8196L24.3129 29.6812C23.6486 28.5327 22.5693 28.5327 21.9051 29.6812L21.8221 29.8196C21.4761 30.4007 20.7289 30.5945 20.1477 30.2624L18.8885 29.529C18.2243 29.1415 17.989 28.2974 18.3765 27.6332C19.0407 26.4847 18.501 25.5437 17.1726 25.5437C16.4115 25.5575 15.7888 24.9348 15.7888 24.1599Z" stroke="#399944" stroke-width="2.07566" stroke-miterlimit="10" stroke-linecap="round" stroke-linejoin="round"/>
</svg>
