<svg width="34" height="34" viewBox="0 0 34 34" fill="none" xmlns="http://www.w3.org/2000/svg">
<path d="M16.6055 30.4426C24.2479 30.4426 30.4433 24.2473 30.4433 16.6049C30.4433 8.96254 24.2479 2.76718 16.6055 2.76718C8.96318 2.76718 2.76782 8.96254 2.76782 16.6049C2.76782 24.2473 8.96318 30.4426 16.6055 30.4426Z" stroke="#399944" stroke-width="2.07566" stroke-linecap="round" stroke-linejoin="round"/>
<path d="M11.0702 4.15103H12.4539C9.75559 12.2323 9.75559 20.9777 12.4539 29.0589H11.0702" stroke="#399944" stroke-width="2.07566" stroke-linecap="round" stroke-linejoin="round"/>
<path d="M20.7568 4.15103C23.4552 12.2323 23.4552 20.9777 20.7568 29.0589" stroke="#399944" stroke-width="2.07566" stroke-linecap="round" stroke-linejoin="round"/>
<path d="M4.15112 22.14V20.7562C12.2324 23.4546 20.9778 23.4546 29.059 20.7562V22.14" stroke="#399944" stroke-width="2.07566" stroke-linecap="round" stroke-linejoin="round"/>
<path d="M4.15112 12.4534C12.2324 9.75507 20.9778 9.75507 29.059 12.4534" stroke="#399944" stroke-width="2.07566" stroke-linecap="round" stroke-linejoin="round"/>
</svg>
