<svg width="34" height="34" viewBox="0 0 34 34" fill="none" xmlns="http://www.w3.org/2000/svg">
<path d="M13.838 23.4542H8.5935C3.93019 23.4542 2.76782 22.2918 2.76782 17.6285V9.32589C2.76782 4.66258 3.93019 3.50021 8.5935 3.50021H23.1646C27.8279 3.50021 28.9903 4.66258 28.9903 9.32589" stroke="#399944" stroke-width="2.07566" stroke-linecap="round" stroke-linejoin="round"/>
<path d="M13.8379 29.7098V23.4552" stroke="#399944" stroke-width="2.07566" stroke-linecap="round" stroke-linejoin="round"/>
<path d="M2.76782 17.9201H13.838" stroke="#399944" stroke-width="2.07566" stroke-linecap="round" stroke-linejoin="round"/>
<path d="M9.32666 29.7101H13.8378" stroke="#399944" stroke-width="2.07566" stroke-linecap="round" stroke-linejoin="round"/>
<path d="M30.4427 17.7118V25.6132C30.4427 28.8927 29.6263 29.7091 26.3467 29.7091H21.4343C18.1548 29.7091 17.3384 28.8927 17.3384 25.6132V17.7118C17.3384 14.4323 18.1548 13.6159 21.4343 13.6159H26.3467C29.6263 13.6159 30.4427 14.4323 30.4427 17.7118Z" stroke="#399944" stroke-width="2.07566" stroke-linecap="round" stroke-linejoin="round"/>
<path d="M23.8625 25.2537H23.8749" stroke="#399944" stroke-width="2.76754" stroke-linecap="round" stroke-linejoin="round"/>
</svg>
