<svg width="34" height="34" viewBox="0 0 34 34" fill="none" xmlns="http://www.w3.org/2000/svg">
<path d="M24.9078 9.90797C24.8248 9.89413 24.7279 9.89413 24.6449 9.90797C22.7353 9.83878 21.2131 8.27511 21.2131 6.33783C21.2131 4.35904 22.8045 2.7677 24.7833 2.7677C26.7621 2.7677 28.3534 4.37288 28.3534 6.33783C28.3396 8.27511 26.8174 9.83878 24.9078 9.90797Z" stroke="#399944" stroke-width="2.07566" stroke-linecap="round" stroke-linejoin="round"/>
<path d="M23.4827 19.9815C25.3784 20.2998 27.4679 19.9677 28.9347 18.9852C30.8859 17.6844 30.8859 15.5534 28.9347 14.2527C27.4541 13.2702 25.3369 12.9381 23.4412 13.2702" stroke="#399944" stroke-width="2.07566" stroke-linecap="round" stroke-linejoin="round"/>
<path d="M8.26127 9.90809C8.34429 9.89425 8.44116 9.89425 8.52418 9.90809C10.4338 9.8389 11.9559 8.27524 11.9559 6.33796C11.9559 4.35916 10.3646 2.76782 8.38581 2.76782C6.40701 2.76782 4.81567 4.373 4.81567 6.33796C4.82951 8.27524 6.35166 9.8389 8.26127 9.90809Z" stroke="#399944" stroke-width="2.07566" stroke-linecap="round" stroke-linejoin="round"/>
<path d="M9.68639 19.9815C7.79063 20.2998 5.70113 19.9677 4.23433 18.9852C2.28322 17.6844 2.28322 15.5534 4.23433 14.2527C5.71497 13.2702 7.83214 12.9381 9.72791 13.2702" stroke="#399944" stroke-width="2.07566" stroke-linecap="round" stroke-linejoin="round"/>
<path d="M16.6051 20.2444C16.522 20.2306 16.4252 20.2306 16.3422 20.2444C14.4325 20.1752 12.9104 18.6115 12.9104 16.6743C12.9104 14.6955 14.5017 13.1041 16.4805 13.1041C18.4593 13.1041 20.0507 14.7093 20.0507 16.6743C20.0368 18.6115 18.5147 20.189 16.6051 20.2444Z" stroke="#399944" stroke-width="2.07566" stroke-linecap="round" stroke-linejoin="round"/>
<path d="M12.5786 24.6031C10.6275 25.9038 10.6275 28.0348 12.5786 29.3356C14.7926 30.8162 18.4181 30.8162 20.6321 29.3356C22.5832 28.0348 22.5832 25.9038 20.6321 24.6031C18.4319 23.1363 14.7926 23.1363 12.5786 24.6031Z" stroke="#399944" stroke-width="2.07566" stroke-linecap="round" stroke-linejoin="round"/>
</svg>
