<svg version="1.1" id="Layer_1" xmlns="http://www.w3.org/2000/svg" xmlns:xlink="http://www.w3.org/1999/xlink" x="0px" y="0px"
	 width="100%" viewBox="0 0 316 200" enable-background="new 0 0 316 200" xml:space="preserve">
<path fill="#000000" opacity="1.000000" stroke="none" 
	d="
M1.000000,30.000000 
	C1.000000,20.338024 1.000000,10.676049 1.000000,1.007037 
	C1.161895,1.000000 1.323789,1.000000 1.485684,1.000000 
	C106.601318,1.000000 211.716949,1.000000 316.916290,1.000000 
	C316.916290,67.578407 316.916290,134.156952 316.916290,200.867752 
	C211.666779,200.867752 106.333412,200.867752 1.000000,200.867752 
	C1.000000,187.591171 1.000000,174.264236 1.384484,160.484985 
	C3.178431,159.632172 4.587894,159.231689 6.393751,158.905579 
	C7.860964,158.930588 8.931784,158.881210 10.404597,158.905594 
	C12.561432,158.695053 14.316274,158.410767 16.521061,158.070343 
	C22.647810,157.621170 28.324614,157.228119 34.370632,156.910858 
	C35.855576,156.699585 36.971298,156.412552 38.494843,156.071320 
	C40.269787,155.956650 41.636909,155.896179 43.438808,155.909454 
	C46.614059,155.701569 49.354534,155.419937 52.411552,155.077103 
	C53.152813,154.955872 53.577538,154.895844 54.427750,154.908356 
	C57.263123,154.695587 59.673008,154.410294 62.490959,154.070267 
	C64.267128,153.954712 65.635239,153.893860 67.416641,153.905701 
	C70.211411,153.606247 72.592880,153.234100 75.410744,152.920975 
	C77.898041,152.934769 79.948944,152.889542 82.327065,152.919281 
	C83.428558,152.618332 84.202835,152.242432 85.232452,151.914154 
	C85.657204,151.926071 85.826637,151.890366 86.300156,151.876038 
	C87.021034,151.263702 87.437828,150.629990 87.916992,149.676300 
	C88.030518,148.925766 88.081673,148.495193 88.421570,147.938873 
	C88.752045,147.209549 88.793777,146.605957 88.914734,145.770935 
	C88.993965,145.539490 89.138138,145.071945 89.427750,144.945312 
	C89.757553,144.213013 89.797729,143.607361 89.916039,142.770233 
	C89.994164,142.538742 90.138092,142.071808 90.427292,141.945465 
	C90.754433,141.214157 90.792374,140.609177 90.967751,139.701157 
	C91.448997,138.622482 91.792793,137.846832 92.426208,136.944855 
	C92.756004,136.213104 92.796181,135.607727 92.915054,134.771179 
	C92.993736,134.540039 93.138855,134.073746 93.428574,133.947174 
	C93.756821,133.214722 93.795364,132.608841 93.913315,131.770599 
	C93.992729,131.538239 94.134857,131.068130 94.424118,130.942017 
	C94.754471,130.211243 94.795547,129.606598 94.914856,128.769379 
	C94.993088,128.536819 95.134773,128.066986 95.423607,127.941154 
	C95.752235,127.211433 95.792038,126.607536 95.911674,125.769455 
	C95.991516,125.535271 96.129585,125.060081 96.436874,124.910538 
	C96.873833,123.866646 97.003494,122.972313 97.076538,122.043442 
	C97.019905,122.008911 97.110435,122.105858 97.369934,122.007187 
	C98.137825,121.929657 98.646233,121.950798 99.091011,122.308235 
	C99.071266,123.096527 99.115150,123.548523 99.081322,124.415176 
	C99.712013,128.211929 100.420418,131.594025 101.081787,135.234543 
	C101.077995,135.662674 101.121254,135.832367 101.092346,136.357056 
	C101.398369,137.798065 101.776543,138.884079 102.091637,140.310577 
	C102.076218,141.108002 102.123886,141.564896 102.138016,142.285004 
	C102.390221,142.740021 102.675972,142.931839 102.978683,143.512360 
	C103.051132,144.934586 103.106613,145.968079 103.086624,147.329132 
	C103.390488,148.428711 103.769814,149.200775 104.097229,150.231903 
	C104.087311,150.662079 104.129318,150.833160 104.095642,151.396423 
	C104.390854,153.517654 104.761742,155.246674 105.085236,157.234573 
	C105.081291,157.663406 105.124756,157.833389 105.092094,158.417236 
	C105.722443,162.212540 106.428917,165.593933 107.080017,169.311844 
	C107.068710,170.098785 107.112785,170.549210 107.082016,171.327682 
	C107.386909,172.428436 107.766647,173.201157 108.092468,174.227936 
	C108.070824,174.652130 108.103096,174.822235 108.136978,175.332565 
	C109.768372,177.569290 111.038460,177.496170 111.932014,174.763489 
	C111.999390,174.534668 112.142868,174.079666 112.457672,173.921310 
	C112.795212,172.842331 112.817940,171.921707 112.920776,170.773712 
	C113.000877,170.546356 113.148933,170.087524 113.463760,169.927673 
	C113.797073,168.846222 113.815567,167.924652 113.913490,166.773880 
	C113.992920,166.544693 114.144096,166.083740 114.435532,165.956421 
	C114.763596,165.220001 114.800232,164.610916 114.910080,163.634613 
	C115.372208,161.875198 115.761116,160.483017 116.481590,158.910522 
	C116.819695,157.487869 116.826233,156.245514 116.914993,154.774078 
	C116.997200,154.544968 117.143967,154.080811 117.458313,153.921661 
	C117.793633,152.842499 117.814613,151.922501 117.914612,150.773499 
	C117.993629,150.544510 118.145073,150.084274 118.436852,149.956635 
	C118.767059,149.219330 118.805489,148.609634 118.914772,147.625183 
	C119.278488,145.828201 119.571342,144.406021 120.009651,142.681671 
	C120.380791,141.587601 120.606476,140.795715 120.903290,139.683701 
	C121.027397,138.930634 121.080353,138.497696 121.422134,137.939423 
	C121.751862,137.210480 121.792755,136.606857 121.914963,135.774963 
	C121.996262,135.546707 122.148689,135.086655 122.464050,134.927582 
	C122.798027,133.846527 122.816635,132.924576 122.911743,131.614334 
	C123.861542,128.343323 124.734848,125.460579 125.879227,121.683052 
	C127.337013,128.475723 128.733765,134.572266 129.936203,140.706909 
	C131.056656,146.423248 131.863098,152.202759 133.066193,157.899902 
	C133.305023,159.030838 134.715759,159.914291 135.586075,160.911880 
	C136.391113,160.074661 137.413239,159.354233 137.943344,158.369064 
	C138.534668,157.270126 138.714554,155.939163 139.011963,154.694489 
	C141.026718,146.262894 143.025223,137.827438 145.338196,128.091690 
	C147.128708,136.453125 148.463760,143.426529 150.174118,150.306625 
	C150.846756,153.012314 152.475159,154.874039 155.999283,153.601379 
	C176.127609,146.332626 196.311874,139.218903 216.452988,131.985291 
	C219.148285,131.017288 221.706924,129.668808 225.115097,128.144974 
	C222.964661,127.019432 221.864090,125.908394 220.995270,126.066971 
	C199.936142,129.910889 178.901749,133.890228 157.255188,137.959396 
	C156.227203,135.148270 155.066788,132.191071 154.061523,129.182037 
	C151.811951,122.448593 149.711472,115.663971 147.348557,108.971413 
	C147.039688,108.096603 145.474579,107.047348 144.617996,107.148750 
	C143.662827,107.261826 142.325974,108.454239 142.063095,109.423149 
	C140.150208,116.473419 138.466232,123.585793 136.559845,131.284500 
	C135.806137,130.145905 135.265106,129.661606 135.137146,129.085556 
	C133.064056,119.753944 131.107178,110.395760 128.929337,101.089142 
	C128.660416,99.939972 127.277206,99.051567 126.410339,98.042328 
	C125.605377,99.062057 124.345520,99.971748 124.067963,101.119080 
	C121.985718,109.726280 120.097244,118.380356 117.961899,127.366951 
	C116.901802,131.476334 116.027939,135.238541 115.095131,139.253952 
	C115.070442,139.677078 115.104691,139.847000 114.964859,140.351761 
	C114.480675,142.107254 114.170578,143.527908 113.901474,144.955704 
	C113.942474,144.962860 113.922165,144.882141 113.679047,144.976395 
	C113.346016,145.372391 113.256088,145.674133 113.104668,146.234650 
	C113.074440,146.667938 113.105705,146.842468 112.969635,147.339996 
	C112.587936,148.775101 112.373589,149.887192 112.080612,151.229065 
	C112.001968,151.458847 111.857880,151.922699 111.587234,152.027008 
	C110.831383,152.429321 110.346184,152.727341 109.917358,152.688202 
	C109.927322,151.899841 109.880905,151.448639 109.909531,150.670074 
	C109.606201,149.571075 109.227814,148.799423 108.910965,147.690414 
	C108.924973,146.900726 108.877441,146.448364 108.905998,145.609100 
	C108.610832,143.489456 108.239578,141.756744 107.912727,139.764740 
	C107.914085,139.335464 107.871056,139.165451 107.904900,138.640808 
	C107.607132,137.199387 107.232475,136.112579 106.915924,134.689087 
	C106.928978,133.901276 106.883949,133.450165 106.916977,132.582520 
	C106.285942,128.452118 105.576859,124.738258 104.912781,120.765533 
	C104.915703,120.336647 104.873619,120.166618 104.907455,119.626236 
	C104.605217,117.847069 104.227058,116.438248 103.911179,114.616081 
	C103.594757,111.467979 103.216064,108.733223 102.916046,105.643394 
	C102.618629,104.200096 102.242538,103.111877 101.912231,101.765137 
	C101.916016,101.336700 101.874008,101.166786 101.909111,100.572571 
	C101.573830,97.118896 101.161446,94.089539 100.680626,90.557457 
	C99.178276,91.093361 98.038826,91.499809 96.947510,91.952133 
	C96.995636,91.998009 96.912033,91.894737 96.584831,92.066986 
	C95.460899,94.807289 94.664162,97.375359 93.910629,99.961174 
	C93.953827,99.978928 93.914520,99.894188 93.594109,100.058701 
	C92.803978,101.793701 92.334259,103.364197 91.912193,104.960190 
	C91.959846,104.985703 91.902039,104.894356 91.588631,105.051720 
	C91.137749,106.126396 91.000275,107.043709 90.904274,107.966644 
	C90.945747,107.972260 90.915771,107.894104 90.593376,108.070877 
	C89.136482,111.479439 88.001984,114.711220 86.910645,117.960152 
	C86.953812,117.977295 86.915115,117.892853 86.622849,118.025169 
	C85.937767,119.105492 85.544968,120.053505 85.096451,121.255669 
	C85.076332,121.679596 85.111931,121.849365 84.977341,122.348526 
	C83.827644,125.432426 82.848137,128.186951 81.912292,130.961121 
	C81.955956,130.980774 81.913673,130.894852 81.596527,131.055222 
	C80.568748,133.144638 79.858116,135.073685 79.093170,137.256119 
	C79.077095,137.677963 79.115334,137.846420 79.071777,138.239227 
	C78.989998,138.463547 78.878334,138.927872 78.924759,138.957047 
	C78.971191,138.986221 78.912834,138.893372 78.606171,139.041626 
	C77.153770,140.443268 76.008034,141.696671 74.637253,142.973145 
	C74.412209,142.996231 73.982323,143.137299 73.592712,143.063477 
	C71.768669,143.304504 70.334229,143.619370 68.937897,143.943604 
	C68.976006,143.952988 68.974152,143.874512 68.562424,143.921844 
	C66.387352,144.295609 64.624008,144.622055 62.474560,144.971466 
	C60.385292,145.381516 58.682137,145.768570 56.604790,146.077469 
	C55.474560,146.053391 54.718533,146.107468 53.626614,146.020142 
	C51.067921,145.169113 48.804989,143.770844 46.630920,143.897522 
	C42.488834,144.138855 38.411423,145.341034 34.281639,145.979111 
	C28.741003,146.835205 25.897488,143.486664 24.008427,138.683472 
	C26.412313,135.854523 28.681240,133.343979 31.273045,130.966263 
	C34.893841,134.080521 37.609669,138.102478 43.767841,136.800247 
	C41.128231,133.505371 38.488617,130.210495 35.914982,126.570831 
	C35.633038,125.677567 35.285114,125.129082 34.969566,124.543167 
	C35.001942,124.505737 34.927353,124.440674 35.249054,124.204483 
	C38.391838,116.013695 41.212917,108.059097 44.338264,99.990051 
	C44.713009,99.260139 44.783489,98.644661 44.933746,97.630127 
	C44.958801,96.151001 44.904083,95.070946 44.920967,93.625610 
	C45.030453,92.518272 45.068344,91.776207 45.462784,90.848663 
	C45.165607,87.104607 44.511883,83.546013 43.934162,79.665054 
	C43.691536,78.845016 43.372910,78.347359 43.036667,77.628525 
	C43.019051,77.407356 42.870388,76.989273 42.941238,76.666084 
	C42.692474,75.845985 42.372864,75.349068 42.035736,74.631088 
	C42.018219,74.410019 41.871479,73.991463 41.916222,73.721802 
	C41.667267,73.255432 41.373566,73.058739 41.071873,72.903824 
	C41.063881,72.945602 41.147186,72.928360 41.090542,72.611076 
	C40.971184,71.870949 40.908470,71.448112 40.922653,70.781876 
	C41.038086,70.372726 41.076614,70.206970 41.425537,69.907333 
	C41.493668,68.555946 41.251411,67.338455 41.378044,66.062119 
	C44.850811,64.615677 47.954681,63.228069 51.466858,61.893501 
	C54.004574,61.401459 56.178844,60.265747 58.254890,60.423405 
	C64.194458,60.874474 70.673805,55.659882 75.259537,61.353439 
	C79.244194,60.411400 82.569199,59.625313 86.313690,58.907593 
	C88.147842,59.308823 89.578407,59.971859 90.973816,59.904682 
	C93.738136,59.771603 96.759041,62.093826 99.225021,58.446789 
	C102.318855,53.871189 106.003220,49.694874 110.184578,44.392883 
	C101.320435,42.552052 92.751831,40.772594 83.956894,38.602501 
	C75.448837,38.522827 67.167099,38.833782 58.522320,39.063400 
	C55.728523,39.972824 53.297768,40.963585 50.643909,41.971771 
	C50.420807,41.989197 49.992088,42.117710 49.645332,42.044285 
	C48.498924,42.280308 47.699265,42.589760 46.948627,42.931717 
	C46.997646,42.964230 46.930149,42.867878 46.548386,42.904469 
	C41.097237,45.579514 36.027851,48.217968 30.639168,50.907230 
	C29.833939,51.289665 29.348003,51.621292 28.640396,52.018703 
	C28.135063,52.262547 27.980801,52.518570 27.634848,52.900589 
	C26.818388,53.274220 26.323019,53.599819 25.595406,54.001694 
	C25.067892,54.280296 24.922815,54.560432 24.563839,54.963097 
	C20.174778,52.991520 16.149809,50.975220 12.041113,48.694855 
	C11.654712,48.233635 11.352036,48.036480 11.034170,47.619808 
	C11.018978,47.400291 10.862387,46.989006 10.928881,46.606987 
	C13.541062,41.212029 16.086750,36.199089 18.587448,31.274750 
	C12.756538,30.852121 6.878269,30.426062 1.000000,30.000000 
M207.963440,185.041962 
	C207.963440,185.041962 207.880890,185.065872 208.068970,185.554382 
	C208.371384,185.648361 208.673813,185.742340 209.842926,185.980026 
	C213.100662,186.669006 216.338196,187.801697 219.620483,187.951050 
	C225.734955,188.229279 231.875458,187.935242 238.672684,188.016754 
	C239.449295,187.622818 240.225906,187.228882 241.793976,186.981125 
	C242.864075,186.945099 243.934189,186.909088 245.786423,187.009552 
	C254.105118,183.615021 262.998444,181.178894 270.614410,176.612335 
	C283.627777,168.809494 293.712158,157.893433 301.424744,144.481339 
	C308.839600,131.587006 312.378174,117.773575 312.781372,103.382133 
	C313.089508,92.381973 310.312927,81.383896 303.965607,71.992889 
	C296.152100,60.432648 285.507599,53.036781 270.751282,51.227024 
	C267.688599,50.824299 264.596680,49.938545 261.569458,50.121807 
	C255.699326,50.477173 249.865555,51.433693 243.291916,52.229969 
	C241.528320,52.863556 239.764725,53.497139 237.304001,53.981636 
	C236.499832,54.292961 235.695663,54.604286 234.968903,54.941933 
	C234.968903,54.941933 234.966141,54.860199 234.266083,54.949528 
	C233.474274,55.271782 232.682465,55.594032 231.968033,55.941677 
	C231.968033,55.941677 231.966873,55.860260 231.268143,55.955414 
	C230.475800,56.277744 229.683456,56.600079 228.968689,56.943127 
	C228.968689,56.943127 228.969299,56.862839 228.270584,56.956070 
	C227.477753,57.274780 226.684921,57.593491 225.973633,57.946835 
	C225.973633,57.946835 225.950409,57.861336 225.260925,57.944653 
	C224.480316,58.255833 223.699722,58.567009 222.385880,59.104919 
	C221.927963,59.443153 221.470062,59.781384 220.317719,59.975891 
	C219.517258,60.276661 218.716782,60.577427 217.279419,61.190655 
	C214.840866,62.413177 212.402298,63.635700 209.342377,64.973030 
	C208.857422,65.289505 208.372467,65.605980 207.967819,65.946304 
	C207.967819,65.946304 207.950928,65.864258 207.232178,65.927658 
	C206.118332,66.594727 205.004501,67.261803 203.978760,67.976997 
	C203.978760,67.976997 203.927948,67.890419 203.275650,68.211235 
	C201.503555,69.065994 199.731461,69.920761 197.854065,70.826309 
	C199.853989,74.570587 202.202332,74.932152 205.548340,72.000603 
	C205.548340,72.000603 206.003021,71.840149 206.614487,71.977379 
	C207.099030,71.690514 207.583557,71.403648 208.793106,71.010117 
	C210.529510,70.286942 212.265900,69.563766 214.621765,68.985062 
	C215.111313,68.696541 215.600876,68.408012 216.552536,67.998581 
	C216.552536,67.998581 217.002747,67.839020 217.697006,67.988121 
	C218.500992,67.699425 219.304993,67.410728 220.562790,66.999214 
	C220.562790,66.999214 221.004135,66.837158 221.620148,66.978783 
	C222.106323,66.691925 222.592499,66.405067 223.849686,66.017769 
	C226.235611,65.289780 228.621536,64.561790 231.749207,63.982246 
	C232.869354,63.695217 233.989487,63.408188 235.738647,63.016815 
	C236.158218,62.959656 236.577789,62.902496 237.691055,62.995213 
	C238.493713,62.703922 239.296356,62.412636 240.561829,61.994637 
	C240.561829,61.994637 241.012039,61.828621 241.784409,61.973343 
	C243.212997,61.687321 244.641602,61.401295 246.991272,61.014839 
	C253.239105,61.350807 259.578217,61.138180 265.712158,62.158665 
	C273.763062,63.498058 281.896667,65.934662 287.018036,72.762672 
	C293.945282,81.998352 297.098877,92.603111 295.007263,104.314865 
	C294.384094,107.804207 293.579742,111.261459 292.970673,114.752991 
	C290.921021,126.502060 284.800018,136.242828 277.283905,145.046387 
	C268.724915,155.071442 258.216156,162.398376 244.460587,165.086456 
	C244.268127,165.370956 244.075668,165.655457 243.962570,165.952316 
	C243.962570,165.952316 243.949844,165.873032 243.307419,165.968826 
	C242.878860,166.018753 242.450287,166.068665 241.347702,165.975357 
	C240.894485,166.028824 240.441254,166.082291 239.456009,166.100800 
	C239.262955,166.387863 239.069901,166.674911 238.238602,166.992859 
	C237.817810,167.046066 237.397003,167.099274 236.055817,167.005844 
	C226.752136,165.986679 217.448456,164.967529 207.892029,163.338593 
	C207.267868,163.272919 206.643707,163.207245 205.329605,162.831100 
	C202.215683,161.603622 199.101761,160.376144 195.257065,158.996445 
	C193.153732,157.814804 191.126846,156.457611 188.926208,155.499481 
	C186.591202,154.482849 183.671021,152.607208 181.738510,153.263275 
	C174.630035,155.676453 167.825256,158.984131 159.625122,162.505371 
	C166.547028,166.654968 172.196457,170.343536 178.123703,173.512527 
	C184.394165,176.865005 190.887527,179.815247 197.376648,182.734161 
	C199.072571,183.497009 201.114517,183.490585 203.698502,183.998291 
	C204.801163,184.286087 205.903839,184.573868 207.461533,185.026657 
	C207.461533,185.026657 207.935791,185.123352 207.963440,185.041962 
M143.469650,24.987196 
	C143.469650,24.987196 143.016800,25.148098 142.516525,25.066927 
	C142.331146,25.332392 142.145752,25.597857 141.242996,25.978720 
	C138.145554,27.936613 135.048096,29.894505 131.315948,31.953852 
	C130.830414,32.285168 130.344879,32.616482 129.406586,33.075031 
	C129.116180,33.256802 128.963608,33.518829 128.469009,34.040657 
	C128.294556,34.321281 128.120117,34.601906 127.476044,35.048817 
	C127.162766,35.230621 126.990364,35.501942 126.322395,35.963909 
	C125.833847,36.291454 125.345306,36.618996 124.252701,37.202660 
	C122.154449,39.424618 120.056198,41.646576 117.443825,44.057137 
	C117.247421,44.355602 117.051018,44.654068 116.274483,45.185368 
	C115.159950,46.404858 114.045418,47.624348 112.318993,49.114769 
	C111.839577,50.062714 111.360168,51.010658 110.316650,52.166351 
	C109.527206,53.051826 108.737762,53.937298 107.382103,55.069908 
	C106.966873,55.721546 106.551636,56.373180 105.989265,57.473984 
	C105.989265,57.473984 105.867126,57.930588 105.414032,58.054790 
	C105.121956,58.231163 104.963348,58.489479 104.368225,59.067032 
	C103.954651,59.718811 103.541077,60.370586 102.995026,61.426315 
	C102.995026,61.426315 102.950729,61.849117 102.315475,62.133144 
	C101.262955,64.089493 100.210434,66.045845 99.014534,68.429672 
	C99.014534,68.429672 98.958672,68.877075 98.299309,69.161140 
	C96.039207,73.567574 93.779099,77.973999 91.518990,82.380424 
	C92.090157,82.807076 92.661324,83.233719 93.232491,83.660370 
	C94.866386,82.121452 96.500290,80.582542 98.717499,78.817307 
	C99.826813,77.594704 100.936127,76.372101 102.553253,74.946487 
	C102.741684,74.644798 102.930107,74.343109 103.038979,74.030243 
	C103.038979,74.030243 103.063431,74.106781 103.624702,73.880775 
	C104.135735,73.271278 104.646774,72.661781 105.718140,71.836792 
	C106.495880,70.943092 107.273621,70.049393 108.609657,68.915504 
	C109.020691,68.276413 109.431725,67.637329 109.991920,66.527756 
	C109.991920,66.527756 110.107025,66.047798 110.651863,65.858002 
	C111.105965,65.520584 111.560066,65.183174 112.548775,64.915718 
	C112.748863,64.628403 112.948944,64.341080 113.598511,63.926983 
	C113.886017,63.746262 114.038490,63.486336 114.561119,62.947590 
	C114.746765,62.647137 114.932411,62.346680 115.036652,62.033226 
	C115.036652,62.033226 115.067528,62.109673 115.742142,62.026932 
	C116.883636,61.048862 118.025124,60.070789 119.690506,58.885185 
	C120.152008,58.308823 120.613510,57.732460 121.577568,56.952934 
	C121.770844,56.656300 121.964119,56.359669 122.715218,55.839058 
	C123.491463,54.939957 124.267715,54.040859 125.685547,53.047287 
	C126.176704,52.722023 126.667854,52.396763 127.685608,51.870556 
	C128.122437,51.531597 128.559265,51.192638 129.603195,50.872581 
	C130.116211,50.266056 130.629211,49.659531 131.592316,48.916336 
	C131.881500,48.732449 132.032150,48.469265 132.706055,48.020996 
	C133.520081,47.366840 134.334106,46.712688 135.579636,46.003952 
	C135.579636,46.003952 135.992355,45.866753 136.603836,45.898685 
	C137.112808,45.281269 137.621765,44.663849 138.766083,43.753448 
	C141.535980,42.212406 144.305878,40.671368 147.541672,38.999035 
	C147.541672,38.999035 147.999725,38.842522 148.631592,38.845917 
	C149.442993,38.273220 150.254395,37.700523 151.535553,36.999546 
	C151.535553,36.999546 151.998062,36.847206 152.715134,36.997440 
	C154.175690,36.378052 155.636230,35.758667 157.550354,35.000389 
	C157.550354,35.000389 157.998703,34.845455 158.616089,34.993614 
	C159.105057,34.706982 159.594025,34.420349 160.721375,34.017242 
	C161.148209,33.957695 161.575027,33.898144 162.695435,33.990688 
	C163.499283,33.707317 164.303116,33.423946 165.735825,33.017063 
	C166.157532,32.958538 166.579224,32.900017 167.919342,32.995296 
	C172.279037,32.944218 176.638748,32.893143 181.799362,32.980534 
	C196.364944,36.051651 208.760696,42.949524 218.570312,54.193600 
	C225.202545,51.732964 231.546799,49.379177 238.933350,46.638680 
	C232.362228,41.093937 226.955521,35.874523 220.899246,31.568768 
	C210.709671,24.324427 199.356308,19.440544 186.060852,16.979982 
	C179.713669,17.028807 173.366486,17.077631 166.461761,17.093420 
	C165.998657,17.351725 165.535568,17.610029 164.860535,17.358425 
	C164.248291,17.621954 163.636047,17.885481 162.382187,18.156940 
	C161.618637,18.390558 160.855103,18.624174 159.823212,18.315794 
	C158.847885,18.854630 157.872559,19.393467 156.973648,19.952169 
	C156.973648,19.952169 156.971649,19.873228 156.222687,19.960569 
	C155.112717,20.280386 154.002762,20.600203 152.979324,20.965797 
	C152.979324,20.965797 152.935699,20.878160 152.465759,20.977831 
	C152.465759,20.977831 152.013885,21.140907 151.325928,21.198256 
	C149.548157,22.173479 147.770370,23.148705 145.365555,23.989983 
	C144.875137,24.301229 144.384720,24.612474 143.978607,24.967890 
	C143.978607,24.967890 143.938492,24.881584 143.469650,24.987196 
z"/>
<path fill="#000000" opacity="1.000000" stroke="none" 
	d="
M1.000001,120.000000 
	C1.000000,113.645599 1.000000,107.291206 1.399965,100.468605 
	C4.835708,100.355476 7.871485,100.710548 10.953134,101.448845 
	C13.824590,111.813164 19.680622,119.882782 26.961811,127.427719 
	C22.221252,134.648102 15.853837,139.159088 7.559441,141.296524 
	C6.813215,138.939178 6.306190,136.933777 5.494419,135.060394 
	C5.294543,134.599136 4.101840,134.568115 3.189268,134.581696 
	C3.328445,135.256027 3.643914,135.687958 3.976763,136.516113 
	C4.273313,138.434570 4.552482,139.956802 4.940460,142.072327 
	C3.686467,142.367554 2.343234,142.683777 1.000001,143.000000 
	C1.000000,139.307098 1.000000,135.614182 1.360473,131.163177 
	C2.458788,131.515839 3.196629,132.626617 3.934470,133.737411 
	C4.380078,133.573898 4.825686,133.410385 5.271293,133.246857 
	C3.847529,128.831238 2.423765,124.415619 1.000001,120.000000 
z"/>
<path fill="#EDEEF7" opacity="1.000000" stroke="none" 
	d="
M1.000000,59.000000 
	C1.000000,57.611111 1.000000,56.222221 1.424582,54.422401 
	C8.572112,53.756851 13.759199,57.351238 19.021969,61.149872 
	C19.073061,61.652214 19.087000,61.853760 18.807787,62.231148 
	C16.808388,65.102371 14.710628,67.632568 13.487471,70.531754 
	C11.643753,74.901840 10.411087,79.529716 8.584215,84.130569 
	C5.833162,86.475410 3.416580,88.737701 0.999999,91.000000 
	C1.000000,82.312439 1.000000,73.624870 1.352944,64.467155 
	C6.934869,65.643639 5.597616,59.319077 9.159318,58.543945 
	C7.230067,57.618832 5.830305,56.947617 4.475754,56.298080 
	C3.287543,57.221752 2.143771,58.110874 1.000000,59.000000 
z"/>
<path fill="#000000" opacity="1.000000" stroke="none" 
	d="
M1.000000,156.000000 
	C1.000000,153.299377 1.000000,150.598740 1.443331,147.446182 
	C8.995910,147.513718 15.005726,144.448013 21.076721,141.474091 
	C22.625280,142.854218 24.681778,143.614334 25.333214,145.023834 
	C27.043024,148.723267 29.324799,148.038757 32.519444,147.397217 
	C35.483624,146.801971 38.743240,147.677902 41.638969,147.998520 
	C41.239887,148.374191 41.074604,148.657364 40.948013,148.942657 
	C40.986702,148.944763 40.976204,148.867981 40.582638,148.916351 
	C38.758030,149.287674 37.326992,149.610657 35.935757,149.947220 
	C35.975559,149.960800 35.949921,149.880692 35.539787,149.926865 
	C33.759518,150.026260 32.389381,150.079468 30.720943,150.128326 
	C29.943403,150.463852 29.464163,150.803741 28.618153,151.070312 
	C27.508875,151.047165 26.766367,151.097321 25.706554,151.147614 
	C21.583162,152.151779 17.777073,153.155792 13.614099,154.078766 
	C9.171474,154.665161 5.085737,155.332581 1.000000,156.000000 
z"/>
<path fill="#E9EAF4" opacity="1.000000" stroke="none" 
	d="
M20.944309,141.150024 
	C15.005726,144.448013 8.995910,147.513718 1.443331,146.997131 
	C1.000000,145.933334 1.000000,144.866653 1.000001,143.399994 
	C2.343234,142.683777 3.686467,142.367554 4.940460,142.072327 
	C4.552482,139.956802 4.273313,138.434570 3.889266,136.050629 
	C3.644779,134.905701 3.505169,134.622498 3.365560,134.339294 
	C4.101840,134.568115 5.294543,134.599136 5.494419,135.060394 
	C6.306190,136.933777 6.813215,138.939178 7.559441,141.296524 
	C15.853837,139.159088 22.221252,134.648102 27.268431,127.491257 
	C28.674223,128.414490 29.812195,129.623962 30.950165,130.833420 
	C28.681240,133.343979 26.412313,135.854523 23.686497,138.719803 
	C22.467842,139.766357 21.706076,140.458191 20.944309,141.150024 
z"/>
<path fill="#000000" opacity="1.000000" stroke="none" 
	d="
M1.000000,46.000000 
	C1.000000,41.643101 1.000000,37.286201 1.465575,32.466846 
	C6.456972,32.004391 10.982796,32.004391 15.401752,32.004391 
	C13.141602,36.833218 11.008245,41.391144 8.548143,46.085827 
	C5.814264,46.148388 3.407132,46.074196 1.000000,46.000000 
z"/>
<path fill="#E8EAF5" opacity="1.000000" stroke="none" 
	d="
M1.000000,46.375000 
	C3.407132,46.074196 5.814264,46.148388 8.810444,46.186996 
	C9.887122,46.430607 10.374755,46.709808 10.862387,46.989006 
	C10.862387,46.989006 11.018978,47.400291 11.140871,47.868301 
	C11.550122,48.543850 11.837480,48.751385 12.124838,48.958920 
	C16.149809,50.975220 20.174778,52.991520 24.481659,55.276066 
	C23.482191,56.670513 22.200815,57.796715 20.955883,58.540192 
	C14.328218,55.104977 7.664108,52.052490 0.999999,49.000000 
	C1.000000,48.250000 1.000000,47.500000 1.000000,46.375000 
z"/>
<path fill="#000000" opacity="1.000000" stroke="none" 
	d="
M0.999999,49.416668 
	C7.664108,52.052490 14.328218,55.104977 20.678711,58.623909 
	C19.905001,59.676590 19.444908,60.262829 18.984814,60.849072 
	C13.759199,57.351238 8.572112,53.756851 1.424582,54.005737 
	C1.000000,52.611111 1.000000,51.222221 0.999999,49.416668 
z"/>
<path fill="#F1F2F8" opacity="1.000000" stroke="none" 
	d="
M10.928881,46.606987 
	C10.374755,46.709808 9.887122,46.430607 9.137190,46.050240 
	C11.008245,41.391144 13.141602,36.833218 15.401752,32.004391 
	C10.982796,32.004391 6.456972,32.004391 1.465575,32.002197 
	C1.000000,31.555555 1.000000,31.111111 1.000000,30.333334 
	C6.878269,30.426062 12.756538,30.852121 18.587448,31.274750 
	C16.086750,36.199089 13.541062,41.212029 10.928881,46.606987 
z"/>
<path fill="#000000" opacity="1.000000" stroke="none" 
	d="
M0.999999,91.399994 
	C3.416580,88.737701 5.833162,86.475410 8.613756,84.572189 
	C8.568517,88.406502 10.616715,92.623268 5.582591,94.907677 
	C3.782147,94.992546 2.391073,94.996269 1.000000,95.000000 
	C1.000000,93.933327 1.000000,92.866661 0.999999,91.399994 
z"/>
<path fill="#000000" opacity="1.000000" stroke="none" 
	d="
M1.000000,59.416664 
	C2.143771,58.110874 3.287543,57.221752 4.475754,56.298080 
	C5.830305,56.947617 7.230067,57.618832 9.159318,58.543945 
	C5.597616,59.319077 6.934869,65.643639 1.352944,63.998497 
	C1.000000,62.611111 1.000000,61.222221 1.000000,59.416664 
z"/>
<path fill="#E2E6F3" opacity="1.000000" stroke="none" 
	d="
M10.907262,101.065628 
	C7.871485,100.710548 4.835708,100.355476 1.399965,100.000198 
	C1.000000,99.250000 1.000000,98.500000 1.358612,97.368561 
	C2.434205,96.977386 3.151185,96.967659 4.258381,96.936829 
	C6.437017,96.611992 8.225439,96.308235 10.172110,96.341118 
	C10.522659,98.140381 10.714961,99.603004 10.907262,101.065628 
z"/>
<path fill="#65BFE9" opacity="1.000000" stroke="none" 
	d="
M1.000000,156.399994 
	C5.085737,155.332581 9.171474,154.665161 13.345129,154.321381 
	C11.067032,156.240326 6.570898,154.052032 5.997357,158.831207 
	C4.587894,159.231689 3.178431,159.632172 1.384484,160.016327 
	C1.000000,158.933334 1.000000,157.866653 1.000000,156.399994 
z"/>
<path fill="#EEEFF7" opacity="1.000000" stroke="none" 
	d="
M1.000001,120.458069 
	C2.423765,124.415619 3.847529,128.831238 5.271293,133.246857 
	C4.825686,133.410385 4.380078,133.573898 3.934470,133.737411 
	C3.196629,132.626617 2.458788,131.515839 1.360473,130.702530 
	C1.000000,127.638710 1.000000,124.277428 1.000001,120.458069 
z"/>
<path fill="#F5F6FB" opacity="1.000000" stroke="none" 
	d="
M10.013861,96.004478 
	C8.225439,96.308235 6.437017,96.611992 4.206045,96.591827 
	C2.842330,96.178612 1.921165,96.089302 1.000000,96.000000 
	C1.000000,96.000000 1.000000,95.500000 1.000000,95.250000 
	C2.391073,94.996269 3.782147,94.992546 5.952454,94.955009 
	C7.825745,95.282288 8.919803,95.643387 10.013861,96.004478 
z"/>
<path fill="#000000" opacity="1.000000" stroke="none" 
	d="
M1.000000,96.250000 
	C1.921165,96.089302 2.842330,96.178612 3.815831,96.612915 
	C3.151185,96.967659 2.434205,96.977386 1.358612,96.993561 
	C1.000000,97.000000 1.000000,96.500000 1.000000,96.250000 
z"/>
<path fill="#52B5E7" opacity="1.000000" stroke="none" 
	d="
M271.153748,51.954090 
	C285.507599,53.036781 296.152100,60.432648 303.965607,71.992889 
	C310.312927,81.383896 313.089508,92.381973 312.781372,103.382133 
	C312.378174,117.773575 308.839600,131.587006 301.424744,144.481339 
	C293.712158,157.893433 283.627777,168.809494 270.614410,176.612335 
	C262.998444,181.178894 254.105118,183.615021 245.325500,186.611099 
	C243.577209,186.420074 242.289856,186.627502 241.002502,186.834930 
	C240.225906,187.228882 239.449295,187.622818 238.234863,187.566956 
	C237.113892,186.750076 236.457535,186.129669 235.743515,186.054108 
	C225.965149,185.019409 225.963272,185.037918 225.999817,175.277130 
	C226.001678,174.780716 226.026672,174.282700 225.996597,173.788116 
	C225.748184,169.703140 227.272751,167.540482 231.752579,167.933258 
	C233.457855,168.082779 235.232941,167.436218 236.976212,167.152481 
	C237.397003,167.099274 237.817810,167.046066 238.784515,166.901733 
	C239.626160,166.660233 239.845367,166.435287 239.988037,166.135742 
	C240.441254,166.082291 240.894485,166.028824 241.849655,166.252289 
	C242.884354,166.310471 243.417099,166.091751 243.949844,165.873032 
	C243.949844,165.873032 243.962570,165.952316 244.150269,165.877060 
	C244.633972,165.655090 244.850967,165.431641 244.988937,165.131470 
	C258.216156,162.398376 268.724915,155.071442 277.283905,145.046387 
	C284.800018,136.242828 290.921021,126.502060 292.970673,114.752991 
	C293.579742,111.261459 294.384094,107.804207 295.007263,104.314865 
	C297.098877,92.603111 293.945282,81.998352 287.018036,72.762672 
	C281.896667,65.934662 273.763062,63.498058 265.712158,62.158665 
	C259.578217,61.138180 253.239105,61.350807 246.303741,60.782982 
	C244.081482,60.976955 242.546768,61.402786 241.012039,61.828621 
	C241.012039,61.828621 240.561829,61.994637 240.140533,61.792839 
	C238.811935,62.009136 237.904648,62.427235 236.997360,62.845337 
	C236.577789,62.902496 236.158218,62.959656 235.211853,62.792450 
	C233.459183,62.989994 232.233322,63.411896 231.007462,63.833801 
	C228.621536,64.561790 226.235611,65.289780 223.305969,65.831230 
	C222.176208,66.042183 221.590179,66.439674 221.004135,66.837158 
	C221.004135,66.837158 220.562790,66.999214 220.145721,66.795647 
	C218.820038,67.007729 217.911392,67.423378 217.002747,67.839020 
	C217.002747,67.839020 216.552536,67.998581 216.161774,67.821335 
	C215.181427,68.042923 214.591858,68.441757 214.002304,68.840591 
	C212.265900,69.563766 210.529510,70.286942 208.274918,70.825073 
	C207.172165,71.040062 206.587585,71.440109 206.003021,71.840149 
	C206.003021,71.840149 205.548340,72.000603 205.165390,71.722023 
	C204.497620,70.259102 204.212784,69.074760 203.927948,67.890419 
	C203.927948,67.890419 203.978760,67.976997 204.298004,67.979065 
	C205.728485,67.275505 206.839706,66.569885 207.950928,65.864258 
	C207.950928,65.864258 207.967819,65.946304 208.246399,65.931290 
	C209.004578,65.563591 209.484161,65.210907 209.963745,64.858223 
	C212.402298,63.635700 214.840866,62.413177 217.757492,61.243240 
	C219.161102,60.903759 220.086624,60.511692 221.012146,60.119621 
	C221.470062,59.781384 221.927963,59.443153 222.824585,59.202988 
	C224.158997,58.821156 225.054703,58.341248 225.950409,57.861340 
	C225.950409,57.861336 225.973633,57.946835 226.287537,57.957497 
	C227.390732,57.599720 228.180023,57.231281 228.969299,56.862839 
	C228.969299,56.862839 228.968689,56.943127 229.285095,56.956326 
	C230.389969,56.599773 231.178421,56.230019 231.966873,55.860260 
	C231.966873,55.860260 231.968033,55.941677 232.284637,55.956581 
	C233.389542,55.601055 234.177841,55.230629 234.966141,54.860203 
	C234.966141,54.860199 234.968903,54.941933 235.270050,54.957211 
	C236.381165,54.691898 237.191147,54.411304 238.001129,54.130718 
	C239.764725,53.497139 241.528320,52.863556 243.946518,52.446022 
	C253.451996,52.426083 262.302887,52.190086 271.153748,51.954090 
z"/>
<path fill="#59B9E8" opacity="1.000000" stroke="none" 
	d="
M94.134857,131.068130 
	C94.134857,131.068130 93.992729,131.538239 93.627647,131.815887 
	C93.221329,132.753616 93.180092,133.413681 93.138855,134.073746 
	C93.138855,134.073746 92.993736,134.540039 92.629318,134.816223 
	C92.222137,135.751999 92.179367,136.411591 92.136597,137.071198 
	C91.792793,137.846832 91.448997,138.622482 90.682640,139.746506 
	C90.219421,140.753860 90.178757,141.412842 90.138092,142.071808 
	C90.138092,142.071808 89.994164,142.538742 89.630035,142.815277 
	C89.223312,143.751862 89.180725,144.411911 89.138138,145.071945 
	C89.138138,145.071945 88.993965,145.539490 88.629578,145.815765 
	C88.221069,146.749557 88.176941,147.407089 88.132828,148.064621 
	C88.081673,148.495193 88.030518,148.925766 87.622345,149.719849 
	C86.842247,150.673798 86.419159,151.264221 85.996078,151.854645 
	C85.826637,151.890366 85.657204,151.926071 85.024391,151.687073 
	C83.707283,151.889679 82.853569,152.367004 81.999847,152.844330 
	C79.948944,152.889542 77.898041,152.934769 75.121201,152.667236 
	C71.931297,152.847321 69.467316,153.340164 67.003342,153.833008 
	C65.635239,153.893860 64.267128,153.954712 62.220253,153.764160 
	C59.028061,153.342255 56.514641,153.171738 53.706367,153.022675 
	C52.940342,153.353806 52.469166,153.663467 51.557648,153.974258 
	C48.412876,154.595490 45.708454,155.215591 43.004032,155.835709 
	C41.636909,155.896179 40.269787,155.956650 38.288177,155.792023 
	C36.784393,155.373993 35.895096,155.181030 35.004097,154.590805 
	C35.004326,153.134140 35.006264,152.074753 35.227730,150.884644 
	C35.614815,150.462845 35.782368,150.171768 35.949921,149.880692 
	C35.949921,149.880692 35.975559,149.960800 36.335129,149.970032 
	C38.121864,149.608841 39.549034,149.238419 40.976204,148.867981 
	C40.976204,148.867981 40.986702,148.944763 41.228016,148.966644 
	C41.656036,148.988190 41.842739,148.987823 42.392509,148.895691 
	C44.473549,148.522583 46.191513,148.241257 48.186256,147.969788 
	C48.935520,147.754105 49.408005,147.528549 50.272511,147.235107 
	C51.719204,147.085571 52.773880,147.003952 54.172783,146.952972 
	C55.337673,146.707611 56.158329,146.431625 56.978985,146.155624 
	C58.682137,145.768570 60.385292,145.381516 62.891056,144.988708 
	C65.453827,144.613464 67.213989,144.243988 68.974152,143.874512 
	C68.974152,143.874512 68.976006,143.952988 69.325233,143.963806 
	C71.110413,143.695526 72.546371,143.416412 73.982323,143.137299 
	C73.982323,143.137299 74.412209,142.996231 75.046982,142.986847 
	C78.946693,143.347046 79.210663,141.342438 78.912834,138.893372 
	C78.912834,138.893372 78.971191,138.986221 79.101318,138.912476 
	C79.321136,138.759415 79.500603,138.643356 79.485672,138.606842 
	C79.400635,138.399017 79.269218,138.210190 79.153564,138.014893 
	C79.115334,137.846420 79.077095,137.677963 79.442001,137.182220 
	C80.534645,134.868256 81.224159,132.881561 81.913681,130.894852 
	C81.913673,130.894852 81.955956,130.980774 82.241959,130.832001 
	C83.401146,127.795197 84.274338,124.907166 85.147522,122.019135 
	C85.111931,121.849365 85.076332,121.679596 85.432968,121.184784 
	C86.188507,119.870781 86.551811,118.881821 86.915115,117.892853 
	C86.915115,117.892853 86.953812,117.977295 87.244568,117.827820 
	C88.662148,114.416931 89.788963,111.155518 90.915771,107.894104 
	C90.915771,107.894104 90.945747,107.972260 91.197327,107.776375 
	C91.599953,106.685112 91.750992,105.789734 91.902039,104.894356 
	C91.902039,104.894356 91.959846,104.985703 92.255623,104.821175 
	C93.005768,103.069160 93.460144,101.481674 93.914520,99.894188 
	C93.914520,99.894188 93.953827,99.978928 94.250320,99.822014 
	C95.335220,97.074982 96.123627,94.484856 96.912033,91.894737 
	C96.912033,91.894737 96.995636,91.998009 97.313553,92.043259 
	C98.410248,93.768501 99.181671,95.451942 99.970184,97.127342 
	C100.579697,98.422417 101.210609,99.707405 101.832008,100.996880 
	C101.874008,101.166786 101.916016,101.336700 101.675705,101.997375 
	C101.874710,103.658241 102.356041,104.828362 102.837379,105.998474 
	C103.216064,108.733223 103.594757,111.467979 103.673523,114.869583 
	C103.859573,117.023148 104.345551,118.509872 104.831535,119.996590 
	C104.873619,120.166618 104.915703,120.336647 104.654251,121.057465 
	C105.180115,125.405190 106.009514,129.202118 106.838913,132.999054 
	C106.883949,133.450165 106.928978,133.901276 106.682098,134.922440 
	C106.869461,136.660141 107.348740,137.827789 107.828018,138.995438 
	C107.871056,139.165451 107.914085,139.335464 107.663940,140.030518 
	C107.857140,142.369049 108.343529,144.182541 108.829910,145.996017 
	C108.877441,146.448364 108.924973,146.900726 108.688698,147.901001 
	C108.881432,149.298431 109.357956,150.147934 109.834480,150.997421 
	C109.880905,151.448639 109.927322,151.899841 109.671722,152.951141 
	C109.569054,155.280426 109.768402,157.009613 109.967758,158.738815 
	C110.740685,158.649002 111.513611,158.559189 112.286537,158.469376 
	C112.143646,156.287155 112.000763,154.104919 111.857880,151.922699 
	C111.857880,151.922699 112.001968,151.458847 112.403549,151.162109 
	C112.915749,149.582581 113.026360,148.299789 113.136978,147.017014 
	C113.105705,146.842468 113.074440,146.667938 113.292847,146.101151 
	C113.762932,145.476425 113.889488,145.200836 113.922165,144.882141 
	C113.922165,144.882141 113.942474,144.962860 114.193985,144.797272 
	C114.676636,143.093414 114.907784,141.555161 115.138931,140.016907 
	C115.104691,139.847000 115.070442,139.677078 115.446091,139.172607 
	C116.620041,134.898605 117.384079,130.959183 118.148132,127.019768 
	C120.097244,118.380356 121.985718,109.726280 124.067963,101.119080 
	C124.345520,99.971748 125.605377,99.062057 126.410339,98.042328 
	C127.277206,99.051567 128.660416,99.939972 128.929337,101.089142 
	C131.107178,110.395760 133.064056,119.753944 135.137146,129.085556 
	C135.265106,129.661606 135.806137,130.145905 136.559845,131.284500 
	C138.466232,123.585793 140.150208,116.473419 142.063095,109.423149 
	C142.325974,108.454239 143.662827,107.261826 144.617996,107.148750 
	C145.474579,107.047348 147.039688,108.096603 147.348557,108.971413 
	C149.711472,115.663971 151.811951,122.448593 154.061523,129.182037 
	C155.066788,132.191071 156.227203,135.148270 157.255188,137.959396 
	C178.901749,133.890228 199.936142,129.910889 220.995270,126.066971 
	C221.864090,125.908394 222.964661,127.019432 225.115097,128.144974 
	C221.706924,129.668808 219.148285,131.017288 216.452988,131.985291 
	C196.311874,139.218903 176.127609,146.332626 155.999283,153.601379 
	C152.475159,154.874039 150.846756,153.012314 150.174118,150.306625 
	C148.463760,143.426529 147.128708,136.453125 145.338196,128.091690 
	C143.025223,137.827438 141.026718,146.262894 139.011963,154.694489 
	C138.714554,155.939163 138.534668,157.270126 137.943344,158.369064 
	C137.413239,159.354233 136.391113,160.074661 135.586075,160.911880 
	C134.715759,159.914291 133.305023,159.030838 133.066193,157.899902 
	C131.863098,152.202759 131.056656,146.423248 129.936203,140.706909 
	C128.733765,134.572266 127.337013,128.475723 125.879227,121.683052 
	C124.734848,125.460579 123.861542,128.343323 122.593208,131.676804 
	C122.181686,133.113922 122.165184,134.100281 122.148689,135.086655 
	C122.148689,135.086655 121.996262,135.546707 121.630066,135.819885 
	C121.220352,136.750290 121.176834,137.407516 121.133316,138.064743 
	C121.080353,138.497696 121.027397,138.930634 120.598824,139.736984 
	C120.103546,141.068192 119.983871,142.026016 119.864197,142.983826 
	C119.571342,144.406021 119.278488,145.828201 118.627182,147.670532 
	C118.227516,148.755188 118.186295,149.419739 118.145081,150.084274 
	C118.145073,150.084274 117.993629,150.544510 117.596489,150.835648 
	C117.180885,152.111465 117.162430,153.096130 117.143967,154.080811 
	C117.143967,154.080811 116.997200,154.544968 116.581024,154.850082 
	C116.159920,156.467072 116.154976,157.778961 116.150032,159.090836 
	C115.761116,160.483017 115.372208,161.875198 114.623352,163.680283 
	C114.223640,164.756699 114.183868,165.420227 114.144096,166.083740 
	C114.144096,166.083740 113.992920,166.544693 113.595055,166.836395 
	C113.181107,168.114578 113.165024,169.101059 113.148941,170.087524 
	C113.148933,170.087524 113.000877,170.546356 112.602295,170.835632 
	C112.183434,172.109818 112.163155,173.094742 112.142868,174.079666 
	C112.142868,174.079666 111.999390,174.534668 111.559105,174.763336 
	C110.124336,174.992111 109.129860,174.992218 108.135376,174.992340 
	C108.103096,174.822235 108.070824,174.652130 108.316177,174.017456 
	C108.114830,172.701813 107.635849,171.850723 107.156868,170.999649 
	C107.112785,170.549210 107.068710,170.098785 107.334381,169.031494 
	C106.818840,164.944214 105.993538,161.473785 105.168228,158.003357 
	C105.124756,157.833389 105.081291,157.663406 105.333405,156.968445 
	C105.143089,154.630371 104.657204,152.817307 104.171318,151.004227 
	C104.129318,150.833160 104.087311,150.662079 104.320023,150.021332 
	C104.117180,148.701630 103.639641,147.851608 103.162094,147.001587 
	C103.106613,145.968079 103.051132,144.934586 102.907425,143.289581 
	C102.676781,142.386841 102.460899,142.168076 102.171555,142.021805 
	C102.123886,141.564896 102.076218,141.108002 102.322052,140.074585 
	C102.131874,138.332718 101.648193,137.167389 101.164505,136.002045 
	C101.121254,135.832367 101.077995,135.662674 101.339111,134.949585 
	C100.815331,130.937653 99.987183,127.469093 99.159035,124.000526 
	C99.115150,123.548523 99.071266,123.096527 99.289284,122.105453 
	C99.010750,120.942558 98.470322,120.318733 97.929901,119.694908 
	C97.656738,120.498558 97.383583,121.302208 97.110428,122.105858 
	C97.110435,122.105858 97.019905,122.008911 96.777687,122.140732 
	C96.400177,123.201729 96.264885,124.130905 96.129585,125.060081 
	C96.129585,125.060081 95.991516,125.535271 95.626755,125.814529 
	C95.219589,126.751526 95.177185,127.409256 95.134781,128.066986 
	C95.134773,128.066986 94.993088,128.536819 94.629303,128.814331 
	C94.221970,129.750610 94.178413,130.409363 94.134857,131.068130 
z"/>
<path fill="#52B6E7" opacity="1.000000" stroke="none" 
	d="
M151.998062,36.847206 
	C151.998062,36.847206 151.535553,36.999546 151.125732,36.853401 
	C149.810516,37.419014 148.905121,38.130768 147.999725,38.842522 
	C147.999725,38.842522 147.541672,38.999035 147.084045,38.792526 
	C144.868164,37.594612 141.190094,41.109665 141.099472,36.486023 
	C141.030197,32.952106 141.648132,29.404718 141.960373,25.863321 
	C142.145752,25.597857 142.331146,25.332392 142.883362,25.246067 
	C143.479614,25.243999 143.709061,25.062792 143.938492,24.881584 
	C143.938492,24.881584 143.978607,24.967890 144.235367,24.953636 
	C144.992279,24.667568 145.492447,24.395750 145.992599,24.123930 
	C147.770370,23.148705 149.548157,22.173479 151.785950,21.310192 
	C152.475876,21.240805 152.705795,21.059484 152.935699,20.878162 
	C152.935699,20.878160 152.979324,20.965797 153.315155,20.968035 
	C154.757874,20.604591 155.864761,20.238911 156.971649,19.873228 
	C156.971649,19.873228 156.973648,19.952169 157.298386,19.959061 
	C158.445938,19.596565 159.268738,19.227177 160.091553,18.857790 
	C160.855103,18.624174 161.618637,18.390558 162.880463,18.355564 
	C163.943314,18.325571 164.507889,18.096956 165.072464,17.868338 
	C165.535568,17.610029 165.998657,17.351725 167.053772,17.380127 
	C174.091949,17.490498 180.538132,17.314159 186.984314,17.137823 
	C199.356308,19.440544 210.709671,24.324427 220.899246,31.568768 
	C226.955521,35.874523 232.362228,41.093937 238.933350,46.638680 
	C231.546799,49.379177 225.202545,51.732964 218.570312,54.193600 
	C208.760696,42.949524 196.364944,36.051651 181.289886,32.531380 
	C176.104294,30.829603 171.413345,29.307961 167.000931,32.841492 
	C166.579224,32.900017 166.157532,32.958538 165.231934,32.813431 
	C163.819321,33.019402 162.910583,33.428997 162.001862,33.838596 
	C161.575027,33.898144 161.148209,33.957695 160.244064,33.836903 
	C159.177399,34.052860 158.588058,34.449162 157.998703,34.845459 
	C157.998703,34.845455 157.550354,35.000389 157.119171,34.795033 
	C155.124695,35.342186 153.561371,36.094696 151.998062,36.847206 
z"/>
<path fill="#51B6E7" opacity="1.000000" stroke="none" 
	d="
M49.992088,42.117710 
	C49.992088,42.117710 50.420807,41.989197 51.064980,41.985527 
	C54.070629,41.470577 56.432106,40.959293 59.245407,40.331009 
	C66.020767,40.144234 72.346336,40.144577 78.666565,39.961094 
	C80.513260,39.907478 82.344757,39.330326 84.183220,38.993137 
	C92.751831,40.772594 101.320435,42.552052 110.184578,44.392883 
	C106.003220,49.694874 102.318855,53.871189 99.225021,58.446789 
	C96.759041,62.093826 93.738136,59.771603 90.973816,59.904682 
	C89.578407,59.971859 88.147842,59.308823 86.021408,58.620674 
	C73.924393,58.866455 62.539150,59.467525 50.729408,60.045677 
	C46.435570,60.465088 44.698841,58.482170 45.059170,54.871643 
	C45.460709,50.848221 46.288116,46.867298 46.930149,42.867878 
	C46.930149,42.867878 46.997646,42.964230 47.286942,42.963585 
	C48.381519,42.681194 49.186806,42.399452 49.992088,42.117710 
z"/>
<path fill="#55B9E8" opacity="1.000000" stroke="none" 
	d="
M236.516022,167.079163 
	C235.232941,167.436218 233.457855,168.082779 231.752579,167.933258 
	C227.272751,167.540482 225.748184,169.703140 225.996597,173.788116 
	C226.026672,174.282700 226.001678,174.780716 225.999817,175.277130 
	C225.963272,185.037918 225.965149,185.019409 235.743515,186.054108 
	C236.457535,186.129669 237.113892,186.750076 237.901093,187.498291 
	C231.875458,187.935242 225.734955,188.229279 219.620483,187.951050 
	C216.338196,187.801697 213.100662,186.669006 209.275970,185.718536 
	C208.476028,185.235535 208.199982,185.105148 207.880890,185.065872 
	C207.880890,185.065872 207.963440,185.041962 207.902039,184.903351 
	C207.562607,184.797058 207.284546,184.829361 207.006500,184.861664 
	C205.903839,184.573868 204.801163,184.286087 203.270844,183.574310 
	C200.639694,182.162277 198.398392,181.248550 196.248398,180.155273 
	C195.149826,179.596664 193.318756,178.681473 193.345749,177.986771 
	C193.592468,171.634583 190.646286,164.774170 195.987839,159.148682 
	C199.101761,160.376144 202.215683,161.603622 205.874115,163.209839 
	C206.994019,163.708496 207.569397,163.828430 208.144775,163.948364 
	C217.448456,164.967529 226.752136,165.986679 236.516022,167.079163 
z"/>
<path fill="#62BDE9" opacity="1.000000" stroke="none" 
	d="
M10.172110,96.341118 
	C8.919803,95.643387 7.825745,95.282288 6.361824,94.873863 
	C10.616715,92.623268 8.568517,88.406502 8.948228,84.489639 
	C10.411087,79.529716 11.643753,74.901840 13.487471,70.531754 
	C14.710628,67.632568 16.808388,65.102371 19.044966,62.493515 
	C18.621519,70.957710 18.857712,79.283600 19.342300,88.662918 
	C21.734543,86.713211 22.785276,85.856857 23.912289,85.368393 
	C23.707741,86.836983 23.426918,87.937675 22.836834,89.261108 
	C22.482784,91.013618 22.437996,92.543381 22.298943,94.382011 
	C22.408726,95.488907 22.612774,96.286934 22.799908,97.478348 
	C23.156078,99.318428 23.529163,100.765121 23.978752,102.305832 
	C24.055258,102.399857 23.949276,102.617905 23.875618,103.004440 
	C24.152815,104.580734 24.503670,105.770493 25.017750,107.304726 
	C27.157291,111.748207 29.133610,115.847229 31.161434,120.284637 
	C32.451077,121.895584 33.689217,123.168129 34.927353,124.440674 
	C34.927353,124.440674 35.001942,124.505737 34.944405,124.883011 
	C35.207577,125.812057 35.528290,126.363838 35.849003,126.915619 
	C38.488617,130.210495 41.128231,133.505371 43.767841,136.800247 
	C37.609669,138.102478 34.893841,134.080521 31.273045,130.966263 
	C29.812195,129.623962 28.674223,128.414490 27.229630,127.141495 
	C19.680622,119.882782 13.824590,111.813164 10.953134,101.448845 
	C10.714961,99.603004 10.522659,98.140381 10.172110,96.341118 
z"/>
<path fill="#59BAE8" opacity="1.000000" stroke="none" 
	d="
M23.836010,85.000496 
	C22.785276,85.856857 21.734543,86.713211 19.342300,88.662918 
	C18.857712,79.283600 18.621519,70.957710 19.338118,62.317673 
	C19.087000,61.853760 19.073061,61.652214 19.021967,61.149872 
	C19.444908,60.262829 19.905001,59.676590 20.642265,59.006638 
	C22.200815,57.796715 23.482191,56.670513 24.845749,55.231339 
	C24.922815,54.560432 25.067892,54.280296 25.920963,54.003799 
	C26.971157,53.570606 27.463549,53.211582 27.955938,52.852558 
	C27.980801,52.518570 28.135063,52.262547 28.962080,52.009254 
	C29.989779,51.574818 30.474123,51.215622 30.958466,50.856422 
	C36.027851,48.217968 41.097237,45.579514 46.548386,42.904469 
	C46.288116,46.867298 45.460709,50.848221 45.059170,54.871643 
	C44.698841,58.482170 46.435570,60.465088 50.678162,60.337833 
	C51.053791,61.048759 51.056171,61.444611 51.058556,61.840466 
	C47.954681,63.228069 44.850811,64.615677 41.039337,66.141937 
	C39.228317,66.617950 38.124893,66.955322 36.696220,67.272797 
	C35.286434,68.183372 34.201897,69.113846 33.034950,70.284218 
	C32.676064,70.695541 32.399590,70.866982 31.878540,71.150017 
	C31.436745,71.553505 31.239525,71.845406 30.981022,72.364304 
	C30.737869,72.882645 30.475296,73.033577 29.768696,73.086319 
	C28.952843,74.131790 28.500315,75.135063 28.020550,76.354851 
	C27.993311,76.571365 27.862066,76.987602 27.545052,77.045715 
	C26.834164,77.780998 26.440290,78.458160 26.027779,79.460327 
	C25.619745,80.523293 25.230352,81.261269 24.554253,82.044754 
	C24.223320,82.752373 24.179092,83.414490 24.066723,84.309692 
	C23.998579,84.542793 23.836012,85.000496 23.836010,85.000496 
z"/>
<path fill="#5DBCE8" opacity="1.000000" stroke="none" 
	d="
M195.622452,159.072571 
	C190.646286,164.774170 193.592468,171.634583 193.345749,177.986771 
	C193.318756,178.681473 195.149826,179.596664 196.248398,180.155273 
	C198.398392,181.248550 200.639694,182.162277 202.920364,183.493896 
	C201.114517,183.490585 199.072571,183.497009 197.376648,182.734161 
	C190.887527,179.815247 184.394165,176.865005 178.123703,173.512527 
	C172.196457,170.343536 166.547028,166.654968 159.625122,162.505371 
	C167.825256,158.984131 174.630035,155.676453 181.738510,153.263275 
	C183.671021,152.607208 186.591202,154.482849 188.926208,155.499481 
	C191.126846,156.457611 193.153732,157.814804 195.622452,159.072571 
z"/>
<path fill="#59BAE8" opacity="1.000000" stroke="none" 
	d="
M141.601685,25.921021 
	C141.648132,29.404718 141.030197,32.952106 141.099472,36.486023 
	C141.190094,41.109665 144.868164,37.594612 146.851105,38.858177 
	C144.305878,40.671368 141.535980,42.212406 138.126938,43.919136 
	C136.989319,44.678802 136.490829,45.272778 135.992355,45.866753 
	C135.992355,45.866753 135.579636,46.003952 134.992218,46.018681 
	C133.617950,46.731201 132.831116,47.428993 132.044281,48.126785 
	C132.032150,48.469265 131.881500,48.732449 131.045959,49.000618 
	C129.998444,49.674496 129.497269,50.264091 128.996094,50.853683 
	C128.559265,51.192638 128.122437,51.531597 127.099617,51.973068 
	C126.023735,52.430977 125.533852,52.786369 125.043968,53.141762 
	C124.267715,54.040859 123.491463,54.939957 122.185898,56.054070 
	C121.462715,56.564751 121.268860,56.860420 121.075005,57.156097 
	C120.613510,57.732460 120.152008,58.308823 119.050629,58.961296 
	C117.296341,60.061493 116.181931,61.085583 115.067528,62.109673 
	C115.067528,62.109673 115.036652,62.033226 114.832352,62.149311 
	C114.437355,62.559330 114.246651,62.853264 114.055946,63.147198 
	C114.038490,63.486336 113.886017,63.746262 113.143852,64.056847 
	C112.388229,64.328583 112.163223,64.548271 112.014168,64.845764 
	C111.560066,65.183174 111.105965,65.520584 110.045059,65.774567 
	C108.247887,63.104286 107.057510,60.517437 105.867126,57.930588 
	C105.867126,57.930588 105.989265,57.473984 106.385216,57.188618 
	C107.170219,56.209759 107.559273,55.516266 107.948318,54.822769 
	C108.737762,53.937298 109.527206,53.051826 110.961746,52.017014 
	C112.048187,50.859730 112.489540,49.851784 112.930885,48.843834 
	C114.045418,47.624348 115.159950,46.404858 116.813080,44.962929 
	C117.553772,44.449841 117.755852,44.159187 117.957939,43.868534 
	C120.056198,41.646576 122.154449,39.424618 124.875603,37.065170 
	C125.985283,36.572712 126.472061,36.217743 126.958839,35.862778 
	C126.990364,35.501942 127.162766,35.230621 127.863800,35.133995 
	C128.483994,34.766479 128.716431,34.313793 128.948883,33.861107 
	C128.963608,33.518829 129.116180,33.256802 129.954071,33.001282 
	C130.984604,32.569153 131.467621,32.210773 131.950653,31.852394 
	C135.048096,29.894505 138.145554,27.936613 141.601685,25.921021 
z"/>
<path fill="#E4E7F4" opacity="1.000000" stroke="none" 
	d="
M35.249054,124.204483 
	C33.689217,123.168129 32.451077,121.895584 31.529572,120.296921 
	C37.022934,113.987411 38.526539,106.997398 37.811378,99.001335 
	C33.912079,99.001335 30.296267,99.215851 26.719784,98.933029 
	C23.890816,98.709320 23.906906,100.324654 23.902248,102.211807 
	C23.529163,100.765121 23.156078,99.318428 23.236660,97.440308 
	C30.743340,96.002884 37.796356,94.996887 44.849369,93.990891 
	C44.904083,95.070946 44.958801,96.151001 44.710594,97.821289 
	C44.283104,98.975845 44.158546,99.540169 44.033993,100.104500 
	C41.212917,108.059097 38.391838,116.013695 35.249054,124.204483 
z"/>
<path fill="#E4E7F4" opacity="1.000000" stroke="none" 
	d="
M33.117359,70.044327 
	C34.201897,69.113846 35.286434,68.183372 36.752487,67.608093 
	C38.461052,68.655930 39.788097,69.348572 41.115147,70.041222 
	C41.076614,70.206970 41.038086,70.372726 40.724373,70.952972 
	C40.681854,71.887764 40.914520,72.408066 41.147186,72.928360 
	C41.147186,72.928360 41.063881,72.945602 41.136395,73.134537 
	C41.345860,73.629349 41.566715,73.852013 41.871479,73.991463 
	C41.871479,73.991463 42.018219,74.410019 42.035706,74.933975 
	C42.325588,75.968384 42.597988,76.478828 42.870392,76.989273 
	C42.870388,76.989273 43.019051,77.407356 43.035843,77.930573 
	C43.321140,78.965004 43.589649,79.476212 43.858162,79.987427 
	C44.511883,83.546013 45.165607,87.104607 45.030357,90.839325 
	C36.958660,92.034683 29.675934,93.053909 22.393208,94.073135 
	C22.437996,92.543381 22.482784,91.013618 22.759747,89.663933 
	C29.161541,89.126411 35.331165,88.408813 41.628410,87.868408 
	C41.944668,88.043831 42.133308,88.042053 42.321945,88.040283 
	C42.117435,87.857094 41.912926,87.673904 41.770962,87.109695 
	C40.273602,82.346283 38.916634,77.874336 37.043621,73.630119 
	C36.388786,72.146271 34.462837,71.223389 33.117359,70.044327 
z"/>
<path fill="#5EBCE9" opacity="1.000000" stroke="none" 
	d="
M35.008198,151.015350 
	C35.006264,152.074753 35.004326,153.134140 34.770725,154.743958 
	C34.359844,155.807953 34.180630,156.321518 34.001415,156.835083 
	C28.324614,157.228119 22.647810,157.621170 16.279255,157.780228 
	C13.725867,157.974777 11.864235,158.403305 10.002604,158.831848 
	C8.931784,158.881210 7.860964,158.930588 6.393750,158.905579 
	C6.570898,154.052032 11.067032,156.240326 13.702017,154.402405 
	C17.777073,153.155792 21.583162,152.151779 25.900291,151.367462 
	C27.269197,151.439301 28.127058,151.291458 28.984921,151.143631 
	C29.464163,150.803741 29.943403,150.463852 30.970867,150.374634 
	C32.682125,150.755341 33.845161,150.885345 35.008198,151.015350 
z"/>
<path fill="#5EBCE9" opacity="1.000000" stroke="none" 
	d="
M105.640579,57.992691 
	C107.057510,60.517437 108.247887,63.104286 109.772644,65.869469 
	C110.107025,66.047798 109.991920,66.527756 109.601379,66.822189 
	C108.824348,67.796310 108.437851,68.476006 108.051361,69.155701 
	C107.273621,70.049393 106.495880,70.943092 105.096115,71.968338 
	C104.003860,72.768845 103.533646,73.437813 103.063431,74.106781 
	C103.063431,74.106781 103.038979,74.030243 102.832611,74.147095 
	C102.432640,74.559135 102.239037,74.854317 102.045425,75.149498 
	C100.936127,76.372101 99.826813,77.594704 98.069275,78.864502 
	C97.152931,77.850349 96.479271,76.696136 96.696854,75.746025 
	C97.232651,73.406418 98.178001,71.160606 98.958672,68.877075 
	C98.958672,68.877075 99.014534,68.429672 99.419235,68.150757 
	C100.866196,65.864265 101.908463,63.856693 102.950729,61.849117 
	C102.950729,61.849117 102.995026,61.426315 103.383163,61.164101 
	C104.160271,60.211166 104.549240,59.520451 104.938202,58.829735 
	C104.963348,58.489479 105.121956,58.231163 105.640579,57.992691 
z"/>
<path fill="#E8ECF6" opacity="1.000000" stroke="none" 
	d="
M47.909477,147.959915 
	C46.191513,148.241257 44.473549,148.522583 42.364876,148.623779 
	C41.940369,148.264435 41.906570,148.085236 41.872772,147.906036 
	C38.743240,147.677902 35.483624,146.801971 32.519444,147.397217 
	C29.324799,148.038757 27.043024,148.723267 25.333214,145.023834 
	C24.681778,143.614334 22.625280,142.854218 21.076721,141.474091 
	C21.706076,140.458191 22.467842,139.766357 23.551538,139.038177 
	C25.897488,143.486664 28.741003,146.835205 34.281639,145.979111 
	C38.411423,145.341034 42.488834,144.138855 46.630920,143.897522 
	C48.804989,143.770844 51.067921,145.169113 53.607590,146.212891 
	C53.924450,146.547043 53.828552,146.922333 53.828552,146.922333 
	C52.773880,147.003952 51.719204,147.085571 50.183067,146.961945 
	C49.104229,147.157776 48.506851,147.558838 47.909477,147.959915 
z"/>
<path fill="#FDFDFE" opacity="1.000000" stroke="none" 
	d="
M22.298943,94.382004 
	C29.675934,93.053909 36.958660,92.034683 44.673813,91.024796 
	C45.068344,91.776207 45.030453,92.518272 44.920967,93.625618 
	C37.796356,94.996887 30.743340,96.002884 23.253574,97.046921 
	C22.612774,96.286934 22.408726,95.488907 22.298943,94.382004 
z"/>
<path fill="#DFEBF6" opacity="1.000000" stroke="none" 
	d="
M51.466858,61.893501 
	C51.056171,61.444611 51.053791,61.048759 51.102661,60.360748 
	C62.539150,59.467525 73.924393,58.866455 85.601913,58.552307 
	C82.569199,59.625313 79.244194,60.411400 75.259537,61.353439 
	C70.673805,55.659882 64.194458,60.874474 58.254890,60.423405 
	C56.178844,60.265747 54.004574,61.401459 51.466858,61.893501 
z"/>
<path fill="#E4F4FB" opacity="1.000000" stroke="none" 
	d="
M83.956894,38.602501 
	C82.344757,39.330326 80.513260,39.907478 78.666565,39.961094 
	C72.346336,40.144577 66.020767,40.144234 59.284592,40.004532 
	C58.876415,39.578281 58.880886,39.361507 58.885361,39.144737 
	C67.167099,38.833782 75.448837,38.522827 83.956894,38.602501 
z"/>
<path fill="#61BDE9" opacity="1.000000" stroke="none" 
	d="
M270.952515,51.590557 
	C262.302887,52.190086 253.451996,52.426083 244.308929,52.401596 
	C249.865555,51.433693 255.699326,50.477173 261.569458,50.121807 
	C264.596680,49.938545 267.688599,50.824299 270.952515,51.590557 
z"/>
<path fill="#6AC0EA" opacity="1.000000" stroke="none" 
	d="
M98.628990,69.019104 
	C98.178001,71.160606 97.232651,73.406418 96.696854,75.746025 
	C96.479271,76.696136 97.152931,77.850349 97.777618,78.977661 
	C96.500290,80.582542 94.866386,82.121452 93.232491,83.660370 
	C92.661324,83.233719 92.090157,82.807076 91.518990,82.380424 
	C93.779099,77.973999 96.039207,73.567574 98.628990,69.019104 
z"/>
<path fill="#59BAE8" opacity="1.000000" stroke="none" 
	d="
M167.460144,32.918396 
	C171.413345,29.307961 176.104294,30.829603 180.889435,32.462151 
	C176.638748,32.893143 172.279037,32.944218 167.460144,32.918396 
z"/>
<path fill="#61BDE9" opacity="1.000000" stroke="none" 
	d="
M203.601807,68.050827 
	C204.212784,69.074760 204.497620,70.259102 204.931778,71.781555 
	C202.202332,74.932152 199.853989,74.570587 197.854065,70.826309 
	C199.731461,69.920761 201.503555,69.065994 203.601807,68.050827 
z"/>
<path fill="#5EBCE9" opacity="1.000000" stroke="none" 
	d="
M117.961899,127.366951 
	C117.384079,130.959183 116.620041,134.898605 115.505035,138.919373 
	C116.027939,135.238541 116.901802,131.476334 117.961899,127.366951 
z"/>
<path fill="#5EBCE9" opacity="1.000000" stroke="none" 
	d="
M101.909111,100.572571 
	C101.210609,99.707405 100.579697,98.422417 99.970184,97.127342 
	C99.181671,95.451942 98.410248,93.768501 97.265427,91.997391 
	C98.038826,91.499809 99.178276,91.093361 100.680626,90.557457 
	C101.161446,94.089539 101.573830,97.118896 101.909111,100.572571 
z"/>
<path fill="#5EBCE9" opacity="1.000000" stroke="none" 
	d="
M111.587234,152.027008 
	C112.000763,154.104919 112.143646,156.287155 112.286537,158.469376 
	C111.513611,158.559189 110.740685,158.649002 109.967758,158.738815 
	C109.768402,157.009613 109.569054,155.280426 109.615341,153.288300 
	C110.346184,152.727341 110.831383,152.429321 111.587234,152.027008 
z"/>
<path fill="#5EBCE9" opacity="1.000000" stroke="none" 
	d="
M106.916969,132.582520 
	C106.009514,129.202118 105.180115,125.405190 104.609253,121.316330 
	C105.576859,124.738258 106.285942,128.452118 106.916969,132.582520 
z"/>
<path fill="#5EBCE9" opacity="1.000000" stroke="none" 
	d="
M99.081322,124.415176 
	C99.987183,127.469093 100.815331,130.937653 101.386154,134.691162 
	C100.420418,131.594025 99.712013,128.211929 99.081322,124.415176 
z"/>
<path fill="#59BAE8" opacity="1.000000" stroke="none" 
	d="
M186.522583,17.058903 
	C180.538132,17.314159 174.091949,17.490498 167.332535,17.396645 
	C173.366486,17.077631 179.713669,17.028807 186.522583,17.058903 
z"/>
<path fill="#5EBCE9" opacity="1.000000" stroke="none" 
	d="
M105.092094,158.417236 
	C105.993538,161.473785 106.818840,164.944214 107.389771,168.694992 
	C106.428917,165.593933 105.722443,162.212540 105.092094,158.417236 
z"/>
<path fill="#65BFE9" opacity="1.000000" stroke="none" 
	d="
M43.438808,155.909454 
	C45.708454,155.215591 48.412876,154.595490 51.577774,154.266037 
	C52.057163,154.750549 52.076084,154.944427 52.095009,155.138306 
	C49.354534,155.419937 46.614059,155.701569 43.438808,155.909454 
z"/>
<path fill="#5EBCE9" opacity="1.000000" stroke="none" 
	d="
M90.593376,108.070877 
	C89.788963,111.155518 88.662148,114.416931 87.201408,117.810677 
	C88.001984,114.711220 89.136482,111.479439 90.593376,108.070877 
z"/>
<path fill="#5EBCE9" opacity="1.000000" stroke="none" 
	d="
M84.977341,122.348526 
	C84.274338,124.907166 83.401146,127.795197 82.198288,130.812347 
	C82.848137,128.186951 83.827644,125.432426 84.977341,122.348526 
z"/>
<path fill="#65BFE9" opacity="1.000000" stroke="none" 
	d="
M54.001221,153.001221 
	C56.514641,153.171738 59.028061,153.342255 61.812187,153.818878 
	C59.673008,154.410294 57.263123,154.695587 54.426975,154.602585 
	C54.000881,153.816589 54.001049,153.408905 54.001221,153.001221 
z"/>
<path fill="#5EBCE9" opacity="1.000000" stroke="none" 
	d="
M67.416641,153.905701 
	C69.467316,153.340164 71.931297,152.847321 74.684814,152.608215 
	C72.592880,153.234100 70.211411,153.606247 67.416641,153.905701 
z"/>
<path fill="#EAECF6" opacity="1.000000" stroke="none" 
	d="
M41.425537,69.907333 
	C39.788097,69.348572 38.461052,68.655930 37.077736,67.627991 
	C38.124893,66.955322 39.228317,66.617950 40.670448,66.200775 
	C41.251411,67.338455 41.493668,68.555946 41.425537,69.907333 
z"/>
<path fill="#59BAE8" opacity="1.000000" stroke="none" 
	d="
M58.522320,39.063400 
	C58.880886,39.361507 58.876415,39.578281 58.832764,40.121532 
	C56.432106,40.959293 54.070629,41.470577 51.288082,41.968105 
	C53.297768,40.963585 55.728523,39.972824 58.522320,39.063400 
z"/>
<path fill="#65BFE9" opacity="1.000000" stroke="none" 
	d="
M10.404596,158.905579 
	C11.864235,158.403305 13.725867,157.974777 15.829308,157.836365 
	C14.316274,158.410767 12.561432,158.695053 10.404596,158.905579 
z"/>
<path fill="#5EBCE9" opacity="1.000000" stroke="none" 
	d="
M96.584831,92.066986 
	C96.123627,94.484856 95.335220,97.074982 94.207123,99.804260 
	C94.664162,97.375359 95.460899,94.807289 96.584831,92.066986 
z"/>
<path fill="#5EBCE9" opacity="1.000000" stroke="none" 
	d="
M104.095642,151.396423 
	C104.657204,152.817307 105.143089,154.630371 105.380798,156.709579 
	C104.761742,155.246674 104.390854,153.517654 104.095642,151.396423 
z"/>
<path fill="#61BDE9" opacity="1.000000" stroke="none" 
	d="
M241.398224,61.900978 
	C242.546768,61.402786 244.081482,60.976955 245.843201,60.833199 
	C244.641602,61.401295 243.212997,61.687321 241.398224,61.900978 
z"/>
<path fill="#59BAE8" opacity="1.000000" stroke="none" 
	d="
M152.356598,36.922325 
	C153.561371,36.094696 155.124695,35.342186 156.892395,34.864479 
	C155.636230,35.758667 154.175690,36.378052 152.356598,36.922325 
z"/>
<path fill="#5EBCE9" opacity="1.000000" stroke="none" 
	d="
M108.905998,145.609100 
	C108.343529,144.182541 107.857140,142.369049 107.619537,140.289795 
	C108.239578,141.756744 108.610832,143.489456 108.905998,145.609100 
z"/>
<path fill="#6AC0EA" opacity="1.000000" stroke="none" 
	d="
M102.633102,61.991131 
	C101.908463,63.856693 100.866196,65.864265 99.490921,67.937012 
	C100.210434,66.045845 101.262955,64.089493 102.633102,61.991131 
z"/>
<path fill="#5EBCE9" opacity="1.000000" stroke="none" 
	d="
M81.596527,131.055222 
	C81.224159,132.881561 80.534645,134.868256 79.496307,136.928864 
	C79.858116,135.073685 80.568748,133.144638 81.596527,131.055222 
z"/>
<path fill="#65BFE9" opacity="1.000000" stroke="none" 
	d="
M34.370632,156.910858 
	C34.180630,156.321518 34.359844,155.807953 34.772430,155.141235 
	C35.895096,155.181030 36.784393,155.373993 37.880356,155.846222 
	C36.971298,156.412552 35.855576,156.699585 34.370632,156.910858 
z"/>
<path fill="#5EBCE9" opacity="1.000000" stroke="none" 
	d="
M116.481590,158.910522 
	C116.154976,157.778961 116.159920,156.467072 116.498817,155.079193 
	C116.826233,156.245514 116.819695,157.487869 116.481590,158.910522 
z"/>
<path fill="#5EBCE9" opacity="1.000000" stroke="none" 
	d="
M78.606171,139.041626 
	C79.210663,141.342438 78.946693,143.347046 75.272018,142.963760 
	C76.008034,141.696671 77.153770,140.443268 78.606171,139.041626 
z"/>
<path fill="#5EBCE9" opacity="1.000000" stroke="none" 
	d="
M104.907455,119.626236 
	C104.345551,118.509872 103.859573,117.023148 103.611252,115.282928 
	C104.227058,116.438248 104.605217,117.847069 104.907455,119.626236 
z"/>
<path fill="#55B9E8" opacity="1.000000" stroke="none" 
	d="
M241.398239,186.908020 
	C242.289856,186.627502 243.577209,186.420074 244.934418,186.542847 
	C243.934189,186.909088 242.864075,186.945099 241.398239,186.908020 
z"/>
<path fill="#5EBCE9" opacity="1.000000" stroke="none" 
	d="
M115.404831,62.068302 
	C116.181931,61.085583 117.296341,60.061493 118.788681,59.065060 
	C118.025124,60.070789 116.883636,61.048862 115.404831,62.068302 
z"/>
<path fill="#61BDE9" opacity="1.000000" stroke="none" 
	d="
M231.378326,63.908024 
	C232.233322,63.411896 233.459183,62.989994 234.897339,62.844624 
	C233.989487,63.408188 232.869354,63.695217 231.378326,63.908024 
z"/>
<path fill="#5EBCE9" opacity="1.000000" stroke="none" 
	d="
M102.916046,105.643394 
	C102.356041,104.828362 101.874710,103.658241 101.629913,102.255890 
	C102.242538,103.111877 102.618629,104.200096 102.916046,105.643394 
z"/>
<path fill="#5EBCE9" opacity="1.000000" stroke="none" 
	d="
M114.964859,140.351761 
	C114.907784,141.555161 114.676636,143.093414 114.152985,144.790100 
	C114.170578,143.527908 114.480675,142.107254 114.964859,140.351761 
z"/>
<path fill="#5EBCE9" opacity="1.000000" stroke="none" 
	d="
M107.904900,138.640808 
	C107.348740,137.827789 106.869461,136.660141 106.624001,135.259125 
	C107.232475,136.112579 107.607132,137.199387 107.904900,138.640808 
z"/>
<path fill="#5EBCE9" opacity="1.000000" stroke="none" 
	d="
M101.092346,136.357056 
	C101.648193,137.167389 102.131874,138.332718 102.385139,139.734070 
	C101.776543,138.884079 101.398369,137.798065 101.092346,136.357056 
z"/>
<path fill="#5EBCE9" opacity="1.000000" stroke="none" 
	d="
M112.969635,147.339996 
	C113.026360,148.299789 112.915749,149.582581 112.482193,150.932327 
	C112.373589,149.887192 112.587936,148.775101 112.969635,147.339996 
z"/>
<path fill="#5EBCE9" opacity="1.000000" stroke="none" 
	d="
M93.594109,100.058701 
	C93.460144,101.481674 93.005768,103.069160 92.207970,104.795670 
	C92.334259,103.364197 92.803978,101.793701 93.594109,100.058701 
z"/>
<path fill="#61BDE9" opacity="1.000000" stroke="none" 
	d="
M207.591553,65.895958 
	C206.839706,66.569885 205.728485,67.275505 204.253967,67.955002 
	C205.004501,67.261803 206.118332,66.594727 207.591553,65.895958 
z"/>
<path fill="#5EBCE9" opacity="1.000000" stroke="none" 
	d="
M68.562424,143.921844 
	C67.213989,144.243988 65.453827,144.613464 63.277168,144.965729 
	C64.624008,144.622055 66.387352,144.295609 68.562424,143.921844 
z"/>
<path fill="#5EBCE9" opacity="1.000000" stroke="none" 
	d="
M117.458313,153.921661 
	C117.162430,153.096130 117.180885,152.111465 117.517471,151.064636 
	C117.814613,151.922501 117.793633,152.842499 117.458313,153.921661 
z"/>
<path fill="#59BAE8" opacity="1.000000" stroke="none" 
	d="
M162.348648,33.914642 
	C162.910583,33.428997 163.819321,33.019402 164.917511,32.875191 
	C164.303116,33.423946 163.499283,33.707317 162.348648,33.914642 
z"/>
<path fill="#61BDE9" opacity="1.000000" stroke="none" 
	d="
M237.344208,62.920273 
	C237.904648,62.427235 238.811935,62.009136 239.909119,61.856194 
	C239.296356,62.412636 238.493713,62.703922 237.344208,62.920273 
z"/>
<path fill="#5EBCE9" opacity="1.000000" stroke="none" 
	d="
M97.369926,122.007187 
	C97.383583,121.302208 97.656738,120.498558 97.929901,119.694908 
	C98.470322,120.318733 99.010750,120.942558 99.352905,121.769165 
	C98.646233,121.950798 98.137825,121.929657 97.369926,122.007187 
z"/>
<path fill="#5EBCE9" opacity="1.000000" stroke="none" 
	d="
M113.463760,169.927673 
	C113.165024,169.101059 113.181107,168.114578 113.515625,167.065582 
	C113.815567,167.924652 113.797073,168.846222 113.463760,169.927673 
z"/>
<path fill="#5EBCE9" opacity="1.000000" stroke="none" 
	d="
M122.464050,134.927582 
	C122.165184,134.100281 122.181686,133.113922 122.516708,132.065079 
	C122.816635,132.924576 122.798027,133.846527 122.464050,134.927582 
z"/>
<path fill="#5EBCE9" opacity="1.000000" stroke="none" 
	d="
M112.457672,173.921310 
	C112.163155,173.094742 112.183434,172.109818 112.522194,171.062988 
	C112.817940,171.921707 112.795212,172.842331 112.457672,173.921310 
z"/>
<path fill="#5EBCE9" opacity="1.000000" stroke="none" 
	d="
M108.136978,175.332565 
	C109.129860,174.992218 110.124336,174.992111 111.491730,174.992157 
	C111.038460,177.496170 109.768372,177.569290 108.136978,175.332565 
z"/>
<path fill="#61BDE9" opacity="1.000000" stroke="none" 
	d="
M217.349884,67.913574 
	C217.911392,67.423378 218.820038,67.007729 219.918823,66.857056 
	C219.304993,67.410728 218.500992,67.699425 217.349884,67.913574 
z"/>
<path fill="#5EBCE9" opacity="1.000000" stroke="none" 
	d="
M120.009651,142.681671 
	C119.983871,142.026016 120.103546,141.068192 120.527679,140.057098 
	C120.606476,140.795715 120.380791,141.587601 120.009651,142.681671 
z"/>
<path fill="#5EBCE9" opacity="1.000000" stroke="none" 
	d="
M109.909531,150.670074 
	C109.357956,150.147934 108.881432,149.298431 108.627167,148.238342 
	C109.227814,148.799423 109.606201,149.571075 109.909531,150.670074 
z"/>
<path fill="#5EBCE9" opacity="1.000000" stroke="none" 
	d="
M96.436874,124.910538 
	C96.264885,124.130905 96.400177,123.201729 96.834320,122.175262 
	C97.003494,122.972313 96.873833,123.866646 96.436874,124.910538 
z"/>
<path fill="#5EBCE9" opacity="1.000000" stroke="none" 
	d="
M103.086624,147.329132 
	C103.639641,147.851608 104.117180,148.701630 104.371933,149.762238 
	C103.769814,149.200775 103.390488,148.428711 103.086624,147.329132 
z"/>
<path fill="#5EBCE9" opacity="1.000000" stroke="none" 
	d="
M82.327065,152.919281 
	C82.853569,152.367004 83.707283,151.889679 84.769058,151.639435 
	C84.202835,152.242432 83.428558,152.618332 82.327065,152.919281 
z"/>
<path fill="#5EBCE9" opacity="1.000000" stroke="none" 
	d="
M107.082016,171.327682 
	C107.635849,171.850723 108.114830,172.701813 108.370094,173.763382 
	C107.766647,173.201157 107.386909,172.428436 107.082016,171.327682 
z"/>
<path fill="#59BAE8" opacity="1.000000" stroke="none" 
	d="
M148.315659,38.844223 
	C148.905121,38.130768 149.810516,37.419014 150.890869,36.917542 
	C150.254395,37.700523 149.442993,38.273220 148.315659,38.844223 
z"/>
<path fill="#5EBCE9" opacity="1.000000" stroke="none" 
	d="
M132.375168,48.073891 
	C132.831116,47.428993 133.617950,46.731201 134.776459,46.045971 
	C134.334106,46.712688 133.520081,47.366840 132.375168,48.073891 
z"/>
<path fill="#5EBCE9" opacity="1.000000" stroke="none" 
	d="
M73.592712,143.063477 
	C72.546371,143.416412 71.110413,143.695526 69.287125,143.954422 
	C70.334229,143.619370 71.768669,143.304504 73.592712,143.063477 
z"/>
<path fill="#5EBCE9" opacity="1.000000" stroke="none" 
	d="
M112.624939,48.979301 
	C112.489540,49.851784 112.048187,50.859730 111.243805,51.913143 
	C111.360168,51.010658 111.839577,50.062714 112.624939,48.979301 
z"/>
<path fill="#5EBCE9" opacity="1.000000" stroke="none" 
	d="
M95.423615,127.941154 
	C95.177185,127.409256 95.219589,126.751526 95.546921,126.048721 
	C95.792038,126.607536 95.752235,127.211433 95.423615,127.941154 
z"/>
<path fill="#5EBCE9" opacity="1.000000" stroke="none" 
	d="
M88.421570,147.938873 
	C88.176941,147.407089 88.221069,146.749557 88.550354,146.047211 
	C88.793777,146.605957 88.752045,147.209549 88.421570,147.938873 
z"/>
<path fill="#5EBCE9" opacity="1.000000" stroke="none" 
	d="
M90.427292,141.945465 
	C90.178757,141.412842 90.219421,140.753860 90.545197,140.049545 
	C90.792374,140.609177 90.754433,141.214157 90.427292,141.945465 
z"/>
<path fill="#5EBCE9" opacity="1.000000" stroke="none" 
	d="
M94.424118,130.942017 
	C94.178413,130.409363 94.221970,129.750610 94.551071,129.046906 
	C94.795547,129.606598 94.754471,130.211243 94.424118,130.942017 
z"/>
<path fill="#5EBCE9" opacity="1.000000" stroke="none" 
	d="
M121.422142,137.939423 
	C121.176834,137.407516 121.220352,136.750290 121.548767,136.048157 
	C121.792755,136.606857 121.751862,137.210480 121.422142,137.939423 
z"/>
<path fill="#5EBCE9" opacity="1.000000" stroke="none" 
	d="
M92.426208,136.944855 
	C92.179367,136.411591 92.222137,135.751999 92.550636,135.047363 
	C92.796181,135.607727 92.756004,136.213104 92.426208,136.944855 
z"/>
<path fill="#5EBCE9" opacity="1.000000" stroke="none" 
	d="
M93.428574,133.947174 
	C93.180092,133.413681 93.221329,132.753616 93.548233,132.048248 
	C93.795364,132.608841 93.756821,133.214722 93.428574,133.947174 
z"/>
<path fill="#5EBCE9" opacity="1.000000" stroke="none" 
	d="
M89.427750,144.945312 
	C89.180725,144.411911 89.223312,143.751862 89.551910,143.046768 
	C89.797729,143.607361 89.757553,144.213013 89.427750,144.945312 
z"/>
<path fill="#61BDE9" opacity="1.000000" stroke="none" 
	d="
M220.664932,60.047756 
	C220.086624,60.511692 219.161102,60.903759 218.075943,61.087013 
	C218.716782,60.577427 219.517258,60.276661 220.664932,60.047756 
z"/>
<path fill="#61BDE9" opacity="1.000000" stroke="none" 
	d="
M214.312042,68.912827 
	C214.591858,68.441757 215.181427,68.042923 215.930725,67.881790 
	C215.600876,68.408012 215.111313,68.696541 214.312042,68.912827 
z"/>
<path fill="#61BDE9" opacity="1.000000" stroke="none" 
	d="
M206.308746,71.908768 
	C206.587585,71.440109 207.172165,71.040062 207.912415,70.878403 
	C207.583557,71.403648 207.099030,71.690514 206.308746,71.908768 
z"/>
<path fill="#5EBCE9" opacity="1.000000" stroke="none" 
	d="
M114.435532,165.956421 
	C114.183868,165.420227 114.223640,164.756699 114.550140,164.047516 
	C114.800232,164.610916 114.763596,165.220001 114.435532,165.956421 
z"/>
<path fill="#59BAE8" opacity="1.000000" stroke="none" 
	d="
M159.957382,18.586792 
	C159.268738,19.227177 158.445938,19.596565 157.260162,19.949129 
	C157.872559,19.393467 158.847885,18.854630 159.957382,18.586792 
z"/>
<path fill="#59BAE8" opacity="1.000000" stroke="none" 
	d="
M156.597168,19.916899 
	C155.864761,20.238911 154.757874,20.604591 153.271881,20.945145 
	C154.002762,20.600203 155.112717,20.280386 156.597168,19.916899 
z"/>
<path fill="#61BDE9" opacity="1.000000" stroke="none" 
	d="
M221.312134,66.907974 
	C221.590179,66.439674 222.176208,66.042183 222.920471,65.881454 
	C222.592499,66.405067 222.106323,66.691925 221.312134,66.907974 
z"/>
<path fill="#59BAE8" opacity="1.000000" stroke="none" 
	d="
M158.307404,34.919537 
	C158.588058,34.449162 159.177399,34.052860 159.924866,33.895142 
	C159.594025,34.420349 159.105057,34.706982 158.307404,34.919537 
z"/>
<path fill="#5EBCE9" opacity="1.000000" stroke="none" 
	d="
M53.706367,153.022675 
	C54.001049,153.408905 54.000881,153.816589 54.001488,154.530045 
	C53.577538,154.895844 53.152813,154.955872 52.411552,155.077103 
	C52.076084,154.944427 52.057163,154.750549 52.018116,154.264908 
	C52.469166,153.663467 52.940342,153.353806 53.706367,153.022675 
z"/>
<path fill="#61BDE9" opacity="1.000000" stroke="none" 
	d="
M225.605667,57.903000 
	C225.054703,58.341248 224.158997,58.821156 223.091202,59.089622 
	C223.699722,58.567009 224.480316,58.255833 225.605667,57.903000 
z"/>
<path fill="#5EBCE9" opacity="1.000000" stroke="none" 
	d="
M86.622849,118.025169 
	C86.551811,118.881821 86.188507,119.870781 85.488686,120.930634 
	C85.544968,120.053505 85.937767,119.105492 86.622849,118.025169 
z"/>
<path fill="#5EBCE9" opacity="1.000000" stroke="none" 
	d="
M118.436859,149.956635 
	C118.186295,149.419739 118.227516,148.755188 118.556328,148.045303 
	C118.805489,148.609634 118.767059,149.219330 118.436859,149.956635 
z"/>
<path fill="#5EBCE9" opacity="1.000000" stroke="none" 
	d="
M136.298096,45.882717 
	C136.490829,45.272778 136.989319,44.678802 137.809265,44.065628 
	C137.621765,44.663849 137.112808,45.281269 136.298096,45.882717 
z"/>
<path fill="#59BAE8" opacity="1.000000" stroke="none" 
	d="
M49.645332,42.044285 
	C49.186806,42.399452 48.381519,42.681194 47.237923,42.931072 
	C47.699265,42.589760 48.498924,42.280308 49.645332,42.044285 
z"/>
<path fill="#59BAE8" opacity="1.000000" stroke="none" 
	d="
M164.966492,17.613384 
	C164.507889,18.096956 163.943314,18.325571 163.201263,18.351597 
	C163.636047,17.885481 164.248291,17.621954 164.966492,17.613384 
z"/>
<path fill="#5EBCE9" opacity="1.000000" stroke="none" 
	d="
M86.300156,151.876038 
	C86.419159,151.264221 86.842247,150.673798 87.559975,150.039825 
	C87.437828,150.629990 87.021034,151.263702 86.300156,151.876038 
z"/>
<path fill="#65BFE9" opacity="1.000000" stroke="none" 
	d="
M54.172783,146.952972 
	C53.828552,146.922333 53.924450,146.547043 53.943474,146.354294 
	C54.718533,146.107468 55.474560,146.053391 56.604790,146.077469 
	C56.158329,146.431625 55.337673,146.707611 54.172783,146.952972 
z"/>
<path fill="#6AC0EA" opacity="1.000000" stroke="none" 
	d="
M108.330505,69.035599 
	C108.437851,68.476006 108.824348,67.796310 109.526794,67.057434 
	C109.431725,67.637329 109.020691,68.276413 108.330505,69.035599 
z"/>
<path fill="#6AC0EA" opacity="1.000000" stroke="none" 
	d="
M104.653214,58.948383 
	C104.549240,59.520451 104.160271,60.211166 103.449402,60.962124 
	C103.541077,60.370586 103.954651,59.718811 104.653214,58.948383 
z"/>
<path fill="#5EBCE9" opacity="1.000000" stroke="none" 
	d="
M91.588623,105.051720 
	C91.750992,105.789734 91.599953,106.685112 91.155853,107.770752 
	C91.000275,107.043709 91.137749,106.126396 91.588623,105.051720 
z"/>
<path fill="#61BDE9" opacity="1.000000" stroke="none" 
	d="
M228.619934,56.909454 
	C228.180023,57.231281 227.390732,57.599720 226.246765,57.940178 
	C226.684921,57.593491 227.477753,57.274780 228.619934,56.909454 
z"/>
<path fill="#61BDE9" opacity="1.000000" stroke="none" 
	d="
M231.617508,55.907837 
	C231.178421,56.230019 230.389969,56.599773 229.246307,56.945969 
	C229.683456,56.600079 230.475800,56.277744 231.617508,55.907837 
z"/>
<path fill="#6AC0EA" opacity="1.000000" stroke="none" 
	d="
M103.344070,73.993774 
	C103.533646,73.437813 104.003860,72.768845 104.815948,72.076080 
	C104.646774,72.661781 104.135735,73.271278 103.344070,73.993774 
z"/>
<path fill="#61BDE9" opacity="1.000000" stroke="none" 
	d="
M234.616119,54.904869 
	C234.177841,55.230629 233.389542,55.601055 232.245941,55.943886 
	C232.682465,55.594032 233.474274,55.271782 234.616119,54.904869 
z"/>
<path fill="#6AC0EA" opacity="1.000000" stroke="none" 
	d="
M107.665207,54.946339 
	C107.559273,55.516266 107.170219,56.209759 106.458786,56.964035 
	C106.551636,56.373180 106.966873,55.721546 107.665207,54.946339 
z"/>
<path fill="#5EBCE9" opacity="1.000000" stroke="none" 
	d="
M129.299652,50.863132 
	C129.497269,50.264091 129.998444,49.674496 130.820923,49.068954 
	C130.629211,49.659531 130.116211,50.266056 129.299652,50.863132 
z"/>
<path fill="#61BDE9" opacity="1.000000" stroke="none" 
	d="
M237.652557,54.056175 
	C237.191147,54.411304 236.381165,54.691898 235.231339,54.944054 
	C235.695663,54.604286 236.499832,54.292961 237.652557,54.056175 
z"/>
<path fill="#55B9E8" opacity="1.000000" stroke="none" 
	d="
M243.628632,165.920929 
	C243.417099,166.091751 242.884354,166.310471 242.186676,166.323898 
	C242.450287,166.068665 242.878860,166.018753 243.628632,165.920929 
z"/>
<path fill="#EAECF6" opacity="1.000000" stroke="none" 
	d="
M42.941238,76.666084 
	C42.597988,76.478828 42.325588,75.968384 42.053223,75.155045 
	C42.372864,75.349068 42.692474,75.845985 42.941238,76.666084 
z"/>
<path fill="#5DBCE8" opacity="1.000000" stroke="none" 
	d="
M208.018402,163.643478 
	C207.569397,163.828430 206.994019,163.708496 206.219086,163.365082 
	C206.643707,163.207245 207.267868,163.272919 208.018402,163.643478 
z"/>
<path fill="#59BAE8" opacity="1.000000" stroke="none" 
	d="
M145.679077,24.056957 
	C145.492447,24.395750 144.992279,24.667568 144.193207,24.931553 
	C144.384720,24.612474 144.875137,24.301229 145.679077,24.056957 
z"/>
<path fill="#5EBCE9" opacity="1.000000" stroke="none" 
	d="
M131.633301,31.903122 
	C131.467621,32.210773 130.984604,32.569153 130.180450,32.937664 
	C130.344879,32.616482 130.830414,32.285168 131.633301,31.903122 
z"/>
<path fill="#EAECF6" opacity="1.000000" stroke="none" 
	d="
M43.934162,79.665054 
	C43.589649,79.476212 43.321140,78.965004 43.053459,78.151741 
	C43.372910,78.347359 43.691536,78.845016 43.934162,79.665054 
z"/>
<path fill="#61BDE9" opacity="1.000000" stroke="none" 
	d="
M209.653061,64.915627 
	C209.484161,65.210907 209.004578,65.563591 208.206253,65.919365 
	C208.372467,65.605980 208.857422,65.289505 209.653061,64.915627 
z"/>
<path fill="#5EBCE9" opacity="1.000000" stroke="none" 
	d="
M128.708954,33.950882 
	C128.716431,34.313793 128.483994,34.766479 128.098602,35.050850 
	C128.120117,34.601906 128.294556,34.321281 128.708954,33.950882 
z"/>
<path fill="#5EBCE9" opacity="1.000000" stroke="none" 
	d="
M126.640617,35.913345 
	C126.472061,36.217743 125.985283,36.572712 125.177635,36.937111 
	C125.345306,36.618996 125.833847,36.291454 126.640617,35.913345 
z"/>
<path fill="#FDFDFE" opacity="1.000000" stroke="none" 
	d="
M44.338261,99.990051 
	C44.158546,99.540169 44.283104,98.975845 44.630817,98.220352 
	C44.783489,98.644661 44.713009,99.260139 44.338261,99.990051 
z"/>
<path fill="#62BDE9" opacity="1.000000" stroke="none" 
	d="
M30.639170,50.907234 
	C30.474123,51.215622 29.989779,51.574818 29.183750,51.943466 
	C29.348003,51.621292 29.833939,51.289665 30.639170,50.907234 
z"/>
<path fill="#5EBCE9" opacity="1.000000" stroke="none" 
	d="
M125.364761,53.094521 
	C125.533852,52.786369 126.023735,52.430977 126.836319,52.073540 
	C126.667854,52.396763 126.176704,52.722023 125.364761,53.094521 
z"/>
<path fill="#62BDE9" opacity="1.000000" stroke="none" 
	d="
M27.634848,52.900589 
	C27.463549,53.211582 26.971157,53.570606 26.153206,53.927521 
	C26.323019,53.599819 26.818388,53.274220 27.634848,52.900589 
z"/>
<path fill="#EAECF6" opacity="1.000000" stroke="none" 
	d="
M41.090542,72.611076 
	C40.914520,72.408066 40.681854,71.887764 40.647472,71.196365 
	C40.908470,71.448112 40.971184,71.870949 41.090542,72.611076 
z"/>
<path fill="#E4E7F4" opacity="1.000000" stroke="none" 
	d="
M35.914982,126.570831 
	C35.528290,126.363838 35.207577,125.812057 34.912033,124.920441 
	C35.285114,125.129082 35.633038,125.677567 35.914982,126.570831 
z"/>
<path fill="#5DBCE8" opacity="1.000000" stroke="none" 
	d="
M207.974930,185.310120 
	C208.199982,185.105148 208.476028,185.235535 208.842621,185.646667 
	C208.673813,185.742340 208.371384,185.648361 207.974930,185.310120 
z"/>
<path fill="#55B9E8" opacity="1.000000" stroke="none" 
	d="
M239.722015,166.118271 
	C239.845367,166.435287 239.626160,166.660233 239.103638,166.886276 
	C239.069901,166.674911 239.262955,166.387863 239.722015,166.118271 
z"/>
<path fill="#5DBCE8" opacity="1.000000" stroke="none" 
	d="
M207.234009,184.944153 
	C207.284546,184.829361 207.562607,184.797058 207.888214,184.944061 
	C207.935791,185.123352 207.461533,185.026657 207.234009,184.944153 
z"/>
<path fill="#55B9E8" opacity="1.000000" stroke="none" 
	d="
M244.724762,165.108963 
	C244.850967,165.431641 244.633972,165.655090 244.110596,165.870880 
	C244.075668,165.655457 244.268127,165.370956 244.724762,165.108963 
z"/>
<path fill="#EAECF6" opacity="1.000000" stroke="none" 
	d="
M41.916222,73.721802 
	C41.566715,73.852013 41.345860,73.629349 41.144386,73.092758 
	C41.373566,73.058739 41.667267,73.255432 41.916222,73.721802 
z"/>
<path fill="#6AC0EA" opacity="1.000000" stroke="none" 
	d="
M102.299339,75.047989 
	C102.239037,74.854317 102.432640,74.559135 102.872391,74.152679 
	C102.930107,74.343109 102.741684,74.644798 102.299339,75.047989 
z"/>
<path fill="#5EBCE9" opacity="1.000000" stroke="none" 
	d="
M112.281471,64.880737 
	C112.163223,64.548271 112.388229,64.328583 112.919113,64.120232 
	C112.948944,64.341080 112.748863,64.628403 112.281471,64.880737 
z"/>
<path fill="#59BAE8" opacity="1.000000" stroke="none" 
	d="
M152.700729,20.927998 
	C152.705795,21.059484 152.475876,21.240805 152.129913,21.281517 
	C152.013885,21.140907 152.465759,20.977831 152.700729,20.927998 
z"/>
<path fill="#59BAE8" opacity="1.000000" stroke="none" 
	d="
M143.704071,24.934391 
	C143.709061,25.062792 143.479614,25.243999 143.133484,25.286652 
	C143.016800,25.148098 143.469650,24.987196 143.704071,24.934391 
z"/>
<path fill="#5EBCE9" opacity="1.000000" stroke="none" 
	d="
M102.138016,142.285004 
	C102.460899,142.168076 102.676781,142.386841 102.890457,142.900879 
	C102.675972,142.931839 102.390221,142.740021 102.138016,142.285004 
z"/>
<path fill="#5EBCE9" opacity="1.000000" stroke="none" 
	d="
M114.308533,63.047394 
	C114.246651,62.853264 114.437355,62.559330 114.873062,62.155811 
	C114.932411,62.346680 114.746765,62.647137 114.308533,63.047394 
z"/>
<path fill="#5EBCE9" opacity="1.000000" stroke="none" 
	d="
M117.700882,43.962837 
	C117.755852,44.159187 117.553772,44.449841 117.103149,44.846512 
	C117.051018,44.654068 117.247421,44.355602 117.700882,43.962837 
z"/>
<path fill="#5EBCE9" opacity="1.000000" stroke="none" 
	d="
M121.326286,57.054512 
	C121.268860,56.860420 121.462715,56.564751 121.906982,56.166061 
	C121.964119,56.359669 121.770844,56.656300 121.326286,57.054512 
z"/>
<path fill="#5EBCE9" opacity="1.000000" stroke="none" 
	d="
M113.679047,144.976395 
	C113.889488,145.200836 113.762932,145.476425 113.354340,145.842377 
	C113.256088,145.674133 113.346016,145.372391 113.679047,144.976395 
z"/>
<path fill="#5EBCE9" opacity="1.000000" stroke="none" 
	d="
M79.071777,138.239227 
	C79.269218,138.210190 79.400635,138.399017 79.485672,138.606842 
	C79.500603,138.643356 79.321136,138.759415 79.054893,138.883301 
	C78.878334,138.927872 78.989998,138.463547 79.071777,138.239227 
z"/>
<path fill="#F1F2F8" opacity="1.000000" stroke="none" 
	d="
M12.041111,48.694855 
	C11.837480,48.751385 11.550122,48.543850 11.156063,48.087822 
	C11.352036,48.036480 11.654712,48.233635 12.041111,48.694855 
z"/>
<path fill="#EEEFF7" opacity="1.000000" stroke="none" 
	d="
M3.189268,134.581696 
	C3.505169,134.622498 3.644779,134.905701 3.871885,135.654404 
	C3.643914,135.687958 3.328445,135.256027 3.189268,134.581696 
z"/>
<path fill="#65BFE9" opacity="1.000000" stroke="none" 
	d="
M40.582638,148.916351 
	C39.549034,149.238419 38.121864,149.608841 36.295326,149.956451 
	C37.326992,149.610657 38.758030,149.287674 40.582638,148.916351 
z"/>
<path fill="#65BFE9" opacity="1.000000" stroke="none" 
	d="
M35.227730,150.884644 
	C33.845161,150.885345 32.682125,150.755341 31.269165,150.378998 
	C32.389381,150.079468 33.759518,150.026260 35.539787,149.926865 
	C35.782368,150.171768 35.614815,150.462845 35.227730,150.884644 
z"/>
<path fill="#65BFE9" opacity="1.000000" stroke="none" 
	d="
M28.618153,151.070312 
	C28.127058,151.291458 27.269197,151.439301 26.217596,151.367294 
	C26.766367,151.097321 27.508875,151.047165 28.618153,151.070312 
z"/>
<path fill="#65BFE9" opacity="1.000000" stroke="none" 
	d="
M41.638969,147.998520 
	C41.906570,148.085236 41.940369,148.264435 42.001801,148.715546 
	C41.842739,148.987823 41.656036,148.988190 41.189327,148.964539 
	C41.074604,148.657364 41.239887,148.374191 41.638969,147.998520 
z"/>
<path fill="#65BFE9" opacity="1.000000" stroke="none" 
	d="
M48.186256,147.969788 
	C48.506851,147.558838 49.104229,147.157776 49.791046,147.029846 
	C49.408005,147.528549 48.935520,147.754105 48.186256,147.969788 
z"/>
<path fill="#000000" opacity="1.000000" stroke="none" 
	d="
M41.500786,87.691208 
	C35.331165,88.408813 29.161541,89.126411 23.069008,89.441193 
	C23.426918,87.937675 23.707741,86.836983 23.912289,85.368393 
	C23.836012,85.000496 23.998579,84.542793 24.356449,84.181351 
	C24.756533,83.213013 24.798744,82.606125 24.840958,81.999237 
	C25.230352,81.261269 25.619745,80.523293 26.311932,79.346054 
	C27.030508,78.267052 27.446289,77.627327 27.862068,76.987602 
	C27.862066,76.987602 27.993311,76.571365 28.328529,76.221382 
	C29.153172,74.928970 29.642595,73.986549 30.132019,73.044121 
	C30.475296,73.033577 30.737869,72.882645 31.235771,72.265427 
	C31.742239,71.639168 31.932678,71.338799 32.123116,71.038422 
	C32.399590,70.866982 32.676064,70.695541 33.034950,70.284218 
	C34.462837,71.223389 36.388786,72.146271 37.043621,73.630119 
	C38.916634,77.874336 40.273602,82.346283 41.733532,87.174820 
	C41.633556,87.620956 41.500786,87.691208 41.500786,87.691208 
z"/>
<path fill="#000000" opacity="1.000000" stroke="none" 
	d="
M23.978752,102.305832 
	C23.906906,100.324654 23.890816,98.709320 26.719784,98.933029 
	C30.296267,99.215851 33.912079,99.001335 37.811378,99.001335 
	C38.526539,106.997398 37.022934,113.987411 31.478069,119.958527 
	C29.133610,115.847229 27.157291,111.748207 25.077236,106.910980 
	C24.632093,104.987816 24.290684,103.802864 23.949276,102.617905 
	C23.949276,102.617905 24.055258,102.399857 23.978752,102.305832 
z"/>
<path fill="#E4E7F4" opacity="1.000000" stroke="none" 
	d="
M23.875618,103.004440 
	C24.290684,103.802864 24.632093,104.987816 24.914013,106.566513 
	C24.503670,105.770493 24.152815,104.580734 23.875618,103.004440 
z"/>
<path fill="#62BDE9" opacity="1.000000" stroke="none" 
	d="
M29.768694,73.086319 
	C29.642595,73.986549 29.153172,74.928970 28.355768,76.004868 
	C28.500315,75.135063 28.952843,74.131790 29.768694,73.086319 
z"/>
<path fill="#62BDE9" opacity="1.000000" stroke="none" 
	d="
M24.554253,82.044754 
	C24.798744,82.606125 24.756533,83.213013 24.424593,83.948250 
	C24.179092,83.414490 24.223320,82.752373 24.554253,82.044754 
z"/>
<path fill="#62BDE9" opacity="1.000000" stroke="none" 
	d="
M27.545052,77.045715 
	C27.446289,77.627327 27.030508,78.267052 26.330574,79.021049 
	C26.440290,78.458160 26.834164,77.780998 27.545052,77.045715 
z"/>
<path fill="#62BDE9" opacity="1.000000" stroke="none" 
	d="
M31.878540,71.150017 
	C31.932678,71.338799 31.742239,71.639168 31.297052,72.038422 
	C31.239525,71.845406 31.436745,71.553505 31.878540,71.150017 
z"/>
<path fill="#EAECF6" opacity="1.000000" stroke="none" 
	d="
M41.670986,87.555840 
	C41.912926,87.673904 42.117435,87.857094 42.321945,88.040283 
	C42.133308,88.042053 41.944668,88.043831 41.628410,87.868408 
	C41.500786,87.691208 41.633556,87.620956 41.670986,87.555840 
z"/>
</svg>