<svg width="48" height="46" viewBox="0 0 48 46" fill="none" xmlns="http://www.w3.org/2000/svg">
<path d="M1.12109 30.3105L1.89005 31.8484C2.01821 32.0727 2.30657 32.1688 2.53085 32.0407C4.32509 30.9513 11.2457 26.8182 12.1428 26.8502C16.244 27.0745 6.24749 23.9346 6.24749 23.9346L1.12109 30.3105Z" fill="url(#paint0_linear_521_3163)"/>
<path d="M22.2676 26.0176L22.6521 29.3818C22.6521 29.3818 22.9084 30.6954 23.3569 30.5673C23.8055 30.4391 24.991 30.4711 25.2793 29.7663C25.5677 29.0614 25.5997 26.0176 25.5997 26.0176H22.2676Z" fill="url(#paint1_linear_521_3163)"/>
<path d="M40.8506 28.8689C40.8506 28.8689 44.9197 31.0476 45.6886 32.169C45.7847 32.3292 45.977 32.3933 46.1692 32.3292C47.2265 31.8807 47.611 27.4912 47.611 27.4912L40.8506 28.8689Z" fill="url(#paint2_linear_521_3163)"/>
<path d="M3.26774 34.3472C7.27274 29.8937 12.0467 28.2276 17.3013 28.0674C17.6217 28.0674 17.91 28.2276 18.0702 28.5159C18.3906 29.0927 20.5693 32.4248 20.7295 33.1617C21.4344 39.6018 19.9606 43.9272 15.5391 45.4331C15.1225 45.5933 14.6419 45.5932 14.1934 45.4651C12.1108 44.8243 8.8427 42.8058 6.31154 40.0183C4.96586 38.5445 4.06874 36.8143 3.17162 35.1162C3.04346 34.8599 3.0755 34.5715 3.26774 34.3472Z" fill="url(#paint3_linear_521_3163)"/>
<path d="M45.1442 34.3472C41.1392 29.8937 36.3652 28.2276 31.1106 28.0674C30.7902 28.0674 30.1494 28.0674 29.9892 28.3237C29.6689 28.9004 29.3805 29.349 29.2203 29.8296C29.0601 30.2781 28.4513 32.4248 28.2911 33.1297C27.5863 39.5697 27.5863 44.1514 32.8408 45.401C33.2894 45.4971 33.7379 45.5612 34.1865 45.433C36.2691 44.7922 39.5372 42.7737 42.0683 39.9863C43.414 38.5124 44.3111 36.7823 45.2082 35.0841C45.3684 34.8599 45.3364 34.5715 45.1442 34.3472Z" fill="url(#paint4_linear_521_3163)"/>
<path d="M47.0338 30.631C46.9056 31.0476 45.592 30.7912 45.2395 30.6631C41.9714 29.3494 38.7354 28.0358 35.4673 26.7222C34.9867 26.5299 34.4741 26.4658 33.9935 26.2736C33.8333 26.2095 33.7051 26.0173 33.609 25.8571C33.577 25.825 33.7692 25.6008 33.8974 25.5367C36.4926 24.3192 39.184 23.2939 42.0996 23.1978C43.7016 23.1657 45.3356 23.4541 46.9376 23.6463C47.6105 23.7425 47.8988 24.2551 47.9309 24.8959C47.9309 25.2804 47.9309 25.6328 47.9309 26.0173C47.995 26.0493 47.5144 29.1252 47.0338 30.631Z" fill="#F1F1F1"/>
<path d="M4.61375 23.0693C7.94591 23.1655 11.0538 23.9665 13.9374 25.5685C14.0335 25.6325 14.1296 25.7287 14.1937 25.8568C14.2898 25.985 14.2578 26.1452 14.1296 26.2413C14.0015 26.3374 13.9053 26.4335 13.7772 26.4656C11.9509 27.1064 10.1246 27.7151 8.33039 28.388C6.69635 28.9647 5.09435 29.6055 3.46032 30.2143C2.97972 30.4065 2.53116 30.6308 2.05056 30.7589C1.63404 30.8871 1.34568 30.6948 1.15344 30.3104C0.0961189 28.3559 -1.00158e-06 26.3054 0.448559 24.1907C0.480599 23.9665 0.800998 23.6781 1.05732 23.6461C2.21076 23.4218 3.42828 23.2616 4.61375 23.0693Z" fill="#F1F1F1"/>
<path d="M14.3858 19.1603C14.4178 19.3846 14.3538 19.737 14.1936 19.8331C14.0334 19.9292 13.6809 19.8652 13.4887 19.737C12.3352 18.968 11.1498 18.1991 10.0604 17.334C9.70796 17.0456 9.45164 16.533 9.35552 16.1165C8.939 13.5853 8.42636 11.0542 7.08068 8.87545C6.02336 7.14529 7.62536 6.37633 8.7788 5.67145C9.00308 5.54329 9.4196 5.67145 9.64388 5.83165C10.9896 6.85693 12.3352 7.91425 13.6168 9.00361C13.8411 9.19585 13.9693 9.54829 13.9693 9.86869C14.0334 10.8299 14.2256 17.0456 14.3858 19.1603Z" fill="#F1F1F1"/>
<path d="M38.9606 5.51172C39.1208 5.5758 39.3451 5.60784 39.5053 5.736C39.9218 6.0564 40.3383 6.34476 40.6587 6.72924C41.4597 7.59432 41.3956 7.72248 40.9791 8.7798C40.2422 10.574 39.5694 12.3683 38.9286 14.1946C38.7684 14.6752 38.7684 15.2519 38.7363 15.7965C38.7043 16.4053 38.48 16.9179 37.9674 17.3024C36.8139 18.1034 35.6605 18.9365 34.475 19.7054C34.2828 19.8336 33.9624 19.7695 33.706 19.8015C33.706 19.5452 33.642 19.2889 33.674 19.0326C33.8022 17.6869 34.0585 16.3733 34.0905 15.0276C34.1546 13.2974 34.0905 11.5993 34.1546 9.86915C34.1546 9.51671 34.3148 9.06816 34.5391 8.87592C35.8527 7.78656 37.1984 6.76128 38.512 5.70396C38.6402 5.60784 38.8004 5.5758 38.9606 5.51172Z" fill="#F1F1F1"/>
<path d="M22.0107 13.7454C22.203 13.2328 22.4913 12.3036 22.8438 11.4065C23.0681 10.7977 23.3885 10.221 23.7089 9.67632C25.2468 7.04904 25.5992 4.03728 26.1759 1.12165C26.24 0.833287 26.5604 0.352687 26.7847 0.352687C27.3294 0.320647 27.9381 0.416767 28.4508 0.641047C28.5789 0.673087 28.5469 1.37797 28.4187 1.69837C27.7139 3.74892 26.9129 5.76744 26.3041 7.818C26.0157 8.74716 26.0798 9.80448 26.0157 10.7977C25.8235 13.393 25.8876 16.0202 26.3361 18.5834C26.3361 18.6155 26.3682 18.6796 26.3682 18.7116C26.24 19.1922 26.1119 19.6728 25.9837 20.1213C25.5992 19.8971 25.1827 19.7369 24.8623 19.4485C24.2856 18.9038 23.805 18.263 23.2923 17.6543C22.4913 16.6931 22.0748 15.5076 22.0107 13.7454Z" fill="#F1F1F1"/>
<path d="M46.682 21.3715C44.5994 21.4356 42.4847 21.3715 40.4021 21.6278C38.672 21.8201 37.0059 22.3968 35.3078 22.8133C35.1476 22.8454 34.9874 22.9415 34.8272 22.9415C34.667 22.9415 34.4106 22.8774 34.3466 22.7492C34.2825 22.6531 34.3786 22.3648 34.5068 22.3007C35.8524 21.2434 37.134 20.154 38.5758 19.2248C40.7225 17.8471 43.1576 17.0141 45.6567 16.5014C46.3295 16.3412 46.6499 16.5335 46.8742 17.2063C47.1626 18.2316 47.4509 19.2569 47.7072 20.3142C47.9315 21.2113 47.6111 21.5958 46.682 21.3715Z" fill="#F1F1F1"/>
<path d="M2.27428 16.4053C2.6908 16.5014 3.1714 16.6296 3.652 16.7577C6.11908 17.4626 8.52207 18.3597 10.5726 19.9938C11.3736 20.6346 12.1426 21.3074 12.8795 22.0123C13.0077 22.1404 13.0077 22.4288 13.0397 22.621C12.8154 22.621 12.6232 22.621 12.3989 22.5569C10.9892 22.2686 9.57939 21.8521 8.16963 21.6598C5.67052 21.3074 3.13936 21.2113 0.64024 21.4996C0.22372 21.5317 -0.0966793 21.4996 0.0635205 20.9549C0.448 19.7054 0.83248 18.4558 1.21696 17.2063C1.34512 16.7257 1.63348 16.4053 2.27428 16.4053Z" fill="#F1F1F1"/>
<path d="M32.2634 14.8672C32.0391 18.1032 31.4624 21.1149 29.9245 23.9024C29.508 24.6393 29.2196 25.4403 28.8351 26.1452C28.707 26.4015 28.4186 26.5617 28.1943 26.786C28.0662 26.5297 27.8739 26.2734 27.8739 26.0171C27.6497 23.1335 28.1303 20.346 29.0594 17.5905C29.5721 16.0526 30.341 14.6429 31.2381 13.3292C31.3983 13.105 31.7508 13.0088 32.0071 12.8486C32.1032 13.105 32.2634 13.3613 32.2955 13.6176C32.2955 14.0341 32.2634 14.5147 32.2634 14.8672Z" fill="#F1F1F1"/>
<path d="M20.1202 23.9661C20.1202 24.5428 20.1523 25.1196 20.1202 25.7283C20.1202 25.8244 20.0882 25.8885 20.0562 25.9526C19.96 26.1128 19.7678 26.1769 19.6076 26.1128C19.5115 26.0487 19.4154 26.0167 19.3513 25.9206C19.1911 25.6963 19.095 25.3759 18.9668 25.0875C18.2619 23.5176 17.5891 21.9476 16.8201 20.4097C16.1152 18.9358 16.1152 17.3338 15.9871 15.7639C15.923 14.9629 15.955 14.1939 16.0191 13.3929C16.0191 13.2007 16.2434 12.9764 16.4036 12.9123C16.5318 12.8803 16.8201 13.0405 16.8842 13.2007C17.557 14.4823 18.294 15.7318 18.8066 17.0775C19.6396 19.2883 20.2164 21.5631 20.1202 23.9661Z" fill="#F1F1F1"/>
<path d="M31.7834 8.01015C31.6553 8.49075 31.6232 9.00339 31.3669 9.35583C30.4057 10.8617 29.4125 12.3676 28.3872 13.8414C28.2911 14.0016 27.8745 14.1298 27.7464 14.0337C27.5541 13.9055 27.3939 13.5851 27.426 13.3608C27.5221 12.2715 27.7143 11.1821 27.8105 10.0928C28.0027 8.10627 28.5474 6.21591 29.3163 4.38964C29.4125 4.13332 29.6688 3.94108 29.829 3.7168C30.0212 3.94108 30.2455 4.13332 30.3416 4.3576C30.662 4.96636 30.9504 5.60716 31.2067 6.24795C31.4951 6.82467 31.6232 7.40139 31.7834 8.01015Z" fill="#F1F1F1"/>
<path d="M16.2441 7.59424C16.5966 6.82528 16.917 6.02428 17.2694 5.25532C17.4296 4.90288 17.6219 4.55045 17.8461 4.23005C18.1025 3.84557 18.551 3.87761 18.6792 4.32617C19.1598 5.99224 19.8647 7.59424 20.0249 9.35644C20.153 10.7021 20.3453 12.0478 20.4414 13.3935C20.4734 13.6178 20.3132 13.9382 20.121 14.0663C19.9928 14.1624 19.5443 14.0343 19.4802 13.9061C18.4549 12.0798 17.0772 10.4778 16.4684 8.42728C16.4043 8.17096 16.3723 7.91464 16.3082 7.65832C16.3403 7.62628 16.3082 7.62628 16.2441 7.59424Z" fill="#F1F1F1"/>
<path d="M24.1579 1.89065C23.9977 3.49265 23.4209 5.31893 22.6199 7.04909C22.5238 7.27337 22.2034 7.36949 22.0112 7.52969C21.883 7.30541 21.7228 7.11317 21.6267 6.88889C21.1781 5.76749 20.7616 4.64609 20.3131 3.52469C19.9927 2.72369 19.6082 1.95473 19.3198 1.15373C19.2557 1.02557 19.48 0.641095 19.6402 0.609055C20.6335 0.384775 21.6267 0.0643756 22.6199 0.0323356C23.9015 -0.0637843 24.1899 0.320695 24.1579 1.89065Z" fill="#F1F1F1"/>
<path d="M21.7228 20.0574C21.6908 19.8331 21.819 19.5768 21.883 19.3525C22.0753 19.4487 22.3316 19.4807 22.4597 19.6409C23.4209 20.6341 24.3821 21.6594 25.3433 22.6847C25.7278 23.0692 25.8239 23.5177 25.6958 24.0945C25.5676 24.7353 25.5997 25.3761 25.5997 26.0489C25.5997 27.1062 25.6958 26.9781 24.3501 26.9781C24.1258 26.9781 23.8375 26.9781 23.6132 27.0101C22.2675 27.1383 22.3957 26.9781 22.2675 26.0809C22.0753 24.7032 21.7869 20.7303 21.7228 20.0574Z" fill="#F1F1F1"/>
<path d="M40.5625 14.9626C41.0431 13.6169 41.5237 12.3033 42.0043 10.9897C42.1325 10.6693 42.3247 10.3489 42.4849 10.0605C42.7412 9.54786 42.9975 9.51582 43.382 9.96438C44.4073 11.1499 45.1442 12.4635 45.6889 13.9373C45.8171 14.2898 45.6889 14.5141 45.3365 14.6102C44.0549 14.9947 42.8053 15.3791 41.5237 15.7636C40.947 15.8918 40.6586 15.6355 40.5625 14.9626Z" fill="#F1F1F1"/>
<path d="M7.30468 15.0917C7.30468 15.6684 7.0804 15.8606 6.53572 15.7004C5.35024 15.348 4.13272 14.9635 2.94725 14.579C2.21033 14.3227 2.11421 14.1305 2.49869 13.4576C3.17152 12.2722 3.90844 11.1187 4.64536 9.96527C4.90168 9.58079 5.19004 9.48467 5.54248 9.90119C6.08716 10.6702 7.30468 14.1625 7.30468 15.0917Z" fill="#F1F1F1"/>
<path d="M16.4364 1.31445C16.5004 1.53873 16.6606 1.79505 16.6286 1.95525C16.3402 2.75625 15.9558 3.52521 15.6354 4.32621C15.4111 4.87089 15.2188 5.41557 15.0586 5.96025C14.8023 6.82533 14.3538 6.98553 13.6489 6.44085C12.8479 5.80005 12.0469 5.15925 11.2779 4.51845C10.9575 4.26213 10.7973 3.97377 11.2779 3.71745C12.8479 2.94849 14.4499 2.17953 16.0519 1.44261C16.0839 1.41057 16.148 1.37853 16.4364 1.31445Z" fill="#F1F1F1"/>
<path d="M33.6093 6.82515C33.4812 6.72903 33.2889 6.60087 33.2249 6.44067C32.5841 4.90275 31.9753 3.36483 31.3986 1.85895C31.3345 1.73079 31.3665 1.50651 31.4627 1.41039C31.5588 1.31427 31.7831 1.31427 31.9112 1.34631C33.4812 2.05119 35.0191 2.78811 36.557 3.52503C36.9415 3.71727 37.1337 4.10175 36.7492 4.45419C35.8521 5.22315 34.923 5.96007 33.9938 6.69699C33.8977 6.76107 33.7695 6.76107 33.6093 6.82515Z" fill="#F1F1F1"/>
<defs>
<linearGradient id="paint0_linear_521_3163" x1="7.11337" y1="32.1189" x2="7.11337" y2="23.9755" gradientUnits="userSpaceOnUse">
<stop offset="4.74173e-07" stop-color="#5F9630"/>
<stop offset="1" stop-color="#A6B953"/>
</linearGradient>
<linearGradient id="paint1_linear_521_3163" x1="23.9306" y1="30.5856" x2="23.9306" y2="26.0214" gradientUnits="userSpaceOnUse">
<stop offset="4.74173e-07" stop-color="#5F9630"/>
<stop offset="1" stop-color="#A6B953"/>
</linearGradient>
<linearGradient id="paint2_linear_521_3163" x1="44.2383" y1="32.3383" x2="44.2383" y2="27.4784" gradientUnits="userSpaceOnUse">
<stop offset="4.74173e-07" stop-color="#5F9630"/>
<stop offset="1" stop-color="#A6B953"/>
</linearGradient>
<linearGradient id="paint3_linear_521_3163" x1="12.0003" y1="45.5576" x2="12.0003" y2="28.0791" gradientUnits="userSpaceOnUse">
<stop offset="4.74173e-07" stop-color="#5F9630"/>
<stop offset="1" stop-color="#A6B953"/>
</linearGradient>
<linearGradient id="paint4_linear_521_3163" x1="36.6432" y1="45.5443" x2="36.6432" y2="28.0766" gradientUnits="userSpaceOnUse">
<stop offset="4.74173e-07" stop-color="#5F9630"/>
<stop offset="1" stop-color="#A6B953"/>
</linearGradient>
</defs>
</svg>
