<svg width="174" height="47" viewBox="0 0 174 47" fill="none" xmlns="http://www.w3.org/2000/svg">
<path d="M1.12109 30.3095L1.89005 31.8475C2.01821 32.0717 2.30657 32.1679 2.53085 32.0397C4.32509 30.9503 11.2457 26.8172 12.1428 26.8492C16.244 27.0735 6.24749 23.9336 6.24749 23.9336L1.12109 30.3095Z" fill="url(#paint0_linear_261_1107)"/>
<path d="M22.2673 26.0161L22.6518 29.3803C22.6518 29.3803 22.9081 30.694 23.3567 30.5658C23.8053 30.4376 24.9907 30.4697 25.2791 29.7648C25.5675 29.0599 25.5995 26.0161 25.5995 26.0161H22.2673Z" fill="url(#paint1_linear_261_1107)"/>
<path d="M40.8506 28.868C40.8506 28.868 44.9197 31.0467 45.6886 32.1681C45.7847 32.3283 45.977 32.3923 46.1692 32.3283C47.2265 31.8797 47.611 27.4902 47.611 27.4902L40.8506 28.868Z" fill="url(#paint2_linear_261_1107)"/>
<path d="M3.26774 34.3467C7.27274 29.8932 12.0467 28.2271 17.3013 28.0669C17.6217 28.0669 17.91 28.2271 18.0702 28.5155C18.3906 29.0922 20.5693 32.4243 20.7295 33.1613C21.4344 39.6013 19.9606 43.9267 15.5391 45.4326C15.1225 45.5928 14.6419 45.5928 14.1934 45.4646C12.1108 44.8238 8.8427 42.8053 6.31154 40.0178C4.96586 38.544 4.06874 36.8138 3.17162 35.1157C3.04346 34.8594 3.0755 34.571 3.26774 34.3467Z" fill="url(#paint3_linear_261_1107)"/>
<path d="M45.1439 34.3467C41.1389 29.8932 36.365 28.2271 31.1104 28.0669C30.79 28.0669 30.1492 28.0669 29.989 28.3232C29.6686 28.8999 29.3802 29.3485 29.22 29.8291C29.0598 30.2777 28.4511 32.4243 28.2909 33.1292C27.586 39.5692 27.586 44.151 32.8406 45.4005C33.2891 45.4966 33.7377 45.5607 34.1862 45.4326C36.2688 44.7918 39.5369 42.7732 42.0681 39.9858C43.4138 38.5119 44.3109 36.7818 45.208 35.0836C45.3682 34.8594 45.3362 34.571 45.1439 34.3467Z" fill="url(#paint4_linear_261_1107)"/>
<path d="M47.0338 30.6301C46.9056 31.0466 45.592 30.7903 45.2395 30.6621C41.9714 29.3485 38.7354 28.0348 35.4673 26.7212C34.9867 26.529 34.4741 26.4649 33.9935 26.2726C33.8333 26.2086 33.7051 26.0163 33.609 25.8561C33.577 25.8241 33.7692 25.5998 33.8974 25.5357C36.4926 24.3182 39.184 23.2929 42.0996 23.1968C43.7016 23.1648 45.3356 23.4531 46.9376 23.6454C47.6105 23.7415 47.8988 24.2541 47.9309 24.8949C47.9309 25.2794 47.9309 25.6318 47.9309 26.0163C47.995 26.0484 47.5144 29.1242 47.0338 30.6301Z" fill="#F1F1F1"/>
<path d="M4.61375 23.0688C7.94591 23.165 11.0538 23.966 13.9374 25.568C14.0335 25.632 14.1296 25.7282 14.1937 25.8563C14.2898 25.9845 14.2578 26.1447 14.1296 26.2408C14.0015 26.3369 13.9053 26.433 13.7772 26.4651C11.9509 27.1059 10.1246 27.7146 8.33039 28.3875C6.69635 28.9642 5.09435 29.605 3.46032 30.2138C2.97972 30.406 2.53116 30.6303 2.05056 30.7584C1.63404 30.8866 1.34568 30.6944 1.15344 30.3099C0.0961189 28.3554 -9.98378e-07 26.3049 0.448559 24.1902C0.480599 23.966 0.800998 23.6776 1.05732 23.6456C2.21076 23.4213 3.42828 23.2611 4.61375 23.0688Z" fill="#F1F1F1"/>
<path d="M14.3858 19.1598C14.4178 19.3841 14.3538 19.7365 14.1936 19.8326C14.0334 19.9288 13.6809 19.8647 13.4887 19.7365C12.3352 18.9676 11.1498 18.1986 10.0604 17.3335C9.70796 17.0452 9.45164 16.5325 9.35552 16.116C8.939 13.5848 8.42636 11.0537 7.08068 8.87496C6.02336 7.1448 7.62536 6.37584 8.7788 5.67096C9.00308 5.5428 9.4196 5.67096 9.64388 5.83116C10.9896 6.85644 12.3352 7.91376 13.6168 9.00312C13.8411 9.19536 13.9693 9.5478 13.9693 9.8682C14.0334 10.8294 14.2256 17.0452 14.3858 19.1598Z" fill="#F1F1F1"/>
<path d="M38.9606 5.51074C39.1208 5.57482 39.3451 5.60686 39.5053 5.73502C39.9218 6.05542 40.3383 6.34378 40.6587 6.72826C41.4597 7.59334 41.3956 7.7215 40.9791 8.77882C40.2422 10.5731 39.5694 12.3673 38.9286 14.1936C38.7684 14.6742 38.7684 15.2509 38.7363 15.7956C38.7043 16.4043 38.48 16.917 37.9674 17.3015C36.8139 18.1025 35.6605 18.9355 34.475 19.7044C34.2828 19.8326 33.9624 19.7685 33.706 19.8006C33.706 19.5442 33.642 19.2879 33.674 19.0316C33.8022 17.6859 34.0585 16.3723 34.0905 15.0266C34.1546 13.2965 34.0905 11.5983 34.1546 9.86818C34.1546 9.51574 34.3148 9.06718 34.5391 8.87494C35.8527 7.78558 37.1984 6.7603 38.512 5.70298C38.6402 5.60686 38.8004 5.57482 38.9606 5.51074Z" fill="#F1F1F1"/>
<path d="M22.0107 13.7449C22.203 13.2323 22.4913 12.3031 22.8438 11.406C23.0681 10.7972 23.3885 10.2205 23.7089 9.67583C25.2468 7.04855 25.5992 4.0368 26.1759 1.12116C26.24 0.832798 26.5604 0.352199 26.7847 0.352199C27.3294 0.320159 27.9381 0.416279 28.4508 0.640559C28.5789 0.672599 28.5469 1.37748 28.4187 1.69788C27.7139 3.74844 26.9129 5.76695 26.3041 7.81751C26.0157 8.74667 26.0798 9.80399 26.0157 10.7972C25.8235 13.3925 25.8876 16.0197 26.3361 18.5829C26.3361 18.615 26.3682 18.6791 26.3682 18.7111C26.24 19.1917 26.1119 19.6723 25.9837 20.1209C25.5992 19.8966 25.1827 19.7364 24.8623 19.448C24.2856 18.9033 23.805 18.2625 23.2923 17.6538C22.4913 16.6926 22.0748 15.5071 22.0107 13.7449Z" fill="#F1F1F1"/>
<path d="M46.6817 21.3705C44.5991 21.4346 42.4845 21.3705 40.4019 21.6269C38.6717 21.8191 37.0056 22.3958 35.3075 22.8123C35.1473 22.8444 34.9871 22.9405 34.8269 22.9405C34.6667 22.9405 34.4104 22.8764 34.3463 22.7483C34.2822 22.6521 34.3784 22.3638 34.5065 22.2997C35.8522 21.2424 37.1338 20.153 38.5756 19.2239C40.7223 17.8461 43.1573 17.0131 45.6564 16.5005C46.3293 16.3403 46.6497 16.5325 46.874 17.2053C47.1623 18.2306 47.4507 19.2559 47.707 20.3132C47.9313 21.2103 47.6109 21.5948 46.6817 21.3705Z" fill="#F1F1F1"/>
<path d="M2.27428 16.4043C2.6908 16.5004 3.1714 16.6286 3.652 16.7567C6.11908 17.4616 8.52207 18.3587 10.5726 19.9928C11.3736 20.6336 12.1426 21.3064 12.8795 22.0113C13.0077 22.1395 13.0077 22.4278 13.0397 22.6201C12.8154 22.6201 12.6232 22.6201 12.3989 22.556C10.9892 22.2676 9.57939 21.8511 8.16963 21.6589C5.67052 21.3064 3.13936 21.2103 0.64024 21.4987C0.22372 21.5307 -0.0966793 21.4987 0.0635205 20.954C0.448 19.7044 0.83248 18.4549 1.21696 17.2053C1.34512 16.7247 1.63348 16.4043 2.27428 16.4043Z" fill="#F1F1F1"/>
<path d="M32.2634 14.8662C32.0391 18.1022 31.4624 21.114 29.9245 23.9014C29.508 24.6384 29.2196 25.4394 28.8351 26.1442C28.707 26.4006 28.4186 26.5608 28.1943 26.785C28.0662 26.5287 27.8739 26.2724 27.8739 26.0161C27.6497 23.1325 28.1303 20.345 29.0594 17.5896C29.5721 16.0517 30.341 14.6419 31.2381 13.3283C31.3983 13.104 31.7508 13.0079 32.0071 12.8477C32.1032 13.104 32.2634 13.3603 32.2955 13.6166C32.2955 14.0331 32.2634 14.5137 32.2634 14.8662Z" fill="#F1F1F1"/>
<path d="M20.1202 23.9656C20.1202 24.5423 20.1523 25.1191 20.1202 25.7278C20.1202 25.8239 20.0882 25.888 20.0562 25.9521C19.96 26.1123 19.7678 26.1764 19.6076 26.1123C19.5115 26.0482 19.4154 26.0162 19.3513 25.9201C19.1911 25.6958 19.095 25.3754 18.9668 25.087C18.2619 23.5171 17.5891 21.9471 16.8201 20.4092C16.1152 18.9354 16.1152 17.3334 15.9871 15.7634C15.923 14.9624 15.955 14.1934 16.0191 13.3924C16.0191 13.2002 16.2434 12.9759 16.4036 12.9118C16.5318 12.8798 16.8201 13.04 16.8842 13.2002C17.557 14.4818 18.294 15.7314 18.8066 17.077C19.6396 19.2878 20.2164 21.5626 20.1202 23.9656Z" fill="#F1F1F1"/>
<path d="M31.7832 8.00967C31.655 8.49026 31.623 9.0029 31.3667 9.35534C30.4055 10.8612 29.4122 12.3671 28.3869 13.8409C28.2908 14.0011 27.8743 14.1293 27.7461 14.0332C27.5539 13.905 27.3937 13.5846 27.4257 13.3603C27.5219 12.271 27.7141 11.1816 27.8102 10.0923C28.0025 8.10578 28.5471 6.21543 29.3161 4.38915C29.4122 4.13283 29.6685 3.94059 29.8287 3.71631C30.021 3.94059 30.2453 4.13283 30.3414 4.35711C30.6618 4.96587 30.9501 5.60667 31.2065 6.24747C31.4948 6.82419 31.623 7.40091 31.7832 8.00967Z" fill="#F1F1F1"/>
<path d="M16.2441 7.59327C16.5966 6.82431 16.917 6.02331 17.2694 5.25435C17.4296 4.90191 17.6219 4.54947 17.8461 4.22907C18.1025 3.84459 18.551 3.87663 18.6792 4.32519C19.1598 5.99127 19.8647 7.59327 20.0249 9.35546C20.153 10.7011 20.3453 12.0468 20.4414 13.3925C20.4734 13.6168 20.3132 13.9372 20.121 14.0653C19.9928 14.1615 19.5443 14.0333 19.4802 13.9051C18.4549 12.0789 17.0772 10.4769 16.4684 8.42631C16.4043 8.16999 16.3723 7.91367 16.3082 7.65735C16.3403 7.62531 16.3082 7.62531 16.2441 7.59327Z" fill="#F1F1F1"/>
<path d="M24.1576 1.89017C23.9974 3.49216 23.4207 5.31844 22.6197 7.0486C22.5236 7.27288 22.2032 7.369 22.0109 7.5292C21.8828 7.30492 21.7226 7.11268 21.6264 6.8884C21.1779 5.767 20.7614 4.6456 20.3128 3.5242C19.9924 2.7232 19.6079 1.95425 19.3196 1.15325C19.2555 1.02509 19.4798 0.640607 19.64 0.608567C20.6332 0.384287 21.6264 0.0638873 22.6197 0.0318473C23.9013 -0.0642726 24.1896 0.320207 24.1576 1.89017Z" fill="#F1F1F1"/>
<path d="M21.7226 20.0569C21.6905 19.8326 21.8187 19.5763 21.8828 19.3521C22.075 19.4482 22.3313 19.4802 22.4595 19.6404C23.4207 20.6336 24.3819 21.6589 25.3431 22.6842C25.7276 23.0687 25.8237 23.5172 25.6955 24.094C25.5674 24.7348 25.5994 25.3756 25.5994 26.0484C25.5994 27.1057 25.6955 26.9776 24.3499 26.9776C24.1256 26.9776 23.8372 26.9776 23.6129 27.0096C22.2673 27.1378 22.3954 26.9776 22.2673 26.0804C22.075 24.7027 21.7867 20.7298 21.7226 20.0569Z" fill="#F1F1F1"/>
<path d="M40.5625 14.9626C41.0431 13.6169 41.5237 12.3033 42.0043 10.9897C42.1325 10.6693 42.3247 10.3489 42.4849 10.0605C42.7412 9.54786 42.9975 9.51582 43.382 9.96438C44.4073 11.1499 45.1442 12.4635 45.6889 13.9373C45.8171 14.2898 45.6889 14.5141 45.3365 14.6102C44.0549 14.9947 42.8053 15.3791 41.5237 15.7636C40.947 15.8918 40.6586 15.6355 40.5625 14.9626Z" fill="#F1F1F1"/>
<path d="M7.30468 15.0907C7.30468 15.6674 7.0804 15.8597 6.53572 15.6995C5.35024 15.347 4.13272 14.9625 2.94725 14.5781C2.21033 14.3217 2.11421 14.1295 2.49869 13.4567C3.17153 12.2712 3.90844 11.1177 4.64536 9.9643C4.90168 9.57982 5.19004 9.4837 5.54248 9.90022C6.08716 10.6692 7.30468 14.1615 7.30468 15.0907Z" fill="#F1F1F1"/>
<path d="M16.4364 1.31348C16.5004 1.53776 16.6606 1.79408 16.6286 1.95428C16.3402 2.75528 15.9558 3.52423 15.6354 4.32523C15.4111 4.86991 15.2188 5.41459 15.0586 5.95927C14.8023 6.82435 14.3538 6.98455 13.6489 6.43987C12.8479 5.79907 12.0469 5.15827 11.2779 4.51747C10.9575 4.26115 10.7973 3.97279 11.2779 3.71647C12.8479 2.94752 14.4499 2.17856 16.0519 1.44164C16.0839 1.4096 16.148 1.37756 16.4364 1.31348Z" fill="#F1F1F1"/>
<path d="M33.6096 6.82417C33.4814 6.72805 33.2892 6.59989 33.2251 6.43969C32.5843 4.90177 31.9755 3.36385 31.3988 1.85797C31.3347 1.72981 31.3668 1.50553 31.4629 1.40941C31.559 1.31329 31.7833 1.31329 31.9115 1.34533C33.4814 2.05021 35.0193 2.78713 36.5573 3.52405C36.9417 3.71629 37.134 4.10077 36.7495 4.45321C35.8524 5.22217 34.9232 5.95909 33.9941 6.69601C33.8979 6.76009 33.7698 6.76009 33.6096 6.82417Z" fill="#F1F1F1"/>
<path d="M66.9631 10.1247C66.9631 15.155 63.8873 18.1667 59.3376 18.1667C54.7559 18.1667 52.0325 14.7384 52.0325 10.381C52.0325 5.79929 55.0442 2.40305 59.5939 2.40305C64.3679 2.37101 66.9631 5.89541 66.9631 10.1247ZM55.7491 10.3169C55.7491 13.3287 57.1909 15.4433 59.5298 15.4433C61.9008 15.4433 63.2785 13.2326 63.2785 10.2528C63.2785 7.4974 61.9649 5.12645 59.5298 5.12645C57.1268 5.12645 55.7491 7.3372 55.7491 10.3169Z" fill="#F1F1F1"/>
<path d="M78.5299 15.2507C78.5299 16.276 78.5619 17.3013 78.7221 17.91H75.5502L75.3579 16.7886H75.2939C74.5569 17.6857 73.4035 18.1343 72.0578 18.1343C69.783 18.1343 68.4053 16.5003 68.4053 14.7381C68.4053 11.8545 71.0326 10.5088 75.0375 10.5088V10.3806C75.0375 9.77187 74.7171 8.93883 72.987 8.93883C71.8336 8.93883 70.616 9.32331 69.8791 9.77187L69.2383 7.56111C70.0073 7.14459 71.5772 6.56787 73.6278 6.56787C77.3765 6.56787 78.5619 8.74659 78.5619 11.3739V15.2507H78.5299ZM75.1657 12.6875C73.3074 12.6875 71.8976 13.104 71.8976 14.4177C71.8976 15.3148 72.5064 15.7313 73.2753 15.7313C74.1404 15.7313 74.8773 15.1546 75.1016 14.4497C75.1337 14.2575 75.1657 14.0652 75.1657 13.873V12.6875Z" fill="#F1F1F1"/>
<path d="M84.8418 11.5022H84.8738C85.1301 11.0216 85.4185 10.5731 85.6748 10.1566L87.9497 6.82441H92.1789L88.1419 11.31L92.7557 17.9102H88.4303L85.6748 13.3606L84.8097 14.4499V17.9102H81.3174V1.82617H84.8097V11.5022H84.8418Z" fill="#F1F1F1"/>
<path d="M93.8127 14.9303C94.4535 15.3148 95.7992 15.7313 96.8244 15.7313C97.8818 15.7313 98.3303 15.3789 98.3303 14.8342C98.3303 14.2575 97.9779 13.9691 96.6963 13.5526C94.3574 12.7836 93.4282 11.5341 93.4602 10.2204C93.4602 8.13783 95.2545 6.56787 98.042 6.56787C99.3556 6.56787 100.509 6.88827 101.214 7.20867L100.605 9.61167C100.093 9.35535 99.0993 8.97087 98.1701 8.97087C97.305 8.97087 96.8244 9.32331 96.8244 9.86799C96.8244 10.4127 97.273 10.669 98.6507 11.1496C100.797 11.8865 101.662 12.9759 101.695 14.5779C101.695 16.6605 100.06 18.1663 96.8244 18.1663C95.3506 18.1663 94.037 17.8139 93.1719 17.3653L93.8127 14.9303Z" fill="#F1F1F1"/>
<path d="M56.2616 26.4009V41.6519H52.7693V26.4009H56.2616Z" fill="#F1F1F1"/>
<path d="M59.2739 34.1225C59.2739 32.7448 59.2418 31.5914 59.1777 30.5981H62.2215L62.3817 32.136H62.4458C62.8944 31.3991 64.0478 30.3418 65.9382 30.3418C68.245 30.3418 69.9752 31.8477 69.9752 35.1158V41.6519H66.4828V35.5323C66.4828 34.1225 65.9702 33.1293 64.7207 33.1293C63.7595 33.1293 63.1827 33.7701 62.9264 34.4109C62.8303 34.6352 62.7983 34.9556 62.7983 35.276V41.6519H59.2739V34.1225Z" fill="#F1F1F1"/>
<path d="M76.5746 27.5864V30.5661H79.0737V33.0973H76.5746V37.1023C76.5746 38.448 76.927 39.0567 77.9523 39.0567C78.4329 39.0567 78.6572 39.0247 78.9776 38.9606L79.0096 41.5559C78.5611 41.7161 77.728 41.8442 76.7348 41.8442C75.6134 41.8442 74.6522 41.4597 74.0755 40.883C73.4347 40.2422 73.1143 39.1529 73.1143 37.6149V33.0973H71.6084V30.5661H73.1143V28.5156L76.5746 27.5864Z" fill="#F1F1F1"/>
<path d="M83.6875 37.2302C83.7836 38.64 86.5711 39.9857 88.4615 37.7749L90.9285 40.2099C89.8712 42.3887 81.1884 43.7984 80.3233 36.3651C80.0029 33.5777 82.5341 30.5979 85.674 30.5339C89.3265 30.4698 91.5053 33.0971 91.5053 35.8205C91.5053 36.3972 91.4412 36.9419 91.3771 37.1661L83.6875 37.2302ZM87.8207 34.8593C87.8207 34.0262 87.4362 32.6165 85.8342 32.6165C84.3603 32.6165 83.7516 33.9621 83.6555 34.8593H87.8207Z" fill="#F1F1F1"/>
<path d="M165.371 37.2302C165.467 38.64 168.255 39.9857 170.145 37.7749L172.612 40.2099C171.555 42.3887 162.872 43.7984 162.007 36.3651C161.687 33.5777 164.218 30.5979 167.358 30.5339C171.01 30.4698 173.189 33.0971 173.189 35.8205C173.189 36.3972 173.125 36.9419 173.061 37.1661L165.371 37.2302ZM169.504 34.8593C169.504 34.0262 169.12 32.6165 167.518 32.6165C166.044 32.6165 165.435 33.9621 165.339 34.8593H169.504Z" fill="#F1F1F1"/>
<path d="M93.1719 25.5679H96.6642V41.6519H93.1719V25.5679Z" fill="#F1F1F1"/>
<path d="M99.5156 25.5679H103.008V41.6519H99.5156V25.5679Z" fill="#F1F1F1"/>
<path d="M109.48 27.4904C109.48 28.4516 108.775 29.2206 107.59 29.2206C106.468 29.2206 105.763 28.4516 105.763 27.4904C105.763 26.5292 106.5 25.7603 107.622 25.7603C108.775 25.7923 109.448 26.5292 109.48 27.4904ZM105.86 41.6521V30.5983H109.352V41.6521H105.86Z" fill="#F1F1F1"/>
<path d="M123.432 40.0499C123.432 42.1645 122.983 43.9267 121.701 45.0161C120.484 46.0414 118.433 46.2657 116.671 46.0414C115.197 45.8491 112.025 44.0869 111 43.5423L112.218 40.7868C112.922 41.2033 115.357 42.7413 116.703 42.7413C118.369 42.7413 119.939 42.8694 119.939 40.8189V40.114H119.907C119.234 41.0111 118.145 41.5558 116.863 41.5558C114.076 41.5558 112.089 39.345 112.089 36.1731C112.089 32.5846 114.428 30.3418 117.216 30.3418C118.754 30.3418 119.715 30.9826 120.292 31.9118H120.324L120.452 30.5661H123.496C123.464 31.303 123.399 32.2322 123.399 33.8662V40.0499H123.432ZM119.939 35.0837C119.939 34.8915 119.907 34.6672 119.875 34.4429C119.619 33.5458 118.946 32.937 117.985 32.937C116.703 32.937 115.678 34.0584 115.678 36.077C115.678 37.743 116.511 39.0246 117.953 39.0246C118.882 39.0246 119.587 38.4479 119.811 37.6469C119.907 37.3906 119.939 37.0061 119.939 36.7178V35.0837Z" fill="#F1F1F1"/>
<path d="M128.942 37.2306C129.038 38.6403 130.48 39.3452 132.114 39.3452C133.3 39.3452 134.293 39.185 135.222 38.8646L135.671 41.2035C134.517 41.6841 133.108 41.9084 131.602 41.9084C127.757 41.9084 125.578 39.7297 125.578 36.2694C125.578 33.4499 127.34 30.374 131.281 30.374C134.934 30.374 136.312 33.1615 136.312 35.8849C136.312 36.4616 136.247 37.0063 136.183 37.2306H128.942ZM133.075 34.8596C133.075 34.0266 132.691 32.6168 131.089 32.6168C129.615 32.6168 129.006 33.9625 128.91 34.8596H133.075Z" fill="#F1F1F1"/>
<path d="M138.426 34.1225C138.426 32.7448 138.394 31.5914 138.33 30.5981H141.374L141.534 32.136H141.598C142.047 31.3991 143.2 30.3418 145.091 30.3418C147.397 30.3418 149.128 31.8477 149.128 35.1158V41.6519H145.635V35.5323C145.635 34.1225 145.123 33.1293 143.873 33.1293C142.912 33.1293 142.335 33.7701 142.079 34.4109C141.983 34.6352 141.951 34.9556 141.951 35.276V41.6519H138.458V34.1225H138.426Z" fill="#F1F1F1"/>
<path d="M161.206 39.6656C160.437 40.3064 159.316 42.1006 157.041 42.1006C153.389 42.1006 150.857 39.7297 150.857 36.2694C150.857 33.0333 152.459 30.7905 156.657 30.7905C157.586 30.7905 159.732 31.2391 160.886 32.777L158.291 35.148C158.195 34.2188 155.151 32.3605 154.061 35.9169C153.485 37.8393 155.407 38.9287 156.657 38.9287C157.49 38.9287 158.098 38.352 158.835 37.583L161.206 39.6656Z" fill="#F1F1F1"/>
<path d="M108.808 7.81752C110.931 7.81752 112.652 6.09615 112.652 3.97273C112.652 1.8493 110.931 0.12793 108.808 0.12793C106.684 0.12793 104.963 1.8493 104.963 3.97273C104.963 6.09615 106.684 7.81752 108.808 7.81752Z" fill="url(#paint5_linear_261_1107)"/>
<defs>
<linearGradient id="paint0_linear_261_1107" x1="7.11337" y1="32.1179" x2="7.11337" y2="23.9746" gradientUnits="userSpaceOnUse">
<stop offset="4.74173e-07" stop-color="#5F9630"/>
<stop offset="1" stop-color="#A6B953"/>
</linearGradient>
<linearGradient id="paint1_linear_261_1107" x1="23.9304" y1="30.5842" x2="23.9304" y2="26.0199" gradientUnits="userSpaceOnUse">
<stop offset="4.74173e-07" stop-color="#5F9630"/>
<stop offset="1" stop-color="#A6B953"/>
</linearGradient>
<linearGradient id="paint2_linear_261_1107" x1="44.2383" y1="32.3373" x2="44.2383" y2="27.4774" gradientUnits="userSpaceOnUse">
<stop offset="4.74173e-07" stop-color="#5F9630"/>
<stop offset="1" stop-color="#A6B953"/>
</linearGradient>
<linearGradient id="paint3_linear_261_1107" x1="12.0003" y1="45.5571" x2="12.0003" y2="28.0786" gradientUnits="userSpaceOnUse">
<stop offset="4.74173e-07" stop-color="#5F9630"/>
<stop offset="1" stop-color="#A6B953"/>
</linearGradient>
<linearGradient id="paint4_linear_261_1107" x1="36.643" y1="45.5438" x2="36.643" y2="28.0761" gradientUnits="userSpaceOnUse">
<stop offset="4.74173e-07" stop-color="#5F9630"/>
<stop offset="1" stop-color="#A6B953"/>
</linearGradient>
<linearGradient id="paint5_linear_261_1107" x1="108.798" y1="7.81845" x2="108.798" y2="0.105854" gradientUnits="userSpaceOnUse">
<stop offset="1.6303e-06" stop-color="#EB8A00"/>
<stop offset="1" stop-color="#EBB327"/>
</linearGradient>
</defs>
</svg>
