<svg width="803" height="434" viewBox="0 0 803 434" fill="none" xmlns="http://www.w3.org/2000/svg">
<path d="M18.4285 507.531L31.3152 533.299C33.463 537.056 38.2955 538.667 42.0541 536.519C72.123 518.267 188.103 449.017 203.138 449.554C271.867 453.311 104.34 400.702 104.34 400.702L18.4285 507.531Z" fill="#080E1B"/>
<path d="M372.814 435.594L379.257 491.961C379.257 491.961 383.553 513.971 391.07 511.824C398.587 509.676 418.454 510.213 423.287 498.403C428.119 486.593 428.656 435.594 428.656 435.594H372.814Z" fill="#080E1B"/>
<path d="M684.239 483.376C684.239 483.376 752.431 519.88 765.318 538.669C766.928 541.354 770.15 542.427 773.372 541.354C791.091 533.838 797.534 460.293 797.534 460.293L684.239 483.376Z" fill="#080E1B"/>
<path d="M54.4042 575.172C121.522 500.553 201.527 472.638 289.586 469.954C294.956 469.954 299.788 472.639 302.473 477.47C307.842 487.133 344.355 542.963 347.039 555.31C358.852 663.212 334.153 735.683 260.054 760.914C253.074 763.598 245.02 763.598 237.503 761.451C202.601 750.714 147.833 716.894 105.414 670.191C82.8623 645.497 67.8278 616.508 52.7933 588.056C50.6455 583.762 51.1825 578.93 54.4042 575.172Z" fill="#080E1B"/>
<path d="M756.193 575.172C689.075 500.553 609.07 472.638 521.011 469.954C515.642 469.954 504.903 469.954 502.218 474.249C496.849 483.912 492.016 491.427 489.331 499.48C486.647 506.995 476.445 542.963 473.76 554.773C461.947 662.675 461.947 739.441 550.006 760.377C557.524 761.988 565.041 763.061 572.558 760.914C607.46 750.178 662.228 716.358 704.647 669.654C727.198 644.96 742.233 615.971 757.267 587.519C759.952 583.762 759.415 578.93 756.193 575.172Z" fill="#080E1B"/>
<path d="M787.869 512.901C785.721 519.879 763.706 515.585 757.8 513.438C703.031 491.428 648.8 469.418 594.031 447.408C585.977 444.187 577.386 443.113 569.332 439.892C566.647 438.819 564.5 435.598 562.889 432.914C562.352 432.377 565.573 428.619 567.721 427.545C611.214 407.146 656.317 389.968 705.179 388.357C732.026 387.82 759.411 392.652 786.258 395.873C797.534 397.483 802.366 406.072 802.903 416.809C802.903 423.251 802.903 429.156 802.903 435.598C803.977 436.135 795.923 487.67 787.869 512.901Z" fill="#080E1B"/>
<path d="M76.9513 386.213C132.794 387.824 184.877 401.244 233.202 428.086C234.813 429.159 236.424 430.77 237.498 432.917C239.109 435.064 238.572 437.748 236.424 439.359C234.276 440.969 232.665 442.58 230.518 443.117C199.912 453.853 169.306 464.053 139.237 475.326C111.853 484.989 85.0054 495.726 57.6212 505.925C49.5671 509.146 42.0498 512.904 33.9956 515.051C27.0153 517.199 22.1828 513.978 18.9612 507.536C1.24195 474.789 -0.368883 440.432 7.14835 405.002C7.6853 401.244 13.0548 396.413 17.3503 395.876C36.6804 392.118 57.0843 389.434 76.9513 386.213Z" fill="#080E1B"/>
<path d="M240.716 320.717C241.253 324.475 240.179 330.38 237.494 331.99C234.81 333.601 228.903 332.527 225.681 330.38C206.351 317.496 186.484 304.612 168.228 290.118C162.322 285.287 158.026 276.697 156.416 269.719C149.435 227.309 140.844 184.9 118.292 148.396C100.573 119.407 127.42 106.523 146.751 94.7133C150.509 92.566 157.489 94.7133 161.248 97.3974C183.8 114.576 206.351 132.291 227.829 150.543C231.588 153.764 233.736 159.669 233.736 165.038C234.81 181.142 238.031 285.287 240.716 320.717Z" fill="#080E1B"/>
<path d="M652.557 92.0297C655.242 93.1034 659 93.6402 661.685 95.7875C668.665 101.156 675.646 105.987 681.015 112.429C694.439 126.923 693.365 129.071 686.385 146.786C674.035 176.848 662.759 206.911 652.02 237.51C649.335 245.562 649.335 255.225 648.799 264.351C648.262 274.551 644.503 283.14 635.912 289.582C616.582 303.002 597.252 316.96 577.385 329.844C574.163 331.991 568.794 330.917 564.498 331.454C564.498 327.16 563.424 322.865 563.961 318.57C566.109 296.024 570.404 274.014 570.941 251.467C572.015 222.478 570.941 194.027 572.015 165.038C572.015 159.133 574.7 151.617 578.459 148.396C600.473 130.144 623.025 112.966 645.04 95.2507C647.188 93.6402 649.872 93.1034 652.557 92.0297Z" fill="#080E1B"/>
<path d="M368.516 229.992C371.737 221.403 376.57 205.835 382.476 190.804C386.235 180.604 391.604 170.941 396.974 161.815C422.747 117.795 428.654 67.3338 438.319 18.4826C439.393 13.6512 444.762 5.59878 448.521 5.59878C457.649 5.06195 467.851 6.67243 476.442 10.4302C478.59 10.967 478.053 22.7772 475.905 28.1455C464.092 62.5024 450.668 96.3224 440.466 130.679C435.634 146.247 436.708 163.963 435.634 180.604C432.412 224.087 433.486 268.107 441.003 311.053C441.003 311.59 441.54 312.663 441.54 313.2C439.393 321.253 437.245 329.305 435.097 336.821C428.654 333.063 421.673 330.379 416.304 325.547C406.639 316.421 398.585 305.685 389.994 295.485C376.57 279.38 369.59 259.518 368.516 229.992Z" fill="#080E1B"/>
<path d="M781.964 357.758C747.062 358.832 711.624 357.758 676.722 362.053C647.727 365.274 619.806 374.936 591.348 381.915C588.663 382.452 585.979 384.063 583.294 384.063C580.609 384.063 576.314 382.989 575.24 380.842C574.166 379.231 575.777 374.4 577.924 373.326C600.476 355.611 621.954 337.359 646.116 321.791C682.092 298.707 722.9 284.75 764.781 276.16C776.057 273.476 781.427 276.697 785.185 287.971C790.018 305.149 794.85 322.328 799.146 340.043C802.904 355.074 797.535 361.516 781.964 357.758Z" fill="#080E1B"/>
<path d="M37.7537 274.549C44.734 276.16 52.7882 278.307 60.8424 280.454C102.187 292.264 142.458 307.295 176.823 334.674C190.246 345.41 203.133 356.683 215.483 368.494C217.63 370.641 217.63 375.472 218.167 378.693C214.409 378.693 211.187 378.693 207.428 377.62C183.803 372.788 160.177 365.809 136.552 362.589C94.6699 356.683 52.2512 355.073 10.3695 359.904C3.3892 360.441 -1.98026 359.904 0.704468 350.778C7.14781 329.842 13.5912 308.906 20.0345 287.97C22.1823 279.917 27.0148 274.549 37.7537 274.549Z" fill="#080E1B"/>
<path d="M540.336 248.787C536.578 303.006 526.913 353.468 501.139 400.172C494.159 412.519 489.327 425.939 482.883 437.749C480.735 442.044 475.903 444.728 472.144 448.486C469.996 444.191 466.775 439.897 466.775 435.602C463.016 387.288 471.07 340.584 486.642 294.417C495.233 268.649 508.12 245.029 523.154 223.019C525.839 219.261 531.745 217.651 536.041 214.966C537.652 219.261 540.336 223.556 540.873 227.85C540.873 234.829 540.336 242.881 540.336 248.787Z" fill="#080E1B"/>
<path d="M336.834 401.239C336.834 410.902 337.371 420.565 336.834 430.765C336.834 432.375 336.297 433.449 335.76 434.522C334.149 437.207 330.927 438.28 328.243 437.207C326.632 436.133 325.021 435.596 323.947 433.986C321.262 430.228 319.651 424.86 317.504 420.028C305.691 393.724 294.415 367.419 281.528 341.652C269.716 316.958 269.716 290.116 267.568 263.812C266.494 250.391 267.031 237.507 268.105 224.087C268.105 220.866 271.863 217.108 274.548 216.034C276.696 215.497 281.528 218.182 282.602 220.866C293.878 242.339 306.228 263.275 314.819 285.822C328.78 322.863 338.445 360.977 336.834 401.239Z" fill="#080E1B"/>
<path d="M532.286 133.899C530.138 141.951 529.601 150.54 525.306 156.445C509.197 181.676 492.552 206.907 475.37 231.601C473.759 234.285 466.779 236.432 464.631 234.822C461.409 232.675 458.724 227.306 459.261 223.549C460.872 205.296 464.094 187.044 465.705 168.792C468.926 135.509 478.054 103.836 490.941 73.2372C492.552 68.9426 496.848 65.7216 499.532 61.9638C502.754 65.7216 506.513 68.9426 508.123 72.7004C513.493 82.9001 518.325 93.6366 522.621 104.373C527.453 114.036 529.601 123.699 532.286 133.899Z" fill="#080E1B"/>
<path d="M271.859 126.921C277.766 114.037 283.135 100.617 289.042 87.7329C291.726 81.8278 294.948 75.9227 298.707 70.5544C303.002 64.1125 310.519 64.6493 312.667 72.1649C320.721 100.08 332.534 126.921 335.219 156.447C337.367 178.993 340.588 201.54 342.199 224.087C342.736 227.844 340.051 233.213 336.83 235.36C334.682 236.971 327.165 234.823 326.091 232.676C308.909 202.077 285.82 175.236 275.618 140.879C274.544 136.584 274.007 132.289 272.933 127.995C273.47 127.458 272.933 127.458 271.859 126.921Z" fill="#080E1B"/>
<path d="M404.491 31.3668C401.807 58.2081 392.141 88.8072 378.718 117.796C377.107 121.554 371.738 123.164 368.516 125.848C366.368 122.09 363.683 118.869 362.073 115.112C354.555 96.3228 347.575 77.5339 340.058 58.745C334.688 45.3243 328.245 32.4405 323.413 19.0198C322.339 16.8725 326.097 10.4306 328.782 9.89377C345.427 6.13599 362.073 0.767724 378.718 0.230898C400.196 -1.37958 405.028 5.06233 404.491 31.3668Z" fill="#080E1B"/>
<path d="M363.683 335.748C363.146 331.99 365.294 327.696 366.368 323.938C369.59 325.549 373.885 326.085 376.033 328.77C392.141 345.411 408.25 362.59 424.358 379.768C430.801 386.21 432.412 393.725 430.264 403.388C428.117 414.125 428.654 424.861 428.654 436.135C428.654 453.85 430.264 451.703 407.713 451.703C403.954 451.703 399.122 451.703 395.363 452.24C372.811 454.387 374.959 451.703 372.811 436.672C369.59 413.588 364.757 347.022 363.683 335.748Z" fill="#080E1B"/>
<path d="M679.403 250.395C687.457 227.848 695.511 205.838 703.565 183.828C705.713 178.46 708.935 173.092 711.619 168.26C715.915 159.671 720.211 159.134 726.654 166.65C743.836 186.513 756.186 208.522 765.314 233.216C767.462 239.122 765.314 242.879 759.408 244.49C737.93 250.932 716.989 257.374 695.511 263.815C685.846 265.963 681.014 261.668 679.403 250.395Z" fill="#080E1B"/>
<path d="M122.055 252.54C122.055 262.203 118.297 265.423 109.168 262.739C89.3014 256.834 68.8975 250.392 49.0305 243.95C36.6808 239.656 35.07 236.435 41.5133 225.162C52.7892 205.299 65.1389 185.973 77.4887 166.647C81.7842 160.206 86.6167 158.595 92.5231 165.574C101.651 178.458 122.055 236.972 122.055 252.54Z" fill="#080E1B"/>
<path d="M275.082 21.7044C276.156 25.4622 278.841 29.7568 278.304 32.441C273.472 45.8616 267.028 58.7454 261.659 72.1661C257.9 81.2921 254.679 90.4182 251.994 99.5442C247.698 114.039 240.181 116.723 228.368 107.597C214.945 96.8601 201.521 86.1236 188.634 75.3871C183.265 71.0924 180.58 66.261 188.634 61.9664C214.945 49.0826 241.792 36.1987 268.639 23.8517C269.176 23.3149 270.25 22.7781 275.082 21.7044Z" fill="#080E1B"/>
<path d="M562.885 114.036C560.737 112.425 557.515 110.278 556.441 107.594C545.703 81.8264 535.501 56.0587 525.836 30.8279C524.762 28.6806 525.299 24.9228 526.909 23.3123C528.52 21.7018 532.279 21.7018 534.427 22.2387C560.737 34.0488 586.51 46.3958 612.284 58.7428C618.727 61.9638 621.949 68.4057 615.505 74.3108C600.471 87.1946 584.9 99.5416 569.328 111.889C567.717 112.962 565.57 112.962 562.885 114.036Z" fill="#080E1B"/>
</svg>
