<svg width="71" height="62" viewBox="0 0 71 62" fill="none" xmlns="http://www.w3.org/2000/svg">
<path d="M66.0337 1H4.98779C2.77539 1 1 2.80269 1 4.98778V47.3512C1 49.5636 2.77539 51.339 4.98779 51.339H46.4772L45.6578 60.7622L56.6925 51.339H66.0337C68.2461 51.339 70.0215 49.5636 70.0215 47.3512V4.98778C70.0215 2.80269 68.2461 1 66.0337 1Z" fill="#F1F1F1" stroke="#155F60" stroke-width="1.7437" stroke-miterlimit="10" stroke-linecap="round" stroke-linejoin="round"/>
<path d="M48.0893 25.0912C48.0893 24.7088 48.062 24.3537 48.0347 23.9986L50.4929 23.3431L49.4004 19.1368L46.8875 19.7923C46.3686 18.6998 45.6584 17.6892 44.839 16.7878L46.4505 14.712L43.009 12.0626L41.3702 14.1657C40.305 13.6194 39.1851 13.2371 37.9833 13.0185V10.3418H33.6131V13.0185C32.466 13.2371 31.3734 13.5921 30.3628 14.0838L28.7513 11.9533L25.2552 14.5754L26.8393 16.6786C26.2384 17.3068 25.6922 18.0169 25.2552 18.7544L22.7969 17.853L21.2947 21.9501L23.6983 22.8241C23.5617 23.5616 23.4798 24.3264 23.4798 25.0912C23.4798 25.3643 23.4798 25.6374 23.5071 25.8833L21.0762 26.5115L22.1687 30.7178L24.545 30.0896C25.064 31.2367 25.7468 32.302 26.5662 33.2306L25.0913 35.1426L28.5328 37.8193L29.9804 35.9347C31.073 36.5083 32.2748 36.9453 33.5585 37.1638V39.5401H37.9287V37.1638C39.1305 36.9453 40.2776 36.5629 41.3429 36.0166L42.7632 37.9286L46.2593 35.3065L44.8117 33.3672C45.4399 32.6844 45.9589 31.9469 46.4232 31.1548L48.7176 32.0015L50.2198 27.9045L47.8708 27.0304C48.0347 26.4295 48.0893 25.774 48.0893 25.0912ZM35.7982 33.3126C31.1822 33.3126 27.4402 29.5706 27.4402 24.9546C27.4402 20.3386 31.1822 16.5966 35.7982 16.5966C40.4142 16.5966 44.1562 20.3386 44.1562 24.9546C44.1562 29.5706 40.4142 33.3126 35.7982 33.3126Z" fill="#57D565" stroke="#155F60" stroke-width="1.7437" stroke-miterlimit="10"/>
<path d="M6.38086 23.0703V40.6876C6.38086 40.6876 6.73594 43.7194 9.52193 44.4296H29.0512" stroke="#155F60" stroke-width="1.7437" stroke-miterlimit="10"/>
</svg>
