<svg width="74" height="59" viewBox="0 0 74 59" fill="none" xmlns="http://www.w3.org/2000/svg">
<path d="M62.3959 39.444C62.3959 41.2182 60.962 42.6764 59.1635 42.6764H4.06641C2.29222 42.6764 0.833984 41.2425 0.833984 39.444V4.44629C0.833984 2.6721 2.26792 1.21387 4.06641 1.21387H59.1878C60.962 1.21387 62.4202 2.6478 62.4202 4.44629V39.444H62.3959Z" fill="#57D565" stroke="#155F60" stroke-width="1.54175" stroke-miterlimit="10"/>
<path d="M58.7503 4.98047H4.47949V38.9088H58.7503V4.98047Z" fill="#F1F1F1" stroke="#155F60" stroke-width="1.54175" stroke-miterlimit="10" stroke-linecap="round" stroke-linejoin="round"/>
<path d="M37.4355 42.6523H25.7939V51.3775H37.4355V42.6523Z" fill="#57D565" stroke="#155F60" stroke-width="1.54175" stroke-miterlimit="10"/>
<path d="M41.275 51.377H37.3135H31.6264H25.9392H21.9777C21.9777 51.377 19.4744 51.377 19.207 54.1719H31.6264H44.0457C43.7783 51.377 41.275 51.377 41.275 51.377Z" fill="#F1F1F1" stroke="#155F60" stroke-width="1.54175" stroke-miterlimit="10" stroke-linecap="round" stroke-linejoin="round"/>
<path d="M8.27148 18.6396V35.4094H23.1698" stroke="#155F60" stroke-width="1.54175" stroke-miterlimit="10"/>
<path d="M42.2236 22.0663C42.2236 21.7504 42.1993 21.4344 42.175 21.1185L44.2895 20.5595L43.3416 16.9139L41.1786 17.4729C40.7168 16.525 40.1335 15.6501 39.4287 14.8724L40.814 13.0739L37.8489 10.765L36.4393 12.5878C35.54 12.126 34.5436 11.7858 33.4985 11.5913V9.33105H29.7314V11.6399C28.7349 11.8101 27.8114 12.126 26.9364 12.5635L25.5511 10.7164L22.5617 12.9767L23.9227 14.7994C23.4124 15.3584 22.9506 15.9417 22.5374 16.5979L20.423 15.8202L19.1349 19.3443L21.2007 20.0977C21.0792 20.7296 21.0063 21.3858 21.0063 22.0663C21.0063 22.3094 21.0063 22.5281 21.0306 22.7711L18.9404 23.3301L19.8883 26.9757L21.9541 26.4411C22.3916 27.4375 22.9992 28.3368 23.704 29.1388L22.4159 30.7915L25.4053 33.076L26.6691 31.4477C27.6169 31.9581 28.662 32.3226 29.7557 32.517V34.5586H33.5228V32.517C34.5679 32.3226 35.5643 31.9824 36.4636 31.5206L37.7031 33.1732L40.7168 30.913L39.453 29.236C39.9877 28.6527 40.4494 28.0208 40.8383 27.3403L42.8312 28.0694L44.1193 24.5453L42.1021 23.7919C42.175 23.2329 42.2236 22.6739 42.2236 22.0663ZM31.6271 29.1631C27.6413 29.1631 24.4088 25.9307 24.4088 21.9448C24.4088 17.959 27.6413 14.7265 31.6271 14.7265C35.613 14.7265 38.8454 17.959 38.8454 21.9448C38.8454 25.9307 35.613 29.1631 31.6271 29.1631Z" stroke="#155F60" stroke-width="1.54175" stroke-miterlimit="10"/>
<path d="M72.9997 55.5902C72.9997 56.6918 72.101 57.576 71.0139 57.576H53.9389C52.8373 57.576 51.9531 56.6773 51.9531 55.5902V22.8607C51.9531 21.7591 52.8518 20.8749 53.9389 20.8749H70.9994C72.101 20.8749 72.9852 21.7736 72.9852 22.8607V55.5902H72.9997Z" fill="#57D565" stroke="#155F60" stroke-width="0.919498" stroke-miterlimit="10"/>
<path d="M72.9997 24.6434H51.9531V53.8072H72.9997V24.6434Z" fill="#F1F1F1" stroke="#155F60" stroke-width="0.919498" stroke-miterlimit="10"/>
<path d="M58.8379 22.8309H63.9111" stroke="#155F60" stroke-width="0.919498" stroke-miterlimit="10"/>
<path d="M64.5781 22.8308H66.1001" stroke="#155F60" stroke-width="0.919498" stroke-miterlimit="10"/>
<path d="M54.5762 43.4862V51.6179H62.4759" fill="#F1F1F1"/>
<path d="M54.5762 43.4862V51.6179H62.4759" stroke="#155F60" stroke-width="0.919498" stroke-miterlimit="10"/>
<path d="M67.622 39.8624L68.6801 39.79L68.5207 37.7462L67.477 37.8187C67.3176 37.2534 67.0712 36.717 66.7378 36.2387L67.4625 35.485L65.984 34.0645L65.2738 34.8037C64.7375 34.4703 64.1432 34.2239 63.5054 34.0935V33.0643H61.4471V34.0935C60.6354 34.2529 59.9107 34.6008 59.2874 35.0936L58.5047 34.4124L57.1567 35.9633L57.9394 36.6446C57.606 37.2244 57.3886 37.8766 57.3161 38.5724L56.2725 38.6594L56.4319 40.7031L57.49 40.6162C57.6495 41.1815 57.9104 41.7033 58.2293 42.1671L57.49 42.9499L58.9685 44.3704L59.7078 43.5876C60.2296 43.921 60.8094 44.1529 61.4327 44.2834V45.3705H63.4764V44.2834C64.2592 44.1239 64.9839 43.7906 65.6072 43.3122L66.4189 44.0225L67.7669 42.4715L66.9552 41.7758C67.3031 41.196 67.5205 40.5582 67.622 39.8624ZM62.4763 40.8481C61.5776 40.8481 60.8529 40.1233 60.8529 39.2247C60.8529 38.326 61.5776 37.6012 62.4763 37.6012C63.375 37.6012 64.0997 38.326 64.0997 39.2247C64.0997 40.1233 63.375 40.8481 62.4763 40.8481Z" fill="#57D565" stroke="#155F60" stroke-width="0.919498" stroke-miterlimit="10"/>
<path d="M64.1004 39.2249C64.1004 40.1236 63.3756 40.8483 62.4769 40.8483C61.5783 40.8483 60.8535 40.1236 60.8535 39.2249C60.8535 38.3262 61.5783 37.6014 62.4769 37.6014C63.3756 37.6014 64.1004 38.3262 64.1004 39.2249Z" fill="#F1F1F1" stroke="#155F60" stroke-width="0.919498" stroke-miterlimit="10"/>
</svg>
