<svg width="369" height="347" viewBox="0 0 369 347" fill="none" xmlns="http://www.w3.org/2000/svg">
<path opacity="0.6" d="M364.055 281.891L256.691 344.041C251.909 346.795 244.616 347.154 240.432 344.759L5.14111 208.604C0.956572 206.209 1.55436 202.018 6.33669 199.263L113.7 137.113C118.482 134.359 125.775 134 129.96 136.395L365.37 272.55C369.315 274.945 368.837 279.137 364.055 281.891Z" fill="#2C2C2C"/>
<path d="M368 242.852L345.882 239.02L129.84 114.121C125.655 111.726 118.482 111.966 113.58 114.84L13.51 172.679L2.27148 170.643V182.139C2.27148 183.696 3.22795 185.133 5.02132 186.211L240.431 322.366C244.616 324.761 251.789 324.522 256.691 321.648L364.054 259.497C366.685 257.941 368 256.025 368 254.109V242.852Z" fill="url(#paint0_linear_376_5018)"/>
<path d="M364.055 248.241L256.691 310.391C251.909 313.145 244.616 313.505 240.432 311.11L5.14111 174.835C0.956572 172.44 1.55436 168.248 6.33669 165.494L113.7 103.344C118.482 100.59 125.775 100.23 129.96 102.625L365.37 238.781C369.315 241.176 368.837 245.367 364.055 248.241Z" fill="url(#paint1_linear_376_5018)"/>
<path d="M364.054 246.685L256.691 308.835C251.909 311.589 244.616 311.948 240.431 309.553L5.14089 173.398C3.58664 172.44 2.63017 171.362 2.39105 170.045C2.03238 171.841 2.98885 173.517 5.14089 174.835L240.551 310.99C244.735 313.385 251.909 313.146 256.811 310.272L364.174 248.122C367.163 246.445 368.478 244.17 368.119 242.014C367.641 243.691 366.326 245.367 364.054 246.685Z" fill="white"/>
<path d="M364.174 238.182L239.475 310.391L6.09717 175.433L130.796 103.344L364.174 238.182Z" fill="#155F60"/>
<path d="M76.0388 131.485L59.4202 141.065C58.7029 141.424 57.6269 141.544 57.0291 141.185L56.9095 141.065C56.3117 140.706 56.3117 140.107 57.0291 139.628L73.6477 130.048C74.365 129.689 75.441 129.569 76.0388 129.928L76.1584 130.048C76.8757 130.527 76.7562 131.126 76.0388 131.485Z" fill="#155F60"/>
<path d="M36.4651 176.631L34.4326 177.828L29.4111 174.954L31.5632 173.757L36.4651 176.631Z" fill="white"/>
<path d="M40.4109 174.356L38.2588 175.553L33.3569 172.799L35.3894 171.482L40.4109 174.356Z" fill="white"/>
<path d="M44.2365 172.2L42.0845 173.397L37.1826 170.523L39.2151 169.326L44.2365 172.2Z" fill="white"/>
<path d="M48.0622 169.925L45.9102 171.122L41.0083 168.248L43.1603 167.051L48.0622 169.925Z" fill="white"/>
<path opacity="0.6" d="M159.969 214.712C183.013 214.712 201.695 203.935 201.695 190.642C201.695 177.349 183.013 166.572 159.969 166.572C136.924 166.572 118.243 177.349 118.243 190.642C118.243 203.935 136.924 214.712 159.969 214.712Z" fill="#023435"/>
<path d="M159.969 228.363C143.35 228.363 126.851 224.77 114.178 217.465C101.864 210.28 95.0488 200.82 95.0488 190.641C95.0488 180.463 101.864 171.002 114.178 163.817C139.405 149.208 180.533 149.208 205.76 163.817C218.074 171.002 224.889 180.463 224.889 190.641C224.889 200.82 218.074 210.28 205.76 217.465C193.206 224.65 176.587 228.363 159.969 228.363ZM159.969 153.998C143.589 153.998 127.21 157.59 114.776 164.775C102.82 171.721 96.2444 180.822 96.2444 190.641C96.2444 200.461 102.82 209.442 114.776 216.388C139.764 230.758 180.294 230.758 205.162 216.388C217.118 209.442 223.693 200.341 223.693 190.522C223.693 180.702 217.118 171.601 205.162 164.656C192.728 157.59 176.348 153.998 159.969 153.998Z" fill="white"/>
<path d="M225.886 67.6158L167.661 4.98665L109.437 0.316406C109.437 0.316406 100.111 79.471 167.661 163.296C235.212 157.548 225.886 67.6158 225.886 67.6158Z" fill="url(#paint2_linear_376_5018)"/>
<path d="M109.754 6.10352e-05L96.603 7.5443L154.947 12.3343L167.979 4.6703L109.754 6.10352e-05Z" fill="url(#paint3_linear_376_5018)"/>
<path d="M213.172 74.9633L154.948 12.3342L131.036 9.93918L96.7227 7.66394C96.7227 7.66394 87.3972 86.8185 154.948 170.643C222.498 164.895 213.172 74.9633 213.172 74.9633Z" fill="url(#paint4_linear_376_5018)"/>
<path d="M213.172 74.9637L154.947 12.3345L96.7227 7.6643C98.3965 6.7063 98.3965 6.7063 98.3965 6.7063L157.458 11.4963L215.683 74.1254C215.683 74.1254 223.454 149.328 173.12 166.572C220.704 147.652 213.172 74.9637 213.172 74.9637Z" fill="white"/>
<path opacity="0.6" d="M206.118 75.9214L153.752 19.639L132.231 17.4835L101.385 15.4478C101.385 15.4478 93.0162 86.5791 153.752 162.021C214.487 156.752 206.118 75.9214 206.118 75.9214Z" fill="white"/>
<path d="M131.046 83.1635L132.042 84.8794C132.203 85.1338 132.497 85.3033 132.693 85.2349C134.246 84.6248 140.251 82.3391 141.123 82.6029C145.121 83.8856 134.949 78.2012 134.949 78.2012L131.046 83.1635Z" fill="url(#paint5_linear_376_5018)"/>
<path d="M150.766 84.4017L151.691 87.8196C151.691 87.8196 152.154 89.1817 152.566 89.1714C152.979 89.161 154.129 89.4995 154.292 88.8788C154.454 88.2582 153.984 85.2642 153.984 85.2642L150.766 84.4017Z" fill="url(#paint6_linear_376_5018)"/>
<path d="M169.185 92.0241C169.185 92.0241 173.474 95.2263 174.401 96.5314C174.52 96.7143 174.716 96.8273 174.891 96.8138C175.839 96.645 175.488 92.4149 175.488 92.4149L169.185 92.0241Z" fill="url(#paint7_linear_376_5018)"/>
<path d="M133.784 87.7013C136.92 84.345 141.257 83.9372 146.306 85.1392C146.615 85.2221 146.92 85.4548 147.123 85.7807C147.527 86.4325 150.18 90.2831 150.456 91.0514C152.196 97.5861 151.484 101.471 147.461 101.812C147.085 101.862 146.621 101.738 146.166 101.495C144.049 100.324 140.561 97.4875 137.657 94.0829C136.115 92.2809 134.963 90.3421 133.818 88.4349C133.652 88.1489 133.635 87.8728 133.784 87.7013Z" fill="url(#paint8_linear_376_5018)"/>
<path d="M174.233 98.5394C169.632 93.11 164.746 90.231 159.645 88.713C159.335 88.6301 158.716 88.4642 158.604 88.6756C158.389 89.1615 158.184 89.5293 158.109 89.9619C158.028 90.3629 157.793 92.3228 157.754 92.9766C158.133 99.1464 158.887 103.666 164.168 106.258C164.617 106.469 165.061 106.648 165.473 106.638C167.379 106.545 170.204 105.4 172.19 103.305C173.247 102.2 173.829 100.726 174.416 99.2829C174.534 99.1031 174.456 98.8104 174.233 98.5394Z" fill="url(#paint9_linear_376_5018)"/>
<path d="M175.448 95.3626C175.392 95.7403 174.081 95.1475 173.72 94.9298C170.347 92.7883 167.005 90.655 163.632 88.5134C163.136 88.1994 162.631 88.0035 162.135 87.6895C161.969 87.5848 161.814 87.362 161.695 87.1792C161.659 87.1393 161.807 86.9678 161.921 86.9378C164.227 86.4085 166.658 86.0938 169.459 86.7536C171.001 87.1366 172.626 87.844 174.206 88.4482C174.871 88.7172 175.234 89.2975 175.371 89.9378C175.434 90.3171 175.492 90.6647 175.555 91.0439C175.622 91.0921 175.664 94.0017 175.448 95.3626Z" fill="#303030"/>
<path d="M133.228 76.9249C136.462 77.8822 139.596 79.4766 142.645 81.8031C142.748 81.8912 142.857 82.0109 142.94 82.1539C143.054 82.3052 143.049 82.4549 142.941 82.5166C142.833 82.5782 142.756 82.6481 142.638 82.6466C140.979 82.806 139.315 82.9338 137.693 83.133C136.209 83.279 134.767 83.4964 133.289 83.674C132.857 83.7392 132.46 83.8443 132.017 83.8463C131.636 83.865 131.326 83.6007 131.077 83.1717C129.734 80.9702 129.304 78.9228 129.389 76.953C129.383 76.7401 129.645 76.5386 129.887 76.5733C130.965 76.6506 132.114 76.8077 133.228 76.9249Z" fill="#303030"/>
<path d="M142.024 75.5985C142.092 75.828 142.088 76.1591 141.949 76.2124C141.81 76.2658 141.459 76.1114 141.252 75.9352C140.012 74.8782 138.74 73.8129 137.545 72.6776C137.158 72.302 136.826 71.73 136.664 71.2943C135.845 68.6898 134.934 66.0605 133.276 63.5631C131.97 61.5829 133.391 61.2391 134.389 60.8423C134.584 60.774 135.008 61.0082 135.251 61.2242C136.719 62.5838 138.193 63.975 139.61 65.3812C139.858 65.6289 140.04 66.0097 140.093 66.3258C140.313 67.2904 141.521 73.4712 142.024 75.5985Z" fill="#303030"/>
<path d="M163.516 68.496C163.681 68.6006 163.903 68.6903 164.079 68.8582C164.534 69.282 164.983 69.6742 165.356 70.1364C166.272 71.197 166.231 71.3068 166.003 72.2419C165.586 73.821 165.232 75.4166 164.913 77.0522C164.837 77.4848 164.932 78.0536 164.991 78.5826C165.06 79.1748 164.928 79.6224 164.496 79.8689C163.514 80.3605 162.537 80.8836 161.518 81.3353C161.353 81.4119 161.033 81.2658 160.791 81.2311C160.749 80.9782 160.645 80.7088 160.634 80.4643C160.536 79.1701 160.567 77.9407 160.377 76.6217C160.154 74.9317 159.813 73.2401 159.59 71.5501C159.532 71.2025 159.613 70.8015 159.798 70.6699C160.888 69.9354 162.019 69.2724 163.114 68.5695C163.222 68.5078 163.371 68.5177 163.516 68.496Z" fill="#303030"/>
<path d="M148.499 72.2313C148.6 71.7754 148.726 70.9335 148.919 70.1398C149.035 69.5974 149.25 69.1115 149.47 68.6571C150.523 66.4637 150.368 63.5842 150.445 60.8576C150.46 60.5897 150.69 60.1986 150.907 60.2567C151.428 60.366 152.031 60.6184 152.563 60.9723C152.693 61.0371 152.778 61.7241 152.706 62.0069C152.363 63.8471 151.921 65.6308 151.671 67.4958C151.545 68.3377 151.781 69.3972 151.882 70.3603C152.124 72.8704 152.618 75.4785 153.473 78.1229C153.478 78.1545 153.52 78.226 153.525 78.2576C153.48 78.6984 153.436 79.1393 153.386 79.5486C152.977 79.2279 152.549 78.962 152.192 78.5947C151.545 77.9082 150.975 77.1517 150.38 76.4186C149.448 75.2631 148.851 73.986 148.499 72.2313Z" fill="#303030"/>
<path d="M173.584 86.1381C171.583 85.6623 169.529 85.0517 167.56 84.7656C165.92 84.5074 164.406 84.645 162.834 84.6164C162.685 84.6065 162.546 84.6599 162.391 84.6184C162.236 84.5769 161.978 84.4474 161.895 84.3044C161.818 84.193 161.863 83.9334 161.976 83.9034C163.102 83.2088 164.161 82.466 165.401 81.9226C167.247 81.1193 169.462 80.9278 171.792 81.069C172.416 81.0851 172.757 81.3577 173.084 82.0794C173.531 83.1653 173.979 84.2513 174.4 85.3605C174.764 86.3035 174.518 86.5998 173.584 86.1381Z" fill="#303030"/>
<path d="M129.872 69.746C130.29 69.9486 130.776 70.1994 131.261 70.4502C133.76 71.784 136.229 73.2909 138.478 75.4334C139.357 76.2728 140.211 77.1354 141.039 78.0214C141.184 78.181 141.231 78.4655 141.294 78.6634C141.077 78.6053 140.891 78.5556 140.664 78.4343C139.255 77.785 137.825 77.0093 136.431 76.4548C133.959 75.4603 131.499 74.7104 129.132 74.348C128.735 74.2718 128.42 74.1573 128.485 73.6615C128.651 72.5285 128.817 71.3955 128.983 70.2625C129.028 69.8216 129.253 69.5802 129.872 69.746Z" fill="#303030"/>
<path d="M158.587 75.991C158.902 79.1248 158.841 81.9463 157.814 84.2977C157.533 84.9168 157.386 85.6323 157.131 86.228C157.049 86.4477 156.797 86.5311 156.617 86.6942C156.451 86.4082 156.223 86.1057 156.181 85.8528C155.49 82.9505 155.496 80.3254 155.94 77.848C156.182 76.4637 156.693 75.2722 157.343 74.2086C157.461 74.0289 157.786 74.0253 158.007 73.9336C158.142 74.2113 158.339 74.5056 158.412 74.7667C158.481 75.1776 158.529 75.6433 158.587 75.991Z" fill="#303030"/>
<path d="M148.354 81.8234C148.449 82.3923 148.575 82.9694 148.644 83.5616C148.66 83.6564 148.64 83.7113 148.619 83.7662C148.553 83.8994 148.378 83.9128 148.212 83.8081C148.109 83.7201 148.011 83.6636 147.933 83.5522C147.741 83.2895 147.596 82.9486 147.425 82.631C146.485 80.9 145.577 79.1773 144.581 77.4613C143.658 75.8251 143.394 74.2449 143.012 72.6632C142.819 71.8565 142.723 71.1064 142.653 70.3329C142.622 70.1432 142.801 69.9801 142.946 69.9583C143.064 69.9599 143.369 70.1925 143.457 70.3671C144.318 71.8054 145.235 73.2287 145.952 74.6887C147.12 77.0849 148.052 79.478 148.354 81.8234Z" fill="#303030"/>
<path d="M156.995 69.1034C156.95 69.5443 157.003 70.0417 156.814 70.323C156.133 71.5596 155.421 72.7878 154.673 73.9762C154.607 74.1094 154.226 74.128 154.086 74C153.879 73.8238 153.672 73.4663 153.666 73.2534C153.58 72.2038 153.586 71.179 153.5 70.1294C153.358 68.2197 153.574 66.4961 154.016 64.8937C154.066 64.6658 154.282 64.5425 154.4 64.3627C154.623 64.6337 154.871 64.8814 155.001 65.1275C155.411 65.8109 155.794 66.5176 156.148 67.216C156.521 67.8595 156.74 68.4615 156.995 69.1034Z" fill="#303030"/>
<path d="M141.916 64.6707C142.13 64.0035 142.308 63.2963 142.522 62.6291C142.618 62.3229 142.746 62.025 142.91 61.767C143.094 61.4541 143.533 61.6018 143.731 62.0774C144.469 63.8452 145.413 65.6078 145.858 67.3874C146.203 68.748 146.61 70.1251 146.925 71.4773C146.992 71.7068 146.89 71.9814 146.726 72.058C146.618 72.1197 146.163 71.8771 146.08 71.7341C144.79 69.6674 143.195 67.7307 142.27 65.5505C142.166 65.2811 142.093 65.0199 141.989 64.7505C142.014 64.7272 141.983 64.7189 141.916 64.6707Z" fill="#303030"/>
<path d="M148.622 61.0936C148.731 62.6323 148.474 64.2844 147.985 65.7837C147.929 65.98 147.636 65.9919 147.476 66.1002C147.315 65.8458 147.129 65.6147 146.999 65.3686C146.382 64.1464 145.795 62.9325 145.177 61.7103C144.736 60.8373 144.238 59.9793 143.827 59.1146C143.745 58.9716 143.898 58.6504 144.047 58.6602C144.97 58.6961 145.877 58.6371 146.831 58.8626C148.053 59.0995 148.395 59.5533 148.622 61.0936Z" fill="#303030"/>
<path d="M149.259 78.3826C149.191 78.1531 149.272 77.9334 149.297 77.7288C149.499 77.8734 149.752 77.9713 149.902 78.1625C150.994 79.391 152.091 80.6511 153.188 81.9111C153.623 82.3899 153.789 82.8572 153.76 83.3929C153.742 83.9918 153.878 84.6322 153.989 85.2958C154.163 86.3387 154.235 86.2372 152.935 85.8889C152.718 85.8309 152.44 85.7562 152.228 85.7298C150.95 85.5079 151.047 85.3831 150.776 84.465C150.363 83.0563 149.431 79.0629 149.259 78.3826Z" fill="#303030"/>
<path d="M166.618 78.2335C166.861 77.0305 167.109 75.8592 167.357 74.6878C167.428 74.405 167.561 74.1387 167.669 73.8957C167.832 73.4564 168.074 73.4912 168.519 74.0331C169.705 75.4678 170.633 76.9543 171.401 78.549C171.583 78.9298 171.496 79.1178 171.171 79.1214C169.997 79.169 168.853 79.2248 167.678 79.2723C167.142 79.2495 166.822 78.922 166.618 78.2335Z" fill="#303030"/>
<path d="M134.515 69.7525C134.61 70.3213 134.425 70.4529 133.872 70.1539C132.669 69.4995 131.43 68.8051 130.222 68.119C129.468 67.6755 129.343 67.461 129.604 66.8968C130.059 65.9017 130.581 64.9547 131.103 64.0077C131.287 63.6948 131.55 63.6746 131.959 64.1767C132.611 65.0761 134.362 68.836 134.515 69.7525Z" fill="#303030"/>
<path d="M141.068 58.5264C141.167 58.7642 141.364 59.0585 141.359 59.2082C141.213 59.9237 140.968 60.5826 140.79 61.2898C140.663 61.769 140.567 62.2565 140.502 62.7523C140.396 63.5393 139.99 63.5812 139.219 62.8615C138.34 62.0221 137.461 61.1827 136.613 60.3516C136.261 60.0159 136.059 59.69 136.481 59.5615C137.871 59.2094 139.292 58.8656 140.718 58.5533C140.744 58.53 140.8 58.515 141.068 58.5264Z" fill="#303030"/>
<path d="M158.563 68.4068C158.424 68.2789 158.217 68.1027 158.129 67.9281C157.257 66.2453 156.416 64.5708 155.611 62.9361C155.528 62.7931 155.522 62.5802 155.599 62.5103C155.676 62.4403 155.893 62.4984 156.022 62.5632C157.654 63.6648 159.261 64.7897 160.868 65.9146C161.271 66.2037 161.52 66.6327 161.206 66.8809C160.466 67.4072 159.69 67.8935 158.914 68.3799C158.831 68.4183 158.708 68.3851 158.563 68.4068Z" fill="#303030"/>
<path d="M28.8135 261.294L29.1722 255.306L44.356 240.098L49.9753 245.726L34.7914 260.935L28.8135 261.294ZM30.3677 255.785L30.1286 259.977L34.3132 259.737L48.421 245.607L44.4756 241.655L30.3677 255.785Z" fill="white"/>
<path d="M5.61923 290.273L0 284.525L15.1839 269.317L21.1618 268.958L20.8031 274.945L5.61923 290.273ZM1.67381 284.525L5.61923 288.477L19.7271 274.347L19.9662 270.156L15.7817 270.395L1.67381 284.525Z" fill="white"/>
<path d="M44.4757 290.273L29.2918 275.065L28.9331 269.078L34.911 269.437L50.0949 284.645L44.4757 290.273ZM30.3678 274.466L44.4757 288.597L48.4211 284.645L34.3132 270.515L30.1287 270.275L30.3678 274.466Z" fill="white"/>
<path d="M21.2814 261.294L15.3034 260.935L0 245.727L5.61923 240.098L20.8031 255.307L21.2814 261.294ZM15.7817 259.737L19.9662 259.977L19.7271 255.786L5.61923 241.775L1.67381 245.727L15.7817 259.737Z" fill="white"/>
<path d="M247.605 271.952C247.127 271.952 246.888 271.592 246.768 271.233C246.768 270.754 247.007 270.395 247.485 270.395C259.8 269.437 272.114 265.725 282.157 259.857C293.037 253.51 299.613 247.283 301.526 241.176C301.645 240.697 302.124 240.457 302.602 240.697C303.08 240.817 303.319 241.296 303.08 241.775C300.928 248.241 294.233 254.827 282.875 261.294C272.712 267.162 260.159 270.874 247.605 271.952Z" fill="white"/>
<path d="M302.96 237.823C302.482 237.823 302.123 237.464 302.123 236.985C302.004 232.195 298.417 227.644 291.961 223.812C277.614 215.549 258.963 215.549 239.355 223.932C238.997 224.052 238.519 223.932 238.279 223.453C238.16 223.094 238.279 222.615 238.758 222.375C258.843 213.753 277.973 213.753 292.798 222.375C299.732 226.447 303.558 231.476 303.797 236.865C303.797 237.344 303.439 237.823 302.96 237.823C303.08 237.823 303.08 237.823 302.96 237.823Z" fill="white"/>
<path d="M235.171 271.832C228.237 271.233 222.259 269.437 217.715 266.803C212.694 263.929 209.466 259.977 208.629 255.426C208.51 254.828 208.629 254.109 209.107 253.63C209.944 252.672 211.379 252.193 213.053 252.313C214.966 252.433 216.4 253.271 216.759 254.468C217.715 257.582 219.987 260.336 223.693 262.372C236.367 269.677 260.876 267.521 278.331 257.462C289.57 250.996 295.428 244.409 295.428 238.302C295.428 234.111 292.439 230.039 286.701 226.806C271.995 218.304 252.148 220.1 232.062 231.716C224.889 235.907 219.628 241.056 217.476 246.086C216.998 247.164 215.683 247.882 214.009 247.882C212.335 247.882 210.901 247.283 210.303 246.325C209.944 245.727 209.944 245.128 210.183 244.529C213.172 238.542 219.031 232.794 227.4 228.004C227.758 227.764 228.237 227.884 228.476 228.243C228.715 228.602 228.595 229.081 228.237 229.321C220.226 233.991 214.487 239.38 211.618 245.128C211.618 245.248 211.618 245.248 211.618 245.367C211.857 245.727 212.694 246.086 213.89 246.086C215.085 246.086 215.803 245.607 215.922 245.248C218.194 239.859 223.693 234.35 231.226 230.039C251.79 218.184 272.234 216.388 287.418 225.13C293.635 228.722 296.863 233.153 296.863 238.063C296.863 244.769 290.766 251.714 278.929 258.66C261.115 268.958 235.888 271.114 222.737 263.569C218.792 261.294 216.161 258.181 215.085 254.708C214.966 254.229 214.009 253.75 212.814 253.75C211.498 253.63 210.542 254.109 210.183 254.588C209.944 254.828 210.064 254.947 210.064 255.067C210.901 259.139 213.77 262.731 218.433 265.366C222.737 267.88 228.595 269.557 235.171 270.156C235.649 270.156 235.888 270.635 235.888 270.994C236.008 271.593 235.649 271.832 235.171 271.832Z" fill="white"/>
<path d="M255.735 263.449C254.42 263.449 253.224 262.97 252.507 262.252C252.028 261.653 251.789 260.935 252.028 260.336C252.267 259.498 253.224 258.779 254.539 258.54C260.039 257.462 265.419 255.426 270.082 252.792C277.614 248.481 281.918 244.05 282.396 240.218C282.635 238.302 282.037 236.506 280.364 234.829C279.766 234.23 279.646 233.632 279.766 232.913C280.005 232.075 280.722 231.356 281.918 230.877C283.95 230.159 286.342 230.638 287.537 231.835C289.809 234.23 290.765 236.745 290.526 239.619C290.167 243.691 287.298 247.762 281.918 252.073C281.559 252.313 281.081 252.313 280.722 251.953C280.483 251.594 280.483 251.115 280.842 250.756C285.863 246.804 288.613 243.092 288.852 239.499C288.972 237.224 288.135 235.069 286.222 233.033C285.624 232.314 283.831 231.955 282.277 232.434C281.559 232.674 281.201 233.033 281.201 233.272C281.201 233.272 281.201 233.512 281.32 233.751C283.233 235.787 284.07 238.062 283.711 240.457C283.114 244.888 278.69 249.558 270.56 254.229C265.778 256.983 260.278 259.019 254.539 260.216C253.822 260.336 253.344 260.695 253.224 260.935C253.224 260.935 253.224 261.054 253.344 261.294C253.822 261.773 255.017 262.132 256.213 261.893C262.549 260.575 268.647 258.18 273.788 255.187C274.147 254.947 274.625 255.067 274.864 255.426C275.103 255.785 274.984 256.264 274.625 256.504C269.245 259.617 263.028 261.893 256.572 263.33C256.452 263.449 256.093 263.449 255.735 263.449Z" fill="white"/>
<path d="M242.823 264.766C242.703 264.766 242.703 264.766 242.583 264.766C236.606 264.527 231.465 263.329 227.639 261.174C223.335 258.659 221.063 255.186 221.063 251.115C221.063 244.888 226.443 238.062 235.53 232.913C249.877 224.65 264.223 221.896 275.94 225.369C277.136 225.728 278.092 226.447 278.331 227.405C278.57 228.123 278.331 228.722 277.853 229.321C276.777 230.518 274.386 230.997 272.473 230.398C264.104 227.884 253.583 229.68 242.823 235.428C242.464 235.667 242.225 235.907 242.225 236.027C242.225 236.146 242.464 236.386 242.703 236.506C243.54 236.985 245.094 236.985 246.051 236.506C256.811 230.877 266.734 229.8 273.429 233.632C276.179 235.188 277.614 237.224 277.614 239.499C277.614 243.331 273.908 247.403 266.615 251.594C256.572 257.342 243.301 259.258 237.084 255.546C235.171 254.468 233.975 252.791 233.617 250.995C233.258 248.48 234.454 245.726 236.964 242.972C237.084 242.852 237.084 242.732 237.084 242.732C237.084 242.613 236.845 242.253 236.366 242.134C235.171 241.655 233.497 241.894 232.899 242.493C230.03 245.606 228.715 248.72 229.193 251.474C229.552 253.63 230.867 255.426 233.377 256.863C235.888 258.3 239.236 259.138 243.181 259.378C245.214 259.497 246.768 260.575 246.768 261.892C246.768 262.491 246.529 263.09 246.17 263.569C245.333 264.287 244.138 264.766 242.823 264.766ZM265.419 225.489C256.452 225.489 246.409 228.482 236.486 234.23C227.878 239.14 222.856 245.487 222.856 251.115C222.856 254.588 224.889 257.581 228.595 259.737C232.182 261.773 237.084 262.97 242.703 263.09C243.779 263.09 244.616 262.731 244.975 262.371C245.094 262.252 245.214 262.132 245.094 262.012C245.094 261.653 244.257 261.054 242.942 260.934C238.758 260.695 235.171 259.737 232.421 258.18C229.552 256.504 227.878 254.228 227.519 251.594C227.041 248.361 228.476 244.768 231.704 241.295C232.78 240.098 235.171 239.739 236.964 240.457C237.921 240.817 238.518 241.535 238.638 242.253C238.758 242.852 238.638 243.451 238.16 243.93C236.008 246.325 234.932 248.72 235.171 250.636C235.41 252.073 236.247 253.151 237.801 254.109C243.54 257.462 256.094 255.665 265.658 250.157C272.234 246.325 275.94 242.493 275.94 239.499C275.94 237.823 274.864 236.266 272.593 234.949C266.376 231.356 256.93 232.434 246.768 237.823C245.333 238.541 243.181 238.541 241.866 237.703C241.029 237.224 240.551 236.505 240.551 235.787C240.551 234.949 241.029 234.23 241.986 233.751C253.105 227.764 264.104 225.968 272.951 228.602C274.506 229.081 276.179 228.602 276.658 228.003C276.897 227.764 276.777 227.644 276.777 227.524C276.658 227.285 276.299 226.926 275.462 226.686C272.353 225.968 269.006 225.489 265.419 225.489Z" fill="white"/>
<path d="M246.648 253.989C244.616 253.989 243.062 253.63 241.866 252.911C240.551 252.193 239.833 250.995 239.833 249.678C239.833 246.804 242.942 243.212 248.203 240.218C256.691 235.308 264.223 233.991 268.647 236.506C270.56 237.583 271.038 239.02 271.038 239.978C271.158 242.373 268.886 245.008 264.462 247.882C263.028 248.84 260.756 248.84 259.321 248.002C258.485 247.523 258.006 246.804 258.006 246.086C258.006 245.367 258.365 244.649 259.082 244.17C262.669 241.894 262.669 240.936 262.669 240.936C261.713 240.338 258.724 240.817 253.224 244.05C249.518 246.205 247.844 248.121 247.963 248.6C247.963 249.079 247.605 249.439 247.127 249.439C246.648 249.439 246.29 249.079 246.29 248.6C246.29 246.325 250.952 243.451 252.387 242.613C256.093 240.457 260.995 238.182 263.386 239.499C263.984 239.859 264.223 240.338 264.223 240.936C264.223 241.775 263.865 243.092 259.919 245.607C259.68 245.726 259.561 245.966 259.561 246.086C259.561 246.205 259.68 246.445 260.039 246.565C260.995 247.163 262.669 247.044 263.506 246.565C268.647 243.212 269.364 241.056 269.364 239.978C269.364 239.14 268.767 238.422 267.81 237.823C265.897 236.745 260.397 234.949 249.039 241.535C244.496 244.17 241.507 247.403 241.507 249.678C241.507 250.397 241.866 251.115 242.703 251.474C244.735 252.672 248.561 252.552 253.104 251.355C253.583 251.235 253.941 251.474 254.061 251.953C254.18 252.432 253.941 252.792 253.463 252.911C250.952 253.63 248.681 253.989 246.648 253.989Z" fill="white"/>
<path d="M233.138 225.848C233.019 225.848 233.019 225.848 232.899 225.728L211.498 213.275C211.259 213.155 211.14 212.796 211.259 212.556C211.379 212.317 211.738 212.197 211.977 212.317L233.378 224.77C233.617 224.89 233.736 225.249 233.617 225.489C233.497 225.728 233.378 225.848 233.138 225.848Z" fill="white"/>
<defs>
<linearGradient id="paint0_linear_376_5018" x1="27.1347" y1="134.831" x2="337.592" y2="298.15" gradientUnits="userSpaceOnUse">
<stop stop-color="#54E865"/>
<stop offset="0.3053" stop-color="#5AC766"/>
<stop offset="0.565625" stop-color="#5AC766"/>
<stop offset="0.904167" stop-color="#30933B"/>
</linearGradient>
<linearGradient id="paint1_linear_376_5018" x1="35.6297" y1="239.129" x2="311.433" y2="123.024" gradientUnits="userSpaceOnUse">
<stop stop-color="#A9FFB3"/>
<stop offset="1" stop-color="#A1FFAB"/>
</linearGradient>
<linearGradient id="paint2_linear_376_5018" x1="150.737" y1="66.4807" x2="325.955" y2="120.162" gradientUnits="userSpaceOnUse">
<stop stop-color="#288485"/>
<stop offset="1" stop-color="#155F60"/>
</linearGradient>
<linearGradient id="paint3_linear_376_5018" x1="121.995" y1="5.00736" x2="138.498" y2="45.6515" gradientUnits="userSpaceOnUse">
<stop stop-color="#288485"/>
<stop offset="1" stop-color="#155F60"/>
</linearGradient>
<linearGradient id="paint4_linear_376_5018" x1="96.2154" y1="57.4861" x2="213.623" y2="57.4861" gradientUnits="userSpaceOnUse">
<stop stop-color="#399944"/>
<stop offset="1" stop-color="#2D9239"/>
</linearGradient>
<linearGradient id="paint5_linear_376_5018" x1="137.143" y1="86.4815" x2="139.065" y2="79.3093" gradientUnits="userSpaceOnUse">
<stop offset="4.74173e-07" stop-color="#5F9630"/>
<stop offset="1" stop-color="#A6B953"/>
</linearGradient>
<linearGradient id="paint6_linear_376_5018" x1="153.124" y1="89.338" x2="154.199" y2="85.3252" gradientUnits="userSpaceOnUse">
<stop offset="4.74173e-07" stop-color="#5F9630"/>
<stop offset="1" stop-color="#A6B953"/>
</linearGradient>
<linearGradient id="paint7_linear_376_5018" x1="173.028" y1="96.323" x2="174.173" y2="92.0504" gradientUnits="userSpaceOnUse">
<stop offset="4.74173e-07" stop-color="#5F9630"/>
<stop offset="1" stop-color="#A6B953"/>
</linearGradient>
<linearGradient id="paint8_linear_376_5018" x1="144.063" y1="101.019" x2="148.181" y2="85.6526" gradientUnits="userSpaceOnUse">
<stop offset="4.74173e-07" stop-color="#5F9630"/>
<stop offset="1" stop-color="#A6B953"/>
</linearGradient>
<linearGradient id="paint9_linear_376_5018" x1="167.864" y1="107.384" x2="171.979" y2="92.0267" gradientUnits="userSpaceOnUse">
<stop offset="4.74173e-07" stop-color="#5F9630"/>
<stop offset="1" stop-color="#A6B953"/>
</linearGradient>
</defs>
</svg>
