<svg width="99" height="65" viewBox="0 0 99 65" fill="none" xmlns="http://www.w3.org/2000/svg">
<path d="M51.7482 48.3385C45.9241 48.3385 40.1862 48.3385 34.3908 48.3385C34.1613 42.0267 31.5792 36.9199 26.3863 33.3624C21.1648 29.7762 15.4842 29.2884 9.48804 31.3254C9.48804 31.0672 9.48804 30.8377 9.48804 30.6369C9.48804 25.5301 9.48804 20.3946 9.48804 15.2878C9.48804 11.6442 12.3283 8.68914 16.0006 8.66045C22.5419 8.60307 29.0545 8.63176 35.5958 8.66045C35.8253 8.66045 36.1122 8.77521 36.2843 8.94735C38.2926 10.9269 40.3296 12.9352 42.3092 14.9722C42.51 15.173 42.5961 15.5173 42.5961 15.8042C42.6248 17.8125 42.5961 19.8208 42.5961 21.8865C42.8256 21.8865 43.0264 21.9151 43.2273 21.9151C46.4979 21.9151 49.7686 21.9151 53.0392 21.8865C53.3261 21.8865 53.6704 21.7143 53.8712 21.5135C59.0067 16.0911 65.2611 12.8492 72.6917 12.1319C81.9585 11.2425 89.963 14.0828 96.7051 20.538C97.5084 21.3127 97.824 22.2307 97.4797 23.321C97.1928 24.2677 96.5043 24.7841 95.5288 24.9563C94.6394 25.0997 93.9222 24.7554 93.291 24.153C90.3073 21.1979 86.8071 19.1035 82.7618 17.9273C68.4169 13.6812 53.5843 23.0914 51.203 37.8667C50.6866 41.1373 50.8014 44.3793 51.576 47.6212C51.6334 47.8221 51.6908 48.0516 51.7482 48.3385Z" fill="#155F60"/>
<path d="M89.1582 56.7159C87.8098 57.634 86.5188 58.5521 85.1704 59.4702C85.5146 60.4169 85.8589 61.4211 86.2606 62.5973C84.8261 63.1425 83.4203 63.6876 81.9284 64.2614C81.5268 63.2859 81.2112 62.3965 80.8382 61.5358C80.7521 61.3637 80.4939 61.1629 80.3505 61.1915C78.8873 61.3637 77.4528 61.5932 75.9036 61.794C75.7888 62.626 75.6453 63.5728 75.5019 64.4909C75.4732 64.663 75.2437 64.9212 75.1289 64.9212C73.7231 64.8065 72.2886 64.663 70.8254 64.5196C70.9402 63.4293 71.055 62.5113 71.1123 61.5932C71.1123 61.4211 70.9976 61.1055 70.8541 61.0481C69.477 60.503 68.0712 60.0153 66.608 59.4988C66.0056 60.3022 65.3744 61.1915 64.6571 62.167C63.3661 61.2776 62.1324 60.4456 60.8414 59.5562C61.5013 58.5521 62.1037 57.634 62.6488 56.7733C61.5586 55.5396 60.5258 54.3634 59.4356 53.1297C58.5175 53.5887 57.5421 54.0765 56.4518 54.5929C55.7346 53.2158 55.0174 51.896 54.2714 50.4902C55.3043 49.9164 56.251 49.4 57.1978 48.8549C56.9396 47.8221 56.6814 46.8179 56.3945 45.7851C56.3658 45.699 56.3658 45.613 56.3371 45.5556C56.0502 44.1498 56.0502 44.1498 54.6731 44.1211C54.2714 44.1211 53.8411 44.0637 53.4394 44.1211C52.8656 44.1785 52.7222 43.9203 52.7222 43.4039C52.7509 42.3136 52.7509 41.1947 52.7222 40.1045C52.7222 39.6168 52.8656 39.416 53.4107 39.416C54.1853 39.4447 54.9313 39.416 55.7059 39.3873C55.878 39.3873 56.1363 39.1578 56.1649 38.9856C56.3371 38.2971 56.4232 37.5511 56.5953 36.8626C56.7674 36.174 56.9969 35.4855 57.2265 34.7108C56.3084 34.1944 55.3329 33.6493 54.2714 33.0755C54.9887 31.6984 55.6772 30.3787 56.4232 28.9729C57.4847 29.4893 58.4601 29.977 59.4069 30.4647C60.4684 29.2598 61.5299 28.0548 62.6201 26.8211C62.075 25.9891 61.4726 25.0711 60.784 24.0669C62.0464 23.1775 63.3087 22.3168 64.5998 21.4274C65.2883 22.4029 65.9482 23.2636 66.5507 24.1243C68.0425 23.5505 69.5057 22.9767 71.055 22.4029C70.9689 21.3988 70.8541 20.3372 70.7394 19.0749C72.2313 18.9314 73.637 18.788 75.0715 18.6732C75.1576 18.6732 75.3584 18.9314 75.3871 19.1036C75.5306 20.0216 75.674 20.9397 75.7888 21.8865C76.7069 21.9725 77.5962 22.0299 78.5143 22.1447C79.0307 22.2021 79.5471 22.2881 80.0349 22.4316C80.4078 22.5177 80.6374 22.4603 80.7808 22.0299C81.0964 21.1692 81.4694 20.3085 81.8423 19.3618C83.3055 19.9069 84.7113 20.452 86.1745 20.9971C85.7729 22.1447 85.4286 23.1488 85.0843 24.1243C86.4327 25.0424 87.7238 25.9604 89.0435 26.8785C89.8181 26.2186 90.6501 25.5301 91.5682 24.7268C92.601 25.8744 93.6052 27.022 94.638 28.1982C93.7486 29.0016 92.974 29.7475 92.1994 30.4647C92.7732 31.5836 93.3757 32.6452 93.9208 33.7641C94.4085 34.7682 94.3798 34.7682 95.47 34.51C96.1586 34.3379 96.8758 34.1944 97.6791 34.0223C98.0521 35.5428 98.4251 37.006 98.798 38.5266C97.7652 38.8135 96.8758 39.0717 95.929 39.2725C95.5561 39.3586 95.4987 39.5307 95.4987 39.875C95.5274 41.166 95.5274 42.4284 95.4987 43.7194C95.4987 44.1211 95.5848 44.2645 95.9577 44.3506C96.8471 44.5514 97.7652 44.8097 98.7693 45.0965C98.3964 46.6171 98.0234 48.0516 97.6504 49.5722C96.4742 49.314 95.4126 49.0844 94.4085 48.8549C93.6626 50.2894 92.9166 51.6952 92.1707 53.1297C92.9166 53.8183 93.6912 54.5642 94.6093 55.3962C93.5765 56.5725 92.5723 57.6914 91.5395 58.8677C90.7936 58.093 89.9616 57.4045 89.1582 56.7159ZM85.7442 41.7685C85.7442 36.2601 81.2972 31.8132 75.7888 31.8132C70.309 31.8132 65.8047 36.2888 65.8047 41.7685C65.8047 47.2483 70.2803 51.7526 75.7601 51.7526C81.3259 51.7526 85.7442 47.3057 85.7442 41.7685Z" fill="#155F60"/>
<path d="M8.6554 59.5851C7.39305 58.3227 6.18808 57.1178 4.92573 55.8554C4.23717 56.171 3.40516 56.5153 2.57316 56.9169C2.1715 57.1178 1.8846 57.1178 1.71246 56.63C1.16736 55.3103 0.622256 53.9906 0.105839 52.6709C-0.0376102 52.2979 0.048454 52.0971 0.450112 51.9823C1.22474 51.7241 1.97067 51.4372 2.71661 51.1216C2.86006 51.0642 3.06089 50.8347 3.06089 50.6626C3.08958 49.0559 3.08958 47.4493 3.08958 45.7853C2.22888 45.4697 1.3395 45.0967 0.450112 44.7812C0.105834 44.6664 -0.00892041 44.4656 0.105839 44.1213C0.708325 42.6294 1.28212 41.1375 1.91329 39.5596C3.08958 40.076 4.06503 40.5351 4.95442 40.9367C6.21677 39.6744 7.42174 38.4694 8.6841 37.207C8.28244 36.3463 7.85209 35.3709 7.36436 34.2807C8.16768 33.879 8.91362 33.4774 9.71693 33.1331C10.4055 32.8462 11.1227 32.6454 11.8113 32.3871C12.2416 32.215 12.4425 32.3871 12.5859 32.7888C12.8441 33.5347 13.1023 34.2807 13.4179 34.9979C13.4753 35.1414 13.6761 35.3135 13.8196 35.3135C15.4549 35.3422 17.0615 35.3422 18.7255 35.3422C19.0411 34.5102 19.3854 33.6495 19.6723 32.7888C19.8157 32.3298 20.0453 32.2724 20.5043 32.3871C22.0249 32.8175 23.4594 33.4774 24.8652 34.3094C24.4061 35.3422 23.9471 36.3177 23.5741 37.207C24.8365 38.4694 26.0414 39.6744 27.3038 40.9367C28.1645 40.5351 29.1686 40.1047 30.3162 39.5883C31.0048 41.2523 31.6933 42.8589 32.3819 44.5516C31.4064 44.9246 30.6031 45.2689 29.7711 45.5271C29.2834 45.6992 29.1399 45.8714 29.1686 46.4165C29.2547 47.7936 29.1686 49.1707 29.1399 50.5478C29.1399 50.6626 29.1399 50.7773 29.1112 50.9208C30.1441 51.3224 31.1482 51.6954 32.2098 52.0971C31.8368 53.7898 31.1769 55.3103 30.3449 56.7448C30.2588 56.8596 29.9146 56.9456 29.7711 56.8883C28.8817 56.544 28.021 56.1136 27.2751 55.798C26.0127 57.0604 24.8078 58.2654 23.5454 59.5277C23.9471 60.3884 24.3774 61.3926 24.8365 62.4254C23.2872 63.4008 21.6519 64.032 19.8731 64.4911C19.5289 63.6017 19.1846 62.741 18.8977 61.8803C18.7542 61.4786 18.5821 61.4213 18.1517 61.4213C16.6312 61.4786 15.1106 61.4499 13.504 61.4499C13.131 62.3967 12.758 63.4008 12.3564 64.4911C10.5776 64.0894 8.9423 63.4008 7.36436 62.4541C7.8234 61.4786 8.25375 60.4745 8.6554 59.5851ZM16.0574 53.4168C18.8403 53.4168 21.0781 51.2364 21.0781 48.4821C21.1068 45.6992 18.869 43.4327 16.1148 43.404C13.3892 43.404 11.1227 45.6418 11.094 48.3674C11.0653 51.1216 13.3032 53.3881 16.0574 53.4168Z" fill="#155F60"/>
<path d="M79.0878 11.2426C72.4892 10.6114 66.3495 11.9025 60.6403 15.087C59.464 13.796 60.1812 11.5869 61.9313 11.2139C62.2469 11.1565 62.5912 11.1278 62.9067 11.1278C65.7757 11.1278 68.6734 11.1278 71.5424 11.1278C71.8293 11.1278 72.1162 11.1278 72.4605 11.1278C72.4892 10.8409 72.4892 10.5827 72.4892 10.3532C72.4892 8.14409 72.4892 5.96366 72.4892 3.75454C72.4892 1.77495 73.8663 0.340454 75.7311 0.340454C77.6533 0.340454 79.0304 1.77495 79.0591 3.75454C79.0591 6.04973 79.0591 8.34492 79.0591 10.6401C79.0878 10.8409 79.0878 11.0131 79.0878 11.2426Z" fill="#155F60"/>
<path d="M43.6862 5.30359C42.9116 4.55766 42.2517 3.92648 41.5919 3.26662C40.8172 2.49199 40.7885 1.51654 41.4771 0.82798C42.137 0.168114 43.1698 0.196804 43.9157 0.94274C46.0388 3.06579 48.1618 5.18883 50.2849 7.31188C51.0308 8.08651 51.0882 9.06196 50.457 9.75052C49.7685 10.4678 48.7643 10.4104 47.9897 9.63576C47.3298 8.97589 46.6987 8.31603 46.0388 7.62747C44.4035 9.29148 42.7968 10.8981 41.2476 12.4474C40.4156 11.6154 39.6696 10.8694 38.895 10.0661C40.3869 8.54554 41.9935 6.9676 43.6862 5.30359Z" fill="#155F60"/>
<path d="M80.7242 41.768C80.7242 44.5223 78.5437 46.7314 75.8182 46.7314C73.0353 46.7314 70.8262 44.5223 70.8262 41.768C70.8549 39.0425 73.0353 36.8334 75.7895 36.8334C78.5437 36.8334 80.7242 39.0138 80.7242 41.768Z" fill="#155F60"/>
</svg>
