<svg width="77" height="67" viewBox="0 0 77 67" fill="none" xmlns="http://www.w3.org/2000/svg">
<path d="M0.517942 58.087C0.506407 57.9832 0.494873 57.9371 0.494873 57.8909C0.494873 38.8248 0.494873 19.747 0.494873 0.68087C0.494873 0.646267 0.517942 0.611664 0.529476 0.553993C0.598682 0.542458 0.667887 0.530924 0.737093 0.530924C0.852436 0.530924 0.967779 0.530924 1.08312 0.530924C25.9626 0.530924 50.8305 0.530924 75.71 0.530924C75.883 0.530924 76.0675 0.507855 76.2405 0.565527C76.2521 0.611664 76.2751 0.657801 76.2751 0.703938C76.2751 19.7701 76.2751 38.8478 76.2751 57.914C76.2751 57.9601 76.2521 58.0063 76.2405 58.0524C76.2175 58.0639 76.2059 58.0755 76.1944 58.0755C76.1829 58.0755 76.1713 58.087 76.1598 58.087C76.1483 58.087 76.1367 58.087 76.1252 58.087C76.1137 58.087 76.1021 58.087 76.0906 58.087C76.0791 58.087 76.0675 58.087 76.056 58.087C76.0444 58.087 76.0329 58.087 76.0214 58.087C76.0098 58.087 75.9983 58.087 75.9868 58.087C75.9753 58.087 75.9637 58.087 75.9522 58.087C75.9406 58.087 75.9291 58.087 75.9176 58.087C75.906 58.087 75.8945 58.087 75.883 58.087C66.0442 58.087 56.1939 58.087 46.3552 58.087C46.3437 58.087 46.3321 58.087 46.3206 58.087C46.3091 58.087 46.2975 58.087 46.286 58.087C46.2745 58.087 46.2629 58.087 46.2514 58.087C46.2399 58.087 46.2283 58.087 46.2168 58.087C46.2053 58.087 46.1937 58.087 46.1822 58.087C46.1707 58.087 46.1591 58.087 46.1476 58.087C46.136 58.087 46.1245 58.087 46.113 58.087C46.1014 58.087 46.0899 58.087 46.0784 58.0985C46.0668 58.0985 46.0553 58.1101 46.0322 58.1332C46.0438 58.2485 46.136 58.3177 46.2052 58.3984C46.8396 59.1482 47.4856 59.8979 48.1199 60.6476C48.4314 61.0167 48.7428 61.3743 49.0542 61.7434C49.1696 61.8818 49.2964 61.9625 49.4695 61.9395C49.5733 61.9279 49.6655 61.9395 49.7693 61.9395C53.2642 61.9395 56.7591 61.9395 60.254 61.9395C60.404 61.9395 60.5539 61.9164 60.6923 61.9741C60.75 62.2855 60.75 66.0918 60.6923 66.4609C60.6231 66.4724 60.5539 66.484 60.4847 66.484C60.3809 66.484 60.2771 66.484 60.1848 66.484C45.6747 66.484 31.153 66.484 16.6429 66.484C16.4814 66.484 16.3199 66.484 16.1354 66.484C16.1238 66.3571 16.1008 66.2648 16.1008 66.161C16.1008 64.8461 16.1008 63.5312 16.1008 62.2278C16.1008 62.1471 16.1238 62.0548 16.1354 61.9625C16.4583 61.9049 16.7698 61.9395 17.0927 61.9279C17.4157 61.9164 17.7502 61.9279 18.0731 61.9279C18.3846 61.9279 18.7075 61.9279 19.0189 61.9279C19.3304 61.9279 19.6533 61.9279 19.9648 61.9279C20.2762 61.9279 20.5991 61.9279 20.9106 61.9279C21.2335 61.9279 21.568 61.9279 21.891 61.9279C22.2024 61.9279 22.5254 61.9279 22.8368 61.9279C23.1482 61.9279 23.4712 61.9279 23.7826 61.9279C24.094 61.9279 24.417 61.9279 24.7284 61.9279C25.0514 61.9279 25.3859 61.9279 25.7088 61.9279C26.0203 61.9279 26.3432 61.9279 26.6546 61.9279C26.9661 61.9279 27.289 61.9279 27.612 61.9279C28.6616 60.6938 29.7112 59.4711 30.7608 58.237C30.7839 58.2139 30.7954 58.1678 30.7954 58.1447C30.7724 58.0755 30.7147 58.087 30.6686 58.087C30.5186 58.087 30.3687 58.087 30.2187 58.087C20.4953 58.087 10.7835 58.087 1.06005 58.087C0.875505 58.087 0.714024 58.087 0.517942 58.087ZM5.06245 53.531C5.2816 53.531 5.45462 53.5425 5.62763 53.5425C27.462 53.5425 49.2964 53.5425 71.1309 53.5425C71.2462 53.5425 71.3615 53.5425 71.4769 53.5425C71.5461 53.5425 71.6268 53.5194 71.696 53.5194C71.7422 53.3234 71.7191 53.1503 71.7191 52.9773C71.7191 37.1984 71.7191 21.4195 71.7191 5.65215C71.7191 5.5368 71.7191 5.42146 71.7191 5.30612C71.7191 5.23691 71.696 5.16771 71.673 5.07543C71.4884 5.07543 71.3269 5.07543 71.1655 5.07543C49.3195 5.07543 27.4736 5.07543 5.62763 5.07543C5.51229 5.07543 5.39694 5.07543 5.2816 5.07543C5.2124 5.07543 5.14319 5.0985 5.06245 5.12157C5.06245 21.2465 5.06245 37.3599 5.06245 53.531Z" fill="#5CCB69"/>
<path d="M66.4592 48.2255C64.1062 48.2255 61.7993 48.2255 59.4694 48.2255C59.4579 48.1448 59.4348 48.0756 59.4348 48.0064C59.4233 47.9026 59.4348 47.8103 59.4348 47.7065C59.4348 36.2529 59.4348 24.7879 59.4348 13.3343C59.4348 13.1728 59.4348 13.0114 59.4463 12.8499C59.5963 12.7807 59.7347 12.8037 59.8731 12.8037C61.2918 12.8037 62.699 12.8037 64.1177 12.8037C64.7637 12.8037 65.4096 12.8037 66.044 12.8037C66.1708 12.8037 66.2977 12.8037 66.4361 12.8037C66.4477 12.896 66.4707 12.9652 66.4823 13.0344C66.4938 13.1382 66.4823 13.2305 66.4823 13.3343C66.4823 24.7879 66.4823 36.2529 66.4823 47.7065C66.4707 47.868 66.4592 48.0294 66.4592 48.2255Z" fill="#187777"/>
<path d="M37.2778 21.0852C37.3816 21.0737 37.4854 21.0622 37.5777 21.0622C40.4728 21.0276 43.9215 21.0506 44.2445 21.1083C44.256 21.1544 44.2675 21.2006 44.2675 21.2467C44.3021 21.8811 44.2791 47.914 44.2445 48.1908C44.1407 48.2715 44.0023 48.2369 43.8869 48.2369C42.8258 48.2369 41.7646 48.2369 40.7034 48.2369C39.7115 48.2369 38.708 48.2369 37.7161 48.2369C37.5777 48.2369 37.4392 48.2369 37.2893 48.2369C37.2662 48.1447 37.2547 48.0755 37.2432 48.0062C37.2316 47.914 37.2432 47.8332 37.2432 47.741C37.2432 39.0095 37.2432 30.2781 37.2432 21.5466C37.2547 21.4082 37.2316 21.2582 37.2778 21.0852Z" fill="#49A454"/>
<path d="M55.5835 29.3091C55.6066 29.4014 55.6297 29.436 55.6297 29.4706C55.6297 35.676 55.6297 41.8815 55.6297 48.0869C55.6297 48.1215 55.6181 48.1561 55.5951 48.2138C55.4682 48.2715 55.3298 48.2484 55.1914 48.2484C53.888 48.2484 52.5961 48.2484 51.2928 48.2484C50.5315 48.2484 49.7818 48.2484 49.0205 48.2484C48.8936 48.2484 48.7668 48.2484 48.6284 48.2484C48.6168 48.1561 48.5937 48.0869 48.5937 48.0177C48.5822 47.9139 48.5937 47.8216 48.5937 47.7178C48.5937 41.7661 48.5937 35.8144 48.5937 29.8512C48.5937 29.6897 48.5938 29.5282 48.6053 29.3668C48.7552 29.2745 48.8936 29.3091 49.0321 29.3091C50.2662 29.3091 51.5004 29.3091 52.7461 29.3091C53.565 29.3091 54.384 29.3091 55.2029 29.3091C55.3182 29.3091 55.4336 29.3091 55.5835 29.3091Z" fill="#5CCB69"/>
<path d="M11.3253 27.797C9.51444 24.1522 9.99888 19.0195 13.6783 15.6053C15.4892 13.9213 17.6576 13.0101 20.1144 12.8255C21.8677 12.6871 24.3014 13.1716 25.178 13.7944C25.1203 13.8982 25.0627 14.0136 25.005 14.1174C23.4248 16.851 21.8561 19.5731 20.2759 22.3067C20.1606 22.5143 20.0222 22.6643 19.8146 22.7796C17.0925 24.3944 14.3704 26.0092 11.6483 27.624C11.556 27.6702 11.4522 27.7278 11.3253 27.797Z" fill="#187777"/>
<path d="M26.654 32.077C25.0046 29.3088 23.3782 26.5521 21.7634 23.83C21.7634 23.7723 21.7634 23.7608 21.7634 23.7493C21.7634 23.7377 21.775 23.7262 21.775 23.7146C23.4474 20.808 25.1199 17.9014 26.8039 14.9947C26.8385 14.9371 26.8731 14.8909 26.9077 14.8332C26.9193 14.8217 26.9193 14.8102 26.9308 14.8102C26.9423 14.7986 26.9539 14.7986 26.9654 14.7871C29.0877 16.1597 31.36 19.2509 31.383 23.2763C31.3946 27.4979 28.9493 30.6583 26.654 32.077Z" fill="#49A454"/>
<path d="M24.8558 33.0351C20.6689 34.8691 15.2708 33.5888 12.3757 29.5748C12.4103 29.4364 12.5487 29.4134 12.6526 29.3442C14.2789 28.3753 15.9052 27.4179 17.5316 26.449C18.2698 26.0107 19.0079 25.5724 19.7461 25.1341C19.8499 25.0765 19.9538 24.9842 20.0806 24.9727C20.2652 25.2149 24.6943 32.666 24.8558 33.0351Z" fill="#5CCB69"/>
</svg>
