<svg width="75" height="63" viewBox="0 0 75 63" fill="none" xmlns="http://www.w3.org/2000/svg">
<path d="M2.7336 36.5972C2.66944 38.0533 3.11054 39.2853 4.1852 40.2774C4.69848 40.7494 5.29997 41.0615 5.97364 41.2135C8.03475 41.6695 10.0959 42.1095 12.149 42.5655C17.6266 43.7656 23.1041 44.9577 28.5817 46.1578C32.7681 47.0778 36.9545 47.9899 41.1409 48.9099C41.3895 48.9659 41.582 48.8939 41.7905 48.7819C45.3834 46.7658 48.9844 44.7417 52.5773 42.7256C56.2905 40.6374 59.9957 38.5493 63.7089 36.4612C66.6843 34.7891 69.6677 33.117 72.6431 31.4449C73.1323 31.1729 73.7338 31.2049 74.0706 31.5169C74.4235 31.8449 74.5197 32.3889 74.3112 32.845C74.215 33.061 74.0465 33.205 73.838 33.317C71.9774 34.3651 70.1168 35.4131 68.2562 36.4612C65.8101 37.8373 63.3721 39.2133 60.926 40.5814C58.6644 41.8455 56.4108 43.1096 54.1492 44.3737C51.9758 45.5977 49.7944 46.8218 47.621 48.0379C45.8406 49.0379 44.0601 50.046 42.2797 51.0381C41.9028 51.2461 41.5098 51.2621 41.0848 51.1661C34.0353 49.606 26.9778 48.0619 19.9202 46.5178C15.5253 45.5577 11.1304 44.5897 6.73553 43.6296C5.5967 43.3816 4.69848 43.7976 3.96866 44.6617C2.54914 46.3498 2.38874 48.2619 3.06242 50.238C3.56767 51.7181 4.71452 52.5661 6.27038 52.8782C7.86634 53.1982 9.45428 53.5582 11.0502 53.9102C17.009 55.2143 22.9678 56.5184 28.9266 57.8305C32.9927 58.7265 37.0668 59.6146 41.1329 60.5186C41.3975 60.5746 41.598 60.4946 41.8146 60.3746C44.5333 58.8465 47.2601 57.3184 49.9788 55.7823C52.8419 54.1742 55.697 52.5581 58.5601 50.95C61.8804 49.0859 65.2006 47.2378 68.5128 45.3737C69.9003 44.5977 71.2797 43.8136 72.6591 43.0296C73.1323 42.7656 73.7258 42.8136 74.0786 43.1416C74.4074 43.4456 74.5037 43.9816 74.3032 44.4377C74.2069 44.6537 74.0465 44.8057 73.838 44.9177C71.9774 45.9657 70.1168 47.0138 68.2562 48.0619C65.8021 49.446 63.348 50.822 60.8939 52.2061C58.6323 53.4702 56.3707 54.7343 54.1171 55.9984C51.9277 57.2224 49.7463 58.4625 47.5568 59.6866C45.7924 60.6786 44.0281 61.6787 42.2557 62.6628C41.9268 62.8468 41.566 62.8948 41.173 62.8068C34.0834 61.2467 26.9858 59.6866 19.8882 58.1345C15.397 57.1424 10.8898 56.1424 6.37463 55.1663C5.42027 54.9583 4.4659 54.7663 3.62381 54.2382C1.87547 53.1582 0.897043 51.5661 0.584267 49.574C0.33565 48.0059 0.480008 46.4618 1.12962 44.9977C1.53863 44.0696 2.13211 43.2696 2.894 42.6055C3.12657 42.3975 3.08648 42.2775 2.87796 42.1095C1.21784 40.7254 0.520108 38.9093 0.480008 36.7892C0.439909 34.9491 0.937142 33.293 2.08399 31.8369C2.32459 31.5329 2.59726 31.2529 2.894 31.0128C3.11054 30.8448 3.13459 30.7168 2.91806 30.5488C1.47448 29.3888 0.728625 27.8527 0.520108 26.0445C0.191292 23.2044 1.19378 20.1562 3.9446 18.7241C5.16363 18.0921 6.38265 17.452 7.58564 16.796C9.96755 15.4999 12.3414 14.1958 14.7153 12.8918C16.2151 12.0757 17.7148 11.2597 19.2145 10.4356C21.3799 9.25153 23.5452 8.06746 25.7106 6.88339C27.4188 5.94734 29.1271 5.01128 30.8433 4.08322C32.9847 2.91515 35.134 1.74708 37.2753 0.579011C37.6603 0.370998 38.0452 0.282993 38.5023 0.378999C44.2446 1.65108 49.9869 2.90715 55.7211 4.16323C60.7255 5.25929 65.7379 6.36336 70.7423 7.46743C71.6566 7.66744 72.5709 7.85945 73.4771 8.07546C74.0546 8.21147 74.3513 8.53149 74.4155 9.02752C74.4796 9.52355 74.231 9.93157 73.7177 10.2196C70.8306 11.8357 67.9514 13.4678 65.0643 15.0839C62.6102 16.46 60.1481 17.8361 57.694 19.2121C54.8309 20.8202 51.9758 22.4363 49.1127 24.0444C46.843 25.3165 44.5654 26.5806 42.2958 27.8527C41.9108 28.0687 41.5259 28.0927 41.1008 27.9967C35.3345 26.7566 29.5602 25.5245 23.7939 24.2924C18.1559 23.0844 12.5179 21.8683 6.87989 20.6602C6.82375 20.6522 6.77563 20.6442 6.72751 20.6282C5.45235 20.1882 4.56214 20.7322 3.77619 21.7003C2.4529 23.3244 2.36468 26.4206 3.55163 27.9727C4.20124 28.8287 5.01927 29.4048 6.06186 29.6368C8.60417 30.1968 11.1465 30.7408 13.6888 31.3009C16.9609 32.0129 20.233 32.725 23.5132 33.437C24.3312 33.613 24.7081 34.069 24.6199 34.7891C24.5557 35.2931 24.1548 35.6691 23.6495 35.6771C22.9197 35.6851 22.23 35.4451 21.5242 35.2931C16.5679 34.221 11.6116 33.133 6.65533 32.0529C5.62076 31.8289 4.77867 32.2049 4.09698 32.941C3.13459 33.965 2.6534 35.1891 2.7336 36.5972Z" fill="#6306B2"/>
<path d="M34.0036 35.7576C34.5891 35.8856 35.2788 36.0296 35.9685 36.1817C37.6607 36.5577 39.3609 36.9257 41.0531 37.3097C41.3418 37.3737 41.5744 37.3097 41.815 37.1737C44.9668 35.3976 48.1187 33.6295 51.2705 31.8614C54.5586 30.0133 57.8468 28.1572 61.143 26.3091C64.4552 24.4449 67.7754 22.5968 71.0957 20.7327C71.6089 20.4447 72.1142 20.1487 72.6275 19.8607C73.2851 19.4846 73.9828 19.6447 74.2956 20.2287C74.6164 20.8367 74.3838 21.4608 73.7182 21.8288C70.831 23.4449 67.9519 25.077 65.0647 26.6931C62.378 28.1972 59.6834 29.7013 56.9967 31.2054C54.5667 32.5734 52.1366 33.9415 49.7066 35.3096C47.5091 36.5417 45.3117 37.7897 43.1062 39.0058C41.5183 39.8859 42.0396 39.7659 40.2511 39.3818C38.0858 38.9178 35.9204 38.4378 33.755 37.9658C33.3219 37.8698 32.9771 37.6937 32.8167 37.2537C32.536 36.5177 33.0894 35.7256 34.0036 35.7576Z" fill="#6306B2"/>
<path d="M31.7181 41.8687C30.86 40.9166 30.0019 39.9965 29.1758 39.0605C28.9753 38.8365 28.839 38.7725 28.5583 38.9565C27.8285 39.4445 27.0746 39.8925 26.3288 40.3486C26.2085 40.2046 26.2566 40.0685 26.2566 39.9405C26.2566 36.3163 26.2566 32.6921 26.2486 29.0679C26.2486 28.7239 26.2967 28.6199 26.6736 28.6919C28.3016 28.9799 29.9297 29.2359 31.5577 29.4999C31.7261 29.5239 31.7903 29.6039 31.7823 29.7639C31.7823 29.8199 31.7823 29.8679 31.7823 29.9239C31.7823 33.7882 31.7823 37.6524 31.7823 41.5166C31.7903 41.6206 31.8224 41.7326 31.7181 41.8687Z" fill="#F4A01F"/>
<path d="M33.4893 12.6674C34.4677 12.1153 35.382 11.5953 36.2962 11.0833C37.6195 10.3392 38.9428 9.59517 40.2661 8.84313C40.4345 8.74712 40.5949 8.69912 40.7954 8.73912C44.5567 9.57117 48.3181 10.3952 52.0794 11.2193C52.1676 11.2353 52.2558 11.2673 52.4082 11.3153C51.6142 11.7633 50.8604 12.1953 50.1145 12.6194C48.6629 13.4354 47.2113 14.2435 45.7597 15.0755C45.479 15.2355 45.2224 15.2835 44.8936 15.2115C41.1964 14.3875 37.4992 13.5874 33.8101 12.7714C33.7299 12.7474 33.6497 12.7154 33.4893 12.6674Z" fill="#F19E20"/>
</svg>
