<svg width="38" height="69" viewBox="0 0 38 69" fill="none" xmlns="http://www.w3.org/2000/svg">
<path d="M11.1895 0.525879H35.735C36.9008 0.525879 37.6645 1.75803 37.15 2.81185L27.5907 22.3642C26.8671 23.8396 27.9364 25.5662 29.5685 25.5662H34.738C36.2335 25.5662 37.1098 27.2523 36.2656 28.4926L9.13931 68.2215C8.60065 69.0159 7.36252 68.5619 7.45095 67.6054L10.3131 36.153C10.3935 35.2856 9.71818 34.5398 8.84988 34.5398H3.83304C1.93565 34.5398 0.552802 32.7321 1.03519 30.8758L8.40769 2.68215C8.74536 1.40946 9.88701 0.525879 11.1895 0.525879Z" fill="#2A3CBE"/>
<path d="M8.38348 67.7673C8.35937 67.7673 8.31917 67.7511 8.30309 67.7349C8.29505 67.7268 8.28701 67.7187 8.29505 67.6863L11.1572 36.2339C11.2135 35.5773 10.9964 34.9288 10.5623 34.4424C10.1201 33.956 9.50102 33.6804 8.84979 33.6804H3.83296C3.19781 33.6804 2.61091 33.3886 2.21696 32.8779C1.83105 32.3672 1.69437 31.7187 1.86321 31.1026L9.2357 2.90894C9.46886 2.01725 10.2728 1.39307 11.1894 1.39307H35.7349C36.0967 1.39307 36.2816 1.63625 36.3459 1.73353C36.4102 1.83891 36.5389 2.11453 36.3781 2.43878L26.8268 21.983C26.3605 22.9477 26.4087 24.0582 26.9715 24.9742C27.5343 25.8821 28.5071 26.4253 29.5684 26.4253H34.738C35.1158 26.4253 35.4455 26.6279 35.6223 26.9603C35.7992 27.3007 35.7751 27.6817 35.558 27.9979L8.43172 67.7349C8.4076 67.7673 8.39956 67.7673 8.38348 67.7673Z" fill="#6371EB"/>
<path opacity="0.9" d="M10.1841 62.6855C10.1358 62.6855 10.0876 62.6774 10.0393 62.6611C9.85442 62.5963 9.73383 62.4099 9.75795 62.2072L10.4896 54.182C10.5056 53.9955 10.6745 53.8496 10.8594 53.8739C11.0443 53.8901 11.189 54.0604 11.1649 54.2468L10.5217 61.3236L22.7663 43.3925C22.8709 43.2385 23.0879 43.198 23.2407 43.3033C23.3935 43.4087 23.4337 43.6276 23.3291 43.7816L10.5458 62.499C10.4574 62.6206 10.3207 62.6855 10.1841 62.6855Z" fill="#060B16"/>
<path opacity="0.9" d="M6.48687 20.5075C6.45471 20.5075 6.43059 20.5075 6.39843 20.4994C6.21351 20.4508 6.109 20.2644 6.15723 20.0779L10.555 3.25737C10.6274 2.96555 10.8927 2.771 11.1902 2.771H15.612C15.797 2.771 15.9497 2.92502 15.9497 3.11146C15.9497 3.2979 15.797 3.45192 15.612 3.45192H11.2062L6.8165 20.2563C6.7763 20.4103 6.63962 20.5075 6.48687 20.5075Z" fill="#060B16"/>
</svg>
