<svg width="63" height="70" viewBox="0 0 63 70" fill="none" xmlns="http://www.w3.org/2000/svg">
<path d="M0.243164 34.9735C0.243164 24.477 0.243164 13.9805 0.243164 3.48399C0.243164 1.14613 0.863413 0.525879 3.20127 0.525879C21.9757 0.525879 40.7263 0.525879 59.5008 0.525879C61.7671 0.525879 62.4112 1.14613 62.4112 3.41242C62.4112 24.4532 62.4112 45.4701 62.4112 66.5108C62.4112 68.7771 61.7671 69.3973 59.5008 69.3973C40.7263 69.3973 21.9757 69.3973 3.20127 69.3973C0.839557 69.3973 0.243164 68.7771 0.243164 66.4392C0.243164 55.9666 0.243164 45.4701 0.243164 34.9735ZM45.1158 64.984C45.1158 44.8975 45.1158 24.9303 45.1158 4.93919C35.6689 4.93919 26.3175 4.93919 16.8945 4.93919C16.8945 24.978 16.8945 44.9452 16.8945 64.984C26.3175 64.984 35.6689 64.984 45.1158 64.984ZM58.0456 20.1591C55.159 20.1591 52.3918 20.1591 49.5768 20.1591C49.5768 24.3816 49.5768 28.5325 49.5768 32.7072C52.4395 32.7072 55.2306 32.7072 58.0456 32.7072C58.0456 28.5086 58.0456 24.3816 58.0456 20.1591ZM49.5768 37.1683C49.5768 41.4384 49.5768 45.5655 49.5768 49.7402C52.4395 49.7402 55.2306 49.7402 57.9979 49.7402C57.9979 45.4939 57.9979 41.343 57.9979 37.1683C55.159 37.1683 52.4395 37.1683 49.5768 37.1683ZM12.4096 32.7311C12.4096 28.5086 12.4096 24.3577 12.4096 20.1591C9.78545 20.1591 7.23289 20.1591 4.63262 20.1591C4.63262 24.3816 4.63262 28.5325 4.63262 32.7311C7.23289 32.7311 9.76159 32.7311 12.4096 32.7311ZM12.3857 49.7641C12.3857 45.5178 12.3857 41.3669 12.3857 37.1921C9.7616 37.1921 7.23289 37.1921 4.65647 37.1921C4.65647 41.4384 4.65647 45.5893 4.65647 49.7641C7.30446 49.7641 9.83316 49.7641 12.3857 49.7641ZM49.5529 15.6504C52.4156 15.6504 55.1829 15.6504 57.974 15.6504C57.974 12.0243 57.974 8.46983 57.974 4.93919C55.1113 4.93919 52.3441 4.93919 49.5529 4.93919C49.5529 8.5414 49.5529 12.072 49.5529 15.6504ZM49.5768 54.249C49.5768 57.875 49.5768 61.4057 49.5768 64.9602C52.4633 64.9602 55.2545 64.9602 57.9979 64.9602C57.9979 61.3341 57.9979 57.8273 57.9979 54.249C55.159 54.249 52.4156 54.249 49.5768 54.249ZM12.4334 4.96304C9.73774 4.96304 7.18518 4.96304 4.63262 4.96304C4.63262 8.58911 4.63262 12.0959 4.63262 15.6504C7.25674 15.6504 9.80931 15.6504 12.4334 15.6504C12.4334 12.0482 12.4334 8.5414 12.4334 4.96304ZM12.4096 65.0079C12.4096 61.358 12.4096 57.8273 12.4096 54.2728C9.78545 54.2728 7.23289 54.2728 4.65647 54.2728C4.65647 57.8989 4.65647 61.4534 4.65647 65.0079C7.2806 65.0079 9.80931 65.0079 12.4096 65.0079Z" fill="url(#paint0_linear_291_2548)"/>
<path d="M22.2613 34.9259C22.2613 32.3733 22.2375 29.8446 22.2613 27.292C22.2852 25.1689 23.8835 24.1908 25.7204 25.2404C30.1576 27.7691 34.5947 30.3456 39.0319 32.922C40.8927 33.9955 40.9165 35.9039 39.0796 36.9775C34.6186 39.5777 30.1576 42.1541 25.6727 44.7067C23.9074 45.7086 22.2852 44.7306 22.2613 42.679C22.2613 40.1026 22.2613 37.5023 22.2613 34.9259ZM33.9268 34.9736C31.3742 33.4945 29.0602 32.1586 26.6269 30.7511C26.6269 33.6377 26.6269 36.3095 26.6269 39.196C29.0602 37.7885 31.3742 36.4526 33.9268 34.9736Z" fill="url(#paint1_linear_291_2548)"/>
<defs>
<linearGradient id="paint0_linear_291_2548" x1="31.3419" y1="69.3974" x2="31.3419" y2="0.572055" gradientUnits="userSpaceOnUse">
<stop offset="4.74173e-07" stop-color="#5F9630"/>
<stop offset="1" stop-color="#A6B953"/>
</linearGradient>
<linearGradient id="paint1_linear_291_2548" x1="31.3509" y1="45.1031" x2="31.3509" y2="24.8298" gradientUnits="userSpaceOnUse">
<stop offset="4.74173e-07" stop-color="#5F9630"/>
<stop offset="1" stop-color="#A6B953"/>
</linearGradient>
</defs>
</svg>
