<svg width="82" height="73" viewBox="0 0 82 73" fill="none" xmlns="http://www.w3.org/2000/svg">
<path d="M74.1759 47.5547C69.6212 49.6008 65.3671 52.0284 61.0783 54.6757C61.1246 53.7046 61.0436 52.8608 60.8124 52.0284C60.72 51.6932 61.0436 51.6585 61.217 51.566C63.1591 50.5372 65.1243 49.5661 67.1358 48.676C68.2571 48.1789 69.39 47.6934 70.546 47.2426C71.6442 46.8148 72.7656 46.7686 73.8406 47.3466C73.9447 47.3813 74.0256 47.4506 74.1759 47.5547Z" fill="#F558D0"/>
<path d="M67.9549 45.717C66.718 46.214 65.562 46.6764 64.4175 47.1389C62.7991 47.7978 61.1692 48.4451 59.6895 49.4046C59.4698 49.5433 59.3311 49.5549 59.1577 49.3468C58.8109 48.9307 58.4294 48.5492 57.9786 48.2486C57.6433 48.0174 57.7243 47.8903 58.0364 47.7515C59.2502 47.2082 60.5102 46.7689 61.7472 46.3181C62.6489 45.9828 63.5505 45.636 64.4522 45.3124C65.6314 44.9078 66.7758 44.8962 67.9549 45.717Z" fill="#F558D0"/>
<path d="M81.03 52.0046C80.7295 50.6289 79.8509 49.7851 78.4637 49.5076C77.4117 49.2995 76.4407 49.6695 75.4927 50.0625C71.2271 51.8659 67.2042 54.1548 63.2968 56.6286C62.0484 57.4147 60.8461 58.2933 59.4589 58.8597C57.3318 59.7267 55.0661 59.9926 52.8234 60.3163C48.2225 60.9752 43.5985 61.2873 38.9513 61.4954C38.0265 61.4954 37.1017 61.507 36.1769 61.4954C35.5527 61.4839 35.1249 61.1139 35.0903 60.5937C35.0556 60.062 35.4949 59.6111 36.1075 59.5418C38.1537 59.3337 40.2114 59.1487 42.2575 58.9522C46.107 58.5938 49.9681 58.247 53.8176 57.8656C55.3666 57.7153 56.4648 56.8598 57.0544 55.4264C57.5977 54.097 57.3897 52.8485 56.488 51.7387C55.5632 50.5943 54.3378 50.3168 52.8928 50.3284C48.3497 50.3515 43.8066 50.2012 39.2519 50.2128C36.7202 50.2243 34.2811 49.8544 31.8419 49.2071C27.9693 48.1667 24.0273 47.9355 20.0622 48.7678C18.2241 49.1493 16.4785 49.7966 14.7561 50.5365C14.5133 50.6405 14.3052 50.7908 14.0625 50.4671C13.2186 49.3111 12.0395 48.8718 10.6291 48.9759C8.45584 49.1377 6.2941 49.3342 4.12081 49.4267C2.00531 49.5307 -0.110179 51.2185 0.144143 53.9236C0.294424 55.5882 0.386904 57.2644 0.502505 58.9406C0.733707 62.3162 0.964908 65.7033 1.20767 69.0788C1.26547 69.8418 1.56603 70.5354 2.07468 71.125C2.97636 72.1654 4.12081 72.6856 5.49646 72.5931C7.85471 72.4428 10.2245 72.281 12.5828 72.096C13.6579 72.0151 14.6174 71.5643 15.1607 70.651C15.5768 69.969 16.0624 69.8765 16.7213 69.9458C16.8369 69.9574 16.9525 69.9574 17.0681 69.9574C24.0157 70.258 30.9633 70.5585 37.9109 70.8707C40.8703 70.9978 43.8412 71.1481 46.8006 71.2868C48.0491 71.3446 49.2976 71.3099 50.5461 71.1365C52.9621 70.8128 55.1008 69.784 57.1816 68.5702C63.3893 64.9172 69.6202 61.2989 75.8395 57.669C77.0996 56.9292 78.3943 56.2356 79.5966 55.4033C80.7757 54.6056 81.3421 53.4496 81.03 52.0046ZM8.0628 68.9979C6.80275 68.9748 5.75078 67.9459 5.76234 66.7321C5.76234 65.4836 6.88367 64.4432 8.18996 64.4664C9.51937 64.4779 10.502 65.4605 10.4904 66.7668C10.4673 68.0616 9.43845 69.021 8.0628 68.9979Z" fill="#F558D0"/>
<path d="M43.9095 0.713052C31.4015 0.689932 21.2402 10.7588 21.2171 23.2205C21.194 35.7285 31.309 45.8667 43.8402 45.8667C56.3366 45.8783 66.4864 35.7632 66.4979 23.3014C66.4979 10.8628 56.3828 0.736173 43.9095 0.713052ZM43.7939 41.2311C33.8869 41.1733 25.8064 33.0466 25.8527 23.1858C25.9105 13.3945 34.0834 5.31396 43.898 5.34864C53.8165 5.38332 61.8854 13.5447 61.8161 23.4633C61.7352 33.2547 53.5969 41.2889 43.7939 41.2311Z" fill="#F558D0"/>
<path d="M43.703 37.3246C41.8881 37.3246 41.8881 37.3246 41.8881 35.5097C41.8881 34.1918 42.0499 34.1225 40.5586 33.9259C39.5992 33.7988 38.6859 33.4982 37.7842 33.1398C36.6976 32.7006 36.4664 32.2382 36.7785 31.1284C36.9519 30.4926 37.1253 29.8683 37.3334 29.2441C37.553 28.5736 37.7727 28.4927 38.4085 28.8164C39.7494 29.51 41.1598 29.9146 42.6626 29.9839C43.2984 30.0186 43.9342 29.9493 44.5469 29.7412C45.333 29.4753 45.911 28.9898 46.0612 28.1575C46.2231 27.2904 45.83 26.62 45.1596 26.0998C44.466 25.5564 43.6336 25.279 42.836 24.9669C41.6684 24.516 40.5008 24.0536 39.4604 23.3485C37.553 22.0422 36.6629 20.285 36.9403 17.9615C37.2062 15.7766 38.3738 14.2738 40.339 13.3606C40.7436 13.1756 41.1482 13.0022 41.5759 12.8635C42.0499 12.7016 42.2349 12.3895 42.2233 11.904C42.2117 11.326 42.2233 10.748 42.2233 10.17C42.2233 9.69601 42.4429 9.45325 42.9285 9.45325C43.5874 9.45325 44.2348 9.45325 44.8937 9.46481C45.3561 9.47637 45.5988 9.73069 45.6104 10.1931C45.622 10.6555 45.6335 11.1179 45.6335 11.5803C45.6335 12.1236 45.8647 12.4357 46.4196 12.5282C47.3907 12.6901 48.3501 12.8866 49.2634 13.2912C50.1304 13.6727 50.2344 13.9039 49.9686 14.8056C49.772 15.4645 49.6102 16.1465 49.4021 16.8055C49.1825 17.4875 48.9281 17.5915 48.2808 17.2794C46.7549 16.5627 45.1711 16.2968 43.5065 16.5049C43.2984 16.528 43.0903 16.5858 42.8938 16.6667C42.2349 16.9211 41.7725 17.3719 41.7031 18.1002C41.6337 18.8054 42.0152 19.314 42.5817 19.6839C43.2637 20.1232 43.9804 20.4931 44.7318 20.8052C45.7491 21.2214 46.778 21.6145 47.7259 22.1809C49.9917 23.5219 51.2402 25.4986 51.009 28.1575C50.7778 30.8163 49.1709 32.5156 46.7549 33.5098C46.5815 33.5791 46.3965 33.6369 46.2115 33.7063C45.7376 33.8797 45.4948 34.2034 45.4948 34.712C45.4948 35.2553 45.4948 35.7871 45.4948 36.3304C45.4832 37.1512 45.2983 37.3362 44.466 37.3362C44.2116 37.3246 43.9573 37.3246 43.703 37.3246Z" fill="#F558D0"/>
</svg>
