<svg width="63" height="68" viewBox="0 0 63 68" fill="none" xmlns="http://www.w3.org/2000/svg">
<path d="M27.8406 61.038C27.8406 59.9274 27.5409 59.6277 26.4303 59.6277C23.2571 59.6277 20.0839 59.6101 16.9107 59.6453C16.2408 59.6453 16.0821 59.4514 16.135 58.8344C16.1879 58.0587 16.0997 57.283 16.1526 56.525C16.2055 55.7669 15.9234 55.1852 15.4474 54.6211C11.2341 49.5792 7.05605 44.5373 2.86035 39.4954C2.5254 39.0899 2.402 38.7021 2.402 38.1908C2.50777 34.7532 2.57829 31.3155 2.66643 27.8955C2.70169 26.5557 3.58314 25.639 4.8348 25.6566C6.10408 25.6743 6.93265 26.5733 6.93265 27.9484C6.93265 29.87 6.95028 31.7739 6.91502 33.6954C6.89739 34.2596 7.07368 34.7003 7.46152 35.1234C10.6171 38.6139 13.7727 42.1221 16.9283 45.6303C18.0565 46.8819 18.0389 46.8819 19.2553 45.7184C19.5021 45.4716 19.5197 45.3482 19.2906 45.0838C18.5149 44.2552 17.7745 43.4266 17.0341 42.5805C16.2055 41.6637 15.3769 40.7647 14.566 39.8303C14.0371 39.2133 13.9842 38.561 14.3368 37.944C14.6894 37.3446 15.324 37.0802 16.0292 37.186C16.5228 37.2741 16.8401 37.6091 17.1575 37.944C19.414 40.3592 21.6529 42.792 23.9094 45.1895C24.3325 45.6303 24.5264 46.1063 24.5264 46.7233C24.5088 49.6673 24.5264 52.629 24.5264 55.573C24.5264 57.142 24.5264 57.1244 26.0777 57.1068C26.4832 57.1068 26.6595 57.0186 26.6419 56.5602C26.6242 53.1402 26.6242 49.7378 26.6242 46.3178C26.6242 45.4716 26.3422 44.6959 25.7604 44.0789C23.2924 41.4169 20.8067 38.755 18.321 36.1106C17.6511 35.3878 16.7873 35.0529 15.7824 35.0176C14.1429 34.9824 13.0499 35.7933 12.239 37.2565C11.2517 36.1635 10.3174 35.0881 9.34782 34.048C9.10101 33.7836 9.0305 33.5015 9.0305 33.1666C9.04813 31.3332 9.06576 29.5174 9.04813 27.684C9.0305 25.3746 7.17945 23.5588 4.87006 23.5411C2.54303 23.5235 0.639097 25.304 0.58621 27.5782C0.480437 31.3684 0.409921 35.1587 0.321776 38.9313C0.304147 39.4425 0.445179 39.848 0.780129 40.2534C5.04635 45.3835 9.31256 50.5135 13.5611 55.6435C13.7727 55.8903 14.0548 56.1019 14.0548 56.4721C14.0548 57.3888 14.0548 58.3231 14.0548 59.2399C14.0548 59.469 14.0019 59.5924 13.7374 59.6277C13.0146 59.7158 12.7502 60.1918 12.7502 60.8794C12.7502 62.466 12.7678 64.0526 12.7502 65.6392C12.7502 66.168 12.8207 66.644 13.1557 67.0495C17.9155 67.0495 22.6753 67.0495 27.4352 67.0495C27.7877 66.7322 27.8759 66.3267 27.8759 65.8507C27.823 64.2465 27.8406 62.6423 27.8406 61.038ZM25.7252 62.5717C25.7075 62.748 25.7075 62.9243 25.6899 63.1006C22.076 63.1006 18.462 63.083 14.8481 63.083C14.7952 61.7432 14.7952 61.7432 16.0997 61.7432C19.0438 61.7432 21.9878 61.7784 24.9142 61.7255C25.637 61.7079 25.8309 61.9371 25.7252 62.5717Z" fill="#3483B9"/>
<path d="M62.3925 40.2538C62.7098 39.8836 62.8685 39.4958 62.8508 39.0022C62.7451 35.1943 62.6922 31.3864 62.5864 27.5786C62.5159 25.2516 60.612 23.5063 58.232 23.5415C55.9403 23.5768 54.1245 25.4455 54.1069 27.7549C54.1069 29.553 54.1069 31.3688 54.1069 33.167C54.1069 33.3609 54.1774 33.5901 54.0363 33.7487C53.0139 34.9122 51.9738 36.0758 50.916 37.2569C49.3999 34.4186 46.1386 34.4186 44.2346 36.6751C42.1544 39.1432 39.8626 41.4526 37.6414 43.7973C36.8833 44.5906 36.4955 45.4896 36.5308 46.6003C36.5484 47.7285 36.5308 48.8391 36.5308 49.9674C36.5308 52.982 36.5308 55.9965 36.5308 59.0287C36.5308 59.2403 36.707 59.5752 36.2663 59.6457C35.5435 59.7515 35.2967 60.2275 35.3144 60.915C35.332 62.5721 35.332 64.2293 35.3144 65.8688C35.3144 66.3447 35.4201 66.7326 35.7551 67.0675C40.5149 67.0675 45.2747 67.0675 50.0346 67.0675C50.3695 66.6797 50.44 66.239 50.44 65.7277C50.4224 64.194 50.44 62.6426 50.44 61.1089C50.44 59.963 50.1403 59.6634 49.0121 59.6634C45.7683 59.6634 42.5246 59.6634 39.2985 59.6634C38.8578 59.6634 38.6815 59.5752 38.6815 59.0992C38.6991 54.9212 38.6991 50.7254 38.6991 46.5474C38.6991 46.1067 38.8401 45.7364 39.1398 45.4015C41.5021 42.8805 43.8468 40.342 46.2267 37.821C46.9495 37.0454 47.9543 36.9748 48.6242 37.6095C49.3118 38.2618 49.2941 39.1785 48.5361 40.0247C47.2139 41.4879 45.9094 42.9334 44.5872 44.379C43.6352 45.4368 43.6529 45.4015 44.6577 46.3711C45.1337 46.8294 45.3629 46.706 45.7331 46.2829C49.1002 42.528 52.485 38.773 55.8698 35.0356C56.1871 34.6831 56.3105 34.3129 56.3105 33.8369C56.2928 31.8624 56.2929 29.8703 56.2929 27.8959C56.2929 26.6266 57.1567 25.7099 58.3378 25.6923C59.5895 25.657 60.5062 26.5385 60.5414 27.8254C60.6296 31.3688 60.7001 34.9122 60.7882 38.4557C60.8059 38.8435 60.6825 39.1079 60.4533 39.4076C58.1615 42.1401 55.8874 44.8903 53.6132 47.6404C51.5683 50.0908 49.5409 52.5589 47.4784 55.0093C46.9142 55.6616 46.9319 56.4549 47.1258 57.1424C47.2668 57.636 47.972 57.2658 48.4303 57.354C48.5361 57.3716 48.6595 57.354 48.7653 57.354C49.0826 57.3892 49.2413 57.2482 49.1884 56.9485C49.0826 56.402 49.3999 56.0494 49.7172 55.6616C53.8953 50.4786 58.1439 45.3662 62.3925 40.2538ZM38.6991 61.7436C41.6079 61.7436 44.5167 61.7436 47.4255 61.7436C48.4303 61.7436 48.2893 61.6025 48.3069 62.6074C48.3069 62.7661 48.3069 62.9071 48.2893 63.0657C44.6753 63.0657 41.0614 63.0657 37.4651 63.0834C37.3593 61.7436 37.3593 61.7436 38.6991 61.7436Z" fill="#3483B9"/>
<path d="M48.2719 63.0822C48.2719 63.7169 48.5364 64.5278 48.1662 64.9333C47.7783 65.3564 46.9674 65.0567 46.3328 65.0743C43.5826 65.092 40.8325 65.0743 38.0824 65.092C37.5535 65.092 37.3772 64.9333 37.4301 64.4221C37.4654 63.9813 37.4477 63.5406 37.4477 63.0999C37.6769 62.8883 37.9766 62.8883 38.2587 62.8883C41.3261 62.8883 44.3936 62.8883 47.4786 62.8883C47.7607 62.8707 48.0428 62.8531 48.2719 63.0822Z" fill="#62B9E0"/>
<path d="M25.6905 63.1005C25.6905 63.6117 25.6728 64.1054 25.7081 64.6166C25.7257 64.9515 25.5847 65.075 25.2497 65.075C21.9355 65.075 18.6036 65.0573 15.2894 65.075C14.9191 65.075 14.8486 64.9163 14.8486 64.599C14.8663 64.0877 14.8663 63.5941 14.8663 63.0829C15.0778 62.889 15.3422 62.889 15.6067 62.889C18.7094 62.889 21.7945 62.889 24.8972 62.889C25.1792 62.8713 25.4613 62.889 25.6905 63.1005Z" fill="#62B9E0"/>
<path d="M52.8738 6.17652C50.3352 2.22763 46.545 0.235551 41.8557 0.217922C38.1007 0.200293 34.8922 1.75164 32.0892 4.14919C31.6485 4.5194 31.437 4.48414 31.0139 4.13156C28.2461 1.80453 25.0905 0.376583 21.4413 0.358954C20.6833 0.394212 19.9957 0.411841 19.2906 0.517615C11.8688 1.64587 6.82689 9.10293 8.55453 16.4366C9.31258 19.6451 11.0226 22.2894 13.332 24.5812C19.0262 30.2753 24.7379 35.9871 30.4321 41.6813C31.3488 42.598 31.7543 42.598 32.6886 41.6813C38.3299 36.04 43.9712 30.3988 49.6124 24.7575C50.7231 23.6468 51.7632 22.4833 52.5918 21.1435C55.6063 16.2074 56.0823 11.1655 52.8738 6.17652ZM49.5948 21.6724C49.1188 22.2542 48.59 22.783 48.0611 23.3119C42.7371 28.6359 37.4132 33.9598 32.0892 39.3014C31.7014 39.6892 31.4898 39.7774 31.0491 39.3367C25.4607 33.713 19.8371 28.1246 14.2663 22.4833C12.2037 20.4031 10.8287 17.9174 10.4232 14.9734C10.3527 14.4974 10.3527 14.0038 10.3174 13.5278C10.3351 7.85128 14.6894 3.05619 20.3131 2.50969C23.7507 2.17474 26.6595 3.37351 29.2862 5.45373C29.7446 5.82394 30.1853 6.22941 30.626 6.63487C31.3312 7.28715 31.8072 7.30478 32.4947 6.63487C34.3457 4.85435 36.426 3.46166 38.9117 2.73887C45.2581 0.905453 51.8866 5.22456 52.8033 11.7649C53.3322 15.5728 51.9571 18.7812 49.5948 21.6724Z" fill="#3483B9"/>
<path d="M31.6134 9.65063C32.5301 9.65063 33.4645 9.65063 34.3812 9.65063C35.2274 9.66826 35.5976 10.0208 35.5976 10.867C35.5976 12.1892 35.6328 13.5114 35.5799 14.8336C35.5623 15.3801 35.7562 15.4858 36.2498 15.4858C37.5544 15.4506 38.8413 15.4682 40.1459 15.4858C41.0273 15.4858 41.3975 15.856 41.3975 16.7199C41.3975 18.518 41.3975 20.3338 41.3975 22.132C41.3975 23.0487 41.0273 23.4189 40.1282 23.4189C38.7884 23.4189 37.4486 23.4365 36.0912 23.4189C35.6857 23.4189 35.5623 23.5247 35.5799 23.9477C35.5976 25.2876 35.5976 26.6274 35.5799 27.9848C35.5799 28.8839 35.2097 29.2541 34.293 29.2541C32.4949 29.2541 30.6791 29.2541 28.8809 29.2541C27.9995 29.2541 27.6469 28.8839 27.6469 28.0024C27.6469 26.6979 27.6116 25.3933 27.6645 24.1064C27.6822 23.5423 27.4882 23.4189 26.9594 23.4189C25.6548 23.4541 24.3679 23.4365 23.0634 23.4365C22.2172 23.4365 21.847 23.0663 21.847 22.2201C21.8293 20.3691 21.8293 18.518 21.847 16.667C21.847 15.8384 22.2172 15.4858 23.0634 15.4858C24.4032 15.4858 25.743 15.4682 27.1004 15.4858C27.5411 15.4858 27.6645 15.3624 27.6645 14.9217C27.6469 13.5995 27.6469 12.2774 27.6645 10.9552C27.6645 9.98559 27.9995 9.66826 28.9867 9.66826C29.8505 9.65063 30.732 9.65063 31.6134 9.65063Z" fill="#3483B9"/>
<path d="M33.4812 14.3218C33.4812 14.8507 33.4812 15.3796 33.4812 15.9084C33.4812 17.2835 33.7985 17.6008 35.2089 17.6008C36.3724 17.6008 37.5359 17.6185 38.717 17.5832C39.1754 17.5656 39.334 17.7066 39.3164 18.1826C39.2812 19.0464 39.2812 19.8926 39.3164 20.7564C39.334 21.1971 39.1578 21.3205 38.7347 21.3029C37.4301 21.2853 36.1432 21.2853 34.8386 21.3029C33.8338 21.3029 33.4988 21.6555 33.4812 22.6603C33.4812 23.9649 33.4636 25.2518 33.4812 26.5563C33.4812 26.9794 33.3578 27.1381 32.9171 27.1205C32.0356 27.0852 31.1542 27.1028 30.2727 27.1205C29.8673 27.1381 29.7439 26.9794 29.7439 26.5916C29.7615 25.34 29.7439 24.0883 29.7439 22.819C29.7439 21.6907 29.356 21.3029 28.2454 21.3029C26.9937 21.3029 25.7421 21.2853 24.4728 21.3029C24.0321 21.3029 23.891 21.1619 23.9087 20.7388C23.9439 19.875 23.9439 19.0288 23.9087 18.1649C23.891 17.6713 24.085 17.5832 24.5257 17.5832C25.795 17.6008 27.0819 17.6008 28.3512 17.5832C29.2855 17.5832 29.7262 17.1425 29.7262 16.2081C29.7262 14.9036 29.7439 13.6167 29.7262 12.3121C29.7262 11.9243 29.832 11.7656 30.2375 11.7656C31.1366 11.7833 32.0356 11.7833 32.9523 11.7656C33.3226 11.7656 33.4636 11.889 33.446 12.2592C33.4636 12.9468 33.4812 13.6343 33.4812 14.3218Z" fill="#62B9E0"/>
</svg>
