<svg width="73" height="69" viewBox="0 0 73 69" fill="none" xmlns="http://www.w3.org/2000/svg">
<path d="M36.4865 13.0928C36.6727 13.267 36.8356 13.4064 36.9984 13.5573C43.7234 20.2703 50.4368 26.9716 57.1618 33.6845C58.5114 35.0317 59.8611 36.3906 61.2224 37.7262C61.5714 38.063 61.6994 38.423 61.6994 38.8992C61.6878 44.1372 61.6878 49.3751 61.6878 54.6131C61.6878 57.714 61.6878 60.8266 61.6878 63.9275C61.6878 64.3921 61.6761 64.8567 61.5714 65.298C61.1526 67.2724 59.512 68.5732 57.441 68.5964C55.9634 68.608 54.4741 68.5964 52.9965 68.5964C49.9016 68.5964 46.8067 68.5964 43.7118 68.5964C43.4907 68.5964 43.2697 68.5732 42.9904 68.5499C42.9904 68.306 42.9904 68.1086 42.9904 67.8996C42.9904 62.1041 42.9904 56.3087 42.9904 50.5133C42.9904 48.9919 42.5832 47.5866 41.6641 46.3555C40.0817 44.2417 37.394 43.301 34.8576 43.9746C32.3328 44.6482 30.4247 46.82 30.1106 49.3983C30.064 49.8281 30.0291 50.2578 30.0291 50.6875C30.0291 56.4016 30.0291 62.1157 30.0291 67.8299C30.0291 68.0389 30.0291 68.2364 30.0291 68.4338C29.8197 68.6312 29.587 68.5848 29.3659 68.5848C26.7946 68.5848 24.2349 68.5848 21.6636 68.5848C19.6508 68.5848 17.6495 68.5964 15.6367 68.5732C15.1946 68.5732 14.7408 68.5151 14.322 68.399C12.5069 67.9112 11.3085 66.32 11.3085 64.4502C11.3085 55.8325 11.3085 47.2265 11.2969 38.6089C11.2969 38.2837 11.4016 38.0398 11.6343 37.8075C19.7904 29.6777 27.9465 21.5362 36.1026 13.3947C36.2189 13.3251 36.3469 13.2205 36.4865 13.0928Z" fill="url(#paint0_linear_291_2524)"/>
<path d="M36.4877 9.82989C36.3481 9.95764 36.2317 10.0622 36.127 10.1783C26.4235 19.8528 16.7316 29.539 7.03967 39.2251C6.53937 39.7245 5.99253 40.1542 5.30607 40.3749C3.56082 40.9324 1.79232 40.2704 0.849886 38.8418C-0.115814 37.3668 0.0470753 35.4041 1.24547 34.1149C1.36182 33.9871 1.48981 33.871 1.61779 33.7433C6.08561 29.2835 10.5418 24.8236 15.0212 20.3755C15.3237 20.0735 15.4517 19.7599 15.4517 19.3302C15.4401 15.4163 15.4401 11.5023 15.4401 7.57676C15.4401 6.84507 15.4401 6.84507 16.1731 6.84507C18.2325 6.84507 20.2919 6.84507 22.3396 6.84507C22.456 6.84507 22.5607 6.84507 22.677 6.84507C23.0144 6.8683 23.0493 6.90314 23.061 7.25156C23.0726 7.37932 23.061 7.50707 23.061 7.63483C23.061 8.99367 23.061 10.3409 23.061 11.6998C23.061 11.8623 23.061 12.0133 23.061 12.2108C23.2937 12.1643 23.3984 11.9901 23.5264 11.8623C26.8889 8.50588 30.2514 5.14942 33.6139 1.80457C33.8466 1.57228 34.1025 1.35162 34.3818 1.15418C35.7314 0.213439 37.8257 0.317966 39.1172 1.53744C39.2219 1.64197 39.3266 1.73488 39.4197 1.83941C50.1006 12.5011 60.7814 23.1628 71.4623 33.8246C71.9044 34.2659 72.3 34.7537 72.5094 35.346C73.3588 37.6572 71.9859 40.0845 69.6007 40.5143C68.4139 40.7233 67.3203 40.4562 66.3895 39.6432C66.2266 39.4922 66.0637 39.3412 65.9008 39.1786C56.2089 29.5041 46.5286 19.8412 36.8367 10.1667C36.7437 10.0506 36.6157 9.94603 36.4877 9.82989Z" fill="url(#paint1_linear_291_2524)"/>
<defs>
<linearGradient id="paint0_linear_291_2524" x1="36.4326" y1="68.6083" x2="36.4326" y2="12.9334" gradientUnits="userSpaceOnUse">
<stop offset="1.6303e-06" stop-color="#EB8A00"/>
<stop offset="1" stop-color="#EBB327"/>
</linearGradient>
<linearGradient id="paint1_linear_291_2524" x1="36.3981" y1="40.5872" x2="36.3981" y2="0.410394" gradientUnits="userSpaceOnUse">
<stop offset="1.6303e-06" stop-color="#EB8A00"/>
<stop offset="1" stop-color="#EBB327"/>
</linearGradient>
</defs>
</svg>
